%TF.GenerationSoftware,KiCad,Pcbnew,8.0.3-8.0.3-0~ubuntu24.04.1*%
%TF.CreationDate,2024-07-16T09:03:33+03:00*%
%TF.ProjectId,displinux,64697370-6c69-46e7-9578-2e6b69636164,rev?*%
%TF.SameCoordinates,Original*%
%TF.FileFunction,Paste,Bot*%
%TF.FilePolarity,Positive*%
%FSLAX46Y46*%
G04 Gerber Fmt 4.6, Leading zero omitted, Abs format (unit mm)*
G04 Created by KiCad (PCBNEW 8.0.3-8.0.3-0~ubuntu24.04.1) date 2024-07-16 09:03:33*
%MOMM*%
%LPD*%
G01*
G04 APERTURE LIST*
G04 Aperture macros list*
%AMRoundRect*
0 Rectangle with rounded corners*
0 $1 Rounding radius*
0 $2 $3 $4 $5 $6 $7 $8 $9 X,Y pos of 4 corners*
0 Add a 4 corners polygon primitive as box body*
4,1,4,$2,$3,$4,$5,$6,$7,$8,$9,$2,$3,0*
0 Add four circle primitives for the rounded corners*
1,1,$1+$1,$2,$3*
1,1,$1+$1,$4,$5*
1,1,$1+$1,$6,$7*
1,1,$1+$1,$8,$9*
0 Add four rect primitives between the rounded corners*
20,1,$1+$1,$2,$3,$4,$5,0*
20,1,$1+$1,$4,$5,$6,$7,0*
20,1,$1+$1,$6,$7,$8,$9,0*
20,1,$1+$1,$8,$9,$2,$3,0*%
G04 Aperture macros list end*
%ADD10RoundRect,0.225000X0.250000X-0.225000X0.250000X0.225000X-0.250000X0.225000X-0.250000X-0.225000X0*%
%ADD11RoundRect,0.200000X-0.275000X0.200000X-0.275000X-0.200000X0.275000X-0.200000X0.275000X0.200000X0*%
%ADD12RoundRect,0.225000X-0.225000X-0.250000X0.225000X-0.250000X0.225000X0.250000X-0.225000X0.250000X0*%
%ADD13RoundRect,0.250000X-0.615000X0.435000X-0.615000X-0.435000X0.615000X-0.435000X0.615000X0.435000X0*%
%ADD14RoundRect,0.125000X-0.125000X0.250000X-0.125000X-0.250000X0.125000X-0.250000X0.125000X0.250000X0*%
%ADD15RoundRect,0.150000X-0.150000X0.587500X-0.150000X-0.587500X0.150000X-0.587500X0.150000X0.587500X0*%
%ADD16RoundRect,0.200000X0.200000X0.275000X-0.200000X0.275000X-0.200000X-0.275000X0.200000X-0.275000X0*%
%ADD17RoundRect,0.225000X0.225000X0.250000X-0.225000X0.250000X-0.225000X-0.250000X0.225000X-0.250000X0*%
%ADD18R,1.800000X1.000000*%
%ADD19R,2.800000X0.850000*%
%ADD20RoundRect,0.200000X-0.200000X-0.275000X0.200000X-0.275000X0.200000X0.275000X-0.200000X0.275000X0*%
%ADD21R,1.300000X1.100000*%
%ADD22R,0.850000X2.800000*%
%ADD23RoundRect,0.225000X-0.250000X0.225000X-0.250000X-0.225000X0.250000X-0.225000X0.250000X0.225000X0*%
%ADD24R,0.700000X1.200000*%
%ADD25R,1.000000X0.800000*%
%ADD26R,1.000000X2.800000*%
%ADD27R,1.000000X1.200000*%
%ADD28R,1.300000X1.900000*%
%ADD29RoundRect,0.075000X-0.662500X-0.075000X0.662500X-0.075000X0.662500X0.075000X-0.662500X0.075000X0*%
%ADD30RoundRect,0.075000X-0.075000X-0.662500X0.075000X-0.662500X0.075000X0.662500X-0.075000X0.662500X0*%
%ADD31RoundRect,0.243750X0.456250X-0.243750X0.456250X0.243750X-0.456250X0.243750X-0.456250X-0.243750X0*%
%ADD32RoundRect,0.150000X0.200000X-0.150000X0.200000X0.150000X-0.200000X0.150000X-0.200000X-0.150000X0*%
%ADD33R,2.000000X1.600000*%
%ADD34RoundRect,0.150000X0.150000X-0.512500X0.150000X0.512500X-0.150000X0.512500X-0.150000X-0.512500X0*%
%ADD35RoundRect,0.150000X0.150000X-0.587500X0.150000X0.587500X-0.150000X0.587500X-0.150000X-0.587500X0*%
%ADD36RoundRect,0.150000X0.512500X0.150000X-0.512500X0.150000X-0.512500X-0.150000X0.512500X-0.150000X0*%
%ADD37RoundRect,0.200000X0.275000X-0.200000X0.275000X0.200000X-0.275000X0.200000X-0.275000X-0.200000X0*%
G04 APERTURE END LIST*
D10*
%TO.C,C10*%
X223500000Y-60000000D03*
X223500000Y-58450000D03*
%TD*%
D11*
%TO.C,R51*%
X247460000Y-112700000D03*
X247460000Y-114350000D03*
%TD*%
D12*
%TO.C,C3*%
X256935000Y-71470000D03*
X258485000Y-71470000D03*
%TD*%
D13*
%TO.C,U8*%
X226500000Y-89300000D03*
X224350000Y-89300000D03*
X226500000Y-91000000D03*
X224350000Y-91000000D03*
D14*
X223520000Y-87450000D03*
X224790000Y-87450000D03*
X226060000Y-87450000D03*
X227330000Y-87450000D03*
X227330000Y-92850000D03*
X226060000Y-92850000D03*
X224790000Y-92850000D03*
X223520000Y-92850000D03*
%TD*%
D15*
%TO.C,U5*%
X222060000Y-112700000D03*
X223960000Y-112700000D03*
X223010000Y-114575000D03*
%TD*%
D12*
%TO.C,C58*%
X253712500Y-81562500D03*
X255262500Y-81562500D03*
%TD*%
D16*
%TO.C,R41*%
X245295000Y-100310000D03*
X243645000Y-100310000D03*
%TD*%
D10*
%TO.C,C46*%
X247500000Y-95500000D03*
X247500000Y-93950000D03*
%TD*%
D17*
%TO.C,C19*%
X258535000Y-83840000D03*
X256985000Y-83840000D03*
%TD*%
D18*
%TO.C,Y2*%
X234000000Y-91500000D03*
X234000000Y-94000000D03*
%TD*%
D19*
%TO.C,L2*%
X263220000Y-101530000D03*
X263220000Y-99180000D03*
%TD*%
D10*
%TO.C,C49*%
X244350000Y-95500000D03*
X244350000Y-93950000D03*
%TD*%
D20*
%TO.C,R21*%
X222080000Y-52780000D03*
X223730000Y-52780000D03*
%TD*%
D10*
%TO.C,C5*%
X253200000Y-77280000D03*
X253200000Y-75730000D03*
%TD*%
D11*
%TO.C,R50*%
X245460000Y-112700000D03*
X245460000Y-114350000D03*
%TD*%
D21*
%TO.C,X1*%
X235400000Y-78800000D03*
X233300000Y-78800000D03*
X233300000Y-77150000D03*
X235400000Y-77150000D03*
%TD*%
D22*
%TO.C,L3*%
X241880000Y-103010000D03*
X244230000Y-103010000D03*
%TD*%
D23*
%TO.C,C4*%
X264000000Y-68500000D03*
X264000000Y-70050000D03*
%TD*%
%TO.C,C17*%
X265900000Y-86450000D03*
X265900000Y-88000000D03*
%TD*%
D20*
%TO.C,R48*%
X256805000Y-111890000D03*
X258455000Y-111890000D03*
%TD*%
D10*
%TO.C,C54*%
X240210000Y-104220000D03*
X240210000Y-102670000D03*
%TD*%
D17*
%TO.C,C43*%
X227010000Y-114700000D03*
X225460000Y-114700000D03*
%TD*%
D12*
%TO.C,C40*%
X240950000Y-95500000D03*
X242500000Y-95500000D03*
%TD*%
D11*
%TO.C,R2*%
X270500000Y-52500000D03*
X270500000Y-54150000D03*
%TD*%
D12*
%TO.C,C20*%
X229165000Y-82470000D03*
X230715000Y-82470000D03*
%TD*%
D23*
%TO.C,C9*%
X221500000Y-54450000D03*
X221500000Y-56000000D03*
%TD*%
%TO.C,C53*%
X240227500Y-106090000D03*
X240227500Y-107640000D03*
%TD*%
D17*
%TO.C,C50*%
X251950000Y-88250000D03*
X250400000Y-88250000D03*
%TD*%
D24*
%TO.C,XS1*%
X247450000Y-67500000D03*
X246350000Y-67500000D03*
X245250000Y-67500000D03*
X244150000Y-67500000D03*
X243050000Y-67500000D03*
X241950000Y-67500000D03*
X240850000Y-67500000D03*
X239750000Y-67500000D03*
X238800000Y-67500000D03*
D25*
X237850000Y-57000000D03*
D26*
X237850000Y-52850000D03*
D27*
X237850000Y-63200000D03*
X249000000Y-67500000D03*
D28*
X251350000Y-52400000D03*
%TD*%
D11*
%TO.C,R49*%
X243460000Y-112700000D03*
X243460000Y-114350000D03*
%TD*%
D17*
%TO.C,C47*%
X243550000Y-84030000D03*
X242000000Y-84030000D03*
%TD*%
%TO.C,C42*%
X234460000Y-113200000D03*
X232910000Y-113200000D03*
%TD*%
%TO.C,C48*%
X251900000Y-89950000D03*
X250350000Y-89950000D03*
%TD*%
D11*
%TO.C,R53*%
X251960000Y-112700000D03*
X251960000Y-114350000D03*
%TD*%
D29*
%TO.C,U1*%
X222000000Y-78500000D03*
X222000000Y-78000000D03*
X222000000Y-77500000D03*
X222000000Y-77000000D03*
X222000000Y-76500000D03*
X222000000Y-76000000D03*
X222000000Y-75500000D03*
X222000000Y-75000000D03*
X222000000Y-74500000D03*
X222000000Y-74000000D03*
X222000000Y-73500000D03*
X222000000Y-73000000D03*
D30*
X223412500Y-71587500D03*
X223912500Y-71587500D03*
X224412500Y-71587500D03*
X224912500Y-71587500D03*
X225412500Y-71587500D03*
X225912500Y-71587500D03*
X226412500Y-71587500D03*
X226912500Y-71587500D03*
X227412500Y-71587500D03*
X227912500Y-71587500D03*
X228412500Y-71587500D03*
X228912500Y-71587500D03*
D29*
X230325000Y-73000000D03*
X230325000Y-73500000D03*
X230325000Y-74000000D03*
X230325000Y-74500000D03*
X230325000Y-75000000D03*
X230325000Y-75500000D03*
X230325000Y-76000000D03*
X230325000Y-76500000D03*
X230325000Y-77000000D03*
X230325000Y-77500000D03*
X230325000Y-78000000D03*
X230325000Y-78500000D03*
D30*
X228912500Y-79912500D03*
X228412500Y-79912500D03*
X227912500Y-79912500D03*
X227412500Y-79912500D03*
X226912500Y-79912500D03*
X226412500Y-79912500D03*
X225912500Y-79912500D03*
X225412500Y-79912500D03*
X224912500Y-79912500D03*
X224412500Y-79912500D03*
X223912500Y-79912500D03*
X223412500Y-79912500D03*
%TD*%
D17*
%TO.C,C29*%
X265995000Y-89660000D03*
X264445000Y-89660000D03*
%TD*%
D23*
%TO.C,C7*%
X266500000Y-61500000D03*
X266500000Y-63050000D03*
%TD*%
D19*
%TO.C,L1*%
X262500000Y-87225000D03*
X262500000Y-84875000D03*
%TD*%
D12*
%TO.C,C60*%
X240950000Y-93500000D03*
X242500000Y-93500000D03*
%TD*%
D11*
%TO.C,R54*%
X253960000Y-112700000D03*
X253960000Y-114350000D03*
%TD*%
D16*
%TO.C,R12*%
X263650000Y-63000000D03*
X262000000Y-63000000D03*
%TD*%
D23*
%TO.C,C30*%
X235970000Y-90590000D03*
X235970000Y-92140000D03*
%TD*%
D20*
%TO.C,R9*%
X260500000Y-71500000D03*
X262150000Y-71500000D03*
%TD*%
D16*
%TO.C,R47*%
X258485000Y-113510000D03*
X256835000Y-113510000D03*
%TD*%
D12*
%TO.C,C36*%
X250355000Y-93020000D03*
X251905000Y-93020000D03*
%TD*%
D11*
%TO.C,R16*%
X221000000Y-59850000D03*
X221000000Y-61500000D03*
%TD*%
D16*
%TO.C,R29*%
X231900000Y-69910000D03*
X230250000Y-69910000D03*
%TD*%
D17*
%TO.C,C52*%
X239000000Y-98500000D03*
X237450000Y-98500000D03*
%TD*%
D23*
%TO.C,C37*%
X231460000Y-97280000D03*
X231460000Y-98830000D03*
%TD*%
D31*
%TO.C,D5*%
X245860000Y-104310000D03*
X245860000Y-102435000D03*
%TD*%
D17*
%TO.C,C28*%
X232275000Y-88500000D03*
X230725000Y-88500000D03*
%TD*%
D32*
%TO.C,D3*%
X234400000Y-95960000D03*
X234400000Y-97360000D03*
%TD*%
D17*
%TO.C,C6*%
X259520000Y-68800000D03*
X257970000Y-68800000D03*
%TD*%
D33*
%TO.C,FEL1*%
X221100000Y-96000000D03*
X226500000Y-96000000D03*
%TD*%
D11*
%TO.C,R20*%
X227662500Y-82500000D03*
X227662500Y-84150000D03*
%TD*%
%TO.C,R19*%
X233870000Y-54490000D03*
X233870000Y-56140000D03*
%TD*%
D16*
%TO.C,R15*%
X232150000Y-64000000D03*
X230500000Y-64000000D03*
%TD*%
D10*
%TO.C,C61*%
X245950000Y-95500000D03*
X245950000Y-93950000D03*
%TD*%
%TO.C,C31*%
X231500000Y-91550000D03*
X231500000Y-90000000D03*
%TD*%
D34*
%TO.C,U4*%
X263790000Y-95990000D03*
X262840000Y-95990000D03*
X261890000Y-95990000D03*
X261890000Y-93715000D03*
X263790000Y-93715000D03*
%TD*%
D17*
%TO.C,C39*%
X224150000Y-108370000D03*
X222600000Y-108370000D03*
%TD*%
D11*
%TO.C,R52*%
X249460000Y-112700000D03*
X249460000Y-114350000D03*
%TD*%
D12*
%TO.C,C59*%
X241000000Y-91500000D03*
X242550000Y-91500000D03*
%TD*%
D16*
%TO.C,R46*%
X241960000Y-112700000D03*
X240310000Y-112700000D03*
%TD*%
D20*
%TO.C,R45*%
X230060000Y-100500000D03*
X231710000Y-100500000D03*
%TD*%
D23*
%TO.C,C33*%
X231510000Y-93970000D03*
X231510000Y-95520000D03*
%TD*%
%TO.C,C57*%
X248500000Y-83950000D03*
X248500000Y-85500000D03*
%TD*%
D35*
%TO.C,U6*%
X230460000Y-114200000D03*
X228560000Y-114200000D03*
X229510000Y-112325000D03*
%TD*%
D20*
%TO.C,R1*%
X265600000Y-52775000D03*
X267250000Y-52775000D03*
%TD*%
D23*
%TO.C,C15*%
X253210000Y-72685000D03*
X253210000Y-74235000D03*
%TD*%
D16*
%TO.C,R3*%
X263600000Y-52775000D03*
X261950000Y-52775000D03*
%TD*%
D36*
%TO.C,U7*%
X244437500Y-105980000D03*
X244437500Y-106930000D03*
X244437500Y-107880000D03*
X242162500Y-107880000D03*
X242162500Y-106930000D03*
X242162500Y-105980000D03*
%TD*%
D34*
%TO.C,U2*%
X263500000Y-82500000D03*
X262550000Y-82500000D03*
X261600000Y-82500000D03*
X261600000Y-80225000D03*
X263500000Y-80225000D03*
%TD*%
D17*
%TO.C,C56*%
X231670000Y-102980000D03*
X230120000Y-102980000D03*
%TD*%
D20*
%TO.C,R13*%
X224045000Y-69270000D03*
X225695000Y-69270000D03*
%TD*%
D10*
%TO.C,C62*%
X251290000Y-96070000D03*
X251290000Y-94520000D03*
%TD*%
D37*
%TO.C,R4*%
X263600000Y-56425000D03*
X263600000Y-54775000D03*
%TD*%
D20*
%TO.C,R34*%
X264445000Y-91460000D03*
X266095000Y-91460000D03*
%TD*%
D17*
%TO.C,C27*%
X258555000Y-86490000D03*
X257005000Y-86490000D03*
%TD*%
D23*
%TO.C,C8*%
X223500000Y-54450000D03*
X223500000Y-56000000D03*
%TD*%
%TO.C,C38*%
X220480000Y-113225000D03*
X220480000Y-114775000D03*
%TD*%
D16*
%TO.C,R14*%
X231925000Y-67180000D03*
X230275000Y-67180000D03*
%TD*%
D17*
%TO.C,C51*%
X251895000Y-91520000D03*
X250345000Y-91520000D03*
%TD*%
D23*
%TO.C,C1*%
X270500000Y-57000000D03*
X270500000Y-58550000D03*
%TD*%
D17*
%TO.C,C63*%
X252000000Y-86500000D03*
X250450000Y-86500000D03*
%TD*%
D16*
%TO.C,R38*%
X227110000Y-112700000D03*
X225460000Y-112700000D03*
%TD*%
D23*
%TO.C,C11*%
X225500000Y-54450000D03*
X225500000Y-56000000D03*
%TD*%
M02*
