%TF.GenerationSoftware,KiCad,Pcbnew,8.0.3-8.0.3-0~ubuntu24.04.1*%
%TF.CreationDate,2024-07-16T09:03:33+03:00*%
%TF.ProjectId,displinux,64697370-6c69-46e7-9578-2e6b69636164,rev?*%
%TF.SameCoordinates,Original*%
%TF.FileFunction,Legend,Top*%
%TF.FilePolarity,Positive*%
%FSLAX46Y46*%
G04 Gerber Fmt 4.6, Leading zero omitted, Abs format (unit mm)*
G04 Created by KiCad (PCBNEW 8.0.3-8.0.3-0~ubuntu24.04.1) date 2024-07-16 09:03:33*
%MOMM*%
%LPD*%
G01*
G04 APERTURE LIST*
%ADD10C,0.100000*%
%ADD11C,0.400000*%
%ADD12C,0.150000*%
%ADD13C,0.120000*%
G04 APERTURE END LIST*
D10*
X250393884Y-52452419D02*
X250393884Y-51452419D01*
X250393884Y-51928609D02*
X250965312Y-51928609D01*
X250965312Y-52452419D02*
X250965312Y-51452419D01*
X251631979Y-51452419D02*
X251822455Y-51452419D01*
X251822455Y-51452419D02*
X251917693Y-51500038D01*
X251917693Y-51500038D02*
X252012931Y-51595276D01*
X252012931Y-51595276D02*
X252060550Y-51785752D01*
X252060550Y-51785752D02*
X252060550Y-52119085D01*
X252060550Y-52119085D02*
X252012931Y-52309561D01*
X252012931Y-52309561D02*
X251917693Y-52404800D01*
X251917693Y-52404800D02*
X251822455Y-52452419D01*
X251822455Y-52452419D02*
X251631979Y-52452419D01*
X251631979Y-52452419D02*
X251536741Y-52404800D01*
X251536741Y-52404800D02*
X251441503Y-52309561D01*
X251441503Y-52309561D02*
X251393884Y-52119085D01*
X251393884Y-52119085D02*
X251393884Y-51785752D01*
X251393884Y-51785752D02*
X251441503Y-51595276D01*
X251441503Y-51595276D02*
X251536741Y-51500038D01*
X251536741Y-51500038D02*
X251631979Y-51452419D01*
X252441503Y-52404800D02*
X252584360Y-52452419D01*
X252584360Y-52452419D02*
X252822455Y-52452419D01*
X252822455Y-52452419D02*
X252917693Y-52404800D01*
X252917693Y-52404800D02*
X252965312Y-52357180D01*
X252965312Y-52357180D02*
X253012931Y-52261942D01*
X253012931Y-52261942D02*
X253012931Y-52166704D01*
X253012931Y-52166704D02*
X252965312Y-52071466D01*
X252965312Y-52071466D02*
X252917693Y-52023847D01*
X252917693Y-52023847D02*
X252822455Y-51976228D01*
X252822455Y-51976228D02*
X252631979Y-51928609D01*
X252631979Y-51928609D02*
X252536741Y-51880990D01*
X252536741Y-51880990D02*
X252489122Y-51833371D01*
X252489122Y-51833371D02*
X252441503Y-51738133D01*
X252441503Y-51738133D02*
X252441503Y-51642895D01*
X252441503Y-51642895D02*
X252489122Y-51547657D01*
X252489122Y-51547657D02*
X252536741Y-51500038D01*
X252536741Y-51500038D02*
X252631979Y-51452419D01*
X252631979Y-51452419D02*
X252870074Y-51452419D01*
X252870074Y-51452419D02*
X253012931Y-51500038D01*
X253298646Y-51452419D02*
X253870074Y-51452419D01*
X253584360Y-52452419D02*
X253584360Y-51452419D01*
D11*
G36*
X238911521Y-71599330D02*
G01*
X238953531Y-71599330D01*
X239058288Y-71602180D01*
X239157824Y-71621792D01*
X239183607Y-71641339D01*
X239202712Y-71739837D01*
X239203147Y-71851388D01*
X239203147Y-72738967D01*
X239204632Y-72840889D01*
X239210649Y-72943660D01*
X239224215Y-73041482D01*
X239253387Y-73141717D01*
X239275931Y-73189351D01*
X239341097Y-73280567D01*
X239428461Y-73357089D01*
X239513816Y-73407514D01*
X239612489Y-73448174D01*
X239724084Y-73478908D01*
X239848208Y-73499555D01*
X239949285Y-73508324D01*
X240057020Y-73511263D01*
X240184893Y-73506769D01*
X240300110Y-73493082D01*
X240403431Y-73469892D01*
X240495619Y-73436891D01*
X240596356Y-73381370D01*
X240682372Y-73309432D01*
X240755155Y-73220473D01*
X240768255Y-73200586D01*
X240817157Y-73102255D01*
X240845071Y-73002383D01*
X240859682Y-72895491D01*
X240866336Y-72784747D01*
X240868617Y-72678339D01*
X240868883Y-72618311D01*
X240868883Y-72055575D01*
X240869906Y-71932908D01*
X240878164Y-71833986D01*
X240907926Y-71724665D01*
X240976008Y-71646313D01*
X241069676Y-71611684D01*
X241177117Y-71599330D01*
X241177117Y-71447899D01*
X240378932Y-71447899D01*
X240378932Y-71599330D01*
X240484226Y-71611684D01*
X240576167Y-71646313D01*
X240643113Y-71724665D01*
X240672390Y-71833986D01*
X240680453Y-71932908D01*
X240681304Y-72055575D01*
X240681304Y-72618311D01*
X240680429Y-72717468D01*
X240676766Y-72816086D01*
X240666559Y-72918783D01*
X240640410Y-73020435D01*
X240633921Y-73035478D01*
X240580034Y-73125529D01*
X240509672Y-73197207D01*
X240422953Y-73250377D01*
X240319993Y-73284903D01*
X240221869Y-73299335D01*
X240157648Y-73301702D01*
X240057549Y-73295225D01*
X239958385Y-73271827D01*
X239865701Y-73224834D01*
X239799588Y-73164438D01*
X239750788Y-73075259D01*
X239724646Y-72977288D01*
X239711253Y-72871718D01*
X239706867Y-72766218D01*
X239706775Y-72747271D01*
X239706775Y-71851388D01*
X239707088Y-71749119D01*
X239720193Y-71651226D01*
X239726803Y-71641339D01*
X239825655Y-71604507D01*
X239931628Y-71599463D01*
X239958834Y-71599330D01*
X240000844Y-71599330D01*
X240000844Y-71447899D01*
X238911521Y-71447899D01*
X238911521Y-71599330D01*
G37*
G36*
X241956741Y-71447899D02*
G01*
X241251367Y-71447899D01*
X241251367Y-71602749D01*
X241351057Y-71617118D01*
X241446608Y-71660774D01*
X241526748Y-71733230D01*
X241547878Y-71760530D01*
X241547878Y-72869392D01*
X241547027Y-72992887D01*
X241538963Y-73092470D01*
X241509687Y-73202509D01*
X241442740Y-73281353D01*
X241350800Y-73316173D01*
X241245505Y-73328569D01*
X241245505Y-73480000D01*
X242043691Y-73480000D01*
X242043691Y-73328569D01*
X241936249Y-73316173D01*
X241842582Y-73281353D01*
X241774499Y-73202509D01*
X241744738Y-73092470D01*
X241736479Y-72992887D01*
X241735457Y-72869392D01*
X241735457Y-71943224D01*
X243037759Y-73511263D01*
X243225338Y-73511263D01*
X243225338Y-72061926D01*
X243225619Y-71937645D01*
X243233726Y-71837230D01*
X243257227Y-71741582D01*
X243320512Y-71654961D01*
X243426765Y-71611764D01*
X243533572Y-71600307D01*
X243533572Y-71447899D01*
X242735387Y-71447899D01*
X242735387Y-71600307D01*
X242840651Y-71611764D01*
X242932508Y-71646434D01*
X242999365Y-71726057D01*
X243028639Y-71837230D01*
X243036768Y-71937645D01*
X243037759Y-72061926D01*
X243037759Y-72727732D01*
X241956741Y-71447899D01*
G37*
G36*
X243610265Y-73480000D02*
G01*
X244699588Y-73480000D01*
X244699588Y-73328569D01*
X244657578Y-73328569D01*
X244551073Y-73325707D01*
X244450811Y-73305900D01*
X244425059Y-73286071D01*
X244405954Y-73187210D01*
X244405519Y-73075045D01*
X244405519Y-71853342D01*
X244405825Y-71750501D01*
X244418609Y-71651878D01*
X244425059Y-71641828D01*
X244516037Y-71605938D01*
X244617459Y-71600121D01*
X244657578Y-71599818D01*
X244699588Y-71599818D01*
X244699588Y-71447899D01*
X243610265Y-71447899D01*
X243610265Y-71599818D01*
X243652274Y-71599818D01*
X243756937Y-71602669D01*
X243856156Y-71622281D01*
X243881863Y-71641828D01*
X243900967Y-71741166D01*
X243901402Y-71853342D01*
X243901402Y-73075045D01*
X243901097Y-73177879D01*
X243888312Y-73276182D01*
X243881863Y-73286071D01*
X243783479Y-73323365D01*
X243679046Y-73328435D01*
X243652274Y-73328569D01*
X243610265Y-73328569D01*
X243610265Y-73480000D01*
G37*
G36*
X245861021Y-71448016D02*
G01*
X245963980Y-71449819D01*
X246087406Y-71455837D01*
X246196682Y-71466343D01*
X246293639Y-71481727D01*
X246400302Y-71508408D01*
X246494156Y-71544078D01*
X246594912Y-71599818D01*
X246642714Y-71633834D01*
X246729422Y-71709681D01*
X246804155Y-71795756D01*
X246866775Y-71891822D01*
X246917144Y-71997646D01*
X246955126Y-72112992D01*
X246980582Y-72237626D01*
X246991372Y-72337056D01*
X246994982Y-72441479D01*
X246993380Y-72512863D01*
X246985025Y-72616182D01*
X246969642Y-72714787D01*
X246938413Y-72838526D01*
X246895209Y-72952923D01*
X246840327Y-73057429D01*
X246774064Y-73151493D01*
X246696720Y-73234566D01*
X246608590Y-73306099D01*
X246523286Y-73358751D01*
X246428762Y-73401195D01*
X246323241Y-73433957D01*
X246204945Y-73457563D01*
X246099916Y-73470207D01*
X245984663Y-73477596D01*
X245858276Y-73480000D01*
X244827571Y-73480000D01*
X244827571Y-73328569D01*
X244869581Y-73328569D01*
X244896357Y-73328435D01*
X245000914Y-73323365D01*
X245099169Y-73286071D01*
X245105780Y-73276182D01*
X245118884Y-73177879D01*
X245119197Y-73075045D01*
X245119197Y-71853342D01*
X245118861Y-71768834D01*
X245622826Y-71768834D01*
X245622826Y-73145387D01*
X245629023Y-73237688D01*
X245688686Y-73315383D01*
X245790865Y-73328569D01*
X245849972Y-73328569D01*
X245936041Y-73323310D01*
X246033184Y-73303745D01*
X246135270Y-73264059D01*
X246221910Y-73207912D01*
X246289609Y-73137083D01*
X246321655Y-73083000D01*
X246363662Y-72979146D01*
X246392385Y-72874743D01*
X246414693Y-72756989D01*
X246427476Y-72654993D01*
X246435394Y-72547570D01*
X246438108Y-72436106D01*
X246437557Y-72384153D01*
X246429268Y-72238464D01*
X246410978Y-72107965D01*
X246382623Y-71992569D01*
X246344142Y-71892193D01*
X246276972Y-71781577D01*
X246191538Y-71697311D01*
X246087691Y-71639197D01*
X245965283Y-71607032D01*
X245861207Y-71599818D01*
X245790865Y-71599818D01*
X245713699Y-71608373D01*
X245633856Y-71666522D01*
X245622826Y-71768834D01*
X245118861Y-71768834D01*
X245118751Y-71741166D01*
X245099169Y-71641828D01*
X245073669Y-71622281D01*
X244974327Y-71602669D01*
X244869581Y-71599818D01*
X244827571Y-71599818D01*
X244827571Y-71447899D01*
X245824570Y-71447899D01*
X245861021Y-71448016D01*
G37*
G36*
X247184026Y-73480000D02*
G01*
X248273349Y-73480000D01*
X248273349Y-73328569D01*
X248231339Y-73328569D01*
X248124834Y-73325707D01*
X248024573Y-73305900D01*
X247998820Y-73286071D01*
X247979715Y-73187210D01*
X247979281Y-73075045D01*
X247979281Y-71853342D01*
X247979586Y-71750501D01*
X247992371Y-71651878D01*
X247998820Y-71641828D01*
X248089799Y-71605938D01*
X248191220Y-71600121D01*
X248231339Y-71599818D01*
X248273349Y-71599818D01*
X248273349Y-71447899D01*
X247184026Y-71447899D01*
X247184026Y-71599818D01*
X247226036Y-71599818D01*
X247330699Y-71602669D01*
X247429918Y-71622281D01*
X247455624Y-71641828D01*
X247474729Y-71741166D01*
X247475163Y-71853342D01*
X247475163Y-73075045D01*
X247474858Y-73177879D01*
X247462074Y-73276182D01*
X247455624Y-73286071D01*
X247357240Y-73323365D01*
X247252807Y-73328435D01*
X247226036Y-73328569D01*
X247184026Y-73328569D01*
X247184026Y-73480000D01*
G37*
G36*
X249994773Y-71439106D02*
G01*
X249868743Y-71439106D01*
X249723175Y-71568066D01*
X249633277Y-71514548D01*
X249544332Y-71473356D01*
X249438365Y-71440000D01*
X249326175Y-71421485D01*
X249221988Y-71416636D01*
X249103687Y-71423160D01*
X248993561Y-71442293D01*
X248892365Y-71473379D01*
X248800855Y-71515760D01*
X248695218Y-71588705D01*
X248609936Y-71679006D01*
X248546802Y-71785107D01*
X248507608Y-71905450D01*
X248495000Y-72004117D01*
X248494145Y-72038478D01*
X248505833Y-72161107D01*
X248540391Y-72273867D01*
X248597056Y-72376003D01*
X248675068Y-72466758D01*
X248773664Y-72545378D01*
X248860663Y-72595923D01*
X248958491Y-72638899D01*
X249066828Y-72673986D01*
X249185352Y-72700865D01*
X249359253Y-72734082D01*
X249461750Y-72753771D01*
X249561647Y-72777215D01*
X249655344Y-72814289D01*
X249661625Y-72817613D01*
X249739858Y-72886642D01*
X249778450Y-72977650D01*
X249784724Y-73040362D01*
X249768379Y-73143669D01*
X249721354Y-73230025D01*
X249646663Y-73297112D01*
X249547320Y-73342613D01*
X249447876Y-73362368D01*
X249381723Y-73365694D01*
X249265018Y-73354237D01*
X249152967Y-73320478D01*
X249046560Y-73265333D01*
X248946788Y-73189717D01*
X248876908Y-73120122D01*
X248811736Y-73039914D01*
X248751688Y-72949479D01*
X248697182Y-72849204D01*
X248648637Y-72739475D01*
X248633852Y-72700865D01*
X248491214Y-72700865D01*
X248507822Y-73489281D01*
X248633852Y-73489281D01*
X248807752Y-73324173D01*
X248904563Y-73389145D01*
X249004387Y-73439826D01*
X249109003Y-73476662D01*
X249220187Y-73500096D01*
X249319141Y-73509708D01*
X249381723Y-73511263D01*
X249500866Y-73504250D01*
X249612095Y-73483703D01*
X249714578Y-73450358D01*
X249807484Y-73404951D01*
X249889984Y-73348220D01*
X249961246Y-73280901D01*
X250037344Y-73175944D01*
X250079154Y-73086784D01*
X250106956Y-72989490D01*
X250119921Y-72884800D01*
X250120802Y-72848387D01*
X250110830Y-72722964D01*
X250080410Y-72611434D01*
X250028787Y-72513035D01*
X249955205Y-72427008D01*
X249858909Y-72352589D01*
X249771325Y-72303935D01*
X249670221Y-72261063D01*
X249555277Y-72223649D01*
X249426175Y-72191374D01*
X249291842Y-72160600D01*
X249191507Y-72141185D01*
X249094616Y-72121154D01*
X249006566Y-72094166D01*
X248913622Y-72047987D01*
X248846924Y-71976442D01*
X248816779Y-71873349D01*
X248816057Y-71851877D01*
X248837600Y-71748523D01*
X248898365Y-71663862D01*
X248992553Y-71602281D01*
X249095493Y-71571192D01*
X249194145Y-71562693D01*
X249300436Y-71572076D01*
X249400957Y-71600200D01*
X249495708Y-71647031D01*
X249584689Y-71712536D01*
X249667899Y-71796680D01*
X249745340Y-71899428D01*
X249799633Y-71988677D01*
X249850681Y-72088358D01*
X249882909Y-72160600D01*
X250031409Y-72160600D01*
X249994773Y-71439106D01*
G37*
G36*
X251469086Y-71448657D02*
G01*
X251583290Y-71453417D01*
X251684381Y-71462811D01*
X251791641Y-71480624D01*
X251887350Y-71506066D01*
X251989748Y-71546085D01*
X252022468Y-71562851D01*
X252109572Y-71624746D01*
X252179237Y-71702561D01*
X252230361Y-71794401D01*
X252261843Y-71898375D01*
X252272581Y-72012588D01*
X252271712Y-72048884D01*
X252258677Y-72150928D01*
X252217032Y-72270990D01*
X252147749Y-72372722D01*
X252050931Y-72456072D01*
X251960310Y-72506492D01*
X251854303Y-72546521D01*
X251732952Y-72576139D01*
X251596302Y-72595322D01*
X251496723Y-72602304D01*
X251390376Y-72604633D01*
X251076769Y-72604633D01*
X251076769Y-73074068D01*
X251077203Y-73186392D01*
X251096308Y-73288513D01*
X251122060Y-73306648D01*
X251222322Y-73325284D01*
X251328827Y-73328080D01*
X251390376Y-73328080D01*
X251390376Y-73480000D01*
X250281514Y-73480000D01*
X250281514Y-73328080D01*
X250323524Y-73328080D01*
X250350300Y-73327947D01*
X250454857Y-73323031D01*
X250553112Y-73288513D01*
X250560914Y-73274980D01*
X250572346Y-73177024D01*
X250572651Y-73074068D01*
X250572651Y-71855296D01*
X250572323Y-71770788D01*
X251076769Y-71770788D01*
X251076769Y-72450760D01*
X251239434Y-72450760D01*
X251364236Y-72445070D01*
X251468664Y-72427313D01*
X251572302Y-72386577D01*
X251648152Y-72323364D01*
X251698461Y-72235661D01*
X251725477Y-72121456D01*
X251731828Y-72009658D01*
X251722918Y-71889195D01*
X251695758Y-71790707D01*
X251638161Y-71700629D01*
X251552228Y-71640176D01*
X251458163Y-71611633D01*
X251342993Y-71602260D01*
X251230642Y-71602260D01*
X251160965Y-71607805D01*
X251085774Y-71671959D01*
X251076769Y-71770788D01*
X250572323Y-71770788D01*
X250572217Y-71743362D01*
X250553112Y-71641339D01*
X250527611Y-71623487D01*
X250428270Y-71605046D01*
X250323524Y-71602260D01*
X250281514Y-71602260D01*
X250281514Y-71447899D01*
X251393307Y-71447899D01*
X251469086Y-71448657D01*
G37*
D12*
X236007142Y-72974819D02*
X235673809Y-72498628D01*
X235435714Y-72974819D02*
X235435714Y-71974819D01*
X235435714Y-71974819D02*
X235816666Y-71974819D01*
X235816666Y-71974819D02*
X235911904Y-72022438D01*
X235911904Y-72022438D02*
X235959523Y-72070057D01*
X235959523Y-72070057D02*
X236007142Y-72165295D01*
X236007142Y-72165295D02*
X236007142Y-72308152D01*
X236007142Y-72308152D02*
X235959523Y-72403390D01*
X235959523Y-72403390D02*
X235911904Y-72451009D01*
X235911904Y-72451009D02*
X235816666Y-72498628D01*
X235816666Y-72498628D02*
X235435714Y-72498628D01*
X236388095Y-72070057D02*
X236435714Y-72022438D01*
X236435714Y-72022438D02*
X236530952Y-71974819D01*
X236530952Y-71974819D02*
X236769047Y-71974819D01*
X236769047Y-71974819D02*
X236864285Y-72022438D01*
X236864285Y-72022438D02*
X236911904Y-72070057D01*
X236911904Y-72070057D02*
X236959523Y-72165295D01*
X236959523Y-72165295D02*
X236959523Y-72260533D01*
X236959523Y-72260533D02*
X236911904Y-72403390D01*
X236911904Y-72403390D02*
X236340476Y-72974819D01*
X236340476Y-72974819D02*
X236959523Y-72974819D01*
X237292857Y-71974819D02*
X237959523Y-71974819D01*
X237959523Y-71974819D02*
X237530952Y-72974819D01*
X264012142Y-100409580D02*
X263964523Y-100457200D01*
X263964523Y-100457200D02*
X263821666Y-100504819D01*
X263821666Y-100504819D02*
X263726428Y-100504819D01*
X263726428Y-100504819D02*
X263583571Y-100457200D01*
X263583571Y-100457200D02*
X263488333Y-100361961D01*
X263488333Y-100361961D02*
X263440714Y-100266723D01*
X263440714Y-100266723D02*
X263393095Y-100076247D01*
X263393095Y-100076247D02*
X263393095Y-99933390D01*
X263393095Y-99933390D02*
X263440714Y-99742914D01*
X263440714Y-99742914D02*
X263488333Y-99647676D01*
X263488333Y-99647676D02*
X263583571Y-99552438D01*
X263583571Y-99552438D02*
X263726428Y-99504819D01*
X263726428Y-99504819D02*
X263821666Y-99504819D01*
X263821666Y-99504819D02*
X263964523Y-99552438D01*
X263964523Y-99552438D02*
X264012142Y-99600057D01*
X264345476Y-99504819D02*
X264964523Y-99504819D01*
X264964523Y-99504819D02*
X264631190Y-99885771D01*
X264631190Y-99885771D02*
X264774047Y-99885771D01*
X264774047Y-99885771D02*
X264869285Y-99933390D01*
X264869285Y-99933390D02*
X264916904Y-99981009D01*
X264916904Y-99981009D02*
X264964523Y-100076247D01*
X264964523Y-100076247D02*
X264964523Y-100314342D01*
X264964523Y-100314342D02*
X264916904Y-100409580D01*
X264916904Y-100409580D02*
X264869285Y-100457200D01*
X264869285Y-100457200D02*
X264774047Y-100504819D01*
X264774047Y-100504819D02*
X264488333Y-100504819D01*
X264488333Y-100504819D02*
X264393095Y-100457200D01*
X264393095Y-100457200D02*
X264345476Y-100409580D01*
X265869285Y-99504819D02*
X265393095Y-99504819D01*
X265393095Y-99504819D02*
X265345476Y-99981009D01*
X265345476Y-99981009D02*
X265393095Y-99933390D01*
X265393095Y-99933390D02*
X265488333Y-99885771D01*
X265488333Y-99885771D02*
X265726428Y-99885771D01*
X265726428Y-99885771D02*
X265821666Y-99933390D01*
X265821666Y-99933390D02*
X265869285Y-99981009D01*
X265869285Y-99981009D02*
X265916904Y-100076247D01*
X265916904Y-100076247D02*
X265916904Y-100314342D01*
X265916904Y-100314342D02*
X265869285Y-100409580D01*
X265869285Y-100409580D02*
X265821666Y-100457200D01*
X265821666Y-100457200D02*
X265726428Y-100504819D01*
X265726428Y-100504819D02*
X265488333Y-100504819D01*
X265488333Y-100504819D02*
X265393095Y-100457200D01*
X265393095Y-100457200D02*
X265345476Y-100409580D01*
X225934819Y-95356666D02*
X225458628Y-95689999D01*
X225934819Y-95928094D02*
X224934819Y-95928094D01*
X224934819Y-95928094D02*
X224934819Y-95547142D01*
X224934819Y-95547142D02*
X224982438Y-95451904D01*
X224982438Y-95451904D02*
X225030057Y-95404285D01*
X225030057Y-95404285D02*
X225125295Y-95356666D01*
X225125295Y-95356666D02*
X225268152Y-95356666D01*
X225268152Y-95356666D02*
X225363390Y-95404285D01*
X225363390Y-95404285D02*
X225411009Y-95451904D01*
X225411009Y-95451904D02*
X225458628Y-95547142D01*
X225458628Y-95547142D02*
X225458628Y-95928094D01*
X224934819Y-95023332D02*
X224934819Y-94356666D01*
X224934819Y-94356666D02*
X225934819Y-94785237D01*
X233067142Y-70799580D02*
X233019523Y-70847200D01*
X233019523Y-70847200D02*
X232876666Y-70894819D01*
X232876666Y-70894819D02*
X232781428Y-70894819D01*
X232781428Y-70894819D02*
X232638571Y-70847200D01*
X232638571Y-70847200D02*
X232543333Y-70751961D01*
X232543333Y-70751961D02*
X232495714Y-70656723D01*
X232495714Y-70656723D02*
X232448095Y-70466247D01*
X232448095Y-70466247D02*
X232448095Y-70323390D01*
X232448095Y-70323390D02*
X232495714Y-70132914D01*
X232495714Y-70132914D02*
X232543333Y-70037676D01*
X232543333Y-70037676D02*
X232638571Y-69942438D01*
X232638571Y-69942438D02*
X232781428Y-69894819D01*
X232781428Y-69894819D02*
X232876666Y-69894819D01*
X232876666Y-69894819D02*
X233019523Y-69942438D01*
X233019523Y-69942438D02*
X233067142Y-69990057D01*
X233448095Y-69990057D02*
X233495714Y-69942438D01*
X233495714Y-69942438D02*
X233590952Y-69894819D01*
X233590952Y-69894819D02*
X233829047Y-69894819D01*
X233829047Y-69894819D02*
X233924285Y-69942438D01*
X233924285Y-69942438D02*
X233971904Y-69990057D01*
X233971904Y-69990057D02*
X234019523Y-70085295D01*
X234019523Y-70085295D02*
X234019523Y-70180533D01*
X234019523Y-70180533D02*
X233971904Y-70323390D01*
X233971904Y-70323390D02*
X233400476Y-70894819D01*
X233400476Y-70894819D02*
X234019523Y-70894819D01*
X234352857Y-69894819D02*
X234971904Y-69894819D01*
X234971904Y-69894819D02*
X234638571Y-70275771D01*
X234638571Y-70275771D02*
X234781428Y-70275771D01*
X234781428Y-70275771D02*
X234876666Y-70323390D01*
X234876666Y-70323390D02*
X234924285Y-70371009D01*
X234924285Y-70371009D02*
X234971904Y-70466247D01*
X234971904Y-70466247D02*
X234971904Y-70704342D01*
X234971904Y-70704342D02*
X234924285Y-70799580D01*
X234924285Y-70799580D02*
X234876666Y-70847200D01*
X234876666Y-70847200D02*
X234781428Y-70894819D01*
X234781428Y-70894819D02*
X234495714Y-70894819D01*
X234495714Y-70894819D02*
X234400476Y-70847200D01*
X234400476Y-70847200D02*
X234352857Y-70799580D01*
X228206666Y-108404819D02*
X228206666Y-109119104D01*
X228206666Y-109119104D02*
X228159047Y-109261961D01*
X228159047Y-109261961D02*
X228063809Y-109357200D01*
X228063809Y-109357200D02*
X227920952Y-109404819D01*
X227920952Y-109404819D02*
X227825714Y-109404819D01*
X229111428Y-108404819D02*
X228920952Y-108404819D01*
X228920952Y-108404819D02*
X228825714Y-108452438D01*
X228825714Y-108452438D02*
X228778095Y-108500057D01*
X228778095Y-108500057D02*
X228682857Y-108642914D01*
X228682857Y-108642914D02*
X228635238Y-108833390D01*
X228635238Y-108833390D02*
X228635238Y-109214342D01*
X228635238Y-109214342D02*
X228682857Y-109309580D01*
X228682857Y-109309580D02*
X228730476Y-109357200D01*
X228730476Y-109357200D02*
X228825714Y-109404819D01*
X228825714Y-109404819D02*
X229016190Y-109404819D01*
X229016190Y-109404819D02*
X229111428Y-109357200D01*
X229111428Y-109357200D02*
X229159047Y-109309580D01*
X229159047Y-109309580D02*
X229206666Y-109214342D01*
X229206666Y-109214342D02*
X229206666Y-108976247D01*
X229206666Y-108976247D02*
X229159047Y-108881009D01*
X229159047Y-108881009D02*
X229111428Y-108833390D01*
X229111428Y-108833390D02*
X229016190Y-108785771D01*
X229016190Y-108785771D02*
X228825714Y-108785771D01*
X228825714Y-108785771D02*
X228730476Y-108833390D01*
X228730476Y-108833390D02*
X228682857Y-108881009D01*
X228682857Y-108881009D02*
X228635238Y-108976247D01*
X223664819Y-97102857D02*
X223188628Y-97436190D01*
X223664819Y-97674285D02*
X222664819Y-97674285D01*
X222664819Y-97674285D02*
X222664819Y-97293333D01*
X222664819Y-97293333D02*
X222712438Y-97198095D01*
X222712438Y-97198095D02*
X222760057Y-97150476D01*
X222760057Y-97150476D02*
X222855295Y-97102857D01*
X222855295Y-97102857D02*
X222998152Y-97102857D01*
X222998152Y-97102857D02*
X223093390Y-97150476D01*
X223093390Y-97150476D02*
X223141009Y-97198095D01*
X223141009Y-97198095D02*
X223188628Y-97293333D01*
X223188628Y-97293333D02*
X223188628Y-97674285D01*
X222998152Y-96245714D02*
X223664819Y-96245714D01*
X222617200Y-96483809D02*
X223331485Y-96721904D01*
X223331485Y-96721904D02*
X223331485Y-96102857D01*
X222998152Y-95293333D02*
X223664819Y-95293333D01*
X222617200Y-95531428D02*
X223331485Y-95769523D01*
X223331485Y-95769523D02*
X223331485Y-95150476D01*
X254074819Y-54038094D02*
X253074819Y-54038094D01*
X253074819Y-54038094D02*
X253074819Y-53799999D01*
X253074819Y-53799999D02*
X253122438Y-53657142D01*
X253122438Y-53657142D02*
X253217676Y-53561904D01*
X253217676Y-53561904D02*
X253312914Y-53514285D01*
X253312914Y-53514285D02*
X253503390Y-53466666D01*
X253503390Y-53466666D02*
X253646247Y-53466666D01*
X253646247Y-53466666D02*
X253836723Y-53514285D01*
X253836723Y-53514285D02*
X253931961Y-53561904D01*
X253931961Y-53561904D02*
X254027200Y-53657142D01*
X254027200Y-53657142D02*
X254074819Y-53799999D01*
X254074819Y-53799999D02*
X254074819Y-54038094D01*
X254074819Y-52514285D02*
X254074819Y-53085713D01*
X254074819Y-52799999D02*
X253074819Y-52799999D01*
X253074819Y-52799999D02*
X253217676Y-52895237D01*
X253217676Y-52895237D02*
X253312914Y-52990475D01*
X253312914Y-52990475D02*
X253360533Y-53085713D01*
X264266666Y-59349819D02*
X264266666Y-60064104D01*
X264266666Y-60064104D02*
X264219047Y-60206961D01*
X264219047Y-60206961D02*
X264123809Y-60302200D01*
X264123809Y-60302200D02*
X263980952Y-60349819D01*
X263980952Y-60349819D02*
X263885714Y-60349819D01*
X265266666Y-60349819D02*
X264695238Y-60349819D01*
X264980952Y-60349819D02*
X264980952Y-59349819D01*
X264980952Y-59349819D02*
X264885714Y-59492676D01*
X264885714Y-59492676D02*
X264790476Y-59587914D01*
X264790476Y-59587914D02*
X264695238Y-59635533D01*
X244532142Y-63524819D02*
X244198809Y-63048628D01*
X243960714Y-63524819D02*
X243960714Y-62524819D01*
X243960714Y-62524819D02*
X244341666Y-62524819D01*
X244341666Y-62524819D02*
X244436904Y-62572438D01*
X244436904Y-62572438D02*
X244484523Y-62620057D01*
X244484523Y-62620057D02*
X244532142Y-62715295D01*
X244532142Y-62715295D02*
X244532142Y-62858152D01*
X244532142Y-62858152D02*
X244484523Y-62953390D01*
X244484523Y-62953390D02*
X244436904Y-63001009D01*
X244436904Y-63001009D02*
X244341666Y-63048628D01*
X244341666Y-63048628D02*
X243960714Y-63048628D01*
X245389285Y-62858152D02*
X245389285Y-63524819D01*
X245151190Y-62477200D02*
X244913095Y-63191485D01*
X244913095Y-63191485D02*
X245532142Y-63191485D01*
X245865476Y-62620057D02*
X245913095Y-62572438D01*
X245913095Y-62572438D02*
X246008333Y-62524819D01*
X246008333Y-62524819D02*
X246246428Y-62524819D01*
X246246428Y-62524819D02*
X246341666Y-62572438D01*
X246341666Y-62572438D02*
X246389285Y-62620057D01*
X246389285Y-62620057D02*
X246436904Y-62715295D01*
X246436904Y-62715295D02*
X246436904Y-62810533D01*
X246436904Y-62810533D02*
X246389285Y-62953390D01*
X246389285Y-62953390D02*
X245817857Y-63524819D01*
X245817857Y-63524819D02*
X246436904Y-63524819D01*
X216396666Y-76804819D02*
X216396666Y-77519104D01*
X216396666Y-77519104D02*
X216349047Y-77661961D01*
X216349047Y-77661961D02*
X216253809Y-77757200D01*
X216253809Y-77757200D02*
X216110952Y-77804819D01*
X216110952Y-77804819D02*
X216015714Y-77804819D01*
X217301428Y-77138152D02*
X217301428Y-77804819D01*
X217063333Y-76757200D02*
X216825238Y-77471485D01*
X216825238Y-77471485D02*
X217444285Y-77471485D01*
X227182142Y-74524819D02*
X226848809Y-74048628D01*
X226610714Y-74524819D02*
X226610714Y-73524819D01*
X226610714Y-73524819D02*
X226991666Y-73524819D01*
X226991666Y-73524819D02*
X227086904Y-73572438D01*
X227086904Y-73572438D02*
X227134523Y-73620057D01*
X227134523Y-73620057D02*
X227182142Y-73715295D01*
X227182142Y-73715295D02*
X227182142Y-73858152D01*
X227182142Y-73858152D02*
X227134523Y-73953390D01*
X227134523Y-73953390D02*
X227086904Y-74001009D01*
X227086904Y-74001009D02*
X226991666Y-74048628D01*
X226991666Y-74048628D02*
X226610714Y-74048628D01*
X227563095Y-73620057D02*
X227610714Y-73572438D01*
X227610714Y-73572438D02*
X227705952Y-73524819D01*
X227705952Y-73524819D02*
X227944047Y-73524819D01*
X227944047Y-73524819D02*
X228039285Y-73572438D01*
X228039285Y-73572438D02*
X228086904Y-73620057D01*
X228086904Y-73620057D02*
X228134523Y-73715295D01*
X228134523Y-73715295D02*
X228134523Y-73810533D01*
X228134523Y-73810533D02*
X228086904Y-73953390D01*
X228086904Y-73953390D02*
X227515476Y-74524819D01*
X227515476Y-74524819D02*
X228134523Y-74524819D01*
X228705952Y-73953390D02*
X228610714Y-73905771D01*
X228610714Y-73905771D02*
X228563095Y-73858152D01*
X228563095Y-73858152D02*
X228515476Y-73762914D01*
X228515476Y-73762914D02*
X228515476Y-73715295D01*
X228515476Y-73715295D02*
X228563095Y-73620057D01*
X228563095Y-73620057D02*
X228610714Y-73572438D01*
X228610714Y-73572438D02*
X228705952Y-73524819D01*
X228705952Y-73524819D02*
X228896428Y-73524819D01*
X228896428Y-73524819D02*
X228991666Y-73572438D01*
X228991666Y-73572438D02*
X229039285Y-73620057D01*
X229039285Y-73620057D02*
X229086904Y-73715295D01*
X229086904Y-73715295D02*
X229086904Y-73762914D01*
X229086904Y-73762914D02*
X229039285Y-73858152D01*
X229039285Y-73858152D02*
X228991666Y-73905771D01*
X228991666Y-73905771D02*
X228896428Y-73953390D01*
X228896428Y-73953390D02*
X228705952Y-73953390D01*
X228705952Y-73953390D02*
X228610714Y-74001009D01*
X228610714Y-74001009D02*
X228563095Y-74048628D01*
X228563095Y-74048628D02*
X228515476Y-74143866D01*
X228515476Y-74143866D02*
X228515476Y-74334342D01*
X228515476Y-74334342D02*
X228563095Y-74429580D01*
X228563095Y-74429580D02*
X228610714Y-74477200D01*
X228610714Y-74477200D02*
X228705952Y-74524819D01*
X228705952Y-74524819D02*
X228896428Y-74524819D01*
X228896428Y-74524819D02*
X228991666Y-74477200D01*
X228991666Y-74477200D02*
X229039285Y-74429580D01*
X229039285Y-74429580D02*
X229086904Y-74334342D01*
X229086904Y-74334342D02*
X229086904Y-74143866D01*
X229086904Y-74143866D02*
X229039285Y-74048628D01*
X229039285Y-74048628D02*
X228991666Y-74001009D01*
X228991666Y-74001009D02*
X228896428Y-73953390D01*
X231028628Y-91996190D02*
X231504819Y-91996190D01*
X230504819Y-92329523D02*
X231028628Y-91996190D01*
X231028628Y-91996190D02*
X230504819Y-91662857D01*
X231504819Y-90805714D02*
X231504819Y-91377142D01*
X231504819Y-91091428D02*
X230504819Y-91091428D01*
X230504819Y-91091428D02*
X230647676Y-91186666D01*
X230647676Y-91186666D02*
X230742914Y-91281904D01*
X230742914Y-91281904D02*
X230790533Y-91377142D01*
X235767142Y-76344819D02*
X235433809Y-75868628D01*
X235195714Y-76344819D02*
X235195714Y-75344819D01*
X235195714Y-75344819D02*
X235576666Y-75344819D01*
X235576666Y-75344819D02*
X235671904Y-75392438D01*
X235671904Y-75392438D02*
X235719523Y-75440057D01*
X235719523Y-75440057D02*
X235767142Y-75535295D01*
X235767142Y-75535295D02*
X235767142Y-75678152D01*
X235767142Y-75678152D02*
X235719523Y-75773390D01*
X235719523Y-75773390D02*
X235671904Y-75821009D01*
X235671904Y-75821009D02*
X235576666Y-75868628D01*
X235576666Y-75868628D02*
X235195714Y-75868628D01*
X236148095Y-75440057D02*
X236195714Y-75392438D01*
X236195714Y-75392438D02*
X236290952Y-75344819D01*
X236290952Y-75344819D02*
X236529047Y-75344819D01*
X236529047Y-75344819D02*
X236624285Y-75392438D01*
X236624285Y-75392438D02*
X236671904Y-75440057D01*
X236671904Y-75440057D02*
X236719523Y-75535295D01*
X236719523Y-75535295D02*
X236719523Y-75630533D01*
X236719523Y-75630533D02*
X236671904Y-75773390D01*
X236671904Y-75773390D02*
X236100476Y-76344819D01*
X236100476Y-76344819D02*
X236719523Y-76344819D01*
X237100476Y-75440057D02*
X237148095Y-75392438D01*
X237148095Y-75392438D02*
X237243333Y-75344819D01*
X237243333Y-75344819D02*
X237481428Y-75344819D01*
X237481428Y-75344819D02*
X237576666Y-75392438D01*
X237576666Y-75392438D02*
X237624285Y-75440057D01*
X237624285Y-75440057D02*
X237671904Y-75535295D01*
X237671904Y-75535295D02*
X237671904Y-75630533D01*
X237671904Y-75630533D02*
X237624285Y-75773390D01*
X237624285Y-75773390D02*
X237052857Y-76344819D01*
X237052857Y-76344819D02*
X237671904Y-76344819D01*
X245697142Y-66889580D02*
X245649523Y-66937200D01*
X245649523Y-66937200D02*
X245506666Y-66984819D01*
X245506666Y-66984819D02*
X245411428Y-66984819D01*
X245411428Y-66984819D02*
X245268571Y-66937200D01*
X245268571Y-66937200D02*
X245173333Y-66841961D01*
X245173333Y-66841961D02*
X245125714Y-66746723D01*
X245125714Y-66746723D02*
X245078095Y-66556247D01*
X245078095Y-66556247D02*
X245078095Y-66413390D01*
X245078095Y-66413390D02*
X245125714Y-66222914D01*
X245125714Y-66222914D02*
X245173333Y-66127676D01*
X245173333Y-66127676D02*
X245268571Y-66032438D01*
X245268571Y-66032438D02*
X245411428Y-65984819D01*
X245411428Y-65984819D02*
X245506666Y-65984819D01*
X245506666Y-65984819D02*
X245649523Y-66032438D01*
X245649523Y-66032438D02*
X245697142Y-66080057D01*
X246601904Y-65984819D02*
X246125714Y-65984819D01*
X246125714Y-65984819D02*
X246078095Y-66461009D01*
X246078095Y-66461009D02*
X246125714Y-66413390D01*
X246125714Y-66413390D02*
X246220952Y-66365771D01*
X246220952Y-66365771D02*
X246459047Y-66365771D01*
X246459047Y-66365771D02*
X246554285Y-66413390D01*
X246554285Y-66413390D02*
X246601904Y-66461009D01*
X246601904Y-66461009D02*
X246649523Y-66556247D01*
X246649523Y-66556247D02*
X246649523Y-66794342D01*
X246649523Y-66794342D02*
X246601904Y-66889580D01*
X246601904Y-66889580D02*
X246554285Y-66937200D01*
X246554285Y-66937200D02*
X246459047Y-66984819D01*
X246459047Y-66984819D02*
X246220952Y-66984819D01*
X246220952Y-66984819D02*
X246125714Y-66937200D01*
X246125714Y-66937200D02*
X246078095Y-66889580D01*
X247554285Y-65984819D02*
X247078095Y-65984819D01*
X247078095Y-65984819D02*
X247030476Y-66461009D01*
X247030476Y-66461009D02*
X247078095Y-66413390D01*
X247078095Y-66413390D02*
X247173333Y-66365771D01*
X247173333Y-66365771D02*
X247411428Y-66365771D01*
X247411428Y-66365771D02*
X247506666Y-66413390D01*
X247506666Y-66413390D02*
X247554285Y-66461009D01*
X247554285Y-66461009D02*
X247601904Y-66556247D01*
X247601904Y-66556247D02*
X247601904Y-66794342D01*
X247601904Y-66794342D02*
X247554285Y-66889580D01*
X247554285Y-66889580D02*
X247506666Y-66937200D01*
X247506666Y-66937200D02*
X247411428Y-66984819D01*
X247411428Y-66984819D02*
X247173333Y-66984819D01*
X247173333Y-66984819D02*
X247078095Y-66937200D01*
X247078095Y-66937200D02*
X247030476Y-66889580D01*
X245400595Y-89354819D02*
X245400595Y-90164342D01*
X245400595Y-90164342D02*
X245448214Y-90259580D01*
X245448214Y-90259580D02*
X245495833Y-90307200D01*
X245495833Y-90307200D02*
X245591071Y-90354819D01*
X245591071Y-90354819D02*
X245781547Y-90354819D01*
X245781547Y-90354819D02*
X245876785Y-90307200D01*
X245876785Y-90307200D02*
X245924404Y-90259580D01*
X245924404Y-90259580D02*
X245972023Y-90164342D01*
X245972023Y-90164342D02*
X245972023Y-89354819D01*
X246352976Y-89354819D02*
X246972023Y-89354819D01*
X246972023Y-89354819D02*
X246638690Y-89735771D01*
X246638690Y-89735771D02*
X246781547Y-89735771D01*
X246781547Y-89735771D02*
X246876785Y-89783390D01*
X246876785Y-89783390D02*
X246924404Y-89831009D01*
X246924404Y-89831009D02*
X246972023Y-89926247D01*
X246972023Y-89926247D02*
X246972023Y-90164342D01*
X246972023Y-90164342D02*
X246924404Y-90259580D01*
X246924404Y-90259580D02*
X246876785Y-90307200D01*
X246876785Y-90307200D02*
X246781547Y-90354819D01*
X246781547Y-90354819D02*
X246495833Y-90354819D01*
X246495833Y-90354819D02*
X246400595Y-90307200D01*
X246400595Y-90307200D02*
X246352976Y-90259580D01*
X222589580Y-78742857D02*
X222637200Y-78790476D01*
X222637200Y-78790476D02*
X222684819Y-78933333D01*
X222684819Y-78933333D02*
X222684819Y-79028571D01*
X222684819Y-79028571D02*
X222637200Y-79171428D01*
X222637200Y-79171428D02*
X222541961Y-79266666D01*
X222541961Y-79266666D02*
X222446723Y-79314285D01*
X222446723Y-79314285D02*
X222256247Y-79361904D01*
X222256247Y-79361904D02*
X222113390Y-79361904D01*
X222113390Y-79361904D02*
X221922914Y-79314285D01*
X221922914Y-79314285D02*
X221827676Y-79266666D01*
X221827676Y-79266666D02*
X221732438Y-79171428D01*
X221732438Y-79171428D02*
X221684819Y-79028571D01*
X221684819Y-79028571D02*
X221684819Y-78933333D01*
X221684819Y-78933333D02*
X221732438Y-78790476D01*
X221732438Y-78790476D02*
X221780057Y-78742857D01*
X221780057Y-78361904D02*
X221732438Y-78314285D01*
X221732438Y-78314285D02*
X221684819Y-78219047D01*
X221684819Y-78219047D02*
X221684819Y-77980952D01*
X221684819Y-77980952D02*
X221732438Y-77885714D01*
X221732438Y-77885714D02*
X221780057Y-77838095D01*
X221780057Y-77838095D02*
X221875295Y-77790476D01*
X221875295Y-77790476D02*
X221970533Y-77790476D01*
X221970533Y-77790476D02*
X222113390Y-77838095D01*
X222113390Y-77838095D02*
X222684819Y-78409523D01*
X222684819Y-78409523D02*
X222684819Y-77790476D01*
X222018152Y-76933333D02*
X222684819Y-76933333D01*
X221637200Y-77171428D02*
X222351485Y-77409523D01*
X222351485Y-77409523D02*
X222351485Y-76790476D01*
X262284819Y-93057857D02*
X261808628Y-93391190D01*
X262284819Y-93629285D02*
X261284819Y-93629285D01*
X261284819Y-93629285D02*
X261284819Y-93248333D01*
X261284819Y-93248333D02*
X261332438Y-93153095D01*
X261332438Y-93153095D02*
X261380057Y-93105476D01*
X261380057Y-93105476D02*
X261475295Y-93057857D01*
X261475295Y-93057857D02*
X261618152Y-93057857D01*
X261618152Y-93057857D02*
X261713390Y-93105476D01*
X261713390Y-93105476D02*
X261761009Y-93153095D01*
X261761009Y-93153095D02*
X261808628Y-93248333D01*
X261808628Y-93248333D02*
X261808628Y-93629285D01*
X261284819Y-92724523D02*
X261284819Y-92105476D01*
X261284819Y-92105476D02*
X261665771Y-92438809D01*
X261665771Y-92438809D02*
X261665771Y-92295952D01*
X261665771Y-92295952D02*
X261713390Y-92200714D01*
X261713390Y-92200714D02*
X261761009Y-92153095D01*
X261761009Y-92153095D02*
X261856247Y-92105476D01*
X261856247Y-92105476D02*
X262094342Y-92105476D01*
X262094342Y-92105476D02*
X262189580Y-92153095D01*
X262189580Y-92153095D02*
X262237200Y-92200714D01*
X262237200Y-92200714D02*
X262284819Y-92295952D01*
X262284819Y-92295952D02*
X262284819Y-92581666D01*
X262284819Y-92581666D02*
X262237200Y-92676904D01*
X262237200Y-92676904D02*
X262189580Y-92724523D01*
X262284819Y-91629285D02*
X262284819Y-91438809D01*
X262284819Y-91438809D02*
X262237200Y-91343571D01*
X262237200Y-91343571D02*
X262189580Y-91295952D01*
X262189580Y-91295952D02*
X262046723Y-91200714D01*
X262046723Y-91200714D02*
X261856247Y-91153095D01*
X261856247Y-91153095D02*
X261475295Y-91153095D01*
X261475295Y-91153095D02*
X261380057Y-91200714D01*
X261380057Y-91200714D02*
X261332438Y-91248333D01*
X261332438Y-91248333D02*
X261284819Y-91343571D01*
X261284819Y-91343571D02*
X261284819Y-91534047D01*
X261284819Y-91534047D02*
X261332438Y-91629285D01*
X261332438Y-91629285D02*
X261380057Y-91676904D01*
X261380057Y-91676904D02*
X261475295Y-91724523D01*
X261475295Y-91724523D02*
X261713390Y-91724523D01*
X261713390Y-91724523D02*
X261808628Y-91676904D01*
X261808628Y-91676904D02*
X261856247Y-91629285D01*
X261856247Y-91629285D02*
X261903866Y-91534047D01*
X261903866Y-91534047D02*
X261903866Y-91343571D01*
X261903866Y-91343571D02*
X261856247Y-91248333D01*
X261856247Y-91248333D02*
X261808628Y-91200714D01*
X261808628Y-91200714D02*
X261713390Y-91153095D01*
X220607142Y-70404819D02*
X220273809Y-69928628D01*
X220035714Y-70404819D02*
X220035714Y-69404819D01*
X220035714Y-69404819D02*
X220416666Y-69404819D01*
X220416666Y-69404819D02*
X220511904Y-69452438D01*
X220511904Y-69452438D02*
X220559523Y-69500057D01*
X220559523Y-69500057D02*
X220607142Y-69595295D01*
X220607142Y-69595295D02*
X220607142Y-69738152D01*
X220607142Y-69738152D02*
X220559523Y-69833390D01*
X220559523Y-69833390D02*
X220511904Y-69881009D01*
X220511904Y-69881009D02*
X220416666Y-69928628D01*
X220416666Y-69928628D02*
X220035714Y-69928628D01*
X220988095Y-69500057D02*
X221035714Y-69452438D01*
X221035714Y-69452438D02*
X221130952Y-69404819D01*
X221130952Y-69404819D02*
X221369047Y-69404819D01*
X221369047Y-69404819D02*
X221464285Y-69452438D01*
X221464285Y-69452438D02*
X221511904Y-69500057D01*
X221511904Y-69500057D02*
X221559523Y-69595295D01*
X221559523Y-69595295D02*
X221559523Y-69690533D01*
X221559523Y-69690533D02*
X221511904Y-69833390D01*
X221511904Y-69833390D02*
X220940476Y-70404819D01*
X220940476Y-70404819D02*
X221559523Y-70404819D01*
X222416666Y-69404819D02*
X222226190Y-69404819D01*
X222226190Y-69404819D02*
X222130952Y-69452438D01*
X222130952Y-69452438D02*
X222083333Y-69500057D01*
X222083333Y-69500057D02*
X221988095Y-69642914D01*
X221988095Y-69642914D02*
X221940476Y-69833390D01*
X221940476Y-69833390D02*
X221940476Y-70214342D01*
X221940476Y-70214342D02*
X221988095Y-70309580D01*
X221988095Y-70309580D02*
X222035714Y-70357200D01*
X222035714Y-70357200D02*
X222130952Y-70404819D01*
X222130952Y-70404819D02*
X222321428Y-70404819D01*
X222321428Y-70404819D02*
X222416666Y-70357200D01*
X222416666Y-70357200D02*
X222464285Y-70309580D01*
X222464285Y-70309580D02*
X222511904Y-70214342D01*
X222511904Y-70214342D02*
X222511904Y-69976247D01*
X222511904Y-69976247D02*
X222464285Y-69881009D01*
X222464285Y-69881009D02*
X222416666Y-69833390D01*
X222416666Y-69833390D02*
X222321428Y-69785771D01*
X222321428Y-69785771D02*
X222130952Y-69785771D01*
X222130952Y-69785771D02*
X222035714Y-69833390D01*
X222035714Y-69833390D02*
X221988095Y-69881009D01*
X221988095Y-69881009D02*
X221940476Y-69976247D01*
X235254819Y-78412857D02*
X234778628Y-78746190D01*
X235254819Y-78984285D02*
X234254819Y-78984285D01*
X234254819Y-78984285D02*
X234254819Y-78603333D01*
X234254819Y-78603333D02*
X234302438Y-78508095D01*
X234302438Y-78508095D02*
X234350057Y-78460476D01*
X234350057Y-78460476D02*
X234445295Y-78412857D01*
X234445295Y-78412857D02*
X234588152Y-78412857D01*
X234588152Y-78412857D02*
X234683390Y-78460476D01*
X234683390Y-78460476D02*
X234731009Y-78508095D01*
X234731009Y-78508095D02*
X234778628Y-78603333D01*
X234778628Y-78603333D02*
X234778628Y-78984285D01*
X234254819Y-78079523D02*
X234254819Y-77460476D01*
X234254819Y-77460476D02*
X234635771Y-77793809D01*
X234635771Y-77793809D02*
X234635771Y-77650952D01*
X234635771Y-77650952D02*
X234683390Y-77555714D01*
X234683390Y-77555714D02*
X234731009Y-77508095D01*
X234731009Y-77508095D02*
X234826247Y-77460476D01*
X234826247Y-77460476D02*
X235064342Y-77460476D01*
X235064342Y-77460476D02*
X235159580Y-77508095D01*
X235159580Y-77508095D02*
X235207200Y-77555714D01*
X235207200Y-77555714D02*
X235254819Y-77650952D01*
X235254819Y-77650952D02*
X235254819Y-77936666D01*
X235254819Y-77936666D02*
X235207200Y-78031904D01*
X235207200Y-78031904D02*
X235159580Y-78079523D01*
X234350057Y-77079523D02*
X234302438Y-77031904D01*
X234302438Y-77031904D02*
X234254819Y-76936666D01*
X234254819Y-76936666D02*
X234254819Y-76698571D01*
X234254819Y-76698571D02*
X234302438Y-76603333D01*
X234302438Y-76603333D02*
X234350057Y-76555714D01*
X234350057Y-76555714D02*
X234445295Y-76508095D01*
X234445295Y-76508095D02*
X234540533Y-76508095D01*
X234540533Y-76508095D02*
X234683390Y-76555714D01*
X234683390Y-76555714D02*
X235254819Y-77127142D01*
X235254819Y-77127142D02*
X235254819Y-76508095D01*
X216046666Y-69544819D02*
X216046666Y-70259104D01*
X216046666Y-70259104D02*
X215999047Y-70401961D01*
X215999047Y-70401961D02*
X215903809Y-70497200D01*
X215903809Y-70497200D02*
X215760952Y-70544819D01*
X215760952Y-70544819D02*
X215665714Y-70544819D01*
X216999047Y-69544819D02*
X216522857Y-69544819D01*
X216522857Y-69544819D02*
X216475238Y-70021009D01*
X216475238Y-70021009D02*
X216522857Y-69973390D01*
X216522857Y-69973390D02*
X216618095Y-69925771D01*
X216618095Y-69925771D02*
X216856190Y-69925771D01*
X216856190Y-69925771D02*
X216951428Y-69973390D01*
X216951428Y-69973390D02*
X216999047Y-70021009D01*
X216999047Y-70021009D02*
X217046666Y-70116247D01*
X217046666Y-70116247D02*
X217046666Y-70354342D01*
X217046666Y-70354342D02*
X216999047Y-70449580D01*
X216999047Y-70449580D02*
X216951428Y-70497200D01*
X216951428Y-70497200D02*
X216856190Y-70544819D01*
X216856190Y-70544819D02*
X216618095Y-70544819D01*
X216618095Y-70544819D02*
X216522857Y-70497200D01*
X216522857Y-70497200D02*
X216475238Y-70449580D01*
X229937142Y-74389580D02*
X229889523Y-74437200D01*
X229889523Y-74437200D02*
X229746666Y-74484819D01*
X229746666Y-74484819D02*
X229651428Y-74484819D01*
X229651428Y-74484819D02*
X229508571Y-74437200D01*
X229508571Y-74437200D02*
X229413333Y-74341961D01*
X229413333Y-74341961D02*
X229365714Y-74246723D01*
X229365714Y-74246723D02*
X229318095Y-74056247D01*
X229318095Y-74056247D02*
X229318095Y-73913390D01*
X229318095Y-73913390D02*
X229365714Y-73722914D01*
X229365714Y-73722914D02*
X229413333Y-73627676D01*
X229413333Y-73627676D02*
X229508571Y-73532438D01*
X229508571Y-73532438D02*
X229651428Y-73484819D01*
X229651428Y-73484819D02*
X229746666Y-73484819D01*
X229746666Y-73484819D02*
X229889523Y-73532438D01*
X229889523Y-73532438D02*
X229937142Y-73580057D01*
X230318095Y-73580057D02*
X230365714Y-73532438D01*
X230365714Y-73532438D02*
X230460952Y-73484819D01*
X230460952Y-73484819D02*
X230699047Y-73484819D01*
X230699047Y-73484819D02*
X230794285Y-73532438D01*
X230794285Y-73532438D02*
X230841904Y-73580057D01*
X230841904Y-73580057D02*
X230889523Y-73675295D01*
X230889523Y-73675295D02*
X230889523Y-73770533D01*
X230889523Y-73770533D02*
X230841904Y-73913390D01*
X230841904Y-73913390D02*
X230270476Y-74484819D01*
X230270476Y-74484819D02*
X230889523Y-74484819D01*
X231794285Y-73484819D02*
X231318095Y-73484819D01*
X231318095Y-73484819D02*
X231270476Y-73961009D01*
X231270476Y-73961009D02*
X231318095Y-73913390D01*
X231318095Y-73913390D02*
X231413333Y-73865771D01*
X231413333Y-73865771D02*
X231651428Y-73865771D01*
X231651428Y-73865771D02*
X231746666Y-73913390D01*
X231746666Y-73913390D02*
X231794285Y-73961009D01*
X231794285Y-73961009D02*
X231841904Y-74056247D01*
X231841904Y-74056247D02*
X231841904Y-74294342D01*
X231841904Y-74294342D02*
X231794285Y-74389580D01*
X231794285Y-74389580D02*
X231746666Y-74437200D01*
X231746666Y-74437200D02*
X231651428Y-74484819D01*
X231651428Y-74484819D02*
X231413333Y-74484819D01*
X231413333Y-74484819D02*
X231318095Y-74437200D01*
X231318095Y-74437200D02*
X231270476Y-74389580D01*
X259257142Y-97809580D02*
X259209523Y-97857200D01*
X259209523Y-97857200D02*
X259066666Y-97904819D01*
X259066666Y-97904819D02*
X258971428Y-97904819D01*
X258971428Y-97904819D02*
X258828571Y-97857200D01*
X258828571Y-97857200D02*
X258733333Y-97761961D01*
X258733333Y-97761961D02*
X258685714Y-97666723D01*
X258685714Y-97666723D02*
X258638095Y-97476247D01*
X258638095Y-97476247D02*
X258638095Y-97333390D01*
X258638095Y-97333390D02*
X258685714Y-97142914D01*
X258685714Y-97142914D02*
X258733333Y-97047676D01*
X258733333Y-97047676D02*
X258828571Y-96952438D01*
X258828571Y-96952438D02*
X258971428Y-96904819D01*
X258971428Y-96904819D02*
X259066666Y-96904819D01*
X259066666Y-96904819D02*
X259209523Y-96952438D01*
X259209523Y-96952438D02*
X259257142Y-97000057D01*
X259590476Y-96904819D02*
X260209523Y-96904819D01*
X260209523Y-96904819D02*
X259876190Y-97285771D01*
X259876190Y-97285771D02*
X260019047Y-97285771D01*
X260019047Y-97285771D02*
X260114285Y-97333390D01*
X260114285Y-97333390D02*
X260161904Y-97381009D01*
X260161904Y-97381009D02*
X260209523Y-97476247D01*
X260209523Y-97476247D02*
X260209523Y-97714342D01*
X260209523Y-97714342D02*
X260161904Y-97809580D01*
X260161904Y-97809580D02*
X260114285Y-97857200D01*
X260114285Y-97857200D02*
X260019047Y-97904819D01*
X260019047Y-97904819D02*
X259733333Y-97904819D01*
X259733333Y-97904819D02*
X259638095Y-97857200D01*
X259638095Y-97857200D02*
X259590476Y-97809580D01*
X261066666Y-97238152D02*
X261066666Y-97904819D01*
X260828571Y-96857200D02*
X260590476Y-97571485D01*
X260590476Y-97571485D02*
X261209523Y-97571485D01*
X225617142Y-102404819D02*
X225283809Y-101928628D01*
X225045714Y-102404819D02*
X225045714Y-101404819D01*
X225045714Y-101404819D02*
X225426666Y-101404819D01*
X225426666Y-101404819D02*
X225521904Y-101452438D01*
X225521904Y-101452438D02*
X225569523Y-101500057D01*
X225569523Y-101500057D02*
X225617142Y-101595295D01*
X225617142Y-101595295D02*
X225617142Y-101738152D01*
X225617142Y-101738152D02*
X225569523Y-101833390D01*
X225569523Y-101833390D02*
X225521904Y-101881009D01*
X225521904Y-101881009D02*
X225426666Y-101928628D01*
X225426666Y-101928628D02*
X225045714Y-101928628D01*
X225950476Y-101404819D02*
X226569523Y-101404819D01*
X226569523Y-101404819D02*
X226236190Y-101785771D01*
X226236190Y-101785771D02*
X226379047Y-101785771D01*
X226379047Y-101785771D02*
X226474285Y-101833390D01*
X226474285Y-101833390D02*
X226521904Y-101881009D01*
X226521904Y-101881009D02*
X226569523Y-101976247D01*
X226569523Y-101976247D02*
X226569523Y-102214342D01*
X226569523Y-102214342D02*
X226521904Y-102309580D01*
X226521904Y-102309580D02*
X226474285Y-102357200D01*
X226474285Y-102357200D02*
X226379047Y-102404819D01*
X226379047Y-102404819D02*
X226093333Y-102404819D01*
X226093333Y-102404819D02*
X225998095Y-102357200D01*
X225998095Y-102357200D02*
X225950476Y-102309580D01*
X227426666Y-101404819D02*
X227236190Y-101404819D01*
X227236190Y-101404819D02*
X227140952Y-101452438D01*
X227140952Y-101452438D02*
X227093333Y-101500057D01*
X227093333Y-101500057D02*
X226998095Y-101642914D01*
X226998095Y-101642914D02*
X226950476Y-101833390D01*
X226950476Y-101833390D02*
X226950476Y-102214342D01*
X226950476Y-102214342D02*
X226998095Y-102309580D01*
X226998095Y-102309580D02*
X227045714Y-102357200D01*
X227045714Y-102357200D02*
X227140952Y-102404819D01*
X227140952Y-102404819D02*
X227331428Y-102404819D01*
X227331428Y-102404819D02*
X227426666Y-102357200D01*
X227426666Y-102357200D02*
X227474285Y-102309580D01*
X227474285Y-102309580D02*
X227521904Y-102214342D01*
X227521904Y-102214342D02*
X227521904Y-101976247D01*
X227521904Y-101976247D02*
X227474285Y-101881009D01*
X227474285Y-101881009D02*
X227426666Y-101833390D01*
X227426666Y-101833390D02*
X227331428Y-101785771D01*
X227331428Y-101785771D02*
X227140952Y-101785771D01*
X227140952Y-101785771D02*
X227045714Y-101833390D01*
X227045714Y-101833390D02*
X226998095Y-101881009D01*
X226998095Y-101881009D02*
X226950476Y-101976247D01*
X268690476Y-76794819D02*
X268690476Y-77509104D01*
X268690476Y-77509104D02*
X268642857Y-77651961D01*
X268642857Y-77651961D02*
X268547619Y-77747200D01*
X268547619Y-77747200D02*
X268404762Y-77794819D01*
X268404762Y-77794819D02*
X268309524Y-77794819D01*
X269690476Y-77794819D02*
X269119048Y-77794819D01*
X269404762Y-77794819D02*
X269404762Y-76794819D01*
X269404762Y-76794819D02*
X269309524Y-76937676D01*
X269309524Y-76937676D02*
X269214286Y-77032914D01*
X269214286Y-77032914D02*
X269119048Y-77080533D01*
X270309524Y-76794819D02*
X270404762Y-76794819D01*
X270404762Y-76794819D02*
X270500000Y-76842438D01*
X270500000Y-76842438D02*
X270547619Y-76890057D01*
X270547619Y-76890057D02*
X270595238Y-76985295D01*
X270595238Y-76985295D02*
X270642857Y-77175771D01*
X270642857Y-77175771D02*
X270642857Y-77413866D01*
X270642857Y-77413866D02*
X270595238Y-77604342D01*
X270595238Y-77604342D02*
X270547619Y-77699580D01*
X270547619Y-77699580D02*
X270500000Y-77747200D01*
X270500000Y-77747200D02*
X270404762Y-77794819D01*
X270404762Y-77794819D02*
X270309524Y-77794819D01*
X270309524Y-77794819D02*
X270214286Y-77747200D01*
X270214286Y-77747200D02*
X270166667Y-77699580D01*
X270166667Y-77699580D02*
X270119048Y-77604342D01*
X270119048Y-77604342D02*
X270071429Y-77413866D01*
X270071429Y-77413866D02*
X270071429Y-77175771D01*
X270071429Y-77175771D02*
X270119048Y-76985295D01*
X270119048Y-76985295D02*
X270166667Y-76890057D01*
X270166667Y-76890057D02*
X270214286Y-76842438D01*
X270214286Y-76842438D02*
X270309524Y-76794819D01*
X244166666Y-53954819D02*
X244166666Y-54669104D01*
X244166666Y-54669104D02*
X244119047Y-54811961D01*
X244119047Y-54811961D02*
X244023809Y-54907200D01*
X244023809Y-54907200D02*
X243880952Y-54954819D01*
X243880952Y-54954819D02*
X243785714Y-54954819D01*
X244595238Y-54050057D02*
X244642857Y-54002438D01*
X244642857Y-54002438D02*
X244738095Y-53954819D01*
X244738095Y-53954819D02*
X244976190Y-53954819D01*
X244976190Y-53954819D02*
X245071428Y-54002438D01*
X245071428Y-54002438D02*
X245119047Y-54050057D01*
X245119047Y-54050057D02*
X245166666Y-54145295D01*
X245166666Y-54145295D02*
X245166666Y-54240533D01*
X245166666Y-54240533D02*
X245119047Y-54383390D01*
X245119047Y-54383390D02*
X244547619Y-54954819D01*
X244547619Y-54954819D02*
X245166666Y-54954819D01*
X225507142Y-106054819D02*
X225173809Y-105578628D01*
X224935714Y-106054819D02*
X224935714Y-105054819D01*
X224935714Y-105054819D02*
X225316666Y-105054819D01*
X225316666Y-105054819D02*
X225411904Y-105102438D01*
X225411904Y-105102438D02*
X225459523Y-105150057D01*
X225459523Y-105150057D02*
X225507142Y-105245295D01*
X225507142Y-105245295D02*
X225507142Y-105388152D01*
X225507142Y-105388152D02*
X225459523Y-105483390D01*
X225459523Y-105483390D02*
X225411904Y-105531009D01*
X225411904Y-105531009D02*
X225316666Y-105578628D01*
X225316666Y-105578628D02*
X224935714Y-105578628D01*
X225840476Y-105054819D02*
X226459523Y-105054819D01*
X226459523Y-105054819D02*
X226126190Y-105435771D01*
X226126190Y-105435771D02*
X226269047Y-105435771D01*
X226269047Y-105435771D02*
X226364285Y-105483390D01*
X226364285Y-105483390D02*
X226411904Y-105531009D01*
X226411904Y-105531009D02*
X226459523Y-105626247D01*
X226459523Y-105626247D02*
X226459523Y-105864342D01*
X226459523Y-105864342D02*
X226411904Y-105959580D01*
X226411904Y-105959580D02*
X226364285Y-106007200D01*
X226364285Y-106007200D02*
X226269047Y-106054819D01*
X226269047Y-106054819D02*
X225983333Y-106054819D01*
X225983333Y-106054819D02*
X225888095Y-106007200D01*
X225888095Y-106007200D02*
X225840476Y-105959580D01*
X227364285Y-105054819D02*
X226888095Y-105054819D01*
X226888095Y-105054819D02*
X226840476Y-105531009D01*
X226840476Y-105531009D02*
X226888095Y-105483390D01*
X226888095Y-105483390D02*
X226983333Y-105435771D01*
X226983333Y-105435771D02*
X227221428Y-105435771D01*
X227221428Y-105435771D02*
X227316666Y-105483390D01*
X227316666Y-105483390D02*
X227364285Y-105531009D01*
X227364285Y-105531009D02*
X227411904Y-105626247D01*
X227411904Y-105626247D02*
X227411904Y-105864342D01*
X227411904Y-105864342D02*
X227364285Y-105959580D01*
X227364285Y-105959580D02*
X227316666Y-106007200D01*
X227316666Y-106007200D02*
X227221428Y-106054819D01*
X227221428Y-106054819D02*
X226983333Y-106054819D01*
X226983333Y-106054819D02*
X226888095Y-106007200D01*
X226888095Y-106007200D02*
X226840476Y-105959580D01*
X267409580Y-85562857D02*
X267457200Y-85610476D01*
X267457200Y-85610476D02*
X267504819Y-85753333D01*
X267504819Y-85753333D02*
X267504819Y-85848571D01*
X267504819Y-85848571D02*
X267457200Y-85991428D01*
X267457200Y-85991428D02*
X267361961Y-86086666D01*
X267361961Y-86086666D02*
X267266723Y-86134285D01*
X267266723Y-86134285D02*
X267076247Y-86181904D01*
X267076247Y-86181904D02*
X266933390Y-86181904D01*
X266933390Y-86181904D02*
X266742914Y-86134285D01*
X266742914Y-86134285D02*
X266647676Y-86086666D01*
X266647676Y-86086666D02*
X266552438Y-85991428D01*
X266552438Y-85991428D02*
X266504819Y-85848571D01*
X266504819Y-85848571D02*
X266504819Y-85753333D01*
X266504819Y-85753333D02*
X266552438Y-85610476D01*
X266552438Y-85610476D02*
X266600057Y-85562857D01*
X267504819Y-84610476D02*
X267504819Y-85181904D01*
X267504819Y-84896190D02*
X266504819Y-84896190D01*
X266504819Y-84896190D02*
X266647676Y-84991428D01*
X266647676Y-84991428D02*
X266742914Y-85086666D01*
X266742914Y-85086666D02*
X266790533Y-85181904D01*
X266933390Y-84039047D02*
X266885771Y-84134285D01*
X266885771Y-84134285D02*
X266838152Y-84181904D01*
X266838152Y-84181904D02*
X266742914Y-84229523D01*
X266742914Y-84229523D02*
X266695295Y-84229523D01*
X266695295Y-84229523D02*
X266600057Y-84181904D01*
X266600057Y-84181904D02*
X266552438Y-84134285D01*
X266552438Y-84134285D02*
X266504819Y-84039047D01*
X266504819Y-84039047D02*
X266504819Y-83848571D01*
X266504819Y-83848571D02*
X266552438Y-83753333D01*
X266552438Y-83753333D02*
X266600057Y-83705714D01*
X266600057Y-83705714D02*
X266695295Y-83658095D01*
X266695295Y-83658095D02*
X266742914Y-83658095D01*
X266742914Y-83658095D02*
X266838152Y-83705714D01*
X266838152Y-83705714D02*
X266885771Y-83753333D01*
X266885771Y-83753333D02*
X266933390Y-83848571D01*
X266933390Y-83848571D02*
X266933390Y-84039047D01*
X266933390Y-84039047D02*
X266981009Y-84134285D01*
X266981009Y-84134285D02*
X267028628Y-84181904D01*
X267028628Y-84181904D02*
X267123866Y-84229523D01*
X267123866Y-84229523D02*
X267314342Y-84229523D01*
X267314342Y-84229523D02*
X267409580Y-84181904D01*
X267409580Y-84181904D02*
X267457200Y-84134285D01*
X267457200Y-84134285D02*
X267504819Y-84039047D01*
X267504819Y-84039047D02*
X267504819Y-83848571D01*
X267504819Y-83848571D02*
X267457200Y-83753333D01*
X267457200Y-83753333D02*
X267409580Y-83705714D01*
X267409580Y-83705714D02*
X267314342Y-83658095D01*
X267314342Y-83658095D02*
X267123866Y-83658095D01*
X267123866Y-83658095D02*
X267028628Y-83705714D01*
X267028628Y-83705714D02*
X266981009Y-83753333D01*
X266981009Y-83753333D02*
X266933390Y-83848571D01*
X258877142Y-76849580D02*
X258829523Y-76897200D01*
X258829523Y-76897200D02*
X258686666Y-76944819D01*
X258686666Y-76944819D02*
X258591428Y-76944819D01*
X258591428Y-76944819D02*
X258448571Y-76897200D01*
X258448571Y-76897200D02*
X258353333Y-76801961D01*
X258353333Y-76801961D02*
X258305714Y-76706723D01*
X258305714Y-76706723D02*
X258258095Y-76516247D01*
X258258095Y-76516247D02*
X258258095Y-76373390D01*
X258258095Y-76373390D02*
X258305714Y-76182914D01*
X258305714Y-76182914D02*
X258353333Y-76087676D01*
X258353333Y-76087676D02*
X258448571Y-75992438D01*
X258448571Y-75992438D02*
X258591428Y-75944819D01*
X258591428Y-75944819D02*
X258686666Y-75944819D01*
X258686666Y-75944819D02*
X258829523Y-75992438D01*
X258829523Y-75992438D02*
X258877142Y-76040057D01*
X259829523Y-76944819D02*
X259258095Y-76944819D01*
X259543809Y-76944819D02*
X259543809Y-75944819D01*
X259543809Y-75944819D02*
X259448571Y-76087676D01*
X259448571Y-76087676D02*
X259353333Y-76182914D01*
X259353333Y-76182914D02*
X259258095Y-76230533D01*
X260686666Y-75944819D02*
X260496190Y-75944819D01*
X260496190Y-75944819D02*
X260400952Y-75992438D01*
X260400952Y-75992438D02*
X260353333Y-76040057D01*
X260353333Y-76040057D02*
X260258095Y-76182914D01*
X260258095Y-76182914D02*
X260210476Y-76373390D01*
X260210476Y-76373390D02*
X260210476Y-76754342D01*
X260210476Y-76754342D02*
X260258095Y-76849580D01*
X260258095Y-76849580D02*
X260305714Y-76897200D01*
X260305714Y-76897200D02*
X260400952Y-76944819D01*
X260400952Y-76944819D02*
X260591428Y-76944819D01*
X260591428Y-76944819D02*
X260686666Y-76897200D01*
X260686666Y-76897200D02*
X260734285Y-76849580D01*
X260734285Y-76849580D02*
X260781904Y-76754342D01*
X260781904Y-76754342D02*
X260781904Y-76516247D01*
X260781904Y-76516247D02*
X260734285Y-76421009D01*
X260734285Y-76421009D02*
X260686666Y-76373390D01*
X260686666Y-76373390D02*
X260591428Y-76325771D01*
X260591428Y-76325771D02*
X260400952Y-76325771D01*
X260400952Y-76325771D02*
X260305714Y-76373390D01*
X260305714Y-76373390D02*
X260258095Y-76421009D01*
X260258095Y-76421009D02*
X260210476Y-76516247D01*
X263341666Y-69804819D02*
X263341666Y-70519104D01*
X263341666Y-70519104D02*
X263294047Y-70661961D01*
X263294047Y-70661961D02*
X263198809Y-70757200D01*
X263198809Y-70757200D02*
X263055952Y-70804819D01*
X263055952Y-70804819D02*
X262960714Y-70804819D01*
X263722619Y-69804819D02*
X264341666Y-69804819D01*
X264341666Y-69804819D02*
X264008333Y-70185771D01*
X264008333Y-70185771D02*
X264151190Y-70185771D01*
X264151190Y-70185771D02*
X264246428Y-70233390D01*
X264246428Y-70233390D02*
X264294047Y-70281009D01*
X264294047Y-70281009D02*
X264341666Y-70376247D01*
X264341666Y-70376247D02*
X264341666Y-70614342D01*
X264341666Y-70614342D02*
X264294047Y-70709580D01*
X264294047Y-70709580D02*
X264246428Y-70757200D01*
X264246428Y-70757200D02*
X264151190Y-70804819D01*
X264151190Y-70804819D02*
X263865476Y-70804819D01*
X263865476Y-70804819D02*
X263770238Y-70757200D01*
X263770238Y-70757200D02*
X263722619Y-70709580D01*
X237229580Y-84502857D02*
X237277200Y-84550476D01*
X237277200Y-84550476D02*
X237324819Y-84693333D01*
X237324819Y-84693333D02*
X237324819Y-84788571D01*
X237324819Y-84788571D02*
X237277200Y-84931428D01*
X237277200Y-84931428D02*
X237181961Y-85026666D01*
X237181961Y-85026666D02*
X237086723Y-85074285D01*
X237086723Y-85074285D02*
X236896247Y-85121904D01*
X236896247Y-85121904D02*
X236753390Y-85121904D01*
X236753390Y-85121904D02*
X236562914Y-85074285D01*
X236562914Y-85074285D02*
X236467676Y-85026666D01*
X236467676Y-85026666D02*
X236372438Y-84931428D01*
X236372438Y-84931428D02*
X236324819Y-84788571D01*
X236324819Y-84788571D02*
X236324819Y-84693333D01*
X236324819Y-84693333D02*
X236372438Y-84550476D01*
X236372438Y-84550476D02*
X236420057Y-84502857D01*
X237324819Y-83550476D02*
X237324819Y-84121904D01*
X237324819Y-83836190D02*
X236324819Y-83836190D01*
X236324819Y-83836190D02*
X236467676Y-83931428D01*
X236467676Y-83931428D02*
X236562914Y-84026666D01*
X236562914Y-84026666D02*
X236610533Y-84121904D01*
X236420057Y-83169523D02*
X236372438Y-83121904D01*
X236372438Y-83121904D02*
X236324819Y-83026666D01*
X236324819Y-83026666D02*
X236324819Y-82788571D01*
X236324819Y-82788571D02*
X236372438Y-82693333D01*
X236372438Y-82693333D02*
X236420057Y-82645714D01*
X236420057Y-82645714D02*
X236515295Y-82598095D01*
X236515295Y-82598095D02*
X236610533Y-82598095D01*
X236610533Y-82598095D02*
X236753390Y-82645714D01*
X236753390Y-82645714D02*
X237324819Y-83217142D01*
X237324819Y-83217142D02*
X237324819Y-82598095D01*
X264032142Y-77249819D02*
X263698809Y-76773628D01*
X263460714Y-77249819D02*
X263460714Y-76249819D01*
X263460714Y-76249819D02*
X263841666Y-76249819D01*
X263841666Y-76249819D02*
X263936904Y-76297438D01*
X263936904Y-76297438D02*
X263984523Y-76345057D01*
X263984523Y-76345057D02*
X264032142Y-76440295D01*
X264032142Y-76440295D02*
X264032142Y-76583152D01*
X264032142Y-76583152D02*
X263984523Y-76678390D01*
X263984523Y-76678390D02*
X263936904Y-76726009D01*
X263936904Y-76726009D02*
X263841666Y-76773628D01*
X263841666Y-76773628D02*
X263460714Y-76773628D01*
X264365476Y-76249819D02*
X264984523Y-76249819D01*
X264984523Y-76249819D02*
X264651190Y-76630771D01*
X264651190Y-76630771D02*
X264794047Y-76630771D01*
X264794047Y-76630771D02*
X264889285Y-76678390D01*
X264889285Y-76678390D02*
X264936904Y-76726009D01*
X264936904Y-76726009D02*
X264984523Y-76821247D01*
X264984523Y-76821247D02*
X264984523Y-77059342D01*
X264984523Y-77059342D02*
X264936904Y-77154580D01*
X264936904Y-77154580D02*
X264889285Y-77202200D01*
X264889285Y-77202200D02*
X264794047Y-77249819D01*
X264794047Y-77249819D02*
X264508333Y-77249819D01*
X264508333Y-77249819D02*
X264413095Y-77202200D01*
X264413095Y-77202200D02*
X264365476Y-77154580D01*
X265603571Y-76249819D02*
X265698809Y-76249819D01*
X265698809Y-76249819D02*
X265794047Y-76297438D01*
X265794047Y-76297438D02*
X265841666Y-76345057D01*
X265841666Y-76345057D02*
X265889285Y-76440295D01*
X265889285Y-76440295D02*
X265936904Y-76630771D01*
X265936904Y-76630771D02*
X265936904Y-76868866D01*
X265936904Y-76868866D02*
X265889285Y-77059342D01*
X265889285Y-77059342D02*
X265841666Y-77154580D01*
X265841666Y-77154580D02*
X265794047Y-77202200D01*
X265794047Y-77202200D02*
X265698809Y-77249819D01*
X265698809Y-77249819D02*
X265603571Y-77249819D01*
X265603571Y-77249819D02*
X265508333Y-77202200D01*
X265508333Y-77202200D02*
X265460714Y-77154580D01*
X265460714Y-77154580D02*
X265413095Y-77059342D01*
X265413095Y-77059342D02*
X265365476Y-76868866D01*
X265365476Y-76868866D02*
X265365476Y-76630771D01*
X265365476Y-76630771D02*
X265413095Y-76440295D01*
X265413095Y-76440295D02*
X265460714Y-76345057D01*
X265460714Y-76345057D02*
X265508333Y-76297438D01*
X265508333Y-76297438D02*
X265603571Y-76249819D01*
X233327142Y-83129580D02*
X233279523Y-83177200D01*
X233279523Y-83177200D02*
X233136666Y-83224819D01*
X233136666Y-83224819D02*
X233041428Y-83224819D01*
X233041428Y-83224819D02*
X232898571Y-83177200D01*
X232898571Y-83177200D02*
X232803333Y-83081961D01*
X232803333Y-83081961D02*
X232755714Y-82986723D01*
X232755714Y-82986723D02*
X232708095Y-82796247D01*
X232708095Y-82796247D02*
X232708095Y-82653390D01*
X232708095Y-82653390D02*
X232755714Y-82462914D01*
X232755714Y-82462914D02*
X232803333Y-82367676D01*
X232803333Y-82367676D02*
X232898571Y-82272438D01*
X232898571Y-82272438D02*
X233041428Y-82224819D01*
X233041428Y-82224819D02*
X233136666Y-82224819D01*
X233136666Y-82224819D02*
X233279523Y-82272438D01*
X233279523Y-82272438D02*
X233327142Y-82320057D01*
X233708095Y-82320057D02*
X233755714Y-82272438D01*
X233755714Y-82272438D02*
X233850952Y-82224819D01*
X233850952Y-82224819D02*
X234089047Y-82224819D01*
X234089047Y-82224819D02*
X234184285Y-82272438D01*
X234184285Y-82272438D02*
X234231904Y-82320057D01*
X234231904Y-82320057D02*
X234279523Y-82415295D01*
X234279523Y-82415295D02*
X234279523Y-82510533D01*
X234279523Y-82510533D02*
X234231904Y-82653390D01*
X234231904Y-82653390D02*
X233660476Y-83224819D01*
X233660476Y-83224819D02*
X234279523Y-83224819D01*
X235136666Y-82224819D02*
X234946190Y-82224819D01*
X234946190Y-82224819D02*
X234850952Y-82272438D01*
X234850952Y-82272438D02*
X234803333Y-82320057D01*
X234803333Y-82320057D02*
X234708095Y-82462914D01*
X234708095Y-82462914D02*
X234660476Y-82653390D01*
X234660476Y-82653390D02*
X234660476Y-83034342D01*
X234660476Y-83034342D02*
X234708095Y-83129580D01*
X234708095Y-83129580D02*
X234755714Y-83177200D01*
X234755714Y-83177200D02*
X234850952Y-83224819D01*
X234850952Y-83224819D02*
X235041428Y-83224819D01*
X235041428Y-83224819D02*
X235136666Y-83177200D01*
X235136666Y-83177200D02*
X235184285Y-83129580D01*
X235184285Y-83129580D02*
X235231904Y-83034342D01*
X235231904Y-83034342D02*
X235231904Y-82796247D01*
X235231904Y-82796247D02*
X235184285Y-82701009D01*
X235184285Y-82701009D02*
X235136666Y-82653390D01*
X235136666Y-82653390D02*
X235041428Y-82605771D01*
X235041428Y-82605771D02*
X234850952Y-82605771D01*
X234850952Y-82605771D02*
X234755714Y-82653390D01*
X234755714Y-82653390D02*
X234708095Y-82701009D01*
X234708095Y-82701009D02*
X234660476Y-82796247D01*
X236479580Y-99912857D02*
X236527200Y-99960476D01*
X236527200Y-99960476D02*
X236574819Y-100103333D01*
X236574819Y-100103333D02*
X236574819Y-100198571D01*
X236574819Y-100198571D02*
X236527200Y-100341428D01*
X236527200Y-100341428D02*
X236431961Y-100436666D01*
X236431961Y-100436666D02*
X236336723Y-100484285D01*
X236336723Y-100484285D02*
X236146247Y-100531904D01*
X236146247Y-100531904D02*
X236003390Y-100531904D01*
X236003390Y-100531904D02*
X235812914Y-100484285D01*
X235812914Y-100484285D02*
X235717676Y-100436666D01*
X235717676Y-100436666D02*
X235622438Y-100341428D01*
X235622438Y-100341428D02*
X235574819Y-100198571D01*
X235574819Y-100198571D02*
X235574819Y-100103333D01*
X235574819Y-100103333D02*
X235622438Y-99960476D01*
X235622438Y-99960476D02*
X235670057Y-99912857D01*
X235908152Y-99055714D02*
X236574819Y-99055714D01*
X235527200Y-99293809D02*
X236241485Y-99531904D01*
X236241485Y-99531904D02*
X236241485Y-98912857D01*
X236574819Y-98008095D02*
X236574819Y-98579523D01*
X236574819Y-98293809D02*
X235574819Y-98293809D01*
X235574819Y-98293809D02*
X235717676Y-98389047D01*
X235717676Y-98389047D02*
X235812914Y-98484285D01*
X235812914Y-98484285D02*
X235860533Y-98579523D01*
X266484819Y-94312857D02*
X266008628Y-94646190D01*
X266484819Y-94884285D02*
X265484819Y-94884285D01*
X265484819Y-94884285D02*
X265484819Y-94503333D01*
X265484819Y-94503333D02*
X265532438Y-94408095D01*
X265532438Y-94408095D02*
X265580057Y-94360476D01*
X265580057Y-94360476D02*
X265675295Y-94312857D01*
X265675295Y-94312857D02*
X265818152Y-94312857D01*
X265818152Y-94312857D02*
X265913390Y-94360476D01*
X265913390Y-94360476D02*
X265961009Y-94408095D01*
X265961009Y-94408095D02*
X266008628Y-94503333D01*
X266008628Y-94503333D02*
X266008628Y-94884285D01*
X265818152Y-93455714D02*
X266484819Y-93455714D01*
X265437200Y-93693809D02*
X266151485Y-93931904D01*
X266151485Y-93931904D02*
X266151485Y-93312857D01*
X265484819Y-92741428D02*
X265484819Y-92646190D01*
X265484819Y-92646190D02*
X265532438Y-92550952D01*
X265532438Y-92550952D02*
X265580057Y-92503333D01*
X265580057Y-92503333D02*
X265675295Y-92455714D01*
X265675295Y-92455714D02*
X265865771Y-92408095D01*
X265865771Y-92408095D02*
X266103866Y-92408095D01*
X266103866Y-92408095D02*
X266294342Y-92455714D01*
X266294342Y-92455714D02*
X266389580Y-92503333D01*
X266389580Y-92503333D02*
X266437200Y-92550952D01*
X266437200Y-92550952D02*
X266484819Y-92646190D01*
X266484819Y-92646190D02*
X266484819Y-92741428D01*
X266484819Y-92741428D02*
X266437200Y-92836666D01*
X266437200Y-92836666D02*
X266389580Y-92884285D01*
X266389580Y-92884285D02*
X266294342Y-92931904D01*
X266294342Y-92931904D02*
X266103866Y-92979523D01*
X266103866Y-92979523D02*
X265865771Y-92979523D01*
X265865771Y-92979523D02*
X265675295Y-92931904D01*
X265675295Y-92931904D02*
X265580057Y-92884285D01*
X265580057Y-92884285D02*
X265532438Y-92836666D01*
X265532438Y-92836666D02*
X265484819Y-92741428D01*
X269166666Y-86774819D02*
X269166666Y-87489104D01*
X269166666Y-87489104D02*
X269119047Y-87631961D01*
X269119047Y-87631961D02*
X269023809Y-87727200D01*
X269023809Y-87727200D02*
X268880952Y-87774819D01*
X268880952Y-87774819D02*
X268785714Y-87774819D01*
X269547619Y-86774819D02*
X270214285Y-86774819D01*
X270214285Y-86774819D02*
X269785714Y-87774819D01*
X227924819Y-96342857D02*
X227448628Y-96676190D01*
X227924819Y-96914285D02*
X226924819Y-96914285D01*
X226924819Y-96914285D02*
X226924819Y-96533333D01*
X226924819Y-96533333D02*
X226972438Y-96438095D01*
X226972438Y-96438095D02*
X227020057Y-96390476D01*
X227020057Y-96390476D02*
X227115295Y-96342857D01*
X227115295Y-96342857D02*
X227258152Y-96342857D01*
X227258152Y-96342857D02*
X227353390Y-96390476D01*
X227353390Y-96390476D02*
X227401009Y-96438095D01*
X227401009Y-96438095D02*
X227448628Y-96533333D01*
X227448628Y-96533333D02*
X227448628Y-96914285D01*
X227924819Y-95390476D02*
X227924819Y-95961904D01*
X227924819Y-95676190D02*
X226924819Y-95676190D01*
X226924819Y-95676190D02*
X227067676Y-95771428D01*
X227067676Y-95771428D02*
X227162914Y-95866666D01*
X227162914Y-95866666D02*
X227210533Y-95961904D01*
X226924819Y-94771428D02*
X226924819Y-94676190D01*
X226924819Y-94676190D02*
X226972438Y-94580952D01*
X226972438Y-94580952D02*
X227020057Y-94533333D01*
X227020057Y-94533333D02*
X227115295Y-94485714D01*
X227115295Y-94485714D02*
X227305771Y-94438095D01*
X227305771Y-94438095D02*
X227543866Y-94438095D01*
X227543866Y-94438095D02*
X227734342Y-94485714D01*
X227734342Y-94485714D02*
X227829580Y-94533333D01*
X227829580Y-94533333D02*
X227877200Y-94580952D01*
X227877200Y-94580952D02*
X227924819Y-94676190D01*
X227924819Y-94676190D02*
X227924819Y-94771428D01*
X227924819Y-94771428D02*
X227877200Y-94866666D01*
X227877200Y-94866666D02*
X227829580Y-94914285D01*
X227829580Y-94914285D02*
X227734342Y-94961904D01*
X227734342Y-94961904D02*
X227543866Y-95009523D01*
X227543866Y-95009523D02*
X227305771Y-95009523D01*
X227305771Y-95009523D02*
X227115295Y-94961904D01*
X227115295Y-94961904D02*
X227020057Y-94914285D01*
X227020057Y-94914285D02*
X226972438Y-94866666D01*
X226972438Y-94866666D02*
X226924819Y-94771428D01*
X258384819Y-58132857D02*
X257908628Y-58466190D01*
X258384819Y-58704285D02*
X257384819Y-58704285D01*
X257384819Y-58704285D02*
X257384819Y-58323333D01*
X257384819Y-58323333D02*
X257432438Y-58228095D01*
X257432438Y-58228095D02*
X257480057Y-58180476D01*
X257480057Y-58180476D02*
X257575295Y-58132857D01*
X257575295Y-58132857D02*
X257718152Y-58132857D01*
X257718152Y-58132857D02*
X257813390Y-58180476D01*
X257813390Y-58180476D02*
X257861009Y-58228095D01*
X257861009Y-58228095D02*
X257908628Y-58323333D01*
X257908628Y-58323333D02*
X257908628Y-58704285D01*
X258384819Y-57180476D02*
X258384819Y-57751904D01*
X258384819Y-57466190D02*
X257384819Y-57466190D01*
X257384819Y-57466190D02*
X257527676Y-57561428D01*
X257527676Y-57561428D02*
X257622914Y-57656666D01*
X257622914Y-57656666D02*
X257670533Y-57751904D01*
X257813390Y-56609047D02*
X257765771Y-56704285D01*
X257765771Y-56704285D02*
X257718152Y-56751904D01*
X257718152Y-56751904D02*
X257622914Y-56799523D01*
X257622914Y-56799523D02*
X257575295Y-56799523D01*
X257575295Y-56799523D02*
X257480057Y-56751904D01*
X257480057Y-56751904D02*
X257432438Y-56704285D01*
X257432438Y-56704285D02*
X257384819Y-56609047D01*
X257384819Y-56609047D02*
X257384819Y-56418571D01*
X257384819Y-56418571D02*
X257432438Y-56323333D01*
X257432438Y-56323333D02*
X257480057Y-56275714D01*
X257480057Y-56275714D02*
X257575295Y-56228095D01*
X257575295Y-56228095D02*
X257622914Y-56228095D01*
X257622914Y-56228095D02*
X257718152Y-56275714D01*
X257718152Y-56275714D02*
X257765771Y-56323333D01*
X257765771Y-56323333D02*
X257813390Y-56418571D01*
X257813390Y-56418571D02*
X257813390Y-56609047D01*
X257813390Y-56609047D02*
X257861009Y-56704285D01*
X257861009Y-56704285D02*
X257908628Y-56751904D01*
X257908628Y-56751904D02*
X258003866Y-56799523D01*
X258003866Y-56799523D02*
X258194342Y-56799523D01*
X258194342Y-56799523D02*
X258289580Y-56751904D01*
X258289580Y-56751904D02*
X258337200Y-56704285D01*
X258337200Y-56704285D02*
X258384819Y-56609047D01*
X258384819Y-56609047D02*
X258384819Y-56418571D01*
X258384819Y-56418571D02*
X258337200Y-56323333D01*
X258337200Y-56323333D02*
X258289580Y-56275714D01*
X258289580Y-56275714D02*
X258194342Y-56228095D01*
X258194342Y-56228095D02*
X258003866Y-56228095D01*
X258003866Y-56228095D02*
X257908628Y-56275714D01*
X257908628Y-56275714D02*
X257861009Y-56323333D01*
X257861009Y-56323333D02*
X257813390Y-56418571D01*
X256754819Y-54098094D02*
X255754819Y-54098094D01*
X255754819Y-54098094D02*
X255754819Y-53859999D01*
X255754819Y-53859999D02*
X255802438Y-53717142D01*
X255802438Y-53717142D02*
X255897676Y-53621904D01*
X255897676Y-53621904D02*
X255992914Y-53574285D01*
X255992914Y-53574285D02*
X256183390Y-53526666D01*
X256183390Y-53526666D02*
X256326247Y-53526666D01*
X256326247Y-53526666D02*
X256516723Y-53574285D01*
X256516723Y-53574285D02*
X256611961Y-53621904D01*
X256611961Y-53621904D02*
X256707200Y-53717142D01*
X256707200Y-53717142D02*
X256754819Y-53859999D01*
X256754819Y-53859999D02*
X256754819Y-54098094D01*
X255850057Y-53145713D02*
X255802438Y-53098094D01*
X255802438Y-53098094D02*
X255754819Y-53002856D01*
X255754819Y-53002856D02*
X255754819Y-52764761D01*
X255754819Y-52764761D02*
X255802438Y-52669523D01*
X255802438Y-52669523D02*
X255850057Y-52621904D01*
X255850057Y-52621904D02*
X255945295Y-52574285D01*
X255945295Y-52574285D02*
X256040533Y-52574285D01*
X256040533Y-52574285D02*
X256183390Y-52621904D01*
X256183390Y-52621904D02*
X256754819Y-53193332D01*
X256754819Y-53193332D02*
X256754819Y-52574285D01*
X252434819Y-58482857D02*
X251958628Y-58816190D01*
X252434819Y-59054285D02*
X251434819Y-59054285D01*
X251434819Y-59054285D02*
X251434819Y-58673333D01*
X251434819Y-58673333D02*
X251482438Y-58578095D01*
X251482438Y-58578095D02*
X251530057Y-58530476D01*
X251530057Y-58530476D02*
X251625295Y-58482857D01*
X251625295Y-58482857D02*
X251768152Y-58482857D01*
X251768152Y-58482857D02*
X251863390Y-58530476D01*
X251863390Y-58530476D02*
X251911009Y-58578095D01*
X251911009Y-58578095D02*
X251958628Y-58673333D01*
X251958628Y-58673333D02*
X251958628Y-59054285D01*
X252434819Y-57530476D02*
X252434819Y-58101904D01*
X252434819Y-57816190D02*
X251434819Y-57816190D01*
X251434819Y-57816190D02*
X251577676Y-57911428D01*
X251577676Y-57911428D02*
X251672914Y-58006666D01*
X251672914Y-58006666D02*
X251720533Y-58101904D01*
X251434819Y-57197142D02*
X251434819Y-56530476D01*
X251434819Y-56530476D02*
X252434819Y-56959047D01*
X262154819Y-82752857D02*
X261678628Y-83086190D01*
X262154819Y-83324285D02*
X261154819Y-83324285D01*
X261154819Y-83324285D02*
X261154819Y-82943333D01*
X261154819Y-82943333D02*
X261202438Y-82848095D01*
X261202438Y-82848095D02*
X261250057Y-82800476D01*
X261250057Y-82800476D02*
X261345295Y-82752857D01*
X261345295Y-82752857D02*
X261488152Y-82752857D01*
X261488152Y-82752857D02*
X261583390Y-82800476D01*
X261583390Y-82800476D02*
X261631009Y-82848095D01*
X261631009Y-82848095D02*
X261678628Y-82943333D01*
X261678628Y-82943333D02*
X261678628Y-83324285D01*
X261250057Y-82371904D02*
X261202438Y-82324285D01*
X261202438Y-82324285D02*
X261154819Y-82229047D01*
X261154819Y-82229047D02*
X261154819Y-81990952D01*
X261154819Y-81990952D02*
X261202438Y-81895714D01*
X261202438Y-81895714D02*
X261250057Y-81848095D01*
X261250057Y-81848095D02*
X261345295Y-81800476D01*
X261345295Y-81800476D02*
X261440533Y-81800476D01*
X261440533Y-81800476D02*
X261583390Y-81848095D01*
X261583390Y-81848095D02*
X262154819Y-82419523D01*
X262154819Y-82419523D02*
X262154819Y-81800476D01*
X261154819Y-80895714D02*
X261154819Y-81371904D01*
X261154819Y-81371904D02*
X261631009Y-81419523D01*
X261631009Y-81419523D02*
X261583390Y-81371904D01*
X261583390Y-81371904D02*
X261535771Y-81276666D01*
X261535771Y-81276666D02*
X261535771Y-81038571D01*
X261535771Y-81038571D02*
X261583390Y-80943333D01*
X261583390Y-80943333D02*
X261631009Y-80895714D01*
X261631009Y-80895714D02*
X261726247Y-80848095D01*
X261726247Y-80848095D02*
X261964342Y-80848095D01*
X261964342Y-80848095D02*
X262059580Y-80895714D01*
X262059580Y-80895714D02*
X262107200Y-80943333D01*
X262107200Y-80943333D02*
X262154819Y-81038571D01*
X262154819Y-81038571D02*
X262154819Y-81276666D01*
X262154819Y-81276666D02*
X262107200Y-81371904D01*
X262107200Y-81371904D02*
X262059580Y-81419523D01*
X229896190Y-100784819D02*
X229562857Y-100308628D01*
X229324762Y-100784819D02*
X229324762Y-99784819D01*
X229324762Y-99784819D02*
X229705714Y-99784819D01*
X229705714Y-99784819D02*
X229800952Y-99832438D01*
X229800952Y-99832438D02*
X229848571Y-99880057D01*
X229848571Y-99880057D02*
X229896190Y-99975295D01*
X229896190Y-99975295D02*
X229896190Y-100118152D01*
X229896190Y-100118152D02*
X229848571Y-100213390D01*
X229848571Y-100213390D02*
X229800952Y-100261009D01*
X229800952Y-100261009D02*
X229705714Y-100308628D01*
X229705714Y-100308628D02*
X229324762Y-100308628D01*
X230277143Y-100737200D02*
X230420000Y-100784819D01*
X230420000Y-100784819D02*
X230658095Y-100784819D01*
X230658095Y-100784819D02*
X230753333Y-100737200D01*
X230753333Y-100737200D02*
X230800952Y-100689580D01*
X230800952Y-100689580D02*
X230848571Y-100594342D01*
X230848571Y-100594342D02*
X230848571Y-100499104D01*
X230848571Y-100499104D02*
X230800952Y-100403866D01*
X230800952Y-100403866D02*
X230753333Y-100356247D01*
X230753333Y-100356247D02*
X230658095Y-100308628D01*
X230658095Y-100308628D02*
X230467619Y-100261009D01*
X230467619Y-100261009D02*
X230372381Y-100213390D01*
X230372381Y-100213390D02*
X230324762Y-100165771D01*
X230324762Y-100165771D02*
X230277143Y-100070533D01*
X230277143Y-100070533D02*
X230277143Y-99975295D01*
X230277143Y-99975295D02*
X230324762Y-99880057D01*
X230324762Y-99880057D02*
X230372381Y-99832438D01*
X230372381Y-99832438D02*
X230467619Y-99784819D01*
X230467619Y-99784819D02*
X230705714Y-99784819D01*
X230705714Y-99784819D02*
X230848571Y-99832438D01*
X231134286Y-99784819D02*
X231705714Y-99784819D01*
X231420000Y-100784819D02*
X231420000Y-99784819D01*
X232562857Y-100784819D02*
X231991429Y-100784819D01*
X232277143Y-100784819D02*
X232277143Y-99784819D01*
X232277143Y-99784819D02*
X232181905Y-99927676D01*
X232181905Y-99927676D02*
X232086667Y-100022914D01*
X232086667Y-100022914D02*
X231991429Y-100070533D01*
X220254819Y-84172857D02*
X219778628Y-84506190D01*
X220254819Y-84744285D02*
X219254819Y-84744285D01*
X219254819Y-84744285D02*
X219254819Y-84363333D01*
X219254819Y-84363333D02*
X219302438Y-84268095D01*
X219302438Y-84268095D02*
X219350057Y-84220476D01*
X219350057Y-84220476D02*
X219445295Y-84172857D01*
X219445295Y-84172857D02*
X219588152Y-84172857D01*
X219588152Y-84172857D02*
X219683390Y-84220476D01*
X219683390Y-84220476D02*
X219731009Y-84268095D01*
X219731009Y-84268095D02*
X219778628Y-84363333D01*
X219778628Y-84363333D02*
X219778628Y-84744285D01*
X220254819Y-83220476D02*
X220254819Y-83791904D01*
X220254819Y-83506190D02*
X219254819Y-83506190D01*
X219254819Y-83506190D02*
X219397676Y-83601428D01*
X219397676Y-83601428D02*
X219492914Y-83696666D01*
X219492914Y-83696666D02*
X219540533Y-83791904D01*
X220254819Y-82268095D02*
X220254819Y-82839523D01*
X220254819Y-82553809D02*
X219254819Y-82553809D01*
X219254819Y-82553809D02*
X219397676Y-82649047D01*
X219397676Y-82649047D02*
X219492914Y-82744285D01*
X219492914Y-82744285D02*
X219540533Y-82839523D01*
X259207142Y-84524819D02*
X258873809Y-84048628D01*
X258635714Y-84524819D02*
X258635714Y-83524819D01*
X258635714Y-83524819D02*
X259016666Y-83524819D01*
X259016666Y-83524819D02*
X259111904Y-83572438D01*
X259111904Y-83572438D02*
X259159523Y-83620057D01*
X259159523Y-83620057D02*
X259207142Y-83715295D01*
X259207142Y-83715295D02*
X259207142Y-83858152D01*
X259207142Y-83858152D02*
X259159523Y-83953390D01*
X259159523Y-83953390D02*
X259111904Y-84001009D01*
X259111904Y-84001009D02*
X259016666Y-84048628D01*
X259016666Y-84048628D02*
X258635714Y-84048628D01*
X259540476Y-83524819D02*
X260159523Y-83524819D01*
X260159523Y-83524819D02*
X259826190Y-83905771D01*
X259826190Y-83905771D02*
X259969047Y-83905771D01*
X259969047Y-83905771D02*
X260064285Y-83953390D01*
X260064285Y-83953390D02*
X260111904Y-84001009D01*
X260111904Y-84001009D02*
X260159523Y-84096247D01*
X260159523Y-84096247D02*
X260159523Y-84334342D01*
X260159523Y-84334342D02*
X260111904Y-84429580D01*
X260111904Y-84429580D02*
X260064285Y-84477200D01*
X260064285Y-84477200D02*
X259969047Y-84524819D01*
X259969047Y-84524819D02*
X259683333Y-84524819D01*
X259683333Y-84524819D02*
X259588095Y-84477200D01*
X259588095Y-84477200D02*
X259540476Y-84429580D01*
X260492857Y-83524819D02*
X261111904Y-83524819D01*
X261111904Y-83524819D02*
X260778571Y-83905771D01*
X260778571Y-83905771D02*
X260921428Y-83905771D01*
X260921428Y-83905771D02*
X261016666Y-83953390D01*
X261016666Y-83953390D02*
X261064285Y-84001009D01*
X261064285Y-84001009D02*
X261111904Y-84096247D01*
X261111904Y-84096247D02*
X261111904Y-84334342D01*
X261111904Y-84334342D02*
X261064285Y-84429580D01*
X261064285Y-84429580D02*
X261016666Y-84477200D01*
X261016666Y-84477200D02*
X260921428Y-84524819D01*
X260921428Y-84524819D02*
X260635714Y-84524819D01*
X260635714Y-84524819D02*
X260540476Y-84477200D01*
X260540476Y-84477200D02*
X260492857Y-84429580D01*
X235929580Y-54166666D02*
X235977200Y-54214285D01*
X235977200Y-54214285D02*
X236024819Y-54357142D01*
X236024819Y-54357142D02*
X236024819Y-54452380D01*
X236024819Y-54452380D02*
X235977200Y-54595237D01*
X235977200Y-54595237D02*
X235881961Y-54690475D01*
X235881961Y-54690475D02*
X235786723Y-54738094D01*
X235786723Y-54738094D02*
X235596247Y-54785713D01*
X235596247Y-54785713D02*
X235453390Y-54785713D01*
X235453390Y-54785713D02*
X235262914Y-54738094D01*
X235262914Y-54738094D02*
X235167676Y-54690475D01*
X235167676Y-54690475D02*
X235072438Y-54595237D01*
X235072438Y-54595237D02*
X235024819Y-54452380D01*
X235024819Y-54452380D02*
X235024819Y-54357142D01*
X235024819Y-54357142D02*
X235072438Y-54214285D01*
X235072438Y-54214285D02*
X235120057Y-54166666D01*
X235120057Y-53785713D02*
X235072438Y-53738094D01*
X235072438Y-53738094D02*
X235024819Y-53642856D01*
X235024819Y-53642856D02*
X235024819Y-53404761D01*
X235024819Y-53404761D02*
X235072438Y-53309523D01*
X235072438Y-53309523D02*
X235120057Y-53261904D01*
X235120057Y-53261904D02*
X235215295Y-53214285D01*
X235215295Y-53214285D02*
X235310533Y-53214285D01*
X235310533Y-53214285D02*
X235453390Y-53261904D01*
X235453390Y-53261904D02*
X236024819Y-53833332D01*
X236024819Y-53833332D02*
X236024819Y-53214285D01*
X242449580Y-108802857D02*
X242497200Y-108850476D01*
X242497200Y-108850476D02*
X242544819Y-108993333D01*
X242544819Y-108993333D02*
X242544819Y-109088571D01*
X242544819Y-109088571D02*
X242497200Y-109231428D01*
X242497200Y-109231428D02*
X242401961Y-109326666D01*
X242401961Y-109326666D02*
X242306723Y-109374285D01*
X242306723Y-109374285D02*
X242116247Y-109421904D01*
X242116247Y-109421904D02*
X241973390Y-109421904D01*
X241973390Y-109421904D02*
X241782914Y-109374285D01*
X241782914Y-109374285D02*
X241687676Y-109326666D01*
X241687676Y-109326666D02*
X241592438Y-109231428D01*
X241592438Y-109231428D02*
X241544819Y-109088571D01*
X241544819Y-109088571D02*
X241544819Y-108993333D01*
X241544819Y-108993333D02*
X241592438Y-108850476D01*
X241592438Y-108850476D02*
X241640057Y-108802857D01*
X241878152Y-107945714D02*
X242544819Y-107945714D01*
X241497200Y-108183809D02*
X242211485Y-108421904D01*
X242211485Y-108421904D02*
X242211485Y-107802857D01*
X241878152Y-106993333D02*
X242544819Y-106993333D01*
X241497200Y-107231428D02*
X242211485Y-107469523D01*
X242211485Y-107469523D02*
X242211485Y-106850476D01*
X229159580Y-80862857D02*
X229207200Y-80910476D01*
X229207200Y-80910476D02*
X229254819Y-81053333D01*
X229254819Y-81053333D02*
X229254819Y-81148571D01*
X229254819Y-81148571D02*
X229207200Y-81291428D01*
X229207200Y-81291428D02*
X229111961Y-81386666D01*
X229111961Y-81386666D02*
X229016723Y-81434285D01*
X229016723Y-81434285D02*
X228826247Y-81481904D01*
X228826247Y-81481904D02*
X228683390Y-81481904D01*
X228683390Y-81481904D02*
X228492914Y-81434285D01*
X228492914Y-81434285D02*
X228397676Y-81386666D01*
X228397676Y-81386666D02*
X228302438Y-81291428D01*
X228302438Y-81291428D02*
X228254819Y-81148571D01*
X228254819Y-81148571D02*
X228254819Y-81053333D01*
X228254819Y-81053333D02*
X228302438Y-80910476D01*
X228302438Y-80910476D02*
X228350057Y-80862857D01*
X228350057Y-80481904D02*
X228302438Y-80434285D01*
X228302438Y-80434285D02*
X228254819Y-80339047D01*
X228254819Y-80339047D02*
X228254819Y-80100952D01*
X228254819Y-80100952D02*
X228302438Y-80005714D01*
X228302438Y-80005714D02*
X228350057Y-79958095D01*
X228350057Y-79958095D02*
X228445295Y-79910476D01*
X228445295Y-79910476D02*
X228540533Y-79910476D01*
X228540533Y-79910476D02*
X228683390Y-79958095D01*
X228683390Y-79958095D02*
X229254819Y-80529523D01*
X229254819Y-80529523D02*
X229254819Y-79910476D01*
X229254819Y-78958095D02*
X229254819Y-79529523D01*
X229254819Y-79243809D02*
X228254819Y-79243809D01*
X228254819Y-79243809D02*
X228397676Y-79339047D01*
X228397676Y-79339047D02*
X228492914Y-79434285D01*
X228492914Y-79434285D02*
X228540533Y-79529523D01*
X242342142Y-103009580D02*
X242294523Y-103057200D01*
X242294523Y-103057200D02*
X242151666Y-103104819D01*
X242151666Y-103104819D02*
X242056428Y-103104819D01*
X242056428Y-103104819D02*
X241913571Y-103057200D01*
X241913571Y-103057200D02*
X241818333Y-102961961D01*
X241818333Y-102961961D02*
X241770714Y-102866723D01*
X241770714Y-102866723D02*
X241723095Y-102676247D01*
X241723095Y-102676247D02*
X241723095Y-102533390D01*
X241723095Y-102533390D02*
X241770714Y-102342914D01*
X241770714Y-102342914D02*
X241818333Y-102247676D01*
X241818333Y-102247676D02*
X241913571Y-102152438D01*
X241913571Y-102152438D02*
X242056428Y-102104819D01*
X242056428Y-102104819D02*
X242151666Y-102104819D01*
X242151666Y-102104819D02*
X242294523Y-102152438D01*
X242294523Y-102152438D02*
X242342142Y-102200057D01*
X243199285Y-102438152D02*
X243199285Y-103104819D01*
X242961190Y-102057200D02*
X242723095Y-102771485D01*
X242723095Y-102771485D02*
X243342142Y-102771485D01*
X244199285Y-102104819D02*
X243723095Y-102104819D01*
X243723095Y-102104819D02*
X243675476Y-102581009D01*
X243675476Y-102581009D02*
X243723095Y-102533390D01*
X243723095Y-102533390D02*
X243818333Y-102485771D01*
X243818333Y-102485771D02*
X244056428Y-102485771D01*
X244056428Y-102485771D02*
X244151666Y-102533390D01*
X244151666Y-102533390D02*
X244199285Y-102581009D01*
X244199285Y-102581009D02*
X244246904Y-102676247D01*
X244246904Y-102676247D02*
X244246904Y-102914342D01*
X244246904Y-102914342D02*
X244199285Y-103009580D01*
X244199285Y-103009580D02*
X244151666Y-103057200D01*
X244151666Y-103057200D02*
X244056428Y-103104819D01*
X244056428Y-103104819D02*
X243818333Y-103104819D01*
X243818333Y-103104819D02*
X243723095Y-103057200D01*
X243723095Y-103057200D02*
X243675476Y-103009580D01*
X226824819Y-100333333D02*
X227539104Y-100333333D01*
X227539104Y-100333333D02*
X227681961Y-100380952D01*
X227681961Y-100380952D02*
X227777200Y-100476190D01*
X227777200Y-100476190D02*
X227824819Y-100619047D01*
X227824819Y-100619047D02*
X227824819Y-100714285D01*
X227824819Y-99809523D02*
X227824819Y-99619047D01*
X227824819Y-99619047D02*
X227777200Y-99523809D01*
X227777200Y-99523809D02*
X227729580Y-99476190D01*
X227729580Y-99476190D02*
X227586723Y-99380952D01*
X227586723Y-99380952D02*
X227396247Y-99333333D01*
X227396247Y-99333333D02*
X227015295Y-99333333D01*
X227015295Y-99333333D02*
X226920057Y-99380952D01*
X226920057Y-99380952D02*
X226872438Y-99428571D01*
X226872438Y-99428571D02*
X226824819Y-99523809D01*
X226824819Y-99523809D02*
X226824819Y-99714285D01*
X226824819Y-99714285D02*
X226872438Y-99809523D01*
X226872438Y-99809523D02*
X226920057Y-99857142D01*
X226920057Y-99857142D02*
X227015295Y-99904761D01*
X227015295Y-99904761D02*
X227253390Y-99904761D01*
X227253390Y-99904761D02*
X227348628Y-99857142D01*
X227348628Y-99857142D02*
X227396247Y-99809523D01*
X227396247Y-99809523D02*
X227443866Y-99714285D01*
X227443866Y-99714285D02*
X227443866Y-99523809D01*
X227443866Y-99523809D02*
X227396247Y-99428571D01*
X227396247Y-99428571D02*
X227348628Y-99380952D01*
X227348628Y-99380952D02*
X227253390Y-99333333D01*
X225473333Y-86794819D02*
X225140000Y-86318628D01*
X224901905Y-86794819D02*
X224901905Y-85794819D01*
X224901905Y-85794819D02*
X225282857Y-85794819D01*
X225282857Y-85794819D02*
X225378095Y-85842438D01*
X225378095Y-85842438D02*
X225425714Y-85890057D01*
X225425714Y-85890057D02*
X225473333Y-85985295D01*
X225473333Y-85985295D02*
X225473333Y-86128152D01*
X225473333Y-86128152D02*
X225425714Y-86223390D01*
X225425714Y-86223390D02*
X225378095Y-86271009D01*
X225378095Y-86271009D02*
X225282857Y-86318628D01*
X225282857Y-86318628D02*
X224901905Y-86318628D01*
X226044762Y-86223390D02*
X225949524Y-86175771D01*
X225949524Y-86175771D02*
X225901905Y-86128152D01*
X225901905Y-86128152D02*
X225854286Y-86032914D01*
X225854286Y-86032914D02*
X225854286Y-85985295D01*
X225854286Y-85985295D02*
X225901905Y-85890057D01*
X225901905Y-85890057D02*
X225949524Y-85842438D01*
X225949524Y-85842438D02*
X226044762Y-85794819D01*
X226044762Y-85794819D02*
X226235238Y-85794819D01*
X226235238Y-85794819D02*
X226330476Y-85842438D01*
X226330476Y-85842438D02*
X226378095Y-85890057D01*
X226378095Y-85890057D02*
X226425714Y-85985295D01*
X226425714Y-85985295D02*
X226425714Y-86032914D01*
X226425714Y-86032914D02*
X226378095Y-86128152D01*
X226378095Y-86128152D02*
X226330476Y-86175771D01*
X226330476Y-86175771D02*
X226235238Y-86223390D01*
X226235238Y-86223390D02*
X226044762Y-86223390D01*
X226044762Y-86223390D02*
X225949524Y-86271009D01*
X225949524Y-86271009D02*
X225901905Y-86318628D01*
X225901905Y-86318628D02*
X225854286Y-86413866D01*
X225854286Y-86413866D02*
X225854286Y-86604342D01*
X225854286Y-86604342D02*
X225901905Y-86699580D01*
X225901905Y-86699580D02*
X225949524Y-86747200D01*
X225949524Y-86747200D02*
X226044762Y-86794819D01*
X226044762Y-86794819D02*
X226235238Y-86794819D01*
X226235238Y-86794819D02*
X226330476Y-86747200D01*
X226330476Y-86747200D02*
X226378095Y-86699580D01*
X226378095Y-86699580D02*
X226425714Y-86604342D01*
X226425714Y-86604342D02*
X226425714Y-86413866D01*
X226425714Y-86413866D02*
X226378095Y-86318628D01*
X226378095Y-86318628D02*
X226330476Y-86271009D01*
X226330476Y-86271009D02*
X226235238Y-86223390D01*
X265144819Y-82782857D02*
X264668628Y-83116190D01*
X265144819Y-83354285D02*
X264144819Y-83354285D01*
X264144819Y-83354285D02*
X264144819Y-82973333D01*
X264144819Y-82973333D02*
X264192438Y-82878095D01*
X264192438Y-82878095D02*
X264240057Y-82830476D01*
X264240057Y-82830476D02*
X264335295Y-82782857D01*
X264335295Y-82782857D02*
X264478152Y-82782857D01*
X264478152Y-82782857D02*
X264573390Y-82830476D01*
X264573390Y-82830476D02*
X264621009Y-82878095D01*
X264621009Y-82878095D02*
X264668628Y-82973333D01*
X264668628Y-82973333D02*
X264668628Y-83354285D01*
X264144819Y-82449523D02*
X264144819Y-81830476D01*
X264144819Y-81830476D02*
X264525771Y-82163809D01*
X264525771Y-82163809D02*
X264525771Y-82020952D01*
X264525771Y-82020952D02*
X264573390Y-81925714D01*
X264573390Y-81925714D02*
X264621009Y-81878095D01*
X264621009Y-81878095D02*
X264716247Y-81830476D01*
X264716247Y-81830476D02*
X264954342Y-81830476D01*
X264954342Y-81830476D02*
X265049580Y-81878095D01*
X265049580Y-81878095D02*
X265097200Y-81925714D01*
X265097200Y-81925714D02*
X265144819Y-82020952D01*
X265144819Y-82020952D02*
X265144819Y-82306666D01*
X265144819Y-82306666D02*
X265097200Y-82401904D01*
X265097200Y-82401904D02*
X265049580Y-82449523D01*
X265144819Y-80878095D02*
X265144819Y-81449523D01*
X265144819Y-81163809D02*
X264144819Y-81163809D01*
X264144819Y-81163809D02*
X264287676Y-81259047D01*
X264287676Y-81259047D02*
X264382914Y-81354285D01*
X264382914Y-81354285D02*
X264430533Y-81449523D01*
X235807142Y-75014819D02*
X235473809Y-74538628D01*
X235235714Y-75014819D02*
X235235714Y-74014819D01*
X235235714Y-74014819D02*
X235616666Y-74014819D01*
X235616666Y-74014819D02*
X235711904Y-74062438D01*
X235711904Y-74062438D02*
X235759523Y-74110057D01*
X235759523Y-74110057D02*
X235807142Y-74205295D01*
X235807142Y-74205295D02*
X235807142Y-74348152D01*
X235807142Y-74348152D02*
X235759523Y-74443390D01*
X235759523Y-74443390D02*
X235711904Y-74491009D01*
X235711904Y-74491009D02*
X235616666Y-74538628D01*
X235616666Y-74538628D02*
X235235714Y-74538628D01*
X236188095Y-74110057D02*
X236235714Y-74062438D01*
X236235714Y-74062438D02*
X236330952Y-74014819D01*
X236330952Y-74014819D02*
X236569047Y-74014819D01*
X236569047Y-74014819D02*
X236664285Y-74062438D01*
X236664285Y-74062438D02*
X236711904Y-74110057D01*
X236711904Y-74110057D02*
X236759523Y-74205295D01*
X236759523Y-74205295D02*
X236759523Y-74300533D01*
X236759523Y-74300533D02*
X236711904Y-74443390D01*
X236711904Y-74443390D02*
X236140476Y-75014819D01*
X236140476Y-75014819D02*
X236759523Y-75014819D01*
X237092857Y-74014819D02*
X237711904Y-74014819D01*
X237711904Y-74014819D02*
X237378571Y-74395771D01*
X237378571Y-74395771D02*
X237521428Y-74395771D01*
X237521428Y-74395771D02*
X237616666Y-74443390D01*
X237616666Y-74443390D02*
X237664285Y-74491009D01*
X237664285Y-74491009D02*
X237711904Y-74586247D01*
X237711904Y-74586247D02*
X237711904Y-74824342D01*
X237711904Y-74824342D02*
X237664285Y-74919580D01*
X237664285Y-74919580D02*
X237616666Y-74967200D01*
X237616666Y-74967200D02*
X237521428Y-75014819D01*
X237521428Y-75014819D02*
X237235714Y-75014819D01*
X237235714Y-75014819D02*
X237140476Y-74967200D01*
X237140476Y-74967200D02*
X237092857Y-74919580D01*
X226594819Y-81052857D02*
X226118628Y-81386190D01*
X226594819Y-81624285D02*
X225594819Y-81624285D01*
X225594819Y-81624285D02*
X225594819Y-81243333D01*
X225594819Y-81243333D02*
X225642438Y-81148095D01*
X225642438Y-81148095D02*
X225690057Y-81100476D01*
X225690057Y-81100476D02*
X225785295Y-81052857D01*
X225785295Y-81052857D02*
X225928152Y-81052857D01*
X225928152Y-81052857D02*
X226023390Y-81100476D01*
X226023390Y-81100476D02*
X226071009Y-81148095D01*
X226071009Y-81148095D02*
X226118628Y-81243333D01*
X226118628Y-81243333D02*
X226118628Y-81624285D01*
X225690057Y-80671904D02*
X225642438Y-80624285D01*
X225642438Y-80624285D02*
X225594819Y-80529047D01*
X225594819Y-80529047D02*
X225594819Y-80290952D01*
X225594819Y-80290952D02*
X225642438Y-80195714D01*
X225642438Y-80195714D02*
X225690057Y-80148095D01*
X225690057Y-80148095D02*
X225785295Y-80100476D01*
X225785295Y-80100476D02*
X225880533Y-80100476D01*
X225880533Y-80100476D02*
X226023390Y-80148095D01*
X226023390Y-80148095D02*
X226594819Y-80719523D01*
X226594819Y-80719523D02*
X226594819Y-80100476D01*
X225928152Y-79243333D02*
X226594819Y-79243333D01*
X225547200Y-79481428D02*
X226261485Y-79719523D01*
X226261485Y-79719523D02*
X226261485Y-79100476D01*
X223427142Y-75419580D02*
X223379523Y-75467200D01*
X223379523Y-75467200D02*
X223236666Y-75514819D01*
X223236666Y-75514819D02*
X223141428Y-75514819D01*
X223141428Y-75514819D02*
X222998571Y-75467200D01*
X222998571Y-75467200D02*
X222903333Y-75371961D01*
X222903333Y-75371961D02*
X222855714Y-75276723D01*
X222855714Y-75276723D02*
X222808095Y-75086247D01*
X222808095Y-75086247D02*
X222808095Y-74943390D01*
X222808095Y-74943390D02*
X222855714Y-74752914D01*
X222855714Y-74752914D02*
X222903333Y-74657676D01*
X222903333Y-74657676D02*
X222998571Y-74562438D01*
X222998571Y-74562438D02*
X223141428Y-74514819D01*
X223141428Y-74514819D02*
X223236666Y-74514819D01*
X223236666Y-74514819D02*
X223379523Y-74562438D01*
X223379523Y-74562438D02*
X223427142Y-74610057D01*
X223808095Y-74610057D02*
X223855714Y-74562438D01*
X223855714Y-74562438D02*
X223950952Y-74514819D01*
X223950952Y-74514819D02*
X224189047Y-74514819D01*
X224189047Y-74514819D02*
X224284285Y-74562438D01*
X224284285Y-74562438D02*
X224331904Y-74610057D01*
X224331904Y-74610057D02*
X224379523Y-74705295D01*
X224379523Y-74705295D02*
X224379523Y-74800533D01*
X224379523Y-74800533D02*
X224331904Y-74943390D01*
X224331904Y-74943390D02*
X223760476Y-75514819D01*
X223760476Y-75514819D02*
X224379523Y-75514819D01*
X224760476Y-74610057D02*
X224808095Y-74562438D01*
X224808095Y-74562438D02*
X224903333Y-74514819D01*
X224903333Y-74514819D02*
X225141428Y-74514819D01*
X225141428Y-74514819D02*
X225236666Y-74562438D01*
X225236666Y-74562438D02*
X225284285Y-74610057D01*
X225284285Y-74610057D02*
X225331904Y-74705295D01*
X225331904Y-74705295D02*
X225331904Y-74800533D01*
X225331904Y-74800533D02*
X225284285Y-74943390D01*
X225284285Y-74943390D02*
X224712857Y-75514819D01*
X224712857Y-75514819D02*
X225331904Y-75514819D01*
X246658333Y-62384819D02*
X246325000Y-61908628D01*
X246086905Y-62384819D02*
X246086905Y-61384819D01*
X246086905Y-61384819D02*
X246467857Y-61384819D01*
X246467857Y-61384819D02*
X246563095Y-61432438D01*
X246563095Y-61432438D02*
X246610714Y-61480057D01*
X246610714Y-61480057D02*
X246658333Y-61575295D01*
X246658333Y-61575295D02*
X246658333Y-61718152D01*
X246658333Y-61718152D02*
X246610714Y-61813390D01*
X246610714Y-61813390D02*
X246563095Y-61861009D01*
X246563095Y-61861009D02*
X246467857Y-61908628D01*
X246467857Y-61908628D02*
X246086905Y-61908628D01*
X247563095Y-61384819D02*
X247086905Y-61384819D01*
X247086905Y-61384819D02*
X247039286Y-61861009D01*
X247039286Y-61861009D02*
X247086905Y-61813390D01*
X247086905Y-61813390D02*
X247182143Y-61765771D01*
X247182143Y-61765771D02*
X247420238Y-61765771D01*
X247420238Y-61765771D02*
X247515476Y-61813390D01*
X247515476Y-61813390D02*
X247563095Y-61861009D01*
X247563095Y-61861009D02*
X247610714Y-61956247D01*
X247610714Y-61956247D02*
X247610714Y-62194342D01*
X247610714Y-62194342D02*
X247563095Y-62289580D01*
X247563095Y-62289580D02*
X247515476Y-62337200D01*
X247515476Y-62337200D02*
X247420238Y-62384819D01*
X247420238Y-62384819D02*
X247182143Y-62384819D01*
X247182143Y-62384819D02*
X247086905Y-62337200D01*
X247086905Y-62337200D02*
X247039286Y-62289580D01*
X239832142Y-63524819D02*
X239498809Y-63048628D01*
X239260714Y-63524819D02*
X239260714Y-62524819D01*
X239260714Y-62524819D02*
X239641666Y-62524819D01*
X239641666Y-62524819D02*
X239736904Y-62572438D01*
X239736904Y-62572438D02*
X239784523Y-62620057D01*
X239784523Y-62620057D02*
X239832142Y-62715295D01*
X239832142Y-62715295D02*
X239832142Y-62858152D01*
X239832142Y-62858152D02*
X239784523Y-62953390D01*
X239784523Y-62953390D02*
X239736904Y-63001009D01*
X239736904Y-63001009D02*
X239641666Y-63048628D01*
X239641666Y-63048628D02*
X239260714Y-63048628D01*
X240689285Y-62858152D02*
X240689285Y-63524819D01*
X240451190Y-62477200D02*
X240213095Y-63191485D01*
X240213095Y-63191485D02*
X240832142Y-63191485D01*
X241117857Y-62524819D02*
X241736904Y-62524819D01*
X241736904Y-62524819D02*
X241403571Y-62905771D01*
X241403571Y-62905771D02*
X241546428Y-62905771D01*
X241546428Y-62905771D02*
X241641666Y-62953390D01*
X241641666Y-62953390D02*
X241689285Y-63001009D01*
X241689285Y-63001009D02*
X241736904Y-63096247D01*
X241736904Y-63096247D02*
X241736904Y-63334342D01*
X241736904Y-63334342D02*
X241689285Y-63429580D01*
X241689285Y-63429580D02*
X241641666Y-63477200D01*
X241641666Y-63477200D02*
X241546428Y-63524819D01*
X241546428Y-63524819D02*
X241260714Y-63524819D01*
X241260714Y-63524819D02*
X241165476Y-63477200D01*
X241165476Y-63477200D02*
X241117857Y-63429580D01*
X251316666Y-107204819D02*
X251316666Y-107919104D01*
X251316666Y-107919104D02*
X251269047Y-108061961D01*
X251269047Y-108061961D02*
X251173809Y-108157200D01*
X251173809Y-108157200D02*
X251030952Y-108204819D01*
X251030952Y-108204819D02*
X250935714Y-108204819D01*
X251935714Y-107633390D02*
X251840476Y-107585771D01*
X251840476Y-107585771D02*
X251792857Y-107538152D01*
X251792857Y-107538152D02*
X251745238Y-107442914D01*
X251745238Y-107442914D02*
X251745238Y-107395295D01*
X251745238Y-107395295D02*
X251792857Y-107300057D01*
X251792857Y-107300057D02*
X251840476Y-107252438D01*
X251840476Y-107252438D02*
X251935714Y-107204819D01*
X251935714Y-107204819D02*
X252126190Y-107204819D01*
X252126190Y-107204819D02*
X252221428Y-107252438D01*
X252221428Y-107252438D02*
X252269047Y-107300057D01*
X252269047Y-107300057D02*
X252316666Y-107395295D01*
X252316666Y-107395295D02*
X252316666Y-107442914D01*
X252316666Y-107442914D02*
X252269047Y-107538152D01*
X252269047Y-107538152D02*
X252221428Y-107585771D01*
X252221428Y-107585771D02*
X252126190Y-107633390D01*
X252126190Y-107633390D02*
X251935714Y-107633390D01*
X251935714Y-107633390D02*
X251840476Y-107681009D01*
X251840476Y-107681009D02*
X251792857Y-107728628D01*
X251792857Y-107728628D02*
X251745238Y-107823866D01*
X251745238Y-107823866D02*
X251745238Y-108014342D01*
X251745238Y-108014342D02*
X251792857Y-108109580D01*
X251792857Y-108109580D02*
X251840476Y-108157200D01*
X251840476Y-108157200D02*
X251935714Y-108204819D01*
X251935714Y-108204819D02*
X252126190Y-108204819D01*
X252126190Y-108204819D02*
X252221428Y-108157200D01*
X252221428Y-108157200D02*
X252269047Y-108109580D01*
X252269047Y-108109580D02*
X252316666Y-108014342D01*
X252316666Y-108014342D02*
X252316666Y-107823866D01*
X252316666Y-107823866D02*
X252269047Y-107728628D01*
X252269047Y-107728628D02*
X252221428Y-107681009D01*
X252221428Y-107681009D02*
X252126190Y-107633390D01*
X260287142Y-88179580D02*
X260239523Y-88227200D01*
X260239523Y-88227200D02*
X260096666Y-88274819D01*
X260096666Y-88274819D02*
X260001428Y-88274819D01*
X260001428Y-88274819D02*
X259858571Y-88227200D01*
X259858571Y-88227200D02*
X259763333Y-88131961D01*
X259763333Y-88131961D02*
X259715714Y-88036723D01*
X259715714Y-88036723D02*
X259668095Y-87846247D01*
X259668095Y-87846247D02*
X259668095Y-87703390D01*
X259668095Y-87703390D02*
X259715714Y-87512914D01*
X259715714Y-87512914D02*
X259763333Y-87417676D01*
X259763333Y-87417676D02*
X259858571Y-87322438D01*
X259858571Y-87322438D02*
X260001428Y-87274819D01*
X260001428Y-87274819D02*
X260096666Y-87274819D01*
X260096666Y-87274819D02*
X260239523Y-87322438D01*
X260239523Y-87322438D02*
X260287142Y-87370057D01*
X260620476Y-87274819D02*
X261239523Y-87274819D01*
X261239523Y-87274819D02*
X260906190Y-87655771D01*
X260906190Y-87655771D02*
X261049047Y-87655771D01*
X261049047Y-87655771D02*
X261144285Y-87703390D01*
X261144285Y-87703390D02*
X261191904Y-87751009D01*
X261191904Y-87751009D02*
X261239523Y-87846247D01*
X261239523Y-87846247D02*
X261239523Y-88084342D01*
X261239523Y-88084342D02*
X261191904Y-88179580D01*
X261191904Y-88179580D02*
X261144285Y-88227200D01*
X261144285Y-88227200D02*
X261049047Y-88274819D01*
X261049047Y-88274819D02*
X260763333Y-88274819D01*
X260763333Y-88274819D02*
X260668095Y-88227200D01*
X260668095Y-88227200D02*
X260620476Y-88179580D01*
X261620476Y-87370057D02*
X261668095Y-87322438D01*
X261668095Y-87322438D02*
X261763333Y-87274819D01*
X261763333Y-87274819D02*
X262001428Y-87274819D01*
X262001428Y-87274819D02*
X262096666Y-87322438D01*
X262096666Y-87322438D02*
X262144285Y-87370057D01*
X262144285Y-87370057D02*
X262191904Y-87465295D01*
X262191904Y-87465295D02*
X262191904Y-87560533D01*
X262191904Y-87560533D02*
X262144285Y-87703390D01*
X262144285Y-87703390D02*
X261572857Y-88274819D01*
X261572857Y-88274819D02*
X262191904Y-88274819D01*
X241508333Y-59524819D02*
X241175000Y-59048628D01*
X240936905Y-59524819D02*
X240936905Y-58524819D01*
X240936905Y-58524819D02*
X241317857Y-58524819D01*
X241317857Y-58524819D02*
X241413095Y-58572438D01*
X241413095Y-58572438D02*
X241460714Y-58620057D01*
X241460714Y-58620057D02*
X241508333Y-58715295D01*
X241508333Y-58715295D02*
X241508333Y-58858152D01*
X241508333Y-58858152D02*
X241460714Y-58953390D01*
X241460714Y-58953390D02*
X241413095Y-59001009D01*
X241413095Y-59001009D02*
X241317857Y-59048628D01*
X241317857Y-59048628D02*
X240936905Y-59048628D01*
X242365476Y-58524819D02*
X242175000Y-58524819D01*
X242175000Y-58524819D02*
X242079762Y-58572438D01*
X242079762Y-58572438D02*
X242032143Y-58620057D01*
X242032143Y-58620057D02*
X241936905Y-58762914D01*
X241936905Y-58762914D02*
X241889286Y-58953390D01*
X241889286Y-58953390D02*
X241889286Y-59334342D01*
X241889286Y-59334342D02*
X241936905Y-59429580D01*
X241936905Y-59429580D02*
X241984524Y-59477200D01*
X241984524Y-59477200D02*
X242079762Y-59524819D01*
X242079762Y-59524819D02*
X242270238Y-59524819D01*
X242270238Y-59524819D02*
X242365476Y-59477200D01*
X242365476Y-59477200D02*
X242413095Y-59429580D01*
X242413095Y-59429580D02*
X242460714Y-59334342D01*
X242460714Y-59334342D02*
X242460714Y-59096247D01*
X242460714Y-59096247D02*
X242413095Y-59001009D01*
X242413095Y-59001009D02*
X242365476Y-58953390D01*
X242365476Y-58953390D02*
X242270238Y-58905771D01*
X242270238Y-58905771D02*
X242079762Y-58905771D01*
X242079762Y-58905771D02*
X241984524Y-58953390D01*
X241984524Y-58953390D02*
X241936905Y-59001009D01*
X241936905Y-59001009D02*
X241889286Y-59096247D01*
D13*
%TO.C,R27*%
X233250242Y-71977500D02*
X233724758Y-71977500D01*
X233250242Y-73022500D02*
X233724758Y-73022500D01*
%TO.C,C35*%
X264514420Y-100970000D02*
X264795580Y-100970000D01*
X264514420Y-101990000D02*
X264795580Y-101990000D01*
%TO.C,R7*%
X224977500Y-92412258D02*
X224977500Y-91937742D01*
X226022500Y-92412258D02*
X226022500Y-91937742D01*
%TO.C,C23*%
X227770000Y-69515000D02*
X227770000Y-71385000D01*
X227770000Y-71385000D02*
X231680000Y-71385000D01*
X231680000Y-69515000D02*
X227770000Y-69515000D01*
%TO.C,J6*%
X219715000Y-114090000D02*
X219715000Y-114690000D01*
X219825000Y-114090000D02*
X219715000Y-114090000D01*
X222590000Y-111500000D02*
X222790000Y-111900000D01*
X222790000Y-111900000D02*
X222990000Y-111500000D01*
X222990000Y-111500000D02*
X222590000Y-111500000D01*
X237255000Y-114090000D02*
X237365000Y-114090000D01*
X237365000Y-114090000D02*
X237365000Y-114690000D01*
%TO.C,R44*%
X222597500Y-93462742D02*
X222597500Y-93937258D01*
X223642500Y-93462742D02*
X223642500Y-93937258D01*
%TO.C,D1*%
X252765000Y-54665000D02*
X252765000Y-56950000D01*
X254235000Y-54665000D02*
X252765000Y-54665000D01*
X254235000Y-56950000D02*
X254235000Y-54665000D01*
%TO.C,J1*%
X260020000Y-50610000D02*
X269180000Y-50610000D01*
X260020000Y-52315000D02*
X260020000Y-50610000D01*
X260020000Y-54325000D02*
X260020000Y-56245000D01*
X269180000Y-50610000D02*
X269180000Y-52315000D01*
X269180000Y-56245000D02*
X269180000Y-54325000D01*
%TO.C,R42*%
X244937742Y-63977500D02*
X245412258Y-63977500D01*
X244937742Y-65022500D02*
X245412258Y-65022500D01*
%TO.C,J4*%
X214130000Y-78350000D02*
X215460000Y-78350000D01*
X214130000Y-79680000D02*
X214130000Y-78350000D01*
X214130000Y-80950000D02*
X214130000Y-103870000D01*
X214130000Y-80950000D02*
X216730000Y-80950000D01*
X214130000Y-103870000D02*
X219330000Y-103870000D01*
X216730000Y-78350000D02*
X219330000Y-78350000D01*
X216730000Y-80950000D02*
X216730000Y-78350000D01*
X219330000Y-78350000D02*
X219330000Y-103870000D01*
%TO.C,R28*%
X227587742Y-74977500D02*
X228062258Y-74977500D01*
X227587742Y-76022500D02*
X228062258Y-76022500D01*
%TO.C,Y1*%
X231700000Y-93100000D02*
X235000000Y-93100000D01*
X235000000Y-93100000D02*
X235000000Y-89100000D01*
%TO.C,R22*%
X233737258Y-75527500D02*
X233262742Y-75527500D01*
X233737258Y-76572500D02*
X233262742Y-76572500D01*
%TO.C,C55*%
X243165580Y-65990000D02*
X242884420Y-65990000D01*
X243165580Y-67010000D02*
X242884420Y-67010000D01*
%TO.C,U3*%
X239052500Y-82790000D02*
X239052500Y-83315000D01*
X239052500Y-97010000D02*
X239052500Y-96485000D01*
X239577500Y-82790000D02*
X239052500Y-82790000D01*
X239577500Y-97010000D02*
X239052500Y-97010000D01*
X252747500Y-82790000D02*
X253272500Y-82790000D01*
X252747500Y-97010000D02*
X253272500Y-97010000D01*
X253272500Y-82790000D02*
X253272500Y-83315000D01*
X253272500Y-97010000D02*
X253272500Y-96485000D01*
X238462500Y-83315000D02*
X238122500Y-82845000D01*
X238802500Y-82845000D01*
X238462500Y-83315000D01*
G36*
X238462500Y-83315000D02*
G01*
X238122500Y-82845000D01*
X238802500Y-82845000D01*
X238462500Y-83315000D01*
G37*
%TO.C,C24*%
X220490000Y-80634420D02*
X220490000Y-80915580D01*
X221510000Y-80634420D02*
X221510000Y-80915580D01*
%TO.C,R39*%
X262737500Y-92652258D02*
X262737500Y-92177742D01*
X263782500Y-92652258D02*
X263782500Y-92177742D01*
%TO.C,R26*%
X224612742Y-70177500D02*
X225087258Y-70177500D01*
X224612742Y-71222500D02*
X225087258Y-71222500D01*
%TO.C,R32*%
X235627500Y-78062258D02*
X235627500Y-77587742D01*
X236672500Y-78062258D02*
X236672500Y-77587742D01*
%TO.C,J5*%
X216070000Y-59720000D02*
X216070000Y-52700000D01*
X216070000Y-68800000D02*
X216070000Y-63000000D01*
X232330000Y-59720000D02*
X232330000Y-52700000D01*
X232330000Y-68800000D02*
X216070000Y-68800000D01*
X232330000Y-68800000D02*
X232330000Y-63000000D01*
X232560000Y-65550000D02*
X232560000Y-63750000D01*
%TO.C,C25*%
X227664420Y-73330000D02*
X227945580Y-73330000D01*
X227664420Y-74350000D02*
X227945580Y-74350000D01*
%TO.C,C34*%
X262669420Y-97070000D02*
X262950580Y-97070000D01*
X262669420Y-98090000D02*
X262950580Y-98090000D01*
%TO.C,R36*%
X223412258Y-102477500D02*
X222937742Y-102477500D01*
X223412258Y-103522500D02*
X222937742Y-103522500D01*
%TO.C,J10*%
X268170000Y-78340000D02*
X269500000Y-78340000D01*
X268170000Y-79670000D02*
X268170000Y-78340000D01*
X268170000Y-80940000D02*
X268170000Y-86080000D01*
X268170000Y-80940000D02*
X270830000Y-80940000D01*
X268170000Y-86080000D02*
X270830000Y-86080000D01*
X270830000Y-80940000D02*
X270830000Y-86080000D01*
%TO.C,J2*%
X240030000Y-50610000D02*
X249190000Y-50610000D01*
X240030000Y-52315000D02*
X240030000Y-50610000D01*
X240030000Y-54325000D02*
X240030000Y-56245000D01*
X249190000Y-50610000D02*
X249190000Y-52315000D01*
X249190000Y-56245000D02*
X249190000Y-54325000D01*
%TO.C,R35*%
X222937742Y-104977500D02*
X223412258Y-104977500D01*
X222937742Y-106022500D02*
X223412258Y-106022500D01*
%TO.C,C18*%
X265390000Y-87084420D02*
X265390000Y-87365580D01*
X266410000Y-87084420D02*
X266410000Y-87365580D01*
%TO.C,C16*%
X260915580Y-77715000D02*
X260634420Y-77715000D01*
X260915580Y-78735000D02*
X260634420Y-78735000D01*
%TO.C,J3*%
X258000000Y-61900000D02*
X258000000Y-68100000D01*
X259125000Y-68100000D02*
X258000000Y-68100000D01*
X259125000Y-68100000D02*
X259125000Y-69500000D01*
X259575000Y-61900000D02*
X270100000Y-61900000D01*
X260675000Y-68100000D02*
X260675000Y-69500000D01*
X263075000Y-68100000D02*
X260675000Y-68100000D01*
X266075000Y-68100000D02*
X264725000Y-68100000D01*
X270100000Y-62500000D02*
X270100000Y-61900000D01*
X270100000Y-62500000D02*
X272100000Y-62500000D01*
X270100000Y-67500000D02*
X272100000Y-67500000D01*
X270100000Y-68100000D02*
X267725000Y-68100000D01*
X270100000Y-68100000D02*
X270100000Y-67500000D01*
X272100000Y-67500000D02*
X272100000Y-62500000D01*
%TO.C,C12*%
X236770000Y-80924420D02*
X236770000Y-81205580D01*
X237790000Y-80924420D02*
X237790000Y-81205580D01*
%TO.C,R30*%
X264437742Y-77702500D02*
X264912258Y-77702500D01*
X264437742Y-78747500D02*
X264912258Y-78747500D01*
%TO.C,C26*%
X234024420Y-80560000D02*
X234305580Y-80560000D01*
X234024420Y-81580000D02*
X234305580Y-81580000D01*
%TO.C,C41*%
X234990000Y-96584420D02*
X234990000Y-96865580D01*
X236010000Y-96584420D02*
X236010000Y-96865580D01*
%TO.C,R40*%
X265047500Y-96807258D02*
X265047500Y-96332742D01*
X266092500Y-96807258D02*
X266092500Y-96332742D01*
%TO.C,J7*%
X268170000Y-88320000D02*
X269500000Y-88320000D01*
X268170000Y-89650000D02*
X268170000Y-88320000D01*
X268170000Y-90920000D02*
X268170000Y-103680000D01*
X268170000Y-90920000D02*
X270830000Y-90920000D01*
X268170000Y-103680000D02*
X270830000Y-103680000D01*
X270830000Y-90920000D02*
X270830000Y-103680000D01*
%TO.C,R10*%
X226937500Y-92917258D02*
X226937500Y-92442742D01*
X227982500Y-92917258D02*
X227982500Y-92442742D01*
%TO.C,R18*%
X255477500Y-60062258D02*
X255477500Y-59587742D01*
X256522500Y-60062258D02*
X256522500Y-59587742D01*
%TO.C,D2*%
X255265000Y-54727500D02*
X255265000Y-57012500D01*
X256735000Y-54727500D02*
X255265000Y-54727500D01*
X256735000Y-57012500D02*
X256735000Y-54727500D01*
%TO.C,R17*%
X252977500Y-60062258D02*
X252977500Y-59587742D01*
X254022500Y-60062258D02*
X254022500Y-59587742D01*
%TO.C,R25*%
X262977500Y-81162742D02*
X262977500Y-81637258D01*
X264022500Y-81162742D02*
X264022500Y-81637258D01*
%TO.C,RST1*%
X227820000Y-101130000D02*
X227820000Y-101780000D01*
X227820000Y-104180000D02*
X227820000Y-104830000D01*
X227820000Y-104830000D02*
X234020000Y-104830000D01*
X234020000Y-101130000D02*
X227820000Y-101130000D01*
X234020000Y-101130000D02*
X234020000Y-101780000D01*
X234020000Y-104830000D02*
X234020000Y-104180000D01*
%TO.C,R11*%
X220547500Y-85587258D02*
X220547500Y-85112742D01*
X221592500Y-85587258D02*
X221592500Y-85112742D01*
%TO.C,R33*%
X257967258Y-84507500D02*
X257492742Y-84507500D01*
X257967258Y-85552500D02*
X257492742Y-85552500D01*
%TO.C,C2*%
X236490000Y-54140580D02*
X236490000Y-53859420D01*
X237510000Y-54140580D02*
X237510000Y-53859420D01*
%TO.C,C44*%
X243010000Y-108300580D02*
X243010000Y-108019420D01*
X244030000Y-108300580D02*
X244030000Y-108019420D01*
%TO.C,C21*%
X228652500Y-83134420D02*
X228652500Y-83415580D01*
X229672500Y-83134420D02*
X229672500Y-83415580D01*
%TO.C,C45*%
X242844420Y-103570000D02*
X243125580Y-103570000D01*
X242844420Y-104590000D02*
X243125580Y-104590000D01*
%TO.C,J9*%
X221170000Y-98670000D02*
X221170000Y-101330000D01*
X223770000Y-98670000D02*
X221170000Y-98670000D01*
X223770000Y-98670000D02*
X223770000Y-101330000D01*
X223770000Y-101330000D02*
X221170000Y-101330000D01*
X225040000Y-98670000D02*
X226370000Y-98670000D01*
X226370000Y-98670000D02*
X226370000Y-100000000D01*
%TO.C,R8*%
X223337742Y-86877500D02*
X223812258Y-86877500D01*
X223337742Y-87922500D02*
X223812258Y-87922500D01*
%TO.C,R31*%
X265477500Y-81562258D02*
X265477500Y-81087742D01*
X266522500Y-81562258D02*
X266522500Y-81087742D01*
%TO.C,R23*%
X233737258Y-73777500D02*
X233262742Y-73777500D01*
X233737258Y-74822500D02*
X233262742Y-74822500D01*
%TO.C,R24*%
X225640000Y-83562258D02*
X225640000Y-83087742D01*
X226685000Y-83562258D02*
X226685000Y-83087742D01*
%TO.C,C22*%
X224210580Y-73120000D02*
X223929420Y-73120000D01*
X224210580Y-74140000D02*
X223929420Y-74140000D01*
%TO.C,R5*%
X247062258Y-59977500D02*
X246587742Y-59977500D01*
X247062258Y-61022500D02*
X246587742Y-61022500D01*
%TO.C,R43*%
X240237742Y-63977500D02*
X240712258Y-63977500D01*
X240237742Y-65022500D02*
X240712258Y-65022500D01*
%TO.C,J8*%
X238885000Y-114090000D02*
X238885000Y-114690000D01*
X238995000Y-114090000D02*
X238885000Y-114090000D01*
X241760000Y-111500000D02*
X241960000Y-111900000D01*
X241960000Y-111900000D02*
X242160000Y-111500000D01*
X242160000Y-111500000D02*
X241760000Y-111500000D01*
X264425000Y-114090000D02*
X264535000Y-114090000D01*
X264535000Y-114090000D02*
X264535000Y-114690000D01*
%TO.C,C32*%
X260909420Y-88640000D02*
X261190580Y-88640000D01*
X260909420Y-89660000D02*
X261190580Y-89660000D01*
%TO.C,R6*%
X241437742Y-59977500D02*
X241912258Y-59977500D01*
X241437742Y-61022500D02*
X241912258Y-61022500D01*
%TD*%
M02*
