%TF.GenerationSoftware,KiCad,Pcbnew,8.0.4-8.0.4-0~ubuntu24.04.1*%
%TF.CreationDate,2024-08-22T12:53:11+03:00*%
%TF.ProjectId,displinux,64697370-6c69-46e7-9578-2e6b69636164,rev?*%
%TF.SameCoordinates,Original*%
%TF.FileFunction,Legend,Bot*%
%TF.FilePolarity,Positive*%
%FSLAX46Y46*%
G04 Gerber Fmt 4.6, Leading zero omitted, Abs format (unit mm)*
G04 Created by KiCad (PCBNEW 8.0.4-8.0.4-0~ubuntu24.04.1) date 2024-08-22 12:53:11*
%MOMM*%
%LPD*%
G01*
G04 APERTURE LIST*
%ADD10C,0.100000*%
%ADD11C,0.150000*%
%ADD12C,0.120000*%
G04 APERTURE END LIST*
D10*
X269657544Y-77325752D02*
X269657544Y-78135276D01*
X269657544Y-78135276D02*
X269705163Y-78230514D01*
X269705163Y-78230514D02*
X269752782Y-78278133D01*
X269752782Y-78278133D02*
X269848020Y-78325752D01*
X269848020Y-78325752D02*
X269990877Y-78325752D01*
X269990877Y-78325752D02*
X270086115Y-78278133D01*
X269657544Y-77944800D02*
X269752782Y-77992419D01*
X269752782Y-77992419D02*
X269943258Y-77992419D01*
X269943258Y-77992419D02*
X270038496Y-77944800D01*
X270038496Y-77944800D02*
X270086115Y-77897180D01*
X270086115Y-77897180D02*
X270133734Y-77801942D01*
X270133734Y-77801942D02*
X270133734Y-77516228D01*
X270133734Y-77516228D02*
X270086115Y-77420990D01*
X270086115Y-77420990D02*
X270038496Y-77373371D01*
X270038496Y-77373371D02*
X269943258Y-77325752D01*
X269943258Y-77325752D02*
X269752782Y-77325752D01*
X269752782Y-77325752D02*
X269657544Y-77373371D01*
X269181353Y-77325752D02*
X269181353Y-77992419D01*
X269181353Y-77420990D02*
X269133734Y-77373371D01*
X269133734Y-77373371D02*
X269038496Y-77325752D01*
X269038496Y-77325752D02*
X268895639Y-77325752D01*
X268895639Y-77325752D02*
X268800401Y-77373371D01*
X268800401Y-77373371D02*
X268752782Y-77468609D01*
X268752782Y-77468609D02*
X268752782Y-77992419D01*
X267848020Y-77992419D02*
X267848020Y-76992419D01*
X267848020Y-77944800D02*
X267943258Y-77992419D01*
X267943258Y-77992419D02*
X268133734Y-77992419D01*
X268133734Y-77992419D02*
X268228972Y-77944800D01*
X268228972Y-77944800D02*
X268276591Y-77897180D01*
X268276591Y-77897180D02*
X268324210Y-77801942D01*
X268324210Y-77801942D02*
X268324210Y-77516228D01*
X268324210Y-77516228D02*
X268276591Y-77420990D01*
X268276591Y-77420990D02*
X268228972Y-77373371D01*
X268228972Y-77373371D02*
X268133734Y-77325752D01*
X268133734Y-77325752D02*
X267943258Y-77325752D01*
X267943258Y-77325752D02*
X267848020Y-77373371D01*
X220866115Y-93102419D02*
X220866115Y-92435752D01*
X220866115Y-92102419D02*
X220913734Y-92150038D01*
X220913734Y-92150038D02*
X220866115Y-92197657D01*
X220866115Y-92197657D02*
X220818496Y-92150038D01*
X220818496Y-92150038D02*
X220866115Y-92102419D01*
X220866115Y-92102419D02*
X220866115Y-92197657D01*
X220437544Y-93054800D02*
X220342306Y-93102419D01*
X220342306Y-93102419D02*
X220151830Y-93102419D01*
X220151830Y-93102419D02*
X220056592Y-93054800D01*
X220056592Y-93054800D02*
X220008973Y-92959561D01*
X220008973Y-92959561D02*
X220008973Y-92911942D01*
X220008973Y-92911942D02*
X220056592Y-92816704D01*
X220056592Y-92816704D02*
X220151830Y-92769085D01*
X220151830Y-92769085D02*
X220294687Y-92769085D01*
X220294687Y-92769085D02*
X220389925Y-92721466D01*
X220389925Y-92721466D02*
X220437544Y-92626228D01*
X220437544Y-92626228D02*
X220437544Y-92578609D01*
X220437544Y-92578609D02*
X220389925Y-92483371D01*
X220389925Y-92483371D02*
X220294687Y-92435752D01*
X220294687Y-92435752D02*
X220151830Y-92435752D01*
X220151830Y-92435752D02*
X220056592Y-92483371D01*
X219437544Y-93102419D02*
X219532782Y-93054800D01*
X219532782Y-93054800D02*
X219580401Y-93007180D01*
X219580401Y-93007180D02*
X219628020Y-92911942D01*
X219628020Y-92911942D02*
X219628020Y-92626228D01*
X219628020Y-92626228D02*
X219580401Y-92530990D01*
X219580401Y-92530990D02*
X219532782Y-92483371D01*
X219532782Y-92483371D02*
X219437544Y-92435752D01*
X219437544Y-92435752D02*
X219294687Y-92435752D01*
X219294687Y-92435752D02*
X219199449Y-92483371D01*
X219199449Y-92483371D02*
X219151830Y-92530990D01*
X219151830Y-92530990D02*
X219104211Y-92626228D01*
X219104211Y-92626228D02*
X219104211Y-92911942D01*
X219104211Y-92911942D02*
X219151830Y-93007180D01*
X219151830Y-93007180D02*
X219199449Y-93054800D01*
X219199449Y-93054800D02*
X219294687Y-93102419D01*
X219294687Y-93102419D02*
X219437544Y-93102419D01*
X221197544Y-83915752D02*
X221197544Y-84725276D01*
X221197544Y-84725276D02*
X221245163Y-84820514D01*
X221245163Y-84820514D02*
X221292782Y-84868133D01*
X221292782Y-84868133D02*
X221388020Y-84915752D01*
X221388020Y-84915752D02*
X221530877Y-84915752D01*
X221530877Y-84915752D02*
X221626115Y-84868133D01*
X221197544Y-84534800D02*
X221292782Y-84582419D01*
X221292782Y-84582419D02*
X221483258Y-84582419D01*
X221483258Y-84582419D02*
X221578496Y-84534800D01*
X221578496Y-84534800D02*
X221626115Y-84487180D01*
X221626115Y-84487180D02*
X221673734Y-84391942D01*
X221673734Y-84391942D02*
X221673734Y-84106228D01*
X221673734Y-84106228D02*
X221626115Y-84010990D01*
X221626115Y-84010990D02*
X221578496Y-83963371D01*
X221578496Y-83963371D02*
X221483258Y-83915752D01*
X221483258Y-83915752D02*
X221292782Y-83915752D01*
X221292782Y-83915752D02*
X221197544Y-83963371D01*
X220578496Y-84010990D02*
X220673734Y-83963371D01*
X220673734Y-83963371D02*
X220721353Y-83915752D01*
X220721353Y-83915752D02*
X220768972Y-83820514D01*
X220768972Y-83820514D02*
X220768972Y-83772895D01*
X220768972Y-83772895D02*
X220721353Y-83677657D01*
X220721353Y-83677657D02*
X220673734Y-83630038D01*
X220673734Y-83630038D02*
X220578496Y-83582419D01*
X220578496Y-83582419D02*
X220388020Y-83582419D01*
X220388020Y-83582419D02*
X220292782Y-83630038D01*
X220292782Y-83630038D02*
X220245163Y-83677657D01*
X220245163Y-83677657D02*
X220197544Y-83772895D01*
X220197544Y-83772895D02*
X220197544Y-83820514D01*
X220197544Y-83820514D02*
X220245163Y-83915752D01*
X220245163Y-83915752D02*
X220292782Y-83963371D01*
X220292782Y-83963371D02*
X220388020Y-84010990D01*
X220388020Y-84010990D02*
X220578496Y-84010990D01*
X220578496Y-84010990D02*
X220673734Y-84058609D01*
X220673734Y-84058609D02*
X220721353Y-84106228D01*
X220721353Y-84106228D02*
X220768972Y-84201466D01*
X220768972Y-84201466D02*
X220768972Y-84391942D01*
X220768972Y-84391942D02*
X220721353Y-84487180D01*
X220721353Y-84487180D02*
X220673734Y-84534800D01*
X220673734Y-84534800D02*
X220578496Y-84582419D01*
X220578496Y-84582419D02*
X220388020Y-84582419D01*
X220388020Y-84582419D02*
X220292782Y-84534800D01*
X220292782Y-84534800D02*
X220245163Y-84487180D01*
X220245163Y-84487180D02*
X220197544Y-84391942D01*
X220197544Y-84391942D02*
X220197544Y-84201466D01*
X220197544Y-84201466D02*
X220245163Y-84106228D01*
X220245163Y-84106228D02*
X220292782Y-84058609D01*
X220292782Y-84058609D02*
X220388020Y-84010990D01*
X216807544Y-104844800D02*
X216902782Y-104892419D01*
X216902782Y-104892419D02*
X217093258Y-104892419D01*
X217093258Y-104892419D02*
X217188496Y-104844800D01*
X217188496Y-104844800D02*
X217236115Y-104797180D01*
X217236115Y-104797180D02*
X217283734Y-104701942D01*
X217283734Y-104701942D02*
X217283734Y-104416228D01*
X217283734Y-104416228D02*
X217236115Y-104320990D01*
X217236115Y-104320990D02*
X217188496Y-104273371D01*
X217188496Y-104273371D02*
X217093258Y-104225752D01*
X217093258Y-104225752D02*
X216902782Y-104225752D01*
X216902782Y-104225752D02*
X216807544Y-104273371D01*
X216236115Y-104892419D02*
X216331353Y-104844800D01*
X216331353Y-104844800D02*
X216378972Y-104749561D01*
X216378972Y-104749561D02*
X216378972Y-103892419D01*
X215855162Y-104892419D02*
X215855162Y-103892419D01*
X215759924Y-104511466D02*
X215474210Y-104892419D01*
X215474210Y-104225752D02*
X215855162Y-104606704D01*
X214855162Y-103892419D02*
X214759924Y-103892419D01*
X214759924Y-103892419D02*
X214664686Y-103940038D01*
X214664686Y-103940038D02*
X214617067Y-103987657D01*
X214617067Y-103987657D02*
X214569448Y-104082895D01*
X214569448Y-104082895D02*
X214521829Y-104273371D01*
X214521829Y-104273371D02*
X214521829Y-104511466D01*
X214521829Y-104511466D02*
X214569448Y-104701942D01*
X214569448Y-104701942D02*
X214617067Y-104797180D01*
X214617067Y-104797180D02*
X214664686Y-104844800D01*
X214664686Y-104844800D02*
X214759924Y-104892419D01*
X214759924Y-104892419D02*
X214855162Y-104892419D01*
X214855162Y-104892419D02*
X214950400Y-104844800D01*
X214950400Y-104844800D02*
X214998019Y-104797180D01*
X214998019Y-104797180D02*
X215045638Y-104701942D01*
X215045638Y-104701942D02*
X215093257Y-104511466D01*
X215093257Y-104511466D02*
X215093257Y-104273371D01*
X215093257Y-104273371D02*
X215045638Y-104082895D01*
X215045638Y-104082895D02*
X214998019Y-103987657D01*
X214998019Y-103987657D02*
X214950400Y-103940038D01*
X214950400Y-103940038D02*
X214855162Y-103892419D01*
X223437544Y-84005752D02*
X223437544Y-84815276D01*
X223437544Y-84815276D02*
X223485163Y-84910514D01*
X223485163Y-84910514D02*
X223532782Y-84958133D01*
X223532782Y-84958133D02*
X223628020Y-85005752D01*
X223628020Y-85005752D02*
X223770877Y-85005752D01*
X223770877Y-85005752D02*
X223866115Y-84958133D01*
X223437544Y-84624800D02*
X223532782Y-84672419D01*
X223532782Y-84672419D02*
X223723258Y-84672419D01*
X223723258Y-84672419D02*
X223818496Y-84624800D01*
X223818496Y-84624800D02*
X223866115Y-84577180D01*
X223866115Y-84577180D02*
X223913734Y-84481942D01*
X223913734Y-84481942D02*
X223913734Y-84196228D01*
X223913734Y-84196228D02*
X223866115Y-84100990D01*
X223866115Y-84100990D02*
X223818496Y-84053371D01*
X223818496Y-84053371D02*
X223723258Y-84005752D01*
X223723258Y-84005752D02*
X223532782Y-84005752D01*
X223532782Y-84005752D02*
X223437544Y-84053371D01*
X222913734Y-84672419D02*
X222723258Y-84672419D01*
X222723258Y-84672419D02*
X222628020Y-84624800D01*
X222628020Y-84624800D02*
X222580401Y-84577180D01*
X222580401Y-84577180D02*
X222485163Y-84434323D01*
X222485163Y-84434323D02*
X222437544Y-84243847D01*
X222437544Y-84243847D02*
X222437544Y-83862895D01*
X222437544Y-83862895D02*
X222485163Y-83767657D01*
X222485163Y-83767657D02*
X222532782Y-83720038D01*
X222532782Y-83720038D02*
X222628020Y-83672419D01*
X222628020Y-83672419D02*
X222818496Y-83672419D01*
X222818496Y-83672419D02*
X222913734Y-83720038D01*
X222913734Y-83720038D02*
X222961353Y-83767657D01*
X222961353Y-83767657D02*
X223008972Y-83862895D01*
X223008972Y-83862895D02*
X223008972Y-84100990D01*
X223008972Y-84100990D02*
X222961353Y-84196228D01*
X222961353Y-84196228D02*
X222913734Y-84243847D01*
X222913734Y-84243847D02*
X222818496Y-84291466D01*
X222818496Y-84291466D02*
X222628020Y-84291466D01*
X222628020Y-84291466D02*
X222532782Y-84243847D01*
X222532782Y-84243847D02*
X222485163Y-84196228D01*
X222485163Y-84196228D02*
X222437544Y-84100990D01*
X268451353Y-84232419D02*
X267832306Y-84232419D01*
X267832306Y-84232419D02*
X268165639Y-84613371D01*
X268165639Y-84613371D02*
X268022782Y-84613371D01*
X268022782Y-84613371D02*
X267927544Y-84660990D01*
X267927544Y-84660990D02*
X267879925Y-84708609D01*
X267879925Y-84708609D02*
X267832306Y-84803847D01*
X267832306Y-84803847D02*
X267832306Y-85041942D01*
X267832306Y-85041942D02*
X267879925Y-85137180D01*
X267879925Y-85137180D02*
X267927544Y-85184800D01*
X267927544Y-85184800D02*
X268022782Y-85232419D01*
X268022782Y-85232419D02*
X268308496Y-85232419D01*
X268308496Y-85232419D02*
X268403734Y-85184800D01*
X268403734Y-85184800D02*
X268451353Y-85137180D01*
X267403734Y-84565752D02*
X267403734Y-85232419D01*
X267403734Y-84660990D02*
X267356115Y-84613371D01*
X267356115Y-84613371D02*
X267260877Y-84565752D01*
X267260877Y-84565752D02*
X267118020Y-84565752D01*
X267118020Y-84565752D02*
X267022782Y-84613371D01*
X267022782Y-84613371D02*
X266975163Y-84708609D01*
X266975163Y-84708609D02*
X266975163Y-85232419D01*
X223647544Y-94854800D02*
X223742782Y-94902419D01*
X223742782Y-94902419D02*
X223933258Y-94902419D01*
X223933258Y-94902419D02*
X224028496Y-94854800D01*
X224028496Y-94854800D02*
X224076115Y-94807180D01*
X224076115Y-94807180D02*
X224123734Y-94711942D01*
X224123734Y-94711942D02*
X224123734Y-94426228D01*
X224123734Y-94426228D02*
X224076115Y-94330990D01*
X224076115Y-94330990D02*
X224028496Y-94283371D01*
X224028496Y-94283371D02*
X223933258Y-94235752D01*
X223933258Y-94235752D02*
X223742782Y-94235752D01*
X223742782Y-94235752D02*
X223647544Y-94283371D01*
X223076115Y-94902419D02*
X223171353Y-94854800D01*
X223171353Y-94854800D02*
X223218972Y-94759561D01*
X223218972Y-94759561D02*
X223218972Y-93902419D01*
X222695162Y-94902419D02*
X222695162Y-93902419D01*
X222599924Y-94521466D02*
X222314210Y-94902419D01*
X222314210Y-94235752D02*
X222695162Y-94616704D01*
X216377544Y-105595752D02*
X216377544Y-106405276D01*
X216377544Y-106405276D02*
X216425163Y-106500514D01*
X216425163Y-106500514D02*
X216472782Y-106548133D01*
X216472782Y-106548133D02*
X216568020Y-106595752D01*
X216568020Y-106595752D02*
X216710877Y-106595752D01*
X216710877Y-106595752D02*
X216806115Y-106548133D01*
X216377544Y-106214800D02*
X216472782Y-106262419D01*
X216472782Y-106262419D02*
X216663258Y-106262419D01*
X216663258Y-106262419D02*
X216758496Y-106214800D01*
X216758496Y-106214800D02*
X216806115Y-106167180D01*
X216806115Y-106167180D02*
X216853734Y-106071942D01*
X216853734Y-106071942D02*
X216853734Y-105786228D01*
X216853734Y-105786228D02*
X216806115Y-105690990D01*
X216806115Y-105690990D02*
X216758496Y-105643371D01*
X216758496Y-105643371D02*
X216663258Y-105595752D01*
X216663258Y-105595752D02*
X216472782Y-105595752D01*
X216472782Y-105595752D02*
X216377544Y-105643371D01*
X215901353Y-105595752D02*
X215901353Y-106262419D01*
X215901353Y-105690990D02*
X215853734Y-105643371D01*
X215853734Y-105643371D02*
X215758496Y-105595752D01*
X215758496Y-105595752D02*
X215615639Y-105595752D01*
X215615639Y-105595752D02*
X215520401Y-105643371D01*
X215520401Y-105643371D02*
X215472782Y-105738609D01*
X215472782Y-105738609D02*
X215472782Y-106262419D01*
X214568020Y-106262419D02*
X214568020Y-105262419D01*
X214568020Y-106214800D02*
X214663258Y-106262419D01*
X214663258Y-106262419D02*
X214853734Y-106262419D01*
X214853734Y-106262419D02*
X214948972Y-106214800D01*
X214948972Y-106214800D02*
X214996591Y-106167180D01*
X214996591Y-106167180D02*
X215044210Y-106071942D01*
X215044210Y-106071942D02*
X215044210Y-105786228D01*
X215044210Y-105786228D02*
X214996591Y-105690990D01*
X214996591Y-105690990D02*
X214948972Y-105643371D01*
X214948972Y-105643371D02*
X214853734Y-105595752D01*
X214853734Y-105595752D02*
X214663258Y-105595752D01*
X214663258Y-105595752D02*
X214568020Y-105643371D01*
X225658972Y-101172419D02*
X225087544Y-101172419D01*
X225373258Y-102172419D02*
X225373258Y-101172419D01*
X224849448Y-102172419D02*
X224325639Y-101505752D01*
X224849448Y-101505752D02*
X224325639Y-102172419D01*
X220616115Y-77581466D02*
X219854211Y-77581466D01*
X220235163Y-77962419D02*
X220235163Y-77200514D01*
X219473258Y-76962419D02*
X218854211Y-76962419D01*
X218854211Y-76962419D02*
X219187544Y-77343371D01*
X219187544Y-77343371D02*
X219044687Y-77343371D01*
X219044687Y-77343371D02*
X218949449Y-77390990D01*
X218949449Y-77390990D02*
X218901830Y-77438609D01*
X218901830Y-77438609D02*
X218854211Y-77533847D01*
X218854211Y-77533847D02*
X218854211Y-77771942D01*
X218854211Y-77771942D02*
X218901830Y-77867180D01*
X218901830Y-77867180D02*
X218949449Y-77914800D01*
X218949449Y-77914800D02*
X219044687Y-77962419D01*
X219044687Y-77962419D02*
X219330401Y-77962419D01*
X219330401Y-77962419D02*
X219425639Y-77914800D01*
X219425639Y-77914800D02*
X219473258Y-77867180D01*
X218425639Y-77867180D02*
X218378020Y-77914800D01*
X218378020Y-77914800D02*
X218425639Y-77962419D01*
X218425639Y-77962419D02*
X218473258Y-77914800D01*
X218473258Y-77914800D02*
X218425639Y-77867180D01*
X218425639Y-77867180D02*
X218425639Y-77962419D01*
X218044687Y-76962419D02*
X217425640Y-76962419D01*
X217425640Y-76962419D02*
X217758973Y-77343371D01*
X217758973Y-77343371D02*
X217616116Y-77343371D01*
X217616116Y-77343371D02*
X217520878Y-77390990D01*
X217520878Y-77390990D02*
X217473259Y-77438609D01*
X217473259Y-77438609D02*
X217425640Y-77533847D01*
X217425640Y-77533847D02*
X217425640Y-77771942D01*
X217425640Y-77771942D02*
X217473259Y-77867180D01*
X217473259Y-77867180D02*
X217520878Y-77914800D01*
X217520878Y-77914800D02*
X217616116Y-77962419D01*
X217616116Y-77962419D02*
X217901830Y-77962419D01*
X217901830Y-77962419D02*
X217997068Y-77914800D01*
X217997068Y-77914800D02*
X218044687Y-77867180D01*
X223051353Y-90565752D02*
X222860877Y-91232419D01*
X222860877Y-91232419D02*
X222670401Y-90756228D01*
X222670401Y-90756228D02*
X222479925Y-91232419D01*
X222479925Y-91232419D02*
X222289449Y-90565752D01*
X221908496Y-90565752D02*
X221908496Y-91565752D01*
X221908496Y-90613371D02*
X221813258Y-90565752D01*
X221813258Y-90565752D02*
X221622782Y-90565752D01*
X221622782Y-90565752D02*
X221527544Y-90613371D01*
X221527544Y-90613371D02*
X221479925Y-90660990D01*
X221479925Y-90660990D02*
X221432306Y-90756228D01*
X221432306Y-90756228D02*
X221432306Y-91041942D01*
X221432306Y-91041942D02*
X221479925Y-91137180D01*
X221479925Y-91137180D02*
X221527544Y-91184800D01*
X221527544Y-91184800D02*
X221622782Y-91232419D01*
X221622782Y-91232419D02*
X221813258Y-91232419D01*
X221813258Y-91232419D02*
X221908496Y-91184800D01*
X222594687Y-102142419D02*
X222928020Y-101666228D01*
X223166115Y-102142419D02*
X223166115Y-101142419D01*
X223166115Y-101142419D02*
X222785163Y-101142419D01*
X222785163Y-101142419D02*
X222689925Y-101190038D01*
X222689925Y-101190038D02*
X222642306Y-101237657D01*
X222642306Y-101237657D02*
X222594687Y-101332895D01*
X222594687Y-101332895D02*
X222594687Y-101475752D01*
X222594687Y-101475752D02*
X222642306Y-101570990D01*
X222642306Y-101570990D02*
X222689925Y-101618609D01*
X222689925Y-101618609D02*
X222785163Y-101666228D01*
X222785163Y-101666228D02*
X223166115Y-101666228D01*
X222261353Y-102142419D02*
X221737544Y-101475752D01*
X222261353Y-101475752D02*
X221737544Y-102142419D01*
X220957544Y-86655752D02*
X220957544Y-87465276D01*
X220957544Y-87465276D02*
X221005163Y-87560514D01*
X221005163Y-87560514D02*
X221052782Y-87608133D01*
X221052782Y-87608133D02*
X221148020Y-87655752D01*
X221148020Y-87655752D02*
X221290877Y-87655752D01*
X221290877Y-87655752D02*
X221386115Y-87608133D01*
X220957544Y-87274800D02*
X221052782Y-87322419D01*
X221052782Y-87322419D02*
X221243258Y-87322419D01*
X221243258Y-87322419D02*
X221338496Y-87274800D01*
X221338496Y-87274800D02*
X221386115Y-87227180D01*
X221386115Y-87227180D02*
X221433734Y-87131942D01*
X221433734Y-87131942D02*
X221433734Y-86846228D01*
X221433734Y-86846228D02*
X221386115Y-86750990D01*
X221386115Y-86750990D02*
X221338496Y-86703371D01*
X221338496Y-86703371D02*
X221243258Y-86655752D01*
X221243258Y-86655752D02*
X221052782Y-86655752D01*
X221052782Y-86655752D02*
X220957544Y-86703371D01*
X219957544Y-87322419D02*
X220528972Y-87322419D01*
X220243258Y-87322419D02*
X220243258Y-86322419D01*
X220243258Y-86322419D02*
X220338496Y-86465276D01*
X220338496Y-86465276D02*
X220433734Y-86560514D01*
X220433734Y-86560514D02*
X220528972Y-86608133D01*
X219338496Y-86322419D02*
X219243258Y-86322419D01*
X219243258Y-86322419D02*
X219148020Y-86370038D01*
X219148020Y-86370038D02*
X219100401Y-86417657D01*
X219100401Y-86417657D02*
X219052782Y-86512895D01*
X219052782Y-86512895D02*
X219005163Y-86703371D01*
X219005163Y-86703371D02*
X219005163Y-86941466D01*
X219005163Y-86941466D02*
X219052782Y-87131942D01*
X219052782Y-87131942D02*
X219100401Y-87227180D01*
X219100401Y-87227180D02*
X219148020Y-87274800D01*
X219148020Y-87274800D02*
X219243258Y-87322419D01*
X219243258Y-87322419D02*
X219338496Y-87322419D01*
X219338496Y-87322419D02*
X219433734Y-87274800D01*
X219433734Y-87274800D02*
X219481353Y-87227180D01*
X219481353Y-87227180D02*
X219528972Y-87131942D01*
X219528972Y-87131942D02*
X219576591Y-86941466D01*
X219576591Y-86941466D02*
X219576591Y-86703371D01*
X219576591Y-86703371D02*
X219528972Y-86512895D01*
X219528972Y-86512895D02*
X219481353Y-86417657D01*
X219481353Y-86417657D02*
X219433734Y-86370038D01*
X219433734Y-86370038D02*
X219338496Y-86322419D01*
X215616115Y-77691466D02*
X214854211Y-77691466D01*
X215235163Y-78072419D02*
X215235163Y-77310514D01*
X213901830Y-77072419D02*
X214378020Y-77072419D01*
X214378020Y-77072419D02*
X214425639Y-77548609D01*
X214425639Y-77548609D02*
X214378020Y-77500990D01*
X214378020Y-77500990D02*
X214282782Y-77453371D01*
X214282782Y-77453371D02*
X214044687Y-77453371D01*
X214044687Y-77453371D02*
X213949449Y-77500990D01*
X213949449Y-77500990D02*
X213901830Y-77548609D01*
X213901830Y-77548609D02*
X213854211Y-77643847D01*
X213854211Y-77643847D02*
X213854211Y-77881942D01*
X213854211Y-77881942D02*
X213901830Y-77977180D01*
X213901830Y-77977180D02*
X213949449Y-78024800D01*
X213949449Y-78024800D02*
X214044687Y-78072419D01*
X214044687Y-78072419D02*
X214282782Y-78072419D01*
X214282782Y-78072419D02*
X214378020Y-78024800D01*
X214378020Y-78024800D02*
X214425639Y-77977180D01*
X219967544Y-105645752D02*
X219967544Y-106455276D01*
X219967544Y-106455276D02*
X220015163Y-106550514D01*
X220015163Y-106550514D02*
X220062782Y-106598133D01*
X220062782Y-106598133D02*
X220158020Y-106645752D01*
X220158020Y-106645752D02*
X220300877Y-106645752D01*
X220300877Y-106645752D02*
X220396115Y-106598133D01*
X219967544Y-106264800D02*
X220062782Y-106312419D01*
X220062782Y-106312419D02*
X220253258Y-106312419D01*
X220253258Y-106312419D02*
X220348496Y-106264800D01*
X220348496Y-106264800D02*
X220396115Y-106217180D01*
X220396115Y-106217180D02*
X220443734Y-106121942D01*
X220443734Y-106121942D02*
X220443734Y-105836228D01*
X220443734Y-105836228D02*
X220396115Y-105740990D01*
X220396115Y-105740990D02*
X220348496Y-105693371D01*
X220348496Y-105693371D02*
X220253258Y-105645752D01*
X220253258Y-105645752D02*
X220062782Y-105645752D01*
X220062782Y-105645752D02*
X219967544Y-105693371D01*
X219491353Y-105645752D02*
X219491353Y-106312419D01*
X219491353Y-105740990D02*
X219443734Y-105693371D01*
X219443734Y-105693371D02*
X219348496Y-105645752D01*
X219348496Y-105645752D02*
X219205639Y-105645752D01*
X219205639Y-105645752D02*
X219110401Y-105693371D01*
X219110401Y-105693371D02*
X219062782Y-105788609D01*
X219062782Y-105788609D02*
X219062782Y-106312419D01*
X218158020Y-106312419D02*
X218158020Y-105312419D01*
X218158020Y-106264800D02*
X218253258Y-106312419D01*
X218253258Y-106312419D02*
X218443734Y-106312419D01*
X218443734Y-106312419D02*
X218538972Y-106264800D01*
X218538972Y-106264800D02*
X218586591Y-106217180D01*
X218586591Y-106217180D02*
X218634210Y-106121942D01*
X218634210Y-106121942D02*
X218634210Y-105836228D01*
X218634210Y-105836228D02*
X218586591Y-105740990D01*
X218586591Y-105740990D02*
X218538972Y-105693371D01*
X218538972Y-105693371D02*
X218443734Y-105645752D01*
X218443734Y-105645752D02*
X218253258Y-105645752D01*
X218253258Y-105645752D02*
X218158020Y-105693371D01*
X219907544Y-104135752D02*
X219907544Y-104945276D01*
X219907544Y-104945276D02*
X219955163Y-105040514D01*
X219955163Y-105040514D02*
X220002782Y-105088133D01*
X220002782Y-105088133D02*
X220098020Y-105135752D01*
X220098020Y-105135752D02*
X220240877Y-105135752D01*
X220240877Y-105135752D02*
X220336115Y-105088133D01*
X219907544Y-104754800D02*
X220002782Y-104802419D01*
X220002782Y-104802419D02*
X220193258Y-104802419D01*
X220193258Y-104802419D02*
X220288496Y-104754800D01*
X220288496Y-104754800D02*
X220336115Y-104707180D01*
X220336115Y-104707180D02*
X220383734Y-104611942D01*
X220383734Y-104611942D02*
X220383734Y-104326228D01*
X220383734Y-104326228D02*
X220336115Y-104230990D01*
X220336115Y-104230990D02*
X220288496Y-104183371D01*
X220288496Y-104183371D02*
X220193258Y-104135752D01*
X220193258Y-104135752D02*
X220002782Y-104135752D01*
X220002782Y-104135752D02*
X219907544Y-104183371D01*
X219431353Y-104135752D02*
X219431353Y-104802419D01*
X219431353Y-104230990D02*
X219383734Y-104183371D01*
X219383734Y-104183371D02*
X219288496Y-104135752D01*
X219288496Y-104135752D02*
X219145639Y-104135752D01*
X219145639Y-104135752D02*
X219050401Y-104183371D01*
X219050401Y-104183371D02*
X219002782Y-104278609D01*
X219002782Y-104278609D02*
X219002782Y-104802419D01*
X218098020Y-104802419D02*
X218098020Y-103802419D01*
X218098020Y-104754800D02*
X218193258Y-104802419D01*
X218193258Y-104802419D02*
X218383734Y-104802419D01*
X218383734Y-104802419D02*
X218478972Y-104754800D01*
X218478972Y-104754800D02*
X218526591Y-104707180D01*
X218526591Y-104707180D02*
X218574210Y-104611942D01*
X218574210Y-104611942D02*
X218574210Y-104326228D01*
X218574210Y-104326228D02*
X218526591Y-104230990D01*
X218526591Y-104230990D02*
X218478972Y-104183371D01*
X218478972Y-104183371D02*
X218383734Y-104135752D01*
X218383734Y-104135752D02*
X218193258Y-104135752D01*
X218193258Y-104135752D02*
X218098020Y-104183371D01*
X223737544Y-86415752D02*
X223737544Y-87225276D01*
X223737544Y-87225276D02*
X223785163Y-87320514D01*
X223785163Y-87320514D02*
X223832782Y-87368133D01*
X223832782Y-87368133D02*
X223928020Y-87415752D01*
X223928020Y-87415752D02*
X224070877Y-87415752D01*
X224070877Y-87415752D02*
X224166115Y-87368133D01*
X223737544Y-87034800D02*
X223832782Y-87082419D01*
X223832782Y-87082419D02*
X224023258Y-87082419D01*
X224023258Y-87082419D02*
X224118496Y-87034800D01*
X224118496Y-87034800D02*
X224166115Y-86987180D01*
X224166115Y-86987180D02*
X224213734Y-86891942D01*
X224213734Y-86891942D02*
X224213734Y-86606228D01*
X224213734Y-86606228D02*
X224166115Y-86510990D01*
X224166115Y-86510990D02*
X224118496Y-86463371D01*
X224118496Y-86463371D02*
X224023258Y-86415752D01*
X224023258Y-86415752D02*
X223832782Y-86415752D01*
X223832782Y-86415752D02*
X223737544Y-86463371D01*
X222737544Y-87082419D02*
X223308972Y-87082419D01*
X223023258Y-87082419D02*
X223023258Y-86082419D01*
X223023258Y-86082419D02*
X223118496Y-86225276D01*
X223118496Y-86225276D02*
X223213734Y-86320514D01*
X223213734Y-86320514D02*
X223308972Y-86368133D01*
X221785163Y-87082419D02*
X222356591Y-87082419D01*
X222070877Y-87082419D02*
X222070877Y-86082419D01*
X222070877Y-86082419D02*
X222166115Y-86225276D01*
X222166115Y-86225276D02*
X222261353Y-86320514D01*
X222261353Y-86320514D02*
X222356591Y-86368133D01*
X221007544Y-81965752D02*
X221007544Y-82775276D01*
X221007544Y-82775276D02*
X221055163Y-82870514D01*
X221055163Y-82870514D02*
X221102782Y-82918133D01*
X221102782Y-82918133D02*
X221198020Y-82965752D01*
X221198020Y-82965752D02*
X221340877Y-82965752D01*
X221340877Y-82965752D02*
X221436115Y-82918133D01*
X221007544Y-82584800D02*
X221102782Y-82632419D01*
X221102782Y-82632419D02*
X221293258Y-82632419D01*
X221293258Y-82632419D02*
X221388496Y-82584800D01*
X221388496Y-82584800D02*
X221436115Y-82537180D01*
X221436115Y-82537180D02*
X221483734Y-82441942D01*
X221483734Y-82441942D02*
X221483734Y-82156228D01*
X221483734Y-82156228D02*
X221436115Y-82060990D01*
X221436115Y-82060990D02*
X221388496Y-82013371D01*
X221388496Y-82013371D02*
X221293258Y-81965752D01*
X221293258Y-81965752D02*
X221102782Y-81965752D01*
X221102782Y-81965752D02*
X221007544Y-82013371D01*
X220102782Y-81632419D02*
X220293258Y-81632419D01*
X220293258Y-81632419D02*
X220388496Y-81680038D01*
X220388496Y-81680038D02*
X220436115Y-81727657D01*
X220436115Y-81727657D02*
X220531353Y-81870514D01*
X220531353Y-81870514D02*
X220578972Y-82060990D01*
X220578972Y-82060990D02*
X220578972Y-82441942D01*
X220578972Y-82441942D02*
X220531353Y-82537180D01*
X220531353Y-82537180D02*
X220483734Y-82584800D01*
X220483734Y-82584800D02*
X220388496Y-82632419D01*
X220388496Y-82632419D02*
X220198020Y-82632419D01*
X220198020Y-82632419D02*
X220102782Y-82584800D01*
X220102782Y-82584800D02*
X220055163Y-82537180D01*
X220055163Y-82537180D02*
X220007544Y-82441942D01*
X220007544Y-82441942D02*
X220007544Y-82203847D01*
X220007544Y-82203847D02*
X220055163Y-82108609D01*
X220055163Y-82108609D02*
X220102782Y-82060990D01*
X220102782Y-82060990D02*
X220198020Y-82013371D01*
X220198020Y-82013371D02*
X220388496Y-82013371D01*
X220388496Y-82013371D02*
X220483734Y-82060990D01*
X220483734Y-82060990D02*
X220531353Y-82108609D01*
X220531353Y-82108609D02*
X220578972Y-82203847D01*
X223447544Y-81965752D02*
X223447544Y-82775276D01*
X223447544Y-82775276D02*
X223495163Y-82870514D01*
X223495163Y-82870514D02*
X223542782Y-82918133D01*
X223542782Y-82918133D02*
X223638020Y-82965752D01*
X223638020Y-82965752D02*
X223780877Y-82965752D01*
X223780877Y-82965752D02*
X223876115Y-82918133D01*
X223447544Y-82584800D02*
X223542782Y-82632419D01*
X223542782Y-82632419D02*
X223733258Y-82632419D01*
X223733258Y-82632419D02*
X223828496Y-82584800D01*
X223828496Y-82584800D02*
X223876115Y-82537180D01*
X223876115Y-82537180D02*
X223923734Y-82441942D01*
X223923734Y-82441942D02*
X223923734Y-82156228D01*
X223923734Y-82156228D02*
X223876115Y-82060990D01*
X223876115Y-82060990D02*
X223828496Y-82013371D01*
X223828496Y-82013371D02*
X223733258Y-81965752D01*
X223733258Y-81965752D02*
X223542782Y-81965752D01*
X223542782Y-81965752D02*
X223447544Y-82013371D01*
X223066591Y-81632419D02*
X222399925Y-81632419D01*
X222399925Y-81632419D02*
X222828496Y-82632419D01*
X224463734Y-98254800D02*
X224368496Y-98302419D01*
X224368496Y-98302419D02*
X224178020Y-98302419D01*
X224178020Y-98302419D02*
X224082782Y-98254800D01*
X224082782Y-98254800D02*
X224035163Y-98159561D01*
X224035163Y-98159561D02*
X224035163Y-98111942D01*
X224035163Y-98111942D02*
X224082782Y-98016704D01*
X224082782Y-98016704D02*
X224178020Y-97969085D01*
X224178020Y-97969085D02*
X224320877Y-97969085D01*
X224320877Y-97969085D02*
X224416115Y-97921466D01*
X224416115Y-97921466D02*
X224463734Y-97826228D01*
X224463734Y-97826228D02*
X224463734Y-97778609D01*
X224463734Y-97778609D02*
X224416115Y-97683371D01*
X224416115Y-97683371D02*
X224320877Y-97635752D01*
X224320877Y-97635752D02*
X224178020Y-97635752D01*
X224178020Y-97635752D02*
X224082782Y-97683371D01*
X223178020Y-98254800D02*
X223273258Y-98302419D01*
X223273258Y-98302419D02*
X223463734Y-98302419D01*
X223463734Y-98302419D02*
X223558972Y-98254800D01*
X223558972Y-98254800D02*
X223606591Y-98207180D01*
X223606591Y-98207180D02*
X223654210Y-98111942D01*
X223654210Y-98111942D02*
X223654210Y-97826228D01*
X223654210Y-97826228D02*
X223606591Y-97730990D01*
X223606591Y-97730990D02*
X223558972Y-97683371D01*
X223558972Y-97683371D02*
X223463734Y-97635752D01*
X223463734Y-97635752D02*
X223273258Y-97635752D01*
X223273258Y-97635752D02*
X223178020Y-97683371D01*
X222749448Y-98302419D02*
X222749448Y-97302419D01*
X222654210Y-97921466D02*
X222368496Y-98302419D01*
X222368496Y-97635752D02*
X222749448Y-98016704D01*
X268881353Y-80632419D02*
X268262306Y-80632419D01*
X268262306Y-80632419D02*
X268595639Y-81013371D01*
X268595639Y-81013371D02*
X268452782Y-81013371D01*
X268452782Y-81013371D02*
X268357544Y-81060990D01*
X268357544Y-81060990D02*
X268309925Y-81108609D01*
X268309925Y-81108609D02*
X268262306Y-81203847D01*
X268262306Y-81203847D02*
X268262306Y-81441942D01*
X268262306Y-81441942D02*
X268309925Y-81537180D01*
X268309925Y-81537180D02*
X268357544Y-81584800D01*
X268357544Y-81584800D02*
X268452782Y-81632419D01*
X268452782Y-81632419D02*
X268738496Y-81632419D01*
X268738496Y-81632419D02*
X268833734Y-81584800D01*
X268833734Y-81584800D02*
X268881353Y-81537180D01*
X267833734Y-80965752D02*
X267833734Y-81965752D01*
X267833734Y-81013371D02*
X267738496Y-80965752D01*
X267738496Y-80965752D02*
X267548020Y-80965752D01*
X267548020Y-80965752D02*
X267452782Y-81013371D01*
X267452782Y-81013371D02*
X267405163Y-81060990D01*
X267405163Y-81060990D02*
X267357544Y-81156228D01*
X267357544Y-81156228D02*
X267357544Y-81441942D01*
X267357544Y-81441942D02*
X267405163Y-81537180D01*
X267405163Y-81537180D02*
X267452782Y-81584800D01*
X267452782Y-81584800D02*
X267548020Y-81632419D01*
X267548020Y-81632419D02*
X267738496Y-81632419D01*
X267738496Y-81632419D02*
X267833734Y-81584800D01*
X223123258Y-93092419D02*
X223218496Y-93044800D01*
X223218496Y-93044800D02*
X223266115Y-92997180D01*
X223266115Y-92997180D02*
X223313734Y-92901942D01*
X223313734Y-92901942D02*
X223313734Y-92616228D01*
X223313734Y-92616228D02*
X223266115Y-92520990D01*
X223266115Y-92520990D02*
X223218496Y-92473371D01*
X223218496Y-92473371D02*
X223123258Y-92425752D01*
X223123258Y-92425752D02*
X222980401Y-92425752D01*
X222980401Y-92425752D02*
X222885163Y-92473371D01*
X222885163Y-92473371D02*
X222837544Y-92520990D01*
X222837544Y-92520990D02*
X222789925Y-92616228D01*
X222789925Y-92616228D02*
X222789925Y-92901942D01*
X222789925Y-92901942D02*
X222837544Y-92997180D01*
X222837544Y-92997180D02*
X222885163Y-93044800D01*
X222885163Y-93044800D02*
X222980401Y-93092419D01*
X222980401Y-93092419D02*
X223123258Y-93092419D01*
X222408972Y-93044800D02*
X222313734Y-93092419D01*
X222313734Y-93092419D02*
X222123258Y-93092419D01*
X222123258Y-93092419D02*
X222028020Y-93044800D01*
X222028020Y-93044800D02*
X221980401Y-92949561D01*
X221980401Y-92949561D02*
X221980401Y-92901942D01*
X221980401Y-92901942D02*
X222028020Y-92806704D01*
X222028020Y-92806704D02*
X222123258Y-92759085D01*
X222123258Y-92759085D02*
X222266115Y-92759085D01*
X222266115Y-92759085D02*
X222361353Y-92711466D01*
X222361353Y-92711466D02*
X222408972Y-92616228D01*
X222408972Y-92616228D02*
X222408972Y-92568609D01*
X222408972Y-92568609D02*
X222361353Y-92473371D01*
X222361353Y-92473371D02*
X222266115Y-92425752D01*
X222266115Y-92425752D02*
X222123258Y-92425752D01*
X222123258Y-92425752D02*
X222028020Y-92473371D01*
X221551829Y-93092419D02*
X221551829Y-92425752D01*
X221551829Y-92092419D02*
X221599448Y-92140038D01*
X221599448Y-92140038D02*
X221551829Y-92187657D01*
X221551829Y-92187657D02*
X221504210Y-92140038D01*
X221504210Y-92140038D02*
X221551829Y-92092419D01*
X221551829Y-92092419D02*
X221551829Y-92187657D01*
X265245639Y-51542419D02*
X265055163Y-51542419D01*
X265055163Y-51542419D02*
X264959925Y-51590038D01*
X264959925Y-51590038D02*
X264864687Y-51685276D01*
X264864687Y-51685276D02*
X264817068Y-51875752D01*
X264817068Y-51875752D02*
X264817068Y-52209085D01*
X264817068Y-52209085D02*
X264864687Y-52399561D01*
X264864687Y-52399561D02*
X264959925Y-52494800D01*
X264959925Y-52494800D02*
X265055163Y-52542419D01*
X265055163Y-52542419D02*
X265245639Y-52542419D01*
X265245639Y-52542419D02*
X265340877Y-52494800D01*
X265340877Y-52494800D02*
X265436115Y-52399561D01*
X265436115Y-52399561D02*
X265483734Y-52209085D01*
X265483734Y-52209085D02*
X265483734Y-51875752D01*
X265483734Y-51875752D02*
X265436115Y-51685276D01*
X265436115Y-51685276D02*
X265340877Y-51590038D01*
X265340877Y-51590038D02*
X265245639Y-51542419D01*
X264531353Y-51542419D02*
X263959925Y-51542419D01*
X264245639Y-52542419D02*
X264245639Y-51542419D01*
X263102782Y-51590038D02*
X263198020Y-51542419D01*
X263198020Y-51542419D02*
X263340877Y-51542419D01*
X263340877Y-51542419D02*
X263483734Y-51590038D01*
X263483734Y-51590038D02*
X263578972Y-51685276D01*
X263578972Y-51685276D02*
X263626591Y-51780514D01*
X263626591Y-51780514D02*
X263674210Y-51970990D01*
X263674210Y-51970990D02*
X263674210Y-52113847D01*
X263674210Y-52113847D02*
X263626591Y-52304323D01*
X263626591Y-52304323D02*
X263578972Y-52399561D01*
X263578972Y-52399561D02*
X263483734Y-52494800D01*
X263483734Y-52494800D02*
X263340877Y-52542419D01*
X263340877Y-52542419D02*
X263245639Y-52542419D01*
X263245639Y-52542419D02*
X263102782Y-52494800D01*
X263102782Y-52494800D02*
X263055163Y-52447180D01*
X263055163Y-52447180D02*
X263055163Y-52113847D01*
X263055163Y-52113847D02*
X263245639Y-52113847D01*
X220917544Y-94954800D02*
X221012782Y-95002419D01*
X221012782Y-95002419D02*
X221203258Y-95002419D01*
X221203258Y-95002419D02*
X221298496Y-94954800D01*
X221298496Y-94954800D02*
X221346115Y-94907180D01*
X221346115Y-94907180D02*
X221393734Y-94811942D01*
X221393734Y-94811942D02*
X221393734Y-94526228D01*
X221393734Y-94526228D02*
X221346115Y-94430990D01*
X221346115Y-94430990D02*
X221298496Y-94383371D01*
X221298496Y-94383371D02*
X221203258Y-94335752D01*
X221203258Y-94335752D02*
X221012782Y-94335752D01*
X221012782Y-94335752D02*
X220917544Y-94383371D01*
X220536591Y-94954800D02*
X220441353Y-95002419D01*
X220441353Y-95002419D02*
X220250877Y-95002419D01*
X220250877Y-95002419D02*
X220155639Y-94954800D01*
X220155639Y-94954800D02*
X220108020Y-94859561D01*
X220108020Y-94859561D02*
X220108020Y-94811942D01*
X220108020Y-94811942D02*
X220155639Y-94716704D01*
X220155639Y-94716704D02*
X220250877Y-94669085D01*
X220250877Y-94669085D02*
X220393734Y-94669085D01*
X220393734Y-94669085D02*
X220488972Y-94621466D01*
X220488972Y-94621466D02*
X220536591Y-94526228D01*
X220536591Y-94526228D02*
X220536591Y-94478609D01*
X220536591Y-94478609D02*
X220488972Y-94383371D01*
X220488972Y-94383371D02*
X220393734Y-94335752D01*
X220393734Y-94335752D02*
X220250877Y-94335752D01*
X220250877Y-94335752D02*
X220155639Y-94383371D01*
X219488972Y-94002419D02*
X219393734Y-94002419D01*
X219393734Y-94002419D02*
X219298496Y-94050038D01*
X219298496Y-94050038D02*
X219250877Y-94097657D01*
X219250877Y-94097657D02*
X219203258Y-94192895D01*
X219203258Y-94192895D02*
X219155639Y-94383371D01*
X219155639Y-94383371D02*
X219155639Y-94621466D01*
X219155639Y-94621466D02*
X219203258Y-94811942D01*
X219203258Y-94811942D02*
X219250877Y-94907180D01*
X219250877Y-94907180D02*
X219298496Y-94954800D01*
X219298496Y-94954800D02*
X219393734Y-95002419D01*
X219393734Y-95002419D02*
X219488972Y-95002419D01*
X219488972Y-95002419D02*
X219584210Y-94954800D01*
X219584210Y-94954800D02*
X219631829Y-94907180D01*
X219631829Y-94907180D02*
X219679448Y-94811942D01*
X219679448Y-94811942D02*
X219727067Y-94621466D01*
X219727067Y-94621466D02*
X219727067Y-94383371D01*
X219727067Y-94383371D02*
X219679448Y-94192895D01*
X219679448Y-94192895D02*
X219631829Y-94097657D01*
X219631829Y-94097657D02*
X219584210Y-94050038D01*
X219584210Y-94050038D02*
X219488972Y-94002419D01*
X221543734Y-98334800D02*
X221448496Y-98382419D01*
X221448496Y-98382419D02*
X221258020Y-98382419D01*
X221258020Y-98382419D02*
X221162782Y-98334800D01*
X221162782Y-98334800D02*
X221115163Y-98239561D01*
X221115163Y-98239561D02*
X221115163Y-98191942D01*
X221115163Y-98191942D02*
X221162782Y-98096704D01*
X221162782Y-98096704D02*
X221258020Y-98049085D01*
X221258020Y-98049085D02*
X221400877Y-98049085D01*
X221400877Y-98049085D02*
X221496115Y-98001466D01*
X221496115Y-98001466D02*
X221543734Y-97906228D01*
X221543734Y-97906228D02*
X221543734Y-97858609D01*
X221543734Y-97858609D02*
X221496115Y-97763371D01*
X221496115Y-97763371D02*
X221400877Y-97715752D01*
X221400877Y-97715752D02*
X221258020Y-97715752D01*
X221258020Y-97715752D02*
X221162782Y-97763371D01*
X220258020Y-98382419D02*
X220258020Y-97382419D01*
X220258020Y-98334800D02*
X220353258Y-98382419D01*
X220353258Y-98382419D02*
X220543734Y-98382419D01*
X220543734Y-98382419D02*
X220638972Y-98334800D01*
X220638972Y-98334800D02*
X220686591Y-98287180D01*
X220686591Y-98287180D02*
X220734210Y-98191942D01*
X220734210Y-98191942D02*
X220734210Y-97906228D01*
X220734210Y-97906228D02*
X220686591Y-97810990D01*
X220686591Y-97810990D02*
X220638972Y-97763371D01*
X220638972Y-97763371D02*
X220543734Y-97715752D01*
X220543734Y-97715752D02*
X220353258Y-97715752D01*
X220353258Y-97715752D02*
X220258020Y-97763371D01*
X219353258Y-98382419D02*
X219353258Y-97858609D01*
X219353258Y-97858609D02*
X219400877Y-97763371D01*
X219400877Y-97763371D02*
X219496115Y-97715752D01*
X219496115Y-97715752D02*
X219686591Y-97715752D01*
X219686591Y-97715752D02*
X219781829Y-97763371D01*
X219353258Y-98334800D02*
X219448496Y-98382419D01*
X219448496Y-98382419D02*
X219686591Y-98382419D01*
X219686591Y-98382419D02*
X219781829Y-98334800D01*
X219781829Y-98334800D02*
X219829448Y-98239561D01*
X219829448Y-98239561D02*
X219829448Y-98144323D01*
X219829448Y-98144323D02*
X219781829Y-98049085D01*
X219781829Y-98049085D02*
X219686591Y-98001466D01*
X219686591Y-98001466D02*
X219448496Y-98001466D01*
X219448496Y-98001466D02*
X219353258Y-97953847D01*
X221126115Y-91532419D02*
X221126115Y-90532419D01*
X220697544Y-91532419D02*
X220697544Y-91008609D01*
X220697544Y-91008609D02*
X220745163Y-90913371D01*
X220745163Y-90913371D02*
X220840401Y-90865752D01*
X220840401Y-90865752D02*
X220983258Y-90865752D01*
X220983258Y-90865752D02*
X221078496Y-90913371D01*
X221078496Y-90913371D02*
X221126115Y-90960990D01*
X220078496Y-91532419D02*
X220173734Y-91484800D01*
X220173734Y-91484800D02*
X220221353Y-91437180D01*
X220221353Y-91437180D02*
X220268972Y-91341942D01*
X220268972Y-91341942D02*
X220268972Y-91056228D01*
X220268972Y-91056228D02*
X220221353Y-90960990D01*
X220221353Y-90960990D02*
X220173734Y-90913371D01*
X220173734Y-90913371D02*
X220078496Y-90865752D01*
X220078496Y-90865752D02*
X219935639Y-90865752D01*
X219935639Y-90865752D02*
X219840401Y-90913371D01*
X219840401Y-90913371D02*
X219792782Y-90960990D01*
X219792782Y-90960990D02*
X219745163Y-91056228D01*
X219745163Y-91056228D02*
X219745163Y-91341942D01*
X219745163Y-91341942D02*
X219792782Y-91437180D01*
X219792782Y-91437180D02*
X219840401Y-91484800D01*
X219840401Y-91484800D02*
X219935639Y-91532419D01*
X219935639Y-91532419D02*
X220078496Y-91532419D01*
X219173734Y-91532419D02*
X219268972Y-91484800D01*
X219268972Y-91484800D02*
X219316591Y-91389561D01*
X219316591Y-91389561D02*
X219316591Y-90532419D01*
X218364210Y-91532419D02*
X218364210Y-90532419D01*
X218364210Y-91484800D02*
X218459448Y-91532419D01*
X218459448Y-91532419D02*
X218649924Y-91532419D01*
X218649924Y-91532419D02*
X218745162Y-91484800D01*
X218745162Y-91484800D02*
X218792781Y-91437180D01*
X218792781Y-91437180D02*
X218840400Y-91341942D01*
X218840400Y-91341942D02*
X218840400Y-91056228D01*
X218840400Y-91056228D02*
X218792781Y-90960990D01*
X218792781Y-90960990D02*
X218745162Y-90913371D01*
X218745162Y-90913371D02*
X218649924Y-90865752D01*
X218649924Y-90865752D02*
X218459448Y-90865752D01*
X218459448Y-90865752D02*
X218364210Y-90913371D01*
D11*
X262844819Y-63648095D02*
X263654342Y-63648095D01*
X263654342Y-63648095D02*
X263749580Y-63695714D01*
X263749580Y-63695714D02*
X263797200Y-63743333D01*
X263797200Y-63743333D02*
X263844819Y-63838571D01*
X263844819Y-63838571D02*
X263844819Y-64029047D01*
X263844819Y-64029047D02*
X263797200Y-64124285D01*
X263797200Y-64124285D02*
X263749580Y-64171904D01*
X263749580Y-64171904D02*
X263654342Y-64219523D01*
X263654342Y-64219523D02*
X262844819Y-64219523D01*
X263844819Y-64743333D02*
X263844819Y-64933809D01*
X263844819Y-64933809D02*
X263797200Y-65029047D01*
X263797200Y-65029047D02*
X263749580Y-65076666D01*
X263749580Y-65076666D02*
X263606723Y-65171904D01*
X263606723Y-65171904D02*
X263416247Y-65219523D01*
X263416247Y-65219523D02*
X263035295Y-65219523D01*
X263035295Y-65219523D02*
X262940057Y-65171904D01*
X262940057Y-65171904D02*
X262892438Y-65124285D01*
X262892438Y-65124285D02*
X262844819Y-65029047D01*
X262844819Y-65029047D02*
X262844819Y-64838571D01*
X262844819Y-64838571D02*
X262892438Y-64743333D01*
X262892438Y-64743333D02*
X262940057Y-64695714D01*
X262940057Y-64695714D02*
X263035295Y-64648095D01*
X263035295Y-64648095D02*
X263273390Y-64648095D01*
X263273390Y-64648095D02*
X263368628Y-64695714D01*
X263368628Y-64695714D02*
X263416247Y-64743333D01*
X263416247Y-64743333D02*
X263463866Y-64838571D01*
X263463866Y-64838571D02*
X263463866Y-65029047D01*
X263463866Y-65029047D02*
X263416247Y-65124285D01*
X263416247Y-65124285D02*
X263368628Y-65171904D01*
X263368628Y-65171904D02*
X263273390Y-65219523D01*
X270572857Y-88664819D02*
X270906190Y-88188628D01*
X271144285Y-88664819D02*
X271144285Y-87664819D01*
X271144285Y-87664819D02*
X270763333Y-87664819D01*
X270763333Y-87664819D02*
X270668095Y-87712438D01*
X270668095Y-87712438D02*
X270620476Y-87760057D01*
X270620476Y-87760057D02*
X270572857Y-87855295D01*
X270572857Y-87855295D02*
X270572857Y-87998152D01*
X270572857Y-87998152D02*
X270620476Y-88093390D01*
X270620476Y-88093390D02*
X270668095Y-88141009D01*
X270668095Y-88141009D02*
X270763333Y-88188628D01*
X270763333Y-88188628D02*
X271144285Y-88188628D01*
X269668095Y-87664819D02*
X270144285Y-87664819D01*
X270144285Y-87664819D02*
X270191904Y-88141009D01*
X270191904Y-88141009D02*
X270144285Y-88093390D01*
X270144285Y-88093390D02*
X270049047Y-88045771D01*
X270049047Y-88045771D02*
X269810952Y-88045771D01*
X269810952Y-88045771D02*
X269715714Y-88093390D01*
X269715714Y-88093390D02*
X269668095Y-88141009D01*
X269668095Y-88141009D02*
X269620476Y-88236247D01*
X269620476Y-88236247D02*
X269620476Y-88474342D01*
X269620476Y-88474342D02*
X269668095Y-88569580D01*
X269668095Y-88569580D02*
X269715714Y-88617200D01*
X269715714Y-88617200D02*
X269810952Y-88664819D01*
X269810952Y-88664819D02*
X270049047Y-88664819D01*
X270049047Y-88664819D02*
X270144285Y-88617200D01*
X270144285Y-88617200D02*
X270191904Y-88569580D01*
X269001428Y-87664819D02*
X268906190Y-87664819D01*
X268906190Y-87664819D02*
X268810952Y-87712438D01*
X268810952Y-87712438D02*
X268763333Y-87760057D01*
X268763333Y-87760057D02*
X268715714Y-87855295D01*
X268715714Y-87855295D02*
X268668095Y-88045771D01*
X268668095Y-88045771D02*
X268668095Y-88283866D01*
X268668095Y-88283866D02*
X268715714Y-88474342D01*
X268715714Y-88474342D02*
X268763333Y-88569580D01*
X268763333Y-88569580D02*
X268810952Y-88617200D01*
X268810952Y-88617200D02*
X268906190Y-88664819D01*
X268906190Y-88664819D02*
X269001428Y-88664819D01*
X269001428Y-88664819D02*
X269096666Y-88617200D01*
X269096666Y-88617200D02*
X269144285Y-88569580D01*
X269144285Y-88569580D02*
X269191904Y-88474342D01*
X269191904Y-88474342D02*
X269239523Y-88283866D01*
X269239523Y-88283866D02*
X269239523Y-88045771D01*
X269239523Y-88045771D02*
X269191904Y-87855295D01*
X269191904Y-87855295D02*
X269144285Y-87760057D01*
X269144285Y-87760057D02*
X269096666Y-87712438D01*
X269096666Y-87712438D02*
X269001428Y-87664819D01*
X264777857Y-74044819D02*
X265111190Y-73568628D01*
X265349285Y-74044819D02*
X265349285Y-73044819D01*
X265349285Y-73044819D02*
X264968333Y-73044819D01*
X264968333Y-73044819D02*
X264873095Y-73092438D01*
X264873095Y-73092438D02*
X264825476Y-73140057D01*
X264825476Y-73140057D02*
X264777857Y-73235295D01*
X264777857Y-73235295D02*
X264777857Y-73378152D01*
X264777857Y-73378152D02*
X264825476Y-73473390D01*
X264825476Y-73473390D02*
X264873095Y-73521009D01*
X264873095Y-73521009D02*
X264968333Y-73568628D01*
X264968333Y-73568628D02*
X265349285Y-73568628D01*
X263920714Y-73378152D02*
X263920714Y-74044819D01*
X264158809Y-72997200D02*
X264396904Y-73711485D01*
X264396904Y-73711485D02*
X263777857Y-73711485D01*
X263349285Y-74044819D02*
X263158809Y-74044819D01*
X263158809Y-74044819D02*
X263063571Y-73997200D01*
X263063571Y-73997200D02*
X263015952Y-73949580D01*
X263015952Y-73949580D02*
X262920714Y-73806723D01*
X262920714Y-73806723D02*
X262873095Y-73616247D01*
X262873095Y-73616247D02*
X262873095Y-73235295D01*
X262873095Y-73235295D02*
X262920714Y-73140057D01*
X262920714Y-73140057D02*
X262968333Y-73092438D01*
X262968333Y-73092438D02*
X263063571Y-73044819D01*
X263063571Y-73044819D02*
X263254047Y-73044819D01*
X263254047Y-73044819D02*
X263349285Y-73092438D01*
X263349285Y-73092438D02*
X263396904Y-73140057D01*
X263396904Y-73140057D02*
X263444523Y-73235295D01*
X263444523Y-73235295D02*
X263444523Y-73473390D01*
X263444523Y-73473390D02*
X263396904Y-73568628D01*
X263396904Y-73568628D02*
X263349285Y-73616247D01*
X263349285Y-73616247D02*
X263254047Y-73663866D01*
X263254047Y-73663866D02*
X263063571Y-73663866D01*
X263063571Y-73663866D02*
X262968333Y-73616247D01*
X262968333Y-73616247D02*
X262920714Y-73568628D01*
X262920714Y-73568628D02*
X262873095Y-73473390D01*
X260152857Y-67034819D02*
X260486190Y-66558628D01*
X260724285Y-67034819D02*
X260724285Y-66034819D01*
X260724285Y-66034819D02*
X260343333Y-66034819D01*
X260343333Y-66034819D02*
X260248095Y-66082438D01*
X260248095Y-66082438D02*
X260200476Y-66130057D01*
X260200476Y-66130057D02*
X260152857Y-66225295D01*
X260152857Y-66225295D02*
X260152857Y-66368152D01*
X260152857Y-66368152D02*
X260200476Y-66463390D01*
X260200476Y-66463390D02*
X260248095Y-66511009D01*
X260248095Y-66511009D02*
X260343333Y-66558628D01*
X260343333Y-66558628D02*
X260724285Y-66558628D01*
X259295714Y-66368152D02*
X259295714Y-67034819D01*
X259533809Y-65987200D02*
X259771904Y-66701485D01*
X259771904Y-66701485D02*
X259152857Y-66701485D01*
X258629047Y-66463390D02*
X258724285Y-66415771D01*
X258724285Y-66415771D02*
X258771904Y-66368152D01*
X258771904Y-66368152D02*
X258819523Y-66272914D01*
X258819523Y-66272914D02*
X258819523Y-66225295D01*
X258819523Y-66225295D02*
X258771904Y-66130057D01*
X258771904Y-66130057D02*
X258724285Y-66082438D01*
X258724285Y-66082438D02*
X258629047Y-66034819D01*
X258629047Y-66034819D02*
X258438571Y-66034819D01*
X258438571Y-66034819D02*
X258343333Y-66082438D01*
X258343333Y-66082438D02*
X258295714Y-66130057D01*
X258295714Y-66130057D02*
X258248095Y-66225295D01*
X258248095Y-66225295D02*
X258248095Y-66272914D01*
X258248095Y-66272914D02*
X258295714Y-66368152D01*
X258295714Y-66368152D02*
X258343333Y-66415771D01*
X258343333Y-66415771D02*
X258438571Y-66463390D01*
X258438571Y-66463390D02*
X258629047Y-66463390D01*
X258629047Y-66463390D02*
X258724285Y-66511009D01*
X258724285Y-66511009D02*
X258771904Y-66558628D01*
X258771904Y-66558628D02*
X258819523Y-66653866D01*
X258819523Y-66653866D02*
X258819523Y-66844342D01*
X258819523Y-66844342D02*
X258771904Y-66939580D01*
X258771904Y-66939580D02*
X258724285Y-66987200D01*
X258724285Y-66987200D02*
X258629047Y-67034819D01*
X258629047Y-67034819D02*
X258438571Y-67034819D01*
X258438571Y-67034819D02*
X258343333Y-66987200D01*
X258343333Y-66987200D02*
X258295714Y-66939580D01*
X258295714Y-66939580D02*
X258248095Y-66844342D01*
X258248095Y-66844342D02*
X258248095Y-66653866D01*
X258248095Y-66653866D02*
X258295714Y-66558628D01*
X258295714Y-66558628D02*
X258343333Y-66511009D01*
X258343333Y-66511009D02*
X258438571Y-66463390D01*
X263679580Y-68607142D02*
X263727200Y-68559523D01*
X263727200Y-68559523D02*
X263774819Y-68416666D01*
X263774819Y-68416666D02*
X263774819Y-68321428D01*
X263774819Y-68321428D02*
X263727200Y-68178571D01*
X263727200Y-68178571D02*
X263631961Y-68083333D01*
X263631961Y-68083333D02*
X263536723Y-68035714D01*
X263536723Y-68035714D02*
X263346247Y-67988095D01*
X263346247Y-67988095D02*
X263203390Y-67988095D01*
X263203390Y-67988095D02*
X263012914Y-68035714D01*
X263012914Y-68035714D02*
X262917676Y-68083333D01*
X262917676Y-68083333D02*
X262822438Y-68178571D01*
X262822438Y-68178571D02*
X262774819Y-68321428D01*
X262774819Y-68321428D02*
X262774819Y-68416666D01*
X262774819Y-68416666D02*
X262822438Y-68559523D01*
X262822438Y-68559523D02*
X262870057Y-68607142D01*
X262774819Y-69464285D02*
X262774819Y-69273809D01*
X262774819Y-69273809D02*
X262822438Y-69178571D01*
X262822438Y-69178571D02*
X262870057Y-69130952D01*
X262870057Y-69130952D02*
X263012914Y-69035714D01*
X263012914Y-69035714D02*
X263203390Y-68988095D01*
X263203390Y-68988095D02*
X263584342Y-68988095D01*
X263584342Y-68988095D02*
X263679580Y-69035714D01*
X263679580Y-69035714D02*
X263727200Y-69083333D01*
X263727200Y-69083333D02*
X263774819Y-69178571D01*
X263774819Y-69178571D02*
X263774819Y-69369047D01*
X263774819Y-69369047D02*
X263727200Y-69464285D01*
X263727200Y-69464285D02*
X263679580Y-69511904D01*
X263679580Y-69511904D02*
X263584342Y-69559523D01*
X263584342Y-69559523D02*
X263346247Y-69559523D01*
X263346247Y-69559523D02*
X263251009Y-69511904D01*
X263251009Y-69511904D02*
X263203390Y-69464285D01*
X263203390Y-69464285D02*
X263155771Y-69369047D01*
X263155771Y-69369047D02*
X263155771Y-69178571D01*
X263155771Y-69178571D02*
X263203390Y-69083333D01*
X263203390Y-69083333D02*
X263251009Y-69035714D01*
X263251009Y-69035714D02*
X263346247Y-68988095D01*
X262774819Y-70464285D02*
X262774819Y-69988095D01*
X262774819Y-69988095D02*
X263251009Y-69940476D01*
X263251009Y-69940476D02*
X263203390Y-69988095D01*
X263203390Y-69988095D02*
X263155771Y-70083333D01*
X263155771Y-70083333D02*
X263155771Y-70321428D01*
X263155771Y-70321428D02*
X263203390Y-70416666D01*
X263203390Y-70416666D02*
X263251009Y-70464285D01*
X263251009Y-70464285D02*
X263346247Y-70511904D01*
X263346247Y-70511904D02*
X263584342Y-70511904D01*
X263584342Y-70511904D02*
X263679580Y-70464285D01*
X263679580Y-70464285D02*
X263727200Y-70416666D01*
X263727200Y-70416666D02*
X263774819Y-70321428D01*
X263774819Y-70321428D02*
X263774819Y-70083333D01*
X263774819Y-70083333D02*
X263727200Y-69988095D01*
X263727200Y-69988095D02*
X263679580Y-69940476D01*
X266409580Y-81613333D02*
X266457200Y-81565714D01*
X266457200Y-81565714D02*
X266504819Y-81422857D01*
X266504819Y-81422857D02*
X266504819Y-81327619D01*
X266504819Y-81327619D02*
X266457200Y-81184762D01*
X266457200Y-81184762D02*
X266361961Y-81089524D01*
X266361961Y-81089524D02*
X266266723Y-81041905D01*
X266266723Y-81041905D02*
X266076247Y-80994286D01*
X266076247Y-80994286D02*
X265933390Y-80994286D01*
X265933390Y-80994286D02*
X265742914Y-81041905D01*
X265742914Y-81041905D02*
X265647676Y-81089524D01*
X265647676Y-81089524D02*
X265552438Y-81184762D01*
X265552438Y-81184762D02*
X265504819Y-81327619D01*
X265504819Y-81327619D02*
X265504819Y-81422857D01*
X265504819Y-81422857D02*
X265552438Y-81565714D01*
X265552438Y-81565714D02*
X265600057Y-81613333D01*
X265504819Y-82470476D02*
X265504819Y-82280000D01*
X265504819Y-82280000D02*
X265552438Y-82184762D01*
X265552438Y-82184762D02*
X265600057Y-82137143D01*
X265600057Y-82137143D02*
X265742914Y-82041905D01*
X265742914Y-82041905D02*
X265933390Y-81994286D01*
X265933390Y-81994286D02*
X266314342Y-81994286D01*
X266314342Y-81994286D02*
X266409580Y-82041905D01*
X266409580Y-82041905D02*
X266457200Y-82089524D01*
X266457200Y-82089524D02*
X266504819Y-82184762D01*
X266504819Y-82184762D02*
X266504819Y-82375238D01*
X266504819Y-82375238D02*
X266457200Y-82470476D01*
X266457200Y-82470476D02*
X266409580Y-82518095D01*
X266409580Y-82518095D02*
X266314342Y-82565714D01*
X266314342Y-82565714D02*
X266076247Y-82565714D01*
X266076247Y-82565714D02*
X265981009Y-82518095D01*
X265981009Y-82518095D02*
X265933390Y-82470476D01*
X265933390Y-82470476D02*
X265885771Y-82375238D01*
X265885771Y-82375238D02*
X265885771Y-82184762D01*
X265885771Y-82184762D02*
X265933390Y-82089524D01*
X265933390Y-82089524D02*
X265981009Y-82041905D01*
X265981009Y-82041905D02*
X266076247Y-81994286D01*
X270746666Y-86469580D02*
X270794285Y-86517200D01*
X270794285Y-86517200D02*
X270937142Y-86564819D01*
X270937142Y-86564819D02*
X271032380Y-86564819D01*
X271032380Y-86564819D02*
X271175237Y-86517200D01*
X271175237Y-86517200D02*
X271270475Y-86421961D01*
X271270475Y-86421961D02*
X271318094Y-86326723D01*
X271318094Y-86326723D02*
X271365713Y-86136247D01*
X271365713Y-86136247D02*
X271365713Y-85993390D01*
X271365713Y-85993390D02*
X271318094Y-85802914D01*
X271318094Y-85802914D02*
X271270475Y-85707676D01*
X271270475Y-85707676D02*
X271175237Y-85612438D01*
X271175237Y-85612438D02*
X271032380Y-85564819D01*
X271032380Y-85564819D02*
X270937142Y-85564819D01*
X270937142Y-85564819D02*
X270794285Y-85612438D01*
X270794285Y-85612438D02*
X270746666Y-85660057D01*
X269889523Y-85898152D02*
X269889523Y-86564819D01*
X270127618Y-85517200D02*
X270365713Y-86231485D01*
X270365713Y-86231485D02*
X269746666Y-86231485D01*
X225289580Y-58582142D02*
X225337200Y-58534523D01*
X225337200Y-58534523D02*
X225384819Y-58391666D01*
X225384819Y-58391666D02*
X225384819Y-58296428D01*
X225384819Y-58296428D02*
X225337200Y-58153571D01*
X225337200Y-58153571D02*
X225241961Y-58058333D01*
X225241961Y-58058333D02*
X225146723Y-58010714D01*
X225146723Y-58010714D02*
X224956247Y-57963095D01*
X224956247Y-57963095D02*
X224813390Y-57963095D01*
X224813390Y-57963095D02*
X224622914Y-58010714D01*
X224622914Y-58010714D02*
X224527676Y-58058333D01*
X224527676Y-58058333D02*
X224432438Y-58153571D01*
X224432438Y-58153571D02*
X224384819Y-58296428D01*
X224384819Y-58296428D02*
X224384819Y-58391666D01*
X224384819Y-58391666D02*
X224432438Y-58534523D01*
X224432438Y-58534523D02*
X224480057Y-58582142D01*
X225384819Y-59534523D02*
X225384819Y-58963095D01*
X225384819Y-59248809D02*
X224384819Y-59248809D01*
X224384819Y-59248809D02*
X224527676Y-59153571D01*
X224527676Y-59153571D02*
X224622914Y-59058333D01*
X224622914Y-59058333D02*
X224670533Y-58963095D01*
X224384819Y-60153571D02*
X224384819Y-60248809D01*
X224384819Y-60248809D02*
X224432438Y-60344047D01*
X224432438Y-60344047D02*
X224480057Y-60391666D01*
X224480057Y-60391666D02*
X224575295Y-60439285D01*
X224575295Y-60439285D02*
X224765771Y-60486904D01*
X224765771Y-60486904D02*
X225003866Y-60486904D01*
X225003866Y-60486904D02*
X225194342Y-60439285D01*
X225194342Y-60439285D02*
X225289580Y-60391666D01*
X225289580Y-60391666D02*
X225337200Y-60344047D01*
X225337200Y-60344047D02*
X225384819Y-60248809D01*
X225384819Y-60248809D02*
X225384819Y-60153571D01*
X225384819Y-60153571D02*
X225337200Y-60058333D01*
X225337200Y-60058333D02*
X225289580Y-60010714D01*
X225289580Y-60010714D02*
X225194342Y-59963095D01*
X225194342Y-59963095D02*
X225003866Y-59915476D01*
X225003866Y-59915476D02*
X224765771Y-59915476D01*
X224765771Y-59915476D02*
X224575295Y-59963095D01*
X224575295Y-59963095D02*
X224480057Y-60010714D01*
X224480057Y-60010714D02*
X224432438Y-60058333D01*
X224432438Y-60058333D02*
X224384819Y-60153571D01*
X257876666Y-73259580D02*
X257924285Y-73307200D01*
X257924285Y-73307200D02*
X258067142Y-73354819D01*
X258067142Y-73354819D02*
X258162380Y-73354819D01*
X258162380Y-73354819D02*
X258305237Y-73307200D01*
X258305237Y-73307200D02*
X258400475Y-73211961D01*
X258400475Y-73211961D02*
X258448094Y-73116723D01*
X258448094Y-73116723D02*
X258495713Y-72926247D01*
X258495713Y-72926247D02*
X258495713Y-72783390D01*
X258495713Y-72783390D02*
X258448094Y-72592914D01*
X258448094Y-72592914D02*
X258400475Y-72497676D01*
X258400475Y-72497676D02*
X258305237Y-72402438D01*
X258305237Y-72402438D02*
X258162380Y-72354819D01*
X258162380Y-72354819D02*
X258067142Y-72354819D01*
X258067142Y-72354819D02*
X257924285Y-72402438D01*
X257924285Y-72402438D02*
X257876666Y-72450057D01*
X257543332Y-72354819D02*
X256924285Y-72354819D01*
X256924285Y-72354819D02*
X257257618Y-72735771D01*
X257257618Y-72735771D02*
X257114761Y-72735771D01*
X257114761Y-72735771D02*
X257019523Y-72783390D01*
X257019523Y-72783390D02*
X256971904Y-72831009D01*
X256971904Y-72831009D02*
X256924285Y-72926247D01*
X256924285Y-72926247D02*
X256924285Y-73164342D01*
X256924285Y-73164342D02*
X256971904Y-73259580D01*
X256971904Y-73259580D02*
X257019523Y-73307200D01*
X257019523Y-73307200D02*
X257114761Y-73354819D01*
X257114761Y-73354819D02*
X257400475Y-73354819D01*
X257400475Y-73354819D02*
X257495713Y-73307200D01*
X257495713Y-73307200D02*
X257543332Y-73259580D01*
X228304819Y-88698095D02*
X229114342Y-88698095D01*
X229114342Y-88698095D02*
X229209580Y-88745714D01*
X229209580Y-88745714D02*
X229257200Y-88793333D01*
X229257200Y-88793333D02*
X229304819Y-88888571D01*
X229304819Y-88888571D02*
X229304819Y-89079047D01*
X229304819Y-89079047D02*
X229257200Y-89174285D01*
X229257200Y-89174285D02*
X229209580Y-89221904D01*
X229209580Y-89221904D02*
X229114342Y-89269523D01*
X229114342Y-89269523D02*
X228304819Y-89269523D01*
X228733390Y-89888571D02*
X228685771Y-89793333D01*
X228685771Y-89793333D02*
X228638152Y-89745714D01*
X228638152Y-89745714D02*
X228542914Y-89698095D01*
X228542914Y-89698095D02*
X228495295Y-89698095D01*
X228495295Y-89698095D02*
X228400057Y-89745714D01*
X228400057Y-89745714D02*
X228352438Y-89793333D01*
X228352438Y-89793333D02*
X228304819Y-89888571D01*
X228304819Y-89888571D02*
X228304819Y-90079047D01*
X228304819Y-90079047D02*
X228352438Y-90174285D01*
X228352438Y-90174285D02*
X228400057Y-90221904D01*
X228400057Y-90221904D02*
X228495295Y-90269523D01*
X228495295Y-90269523D02*
X228542914Y-90269523D01*
X228542914Y-90269523D02*
X228638152Y-90221904D01*
X228638152Y-90221904D02*
X228685771Y-90174285D01*
X228685771Y-90174285D02*
X228733390Y-90079047D01*
X228733390Y-90079047D02*
X228733390Y-89888571D01*
X228733390Y-89888571D02*
X228781009Y-89793333D01*
X228781009Y-89793333D02*
X228828628Y-89745714D01*
X228828628Y-89745714D02*
X228923866Y-89698095D01*
X228923866Y-89698095D02*
X229114342Y-89698095D01*
X229114342Y-89698095D02*
X229209580Y-89745714D01*
X229209580Y-89745714D02*
X229257200Y-89793333D01*
X229257200Y-89793333D02*
X229304819Y-89888571D01*
X229304819Y-89888571D02*
X229304819Y-90079047D01*
X229304819Y-90079047D02*
X229257200Y-90174285D01*
X229257200Y-90174285D02*
X229209580Y-90221904D01*
X229209580Y-90221904D02*
X229114342Y-90269523D01*
X229114342Y-90269523D02*
X228923866Y-90269523D01*
X228923866Y-90269523D02*
X228828628Y-90221904D01*
X228828628Y-90221904D02*
X228781009Y-90174285D01*
X228781009Y-90174285D02*
X228733390Y-90079047D01*
X220064819Y-112875595D02*
X220874342Y-112875595D01*
X220874342Y-112875595D02*
X220969580Y-112923214D01*
X220969580Y-112923214D02*
X221017200Y-112970833D01*
X221017200Y-112970833D02*
X221064819Y-113066071D01*
X221064819Y-113066071D02*
X221064819Y-113256547D01*
X221064819Y-113256547D02*
X221017200Y-113351785D01*
X221017200Y-113351785D02*
X220969580Y-113399404D01*
X220969580Y-113399404D02*
X220874342Y-113447023D01*
X220874342Y-113447023D02*
X220064819Y-113447023D01*
X220064819Y-114399404D02*
X220064819Y-113923214D01*
X220064819Y-113923214D02*
X220541009Y-113875595D01*
X220541009Y-113875595D02*
X220493390Y-113923214D01*
X220493390Y-113923214D02*
X220445771Y-114018452D01*
X220445771Y-114018452D02*
X220445771Y-114256547D01*
X220445771Y-114256547D02*
X220493390Y-114351785D01*
X220493390Y-114351785D02*
X220541009Y-114399404D01*
X220541009Y-114399404D02*
X220636247Y-114447023D01*
X220636247Y-114447023D02*
X220874342Y-114447023D01*
X220874342Y-114447023D02*
X220969580Y-114399404D01*
X220969580Y-114399404D02*
X221017200Y-114351785D01*
X221017200Y-114351785D02*
X221064819Y-114256547D01*
X221064819Y-114256547D02*
X221064819Y-114018452D01*
X221064819Y-114018452D02*
X221017200Y-113923214D01*
X221017200Y-113923214D02*
X220969580Y-113875595D01*
X255130357Y-83352080D02*
X255177976Y-83399700D01*
X255177976Y-83399700D02*
X255320833Y-83447319D01*
X255320833Y-83447319D02*
X255416071Y-83447319D01*
X255416071Y-83447319D02*
X255558928Y-83399700D01*
X255558928Y-83399700D02*
X255654166Y-83304461D01*
X255654166Y-83304461D02*
X255701785Y-83209223D01*
X255701785Y-83209223D02*
X255749404Y-83018747D01*
X255749404Y-83018747D02*
X255749404Y-82875890D01*
X255749404Y-82875890D02*
X255701785Y-82685414D01*
X255701785Y-82685414D02*
X255654166Y-82590176D01*
X255654166Y-82590176D02*
X255558928Y-82494938D01*
X255558928Y-82494938D02*
X255416071Y-82447319D01*
X255416071Y-82447319D02*
X255320833Y-82447319D01*
X255320833Y-82447319D02*
X255177976Y-82494938D01*
X255177976Y-82494938D02*
X255130357Y-82542557D01*
X254225595Y-82447319D02*
X254701785Y-82447319D01*
X254701785Y-82447319D02*
X254749404Y-82923509D01*
X254749404Y-82923509D02*
X254701785Y-82875890D01*
X254701785Y-82875890D02*
X254606547Y-82828271D01*
X254606547Y-82828271D02*
X254368452Y-82828271D01*
X254368452Y-82828271D02*
X254273214Y-82875890D01*
X254273214Y-82875890D02*
X254225595Y-82923509D01*
X254225595Y-82923509D02*
X254177976Y-83018747D01*
X254177976Y-83018747D02*
X254177976Y-83256842D01*
X254177976Y-83256842D02*
X254225595Y-83352080D01*
X254225595Y-83352080D02*
X254273214Y-83399700D01*
X254273214Y-83399700D02*
X254368452Y-83447319D01*
X254368452Y-83447319D02*
X254606547Y-83447319D01*
X254606547Y-83447319D02*
X254701785Y-83399700D01*
X254701785Y-83399700D02*
X254749404Y-83352080D01*
X253606547Y-82875890D02*
X253701785Y-82828271D01*
X253701785Y-82828271D02*
X253749404Y-82780652D01*
X253749404Y-82780652D02*
X253797023Y-82685414D01*
X253797023Y-82685414D02*
X253797023Y-82637795D01*
X253797023Y-82637795D02*
X253749404Y-82542557D01*
X253749404Y-82542557D02*
X253701785Y-82494938D01*
X253701785Y-82494938D02*
X253606547Y-82447319D01*
X253606547Y-82447319D02*
X253416071Y-82447319D01*
X253416071Y-82447319D02*
X253320833Y-82494938D01*
X253320833Y-82494938D02*
X253273214Y-82542557D01*
X253273214Y-82542557D02*
X253225595Y-82637795D01*
X253225595Y-82637795D02*
X253225595Y-82685414D01*
X253225595Y-82685414D02*
X253273214Y-82780652D01*
X253273214Y-82780652D02*
X253320833Y-82828271D01*
X253320833Y-82828271D02*
X253416071Y-82875890D01*
X253416071Y-82875890D02*
X253606547Y-82875890D01*
X253606547Y-82875890D02*
X253701785Y-82923509D01*
X253701785Y-82923509D02*
X253749404Y-82971128D01*
X253749404Y-82971128D02*
X253797023Y-83066366D01*
X253797023Y-83066366D02*
X253797023Y-83256842D01*
X253797023Y-83256842D02*
X253749404Y-83352080D01*
X253749404Y-83352080D02*
X253701785Y-83399700D01*
X253701785Y-83399700D02*
X253606547Y-83447319D01*
X253606547Y-83447319D02*
X253416071Y-83447319D01*
X253416071Y-83447319D02*
X253320833Y-83399700D01*
X253320833Y-83399700D02*
X253273214Y-83352080D01*
X253273214Y-83352080D02*
X253225595Y-83256842D01*
X253225595Y-83256842D02*
X253225595Y-83066366D01*
X253225595Y-83066366D02*
X253273214Y-82971128D01*
X253273214Y-82971128D02*
X253320833Y-82923509D01*
X253320833Y-82923509D02*
X253416071Y-82875890D01*
X242212857Y-99214819D02*
X242546190Y-98738628D01*
X242784285Y-99214819D02*
X242784285Y-98214819D01*
X242784285Y-98214819D02*
X242403333Y-98214819D01*
X242403333Y-98214819D02*
X242308095Y-98262438D01*
X242308095Y-98262438D02*
X242260476Y-98310057D01*
X242260476Y-98310057D02*
X242212857Y-98405295D01*
X242212857Y-98405295D02*
X242212857Y-98548152D01*
X242212857Y-98548152D02*
X242260476Y-98643390D01*
X242260476Y-98643390D02*
X242308095Y-98691009D01*
X242308095Y-98691009D02*
X242403333Y-98738628D01*
X242403333Y-98738628D02*
X242784285Y-98738628D01*
X241355714Y-98548152D02*
X241355714Y-99214819D01*
X241593809Y-98167200D02*
X241831904Y-98881485D01*
X241831904Y-98881485D02*
X241212857Y-98881485D01*
X240308095Y-99214819D02*
X240879523Y-99214819D01*
X240593809Y-99214819D02*
X240593809Y-98214819D01*
X240593809Y-98214819D02*
X240689047Y-98357676D01*
X240689047Y-98357676D02*
X240784285Y-98452914D01*
X240784285Y-98452914D02*
X240879523Y-98500533D01*
X248999580Y-96127142D02*
X249047200Y-96079523D01*
X249047200Y-96079523D02*
X249094819Y-95936666D01*
X249094819Y-95936666D02*
X249094819Y-95841428D01*
X249094819Y-95841428D02*
X249047200Y-95698571D01*
X249047200Y-95698571D02*
X248951961Y-95603333D01*
X248951961Y-95603333D02*
X248856723Y-95555714D01*
X248856723Y-95555714D02*
X248666247Y-95508095D01*
X248666247Y-95508095D02*
X248523390Y-95508095D01*
X248523390Y-95508095D02*
X248332914Y-95555714D01*
X248332914Y-95555714D02*
X248237676Y-95603333D01*
X248237676Y-95603333D02*
X248142438Y-95698571D01*
X248142438Y-95698571D02*
X248094819Y-95841428D01*
X248094819Y-95841428D02*
X248094819Y-95936666D01*
X248094819Y-95936666D02*
X248142438Y-96079523D01*
X248142438Y-96079523D02*
X248190057Y-96127142D01*
X248428152Y-96984285D02*
X249094819Y-96984285D01*
X248047200Y-96746190D02*
X248761485Y-96508095D01*
X248761485Y-96508095D02*
X248761485Y-97127142D01*
X248094819Y-97936666D02*
X248094819Y-97746190D01*
X248094819Y-97746190D02*
X248142438Y-97650952D01*
X248142438Y-97650952D02*
X248190057Y-97603333D01*
X248190057Y-97603333D02*
X248332914Y-97508095D01*
X248332914Y-97508095D02*
X248523390Y-97460476D01*
X248523390Y-97460476D02*
X248904342Y-97460476D01*
X248904342Y-97460476D02*
X248999580Y-97508095D01*
X248999580Y-97508095D02*
X249047200Y-97555714D01*
X249047200Y-97555714D02*
X249094819Y-97650952D01*
X249094819Y-97650952D02*
X249094819Y-97841428D01*
X249094819Y-97841428D02*
X249047200Y-97936666D01*
X249047200Y-97936666D02*
X248999580Y-97984285D01*
X248999580Y-97984285D02*
X248904342Y-98031904D01*
X248904342Y-98031904D02*
X248666247Y-98031904D01*
X248666247Y-98031904D02*
X248571009Y-97984285D01*
X248571009Y-97984285D02*
X248523390Y-97936666D01*
X248523390Y-97936666D02*
X248475771Y-97841428D01*
X248475771Y-97841428D02*
X248475771Y-97650952D01*
X248475771Y-97650952D02*
X248523390Y-97555714D01*
X248523390Y-97555714D02*
X248571009Y-97508095D01*
X248571009Y-97508095D02*
X248666247Y-97460476D01*
X258402857Y-82769580D02*
X258450476Y-82817200D01*
X258450476Y-82817200D02*
X258593333Y-82864819D01*
X258593333Y-82864819D02*
X258688571Y-82864819D01*
X258688571Y-82864819D02*
X258831428Y-82817200D01*
X258831428Y-82817200D02*
X258926666Y-82721961D01*
X258926666Y-82721961D02*
X258974285Y-82626723D01*
X258974285Y-82626723D02*
X259021904Y-82436247D01*
X259021904Y-82436247D02*
X259021904Y-82293390D01*
X259021904Y-82293390D02*
X258974285Y-82102914D01*
X258974285Y-82102914D02*
X258926666Y-82007676D01*
X258926666Y-82007676D02*
X258831428Y-81912438D01*
X258831428Y-81912438D02*
X258688571Y-81864819D01*
X258688571Y-81864819D02*
X258593333Y-81864819D01*
X258593333Y-81864819D02*
X258450476Y-81912438D01*
X258450476Y-81912438D02*
X258402857Y-81960057D01*
X257450476Y-82864819D02*
X258021904Y-82864819D01*
X257736190Y-82864819D02*
X257736190Y-81864819D01*
X257736190Y-81864819D02*
X257831428Y-82007676D01*
X257831428Y-82007676D02*
X257926666Y-82102914D01*
X257926666Y-82102914D02*
X258021904Y-82150533D01*
X256974285Y-82864819D02*
X256783809Y-82864819D01*
X256783809Y-82864819D02*
X256688571Y-82817200D01*
X256688571Y-82817200D02*
X256640952Y-82769580D01*
X256640952Y-82769580D02*
X256545714Y-82626723D01*
X256545714Y-82626723D02*
X256498095Y-82436247D01*
X256498095Y-82436247D02*
X256498095Y-82055295D01*
X256498095Y-82055295D02*
X256545714Y-81960057D01*
X256545714Y-81960057D02*
X256593333Y-81912438D01*
X256593333Y-81912438D02*
X256688571Y-81864819D01*
X256688571Y-81864819D02*
X256879047Y-81864819D01*
X256879047Y-81864819D02*
X256974285Y-81912438D01*
X256974285Y-81912438D02*
X257021904Y-81960057D01*
X257021904Y-81960057D02*
X257069523Y-82055295D01*
X257069523Y-82055295D02*
X257069523Y-82293390D01*
X257069523Y-82293390D02*
X257021904Y-82388628D01*
X257021904Y-82388628D02*
X256974285Y-82436247D01*
X256974285Y-82436247D02*
X256879047Y-82483866D01*
X256879047Y-82483866D02*
X256688571Y-82483866D01*
X256688571Y-82483866D02*
X256593333Y-82436247D01*
X256593333Y-82436247D02*
X256545714Y-82388628D01*
X256545714Y-82388628D02*
X256498095Y-82293390D01*
X233888628Y-92273809D02*
X234364819Y-92273809D01*
X233364819Y-91940476D02*
X233888628Y-92273809D01*
X233888628Y-92273809D02*
X233364819Y-92607142D01*
X233460057Y-92892857D02*
X233412438Y-92940476D01*
X233412438Y-92940476D02*
X233364819Y-93035714D01*
X233364819Y-93035714D02*
X233364819Y-93273809D01*
X233364819Y-93273809D02*
X233412438Y-93369047D01*
X233412438Y-93369047D02*
X233460057Y-93416666D01*
X233460057Y-93416666D02*
X233555295Y-93464285D01*
X233555295Y-93464285D02*
X233650533Y-93464285D01*
X233650533Y-93464285D02*
X233793390Y-93416666D01*
X233793390Y-93416666D02*
X234364819Y-92845238D01*
X234364819Y-92845238D02*
X234364819Y-93464285D01*
X265265180Y-100521666D02*
X265265180Y-100997856D01*
X265265180Y-100997856D02*
X266265180Y-100997856D01*
X266169942Y-100235951D02*
X266217561Y-100188332D01*
X266217561Y-100188332D02*
X266265180Y-100093094D01*
X266265180Y-100093094D02*
X266265180Y-99854999D01*
X266265180Y-99854999D02*
X266217561Y-99759761D01*
X266217561Y-99759761D02*
X266169942Y-99712142D01*
X266169942Y-99712142D02*
X266074704Y-99664523D01*
X266074704Y-99664523D02*
X265979466Y-99664523D01*
X265979466Y-99664523D02*
X265836609Y-99712142D01*
X265836609Y-99712142D02*
X265265180Y-100283570D01*
X265265180Y-100283570D02*
X265265180Y-99664523D01*
X244959580Y-96107142D02*
X245007200Y-96059523D01*
X245007200Y-96059523D02*
X245054819Y-95916666D01*
X245054819Y-95916666D02*
X245054819Y-95821428D01*
X245054819Y-95821428D02*
X245007200Y-95678571D01*
X245007200Y-95678571D02*
X244911961Y-95583333D01*
X244911961Y-95583333D02*
X244816723Y-95535714D01*
X244816723Y-95535714D02*
X244626247Y-95488095D01*
X244626247Y-95488095D02*
X244483390Y-95488095D01*
X244483390Y-95488095D02*
X244292914Y-95535714D01*
X244292914Y-95535714D02*
X244197676Y-95583333D01*
X244197676Y-95583333D02*
X244102438Y-95678571D01*
X244102438Y-95678571D02*
X244054819Y-95821428D01*
X244054819Y-95821428D02*
X244054819Y-95916666D01*
X244054819Y-95916666D02*
X244102438Y-96059523D01*
X244102438Y-96059523D02*
X244150057Y-96107142D01*
X244388152Y-96964285D02*
X245054819Y-96964285D01*
X244007200Y-96726190D02*
X244721485Y-96488095D01*
X244721485Y-96488095D02*
X244721485Y-97107142D01*
X245054819Y-97535714D02*
X245054819Y-97726190D01*
X245054819Y-97726190D02*
X245007200Y-97821428D01*
X245007200Y-97821428D02*
X244959580Y-97869047D01*
X244959580Y-97869047D02*
X244816723Y-97964285D01*
X244816723Y-97964285D02*
X244626247Y-98011904D01*
X244626247Y-98011904D02*
X244245295Y-98011904D01*
X244245295Y-98011904D02*
X244150057Y-97964285D01*
X244150057Y-97964285D02*
X244102438Y-97916666D01*
X244102438Y-97916666D02*
X244054819Y-97821428D01*
X244054819Y-97821428D02*
X244054819Y-97630952D01*
X244054819Y-97630952D02*
X244102438Y-97535714D01*
X244102438Y-97535714D02*
X244150057Y-97488095D01*
X244150057Y-97488095D02*
X244245295Y-97440476D01*
X244245295Y-97440476D02*
X244483390Y-97440476D01*
X244483390Y-97440476D02*
X244578628Y-97488095D01*
X244578628Y-97488095D02*
X244626247Y-97535714D01*
X244626247Y-97535714D02*
X244673866Y-97630952D01*
X244673866Y-97630952D02*
X244673866Y-97821428D01*
X244673866Y-97821428D02*
X244626247Y-97916666D01*
X244626247Y-97916666D02*
X244578628Y-97964285D01*
X244578628Y-97964285D02*
X244483390Y-98011904D01*
X226382857Y-52464819D02*
X226716190Y-51988628D01*
X226954285Y-52464819D02*
X226954285Y-51464819D01*
X226954285Y-51464819D02*
X226573333Y-51464819D01*
X226573333Y-51464819D02*
X226478095Y-51512438D01*
X226478095Y-51512438D02*
X226430476Y-51560057D01*
X226430476Y-51560057D02*
X226382857Y-51655295D01*
X226382857Y-51655295D02*
X226382857Y-51798152D01*
X226382857Y-51798152D02*
X226430476Y-51893390D01*
X226430476Y-51893390D02*
X226478095Y-51941009D01*
X226478095Y-51941009D02*
X226573333Y-51988628D01*
X226573333Y-51988628D02*
X226954285Y-51988628D01*
X226001904Y-51560057D02*
X225954285Y-51512438D01*
X225954285Y-51512438D02*
X225859047Y-51464819D01*
X225859047Y-51464819D02*
X225620952Y-51464819D01*
X225620952Y-51464819D02*
X225525714Y-51512438D01*
X225525714Y-51512438D02*
X225478095Y-51560057D01*
X225478095Y-51560057D02*
X225430476Y-51655295D01*
X225430476Y-51655295D02*
X225430476Y-51750533D01*
X225430476Y-51750533D02*
X225478095Y-51893390D01*
X225478095Y-51893390D02*
X226049523Y-52464819D01*
X226049523Y-52464819D02*
X225430476Y-52464819D01*
X224478095Y-52464819D02*
X225049523Y-52464819D01*
X224763809Y-52464819D02*
X224763809Y-51464819D01*
X224763809Y-51464819D02*
X224859047Y-51607676D01*
X224859047Y-51607676D02*
X224954285Y-51702914D01*
X224954285Y-51702914D02*
X225049523Y-51750533D01*
X254989580Y-76338333D02*
X255037200Y-76290714D01*
X255037200Y-76290714D02*
X255084819Y-76147857D01*
X255084819Y-76147857D02*
X255084819Y-76052619D01*
X255084819Y-76052619D02*
X255037200Y-75909762D01*
X255037200Y-75909762D02*
X254941961Y-75814524D01*
X254941961Y-75814524D02*
X254846723Y-75766905D01*
X254846723Y-75766905D02*
X254656247Y-75719286D01*
X254656247Y-75719286D02*
X254513390Y-75719286D01*
X254513390Y-75719286D02*
X254322914Y-75766905D01*
X254322914Y-75766905D02*
X254227676Y-75814524D01*
X254227676Y-75814524D02*
X254132438Y-75909762D01*
X254132438Y-75909762D02*
X254084819Y-76052619D01*
X254084819Y-76052619D02*
X254084819Y-76147857D01*
X254084819Y-76147857D02*
X254132438Y-76290714D01*
X254132438Y-76290714D02*
X254180057Y-76338333D01*
X254084819Y-77243095D02*
X254084819Y-76766905D01*
X254084819Y-76766905D02*
X254561009Y-76719286D01*
X254561009Y-76719286D02*
X254513390Y-76766905D01*
X254513390Y-76766905D02*
X254465771Y-76862143D01*
X254465771Y-76862143D02*
X254465771Y-77100238D01*
X254465771Y-77100238D02*
X254513390Y-77195476D01*
X254513390Y-77195476D02*
X254561009Y-77243095D01*
X254561009Y-77243095D02*
X254656247Y-77290714D01*
X254656247Y-77290714D02*
X254894342Y-77290714D01*
X254894342Y-77290714D02*
X254989580Y-77243095D01*
X254989580Y-77243095D02*
X255037200Y-77195476D01*
X255037200Y-77195476D02*
X255084819Y-77100238D01*
X255084819Y-77100238D02*
X255084819Y-76862143D01*
X255084819Y-76862143D02*
X255037200Y-76766905D01*
X255037200Y-76766905D02*
X254989580Y-76719286D01*
X235159523Y-74979819D02*
X234492857Y-75979819D01*
X234492857Y-74979819D02*
X235159523Y-75979819D01*
X233588095Y-75979819D02*
X234159523Y-75979819D01*
X233873809Y-75979819D02*
X233873809Y-74979819D01*
X233873809Y-74979819D02*
X233969047Y-75122676D01*
X233969047Y-75122676D02*
X234064285Y-75217914D01*
X234064285Y-75217914D02*
X234159523Y-75265533D01*
X248012857Y-100529580D02*
X248060476Y-100577200D01*
X248060476Y-100577200D02*
X248203333Y-100624819D01*
X248203333Y-100624819D02*
X248298571Y-100624819D01*
X248298571Y-100624819D02*
X248441428Y-100577200D01*
X248441428Y-100577200D02*
X248536666Y-100481961D01*
X248536666Y-100481961D02*
X248584285Y-100386723D01*
X248584285Y-100386723D02*
X248631904Y-100196247D01*
X248631904Y-100196247D02*
X248631904Y-100053390D01*
X248631904Y-100053390D02*
X248584285Y-99862914D01*
X248584285Y-99862914D02*
X248536666Y-99767676D01*
X248536666Y-99767676D02*
X248441428Y-99672438D01*
X248441428Y-99672438D02*
X248298571Y-99624819D01*
X248298571Y-99624819D02*
X248203333Y-99624819D01*
X248203333Y-99624819D02*
X248060476Y-99672438D01*
X248060476Y-99672438D02*
X248012857Y-99720057D01*
X247060476Y-100624819D02*
X247631904Y-100624819D01*
X247346190Y-100624819D02*
X247346190Y-99624819D01*
X247346190Y-99624819D02*
X247441428Y-99767676D01*
X247441428Y-99767676D02*
X247536666Y-99862914D01*
X247536666Y-99862914D02*
X247631904Y-99910533D01*
X246727142Y-99624819D02*
X246108095Y-99624819D01*
X246108095Y-99624819D02*
X246441428Y-100005771D01*
X246441428Y-100005771D02*
X246298571Y-100005771D01*
X246298571Y-100005771D02*
X246203333Y-100053390D01*
X246203333Y-100053390D02*
X246155714Y-100101009D01*
X246155714Y-100101009D02*
X246108095Y-100196247D01*
X246108095Y-100196247D02*
X246108095Y-100434342D01*
X246108095Y-100434342D02*
X246155714Y-100529580D01*
X246155714Y-100529580D02*
X246203333Y-100577200D01*
X246203333Y-100577200D02*
X246298571Y-100624819D01*
X246298571Y-100624819D02*
X246584285Y-100624819D01*
X246584285Y-100624819D02*
X246679523Y-100577200D01*
X246679523Y-100577200D02*
X246727142Y-100529580D01*
X240458333Y-100065180D02*
X239982143Y-100065180D01*
X239982143Y-100065180D02*
X239982143Y-101065180D01*
X240696429Y-101065180D02*
X241315476Y-101065180D01*
X241315476Y-101065180D02*
X240982143Y-100684228D01*
X240982143Y-100684228D02*
X241125000Y-100684228D01*
X241125000Y-100684228D02*
X241220238Y-100636609D01*
X241220238Y-100636609D02*
X241267857Y-100588990D01*
X241267857Y-100588990D02*
X241315476Y-100493752D01*
X241315476Y-100493752D02*
X241315476Y-100255657D01*
X241315476Y-100255657D02*
X241267857Y-100160419D01*
X241267857Y-100160419D02*
X241220238Y-100112800D01*
X241220238Y-100112800D02*
X241125000Y-100065180D01*
X241125000Y-100065180D02*
X240839286Y-100065180D01*
X240839286Y-100065180D02*
X240744048Y-100112800D01*
X240744048Y-100112800D02*
X240696429Y-100160419D01*
X237184819Y-109817142D02*
X236708628Y-109483809D01*
X237184819Y-109245714D02*
X236184819Y-109245714D01*
X236184819Y-109245714D02*
X236184819Y-109626666D01*
X236184819Y-109626666D02*
X236232438Y-109721904D01*
X236232438Y-109721904D02*
X236280057Y-109769523D01*
X236280057Y-109769523D02*
X236375295Y-109817142D01*
X236375295Y-109817142D02*
X236518152Y-109817142D01*
X236518152Y-109817142D02*
X236613390Y-109769523D01*
X236613390Y-109769523D02*
X236661009Y-109721904D01*
X236661009Y-109721904D02*
X236708628Y-109626666D01*
X236708628Y-109626666D02*
X236708628Y-109245714D01*
X236184819Y-110150476D02*
X236184819Y-110769523D01*
X236184819Y-110769523D02*
X236565771Y-110436190D01*
X236565771Y-110436190D02*
X236565771Y-110579047D01*
X236565771Y-110579047D02*
X236613390Y-110674285D01*
X236613390Y-110674285D02*
X236661009Y-110721904D01*
X236661009Y-110721904D02*
X236756247Y-110769523D01*
X236756247Y-110769523D02*
X236994342Y-110769523D01*
X236994342Y-110769523D02*
X237089580Y-110721904D01*
X237089580Y-110721904D02*
X237137200Y-110674285D01*
X237137200Y-110674285D02*
X237184819Y-110579047D01*
X237184819Y-110579047D02*
X237184819Y-110293333D01*
X237184819Y-110293333D02*
X237137200Y-110198095D01*
X237137200Y-110198095D02*
X237089580Y-110150476D01*
X236184819Y-111102857D02*
X236184819Y-111721904D01*
X236184819Y-111721904D02*
X236565771Y-111388571D01*
X236565771Y-111388571D02*
X236565771Y-111531428D01*
X236565771Y-111531428D02*
X236613390Y-111626666D01*
X236613390Y-111626666D02*
X236661009Y-111674285D01*
X236661009Y-111674285D02*
X236756247Y-111721904D01*
X236756247Y-111721904D02*
X236994342Y-111721904D01*
X236994342Y-111721904D02*
X237089580Y-111674285D01*
X237089580Y-111674285D02*
X237137200Y-111626666D01*
X237137200Y-111626666D02*
X237184819Y-111531428D01*
X237184819Y-111531428D02*
X237184819Y-111245714D01*
X237184819Y-111245714D02*
X237137200Y-111150476D01*
X237137200Y-111150476D02*
X237089580Y-111102857D01*
X264999580Y-86807142D02*
X265047200Y-86759523D01*
X265047200Y-86759523D02*
X265094819Y-86616666D01*
X265094819Y-86616666D02*
X265094819Y-86521428D01*
X265094819Y-86521428D02*
X265047200Y-86378571D01*
X265047200Y-86378571D02*
X264951961Y-86283333D01*
X264951961Y-86283333D02*
X264856723Y-86235714D01*
X264856723Y-86235714D02*
X264666247Y-86188095D01*
X264666247Y-86188095D02*
X264523390Y-86188095D01*
X264523390Y-86188095D02*
X264332914Y-86235714D01*
X264332914Y-86235714D02*
X264237676Y-86283333D01*
X264237676Y-86283333D02*
X264142438Y-86378571D01*
X264142438Y-86378571D02*
X264094819Y-86521428D01*
X264094819Y-86521428D02*
X264094819Y-86616666D01*
X264094819Y-86616666D02*
X264142438Y-86759523D01*
X264142438Y-86759523D02*
X264190057Y-86807142D01*
X265094819Y-87759523D02*
X265094819Y-87188095D01*
X265094819Y-87473809D02*
X264094819Y-87473809D01*
X264094819Y-87473809D02*
X264237676Y-87378571D01*
X264237676Y-87378571D02*
X264332914Y-87283333D01*
X264332914Y-87283333D02*
X264380533Y-87188095D01*
X264094819Y-88092857D02*
X264094819Y-88759523D01*
X264094819Y-88759523D02*
X265094819Y-88330952D01*
X237369580Y-102322142D02*
X237417200Y-102274523D01*
X237417200Y-102274523D02*
X237464819Y-102131666D01*
X237464819Y-102131666D02*
X237464819Y-102036428D01*
X237464819Y-102036428D02*
X237417200Y-101893571D01*
X237417200Y-101893571D02*
X237321961Y-101798333D01*
X237321961Y-101798333D02*
X237226723Y-101750714D01*
X237226723Y-101750714D02*
X237036247Y-101703095D01*
X237036247Y-101703095D02*
X236893390Y-101703095D01*
X236893390Y-101703095D02*
X236702914Y-101750714D01*
X236702914Y-101750714D02*
X236607676Y-101798333D01*
X236607676Y-101798333D02*
X236512438Y-101893571D01*
X236512438Y-101893571D02*
X236464819Y-102036428D01*
X236464819Y-102036428D02*
X236464819Y-102131666D01*
X236464819Y-102131666D02*
X236512438Y-102274523D01*
X236512438Y-102274523D02*
X236560057Y-102322142D01*
X236464819Y-103226904D02*
X236464819Y-102750714D01*
X236464819Y-102750714D02*
X236941009Y-102703095D01*
X236941009Y-102703095D02*
X236893390Y-102750714D01*
X236893390Y-102750714D02*
X236845771Y-102845952D01*
X236845771Y-102845952D02*
X236845771Y-103084047D01*
X236845771Y-103084047D02*
X236893390Y-103179285D01*
X236893390Y-103179285D02*
X236941009Y-103226904D01*
X236941009Y-103226904D02*
X237036247Y-103274523D01*
X237036247Y-103274523D02*
X237274342Y-103274523D01*
X237274342Y-103274523D02*
X237369580Y-103226904D01*
X237369580Y-103226904D02*
X237417200Y-103179285D01*
X237417200Y-103179285D02*
X237464819Y-103084047D01*
X237464819Y-103084047D02*
X237464819Y-102845952D01*
X237464819Y-102845952D02*
X237417200Y-102750714D01*
X237417200Y-102750714D02*
X237369580Y-102703095D01*
X236798152Y-104131666D02*
X237464819Y-104131666D01*
X236417200Y-103893571D02*
X237131485Y-103655476D01*
X237131485Y-103655476D02*
X237131485Y-104274523D01*
X229432857Y-115799580D02*
X229480476Y-115847200D01*
X229480476Y-115847200D02*
X229623333Y-115894819D01*
X229623333Y-115894819D02*
X229718571Y-115894819D01*
X229718571Y-115894819D02*
X229861428Y-115847200D01*
X229861428Y-115847200D02*
X229956666Y-115751961D01*
X229956666Y-115751961D02*
X230004285Y-115656723D01*
X230004285Y-115656723D02*
X230051904Y-115466247D01*
X230051904Y-115466247D02*
X230051904Y-115323390D01*
X230051904Y-115323390D02*
X230004285Y-115132914D01*
X230004285Y-115132914D02*
X229956666Y-115037676D01*
X229956666Y-115037676D02*
X229861428Y-114942438D01*
X229861428Y-114942438D02*
X229718571Y-114894819D01*
X229718571Y-114894819D02*
X229623333Y-114894819D01*
X229623333Y-114894819D02*
X229480476Y-114942438D01*
X229480476Y-114942438D02*
X229432857Y-114990057D01*
X228575714Y-115228152D02*
X228575714Y-115894819D01*
X228813809Y-114847200D02*
X229051904Y-115561485D01*
X229051904Y-115561485D02*
X228432857Y-115561485D01*
X228147142Y-114894819D02*
X227528095Y-114894819D01*
X227528095Y-114894819D02*
X227861428Y-115275771D01*
X227861428Y-115275771D02*
X227718571Y-115275771D01*
X227718571Y-115275771D02*
X227623333Y-115323390D01*
X227623333Y-115323390D02*
X227575714Y-115371009D01*
X227575714Y-115371009D02*
X227528095Y-115466247D01*
X227528095Y-115466247D02*
X227528095Y-115704342D01*
X227528095Y-115704342D02*
X227575714Y-115799580D01*
X227575714Y-115799580D02*
X227623333Y-115847200D01*
X227623333Y-115847200D02*
X227718571Y-115894819D01*
X227718571Y-115894819D02*
X228004285Y-115894819D01*
X228004285Y-115894819D02*
X228099523Y-115847200D01*
X228099523Y-115847200D02*
X228147142Y-115799580D01*
X242392857Y-97109580D02*
X242440476Y-97157200D01*
X242440476Y-97157200D02*
X242583333Y-97204819D01*
X242583333Y-97204819D02*
X242678571Y-97204819D01*
X242678571Y-97204819D02*
X242821428Y-97157200D01*
X242821428Y-97157200D02*
X242916666Y-97061961D01*
X242916666Y-97061961D02*
X242964285Y-96966723D01*
X242964285Y-96966723D02*
X243011904Y-96776247D01*
X243011904Y-96776247D02*
X243011904Y-96633390D01*
X243011904Y-96633390D02*
X242964285Y-96442914D01*
X242964285Y-96442914D02*
X242916666Y-96347676D01*
X242916666Y-96347676D02*
X242821428Y-96252438D01*
X242821428Y-96252438D02*
X242678571Y-96204819D01*
X242678571Y-96204819D02*
X242583333Y-96204819D01*
X242583333Y-96204819D02*
X242440476Y-96252438D01*
X242440476Y-96252438D02*
X242392857Y-96300057D01*
X241535714Y-96538152D02*
X241535714Y-97204819D01*
X241773809Y-96157200D02*
X242011904Y-96871485D01*
X242011904Y-96871485D02*
X241392857Y-96871485D01*
X240821428Y-96204819D02*
X240726190Y-96204819D01*
X240726190Y-96204819D02*
X240630952Y-96252438D01*
X240630952Y-96252438D02*
X240583333Y-96300057D01*
X240583333Y-96300057D02*
X240535714Y-96395295D01*
X240535714Y-96395295D02*
X240488095Y-96585771D01*
X240488095Y-96585771D02*
X240488095Y-96823866D01*
X240488095Y-96823866D02*
X240535714Y-97014342D01*
X240535714Y-97014342D02*
X240583333Y-97109580D01*
X240583333Y-97109580D02*
X240630952Y-97157200D01*
X240630952Y-97157200D02*
X240726190Y-97204819D01*
X240726190Y-97204819D02*
X240821428Y-97204819D01*
X240821428Y-97204819D02*
X240916666Y-97157200D01*
X240916666Y-97157200D02*
X240964285Y-97109580D01*
X240964285Y-97109580D02*
X241011904Y-97014342D01*
X241011904Y-97014342D02*
X241059523Y-96823866D01*
X241059523Y-96823866D02*
X241059523Y-96585771D01*
X241059523Y-96585771D02*
X241011904Y-96395295D01*
X241011904Y-96395295D02*
X240964285Y-96300057D01*
X240964285Y-96300057D02*
X240916666Y-96252438D01*
X240916666Y-96252438D02*
X240821428Y-96204819D01*
X270814819Y-55423333D02*
X270338628Y-55090000D01*
X270814819Y-54851905D02*
X269814819Y-54851905D01*
X269814819Y-54851905D02*
X269814819Y-55232857D01*
X269814819Y-55232857D02*
X269862438Y-55328095D01*
X269862438Y-55328095D02*
X269910057Y-55375714D01*
X269910057Y-55375714D02*
X270005295Y-55423333D01*
X270005295Y-55423333D02*
X270148152Y-55423333D01*
X270148152Y-55423333D02*
X270243390Y-55375714D01*
X270243390Y-55375714D02*
X270291009Y-55328095D01*
X270291009Y-55328095D02*
X270338628Y-55232857D01*
X270338628Y-55232857D02*
X270338628Y-54851905D01*
X269910057Y-55804286D02*
X269862438Y-55851905D01*
X269862438Y-55851905D02*
X269814819Y-55947143D01*
X269814819Y-55947143D02*
X269814819Y-56185238D01*
X269814819Y-56185238D02*
X269862438Y-56280476D01*
X269862438Y-56280476D02*
X269910057Y-56328095D01*
X269910057Y-56328095D02*
X270005295Y-56375714D01*
X270005295Y-56375714D02*
X270100533Y-56375714D01*
X270100533Y-56375714D02*
X270243390Y-56328095D01*
X270243390Y-56328095D02*
X270814819Y-55756667D01*
X270814819Y-55756667D02*
X270814819Y-56375714D01*
X233352857Y-82909580D02*
X233400476Y-82957200D01*
X233400476Y-82957200D02*
X233543333Y-83004819D01*
X233543333Y-83004819D02*
X233638571Y-83004819D01*
X233638571Y-83004819D02*
X233781428Y-82957200D01*
X233781428Y-82957200D02*
X233876666Y-82861961D01*
X233876666Y-82861961D02*
X233924285Y-82766723D01*
X233924285Y-82766723D02*
X233971904Y-82576247D01*
X233971904Y-82576247D02*
X233971904Y-82433390D01*
X233971904Y-82433390D02*
X233924285Y-82242914D01*
X233924285Y-82242914D02*
X233876666Y-82147676D01*
X233876666Y-82147676D02*
X233781428Y-82052438D01*
X233781428Y-82052438D02*
X233638571Y-82004819D01*
X233638571Y-82004819D02*
X233543333Y-82004819D01*
X233543333Y-82004819D02*
X233400476Y-82052438D01*
X233400476Y-82052438D02*
X233352857Y-82100057D01*
X232971904Y-82100057D02*
X232924285Y-82052438D01*
X232924285Y-82052438D02*
X232829047Y-82004819D01*
X232829047Y-82004819D02*
X232590952Y-82004819D01*
X232590952Y-82004819D02*
X232495714Y-82052438D01*
X232495714Y-82052438D02*
X232448095Y-82100057D01*
X232448095Y-82100057D02*
X232400476Y-82195295D01*
X232400476Y-82195295D02*
X232400476Y-82290533D01*
X232400476Y-82290533D02*
X232448095Y-82433390D01*
X232448095Y-82433390D02*
X233019523Y-83004819D01*
X233019523Y-83004819D02*
X232400476Y-83004819D01*
X231781428Y-82004819D02*
X231686190Y-82004819D01*
X231686190Y-82004819D02*
X231590952Y-82052438D01*
X231590952Y-82052438D02*
X231543333Y-82100057D01*
X231543333Y-82100057D02*
X231495714Y-82195295D01*
X231495714Y-82195295D02*
X231448095Y-82385771D01*
X231448095Y-82385771D02*
X231448095Y-82623866D01*
X231448095Y-82623866D02*
X231495714Y-82814342D01*
X231495714Y-82814342D02*
X231543333Y-82909580D01*
X231543333Y-82909580D02*
X231590952Y-82957200D01*
X231590952Y-82957200D02*
X231686190Y-83004819D01*
X231686190Y-83004819D02*
X231781428Y-83004819D01*
X231781428Y-83004819D02*
X231876666Y-82957200D01*
X231876666Y-82957200D02*
X231924285Y-82909580D01*
X231924285Y-82909580D02*
X231971904Y-82814342D01*
X231971904Y-82814342D02*
X232019523Y-82623866D01*
X232019523Y-82623866D02*
X232019523Y-82385771D01*
X232019523Y-82385771D02*
X231971904Y-82195295D01*
X231971904Y-82195295D02*
X231924285Y-82100057D01*
X231924285Y-82100057D02*
X231876666Y-82052438D01*
X231876666Y-82052438D02*
X231781428Y-82004819D01*
X220329580Y-55493333D02*
X220377200Y-55445714D01*
X220377200Y-55445714D02*
X220424819Y-55302857D01*
X220424819Y-55302857D02*
X220424819Y-55207619D01*
X220424819Y-55207619D02*
X220377200Y-55064762D01*
X220377200Y-55064762D02*
X220281961Y-54969524D01*
X220281961Y-54969524D02*
X220186723Y-54921905D01*
X220186723Y-54921905D02*
X219996247Y-54874286D01*
X219996247Y-54874286D02*
X219853390Y-54874286D01*
X219853390Y-54874286D02*
X219662914Y-54921905D01*
X219662914Y-54921905D02*
X219567676Y-54969524D01*
X219567676Y-54969524D02*
X219472438Y-55064762D01*
X219472438Y-55064762D02*
X219424819Y-55207619D01*
X219424819Y-55207619D02*
X219424819Y-55302857D01*
X219424819Y-55302857D02*
X219472438Y-55445714D01*
X219472438Y-55445714D02*
X219520057Y-55493333D01*
X220424819Y-55969524D02*
X220424819Y-56160000D01*
X220424819Y-56160000D02*
X220377200Y-56255238D01*
X220377200Y-56255238D02*
X220329580Y-56302857D01*
X220329580Y-56302857D02*
X220186723Y-56398095D01*
X220186723Y-56398095D02*
X219996247Y-56445714D01*
X219996247Y-56445714D02*
X219615295Y-56445714D01*
X219615295Y-56445714D02*
X219520057Y-56398095D01*
X219520057Y-56398095D02*
X219472438Y-56350476D01*
X219472438Y-56350476D02*
X219424819Y-56255238D01*
X219424819Y-56255238D02*
X219424819Y-56064762D01*
X219424819Y-56064762D02*
X219472438Y-55969524D01*
X219472438Y-55969524D02*
X219520057Y-55921905D01*
X219520057Y-55921905D02*
X219615295Y-55874286D01*
X219615295Y-55874286D02*
X219853390Y-55874286D01*
X219853390Y-55874286D02*
X219948628Y-55921905D01*
X219948628Y-55921905D02*
X219996247Y-55969524D01*
X219996247Y-55969524D02*
X220043866Y-56064762D01*
X220043866Y-56064762D02*
X220043866Y-56255238D01*
X220043866Y-56255238D02*
X219996247Y-56350476D01*
X219996247Y-56350476D02*
X219948628Y-56398095D01*
X219948628Y-56398095D02*
X219853390Y-56445714D01*
X237319580Y-106227142D02*
X237367200Y-106179523D01*
X237367200Y-106179523D02*
X237414819Y-106036666D01*
X237414819Y-106036666D02*
X237414819Y-105941428D01*
X237414819Y-105941428D02*
X237367200Y-105798571D01*
X237367200Y-105798571D02*
X237271961Y-105703333D01*
X237271961Y-105703333D02*
X237176723Y-105655714D01*
X237176723Y-105655714D02*
X236986247Y-105608095D01*
X236986247Y-105608095D02*
X236843390Y-105608095D01*
X236843390Y-105608095D02*
X236652914Y-105655714D01*
X236652914Y-105655714D02*
X236557676Y-105703333D01*
X236557676Y-105703333D02*
X236462438Y-105798571D01*
X236462438Y-105798571D02*
X236414819Y-105941428D01*
X236414819Y-105941428D02*
X236414819Y-106036666D01*
X236414819Y-106036666D02*
X236462438Y-106179523D01*
X236462438Y-106179523D02*
X236510057Y-106227142D01*
X236414819Y-107131904D02*
X236414819Y-106655714D01*
X236414819Y-106655714D02*
X236891009Y-106608095D01*
X236891009Y-106608095D02*
X236843390Y-106655714D01*
X236843390Y-106655714D02*
X236795771Y-106750952D01*
X236795771Y-106750952D02*
X236795771Y-106989047D01*
X236795771Y-106989047D02*
X236843390Y-107084285D01*
X236843390Y-107084285D02*
X236891009Y-107131904D01*
X236891009Y-107131904D02*
X236986247Y-107179523D01*
X236986247Y-107179523D02*
X237224342Y-107179523D01*
X237224342Y-107179523D02*
X237319580Y-107131904D01*
X237319580Y-107131904D02*
X237367200Y-107084285D01*
X237367200Y-107084285D02*
X237414819Y-106989047D01*
X237414819Y-106989047D02*
X237414819Y-106750952D01*
X237414819Y-106750952D02*
X237367200Y-106655714D01*
X237367200Y-106655714D02*
X237319580Y-106608095D01*
X236414819Y-107512857D02*
X236414819Y-108131904D01*
X236414819Y-108131904D02*
X236795771Y-107798571D01*
X236795771Y-107798571D02*
X236795771Y-107941428D01*
X236795771Y-107941428D02*
X236843390Y-108036666D01*
X236843390Y-108036666D02*
X236891009Y-108084285D01*
X236891009Y-108084285D02*
X236986247Y-108131904D01*
X236986247Y-108131904D02*
X237224342Y-108131904D01*
X237224342Y-108131904D02*
X237319580Y-108084285D01*
X237319580Y-108084285D02*
X237367200Y-108036666D01*
X237367200Y-108036666D02*
X237414819Y-107941428D01*
X237414819Y-107941428D02*
X237414819Y-107655714D01*
X237414819Y-107655714D02*
X237367200Y-107560476D01*
X237367200Y-107560476D02*
X237319580Y-107512857D01*
X263342857Y-112649580D02*
X263390476Y-112697200D01*
X263390476Y-112697200D02*
X263533333Y-112744819D01*
X263533333Y-112744819D02*
X263628571Y-112744819D01*
X263628571Y-112744819D02*
X263771428Y-112697200D01*
X263771428Y-112697200D02*
X263866666Y-112601961D01*
X263866666Y-112601961D02*
X263914285Y-112506723D01*
X263914285Y-112506723D02*
X263961904Y-112316247D01*
X263961904Y-112316247D02*
X263961904Y-112173390D01*
X263961904Y-112173390D02*
X263914285Y-111982914D01*
X263914285Y-111982914D02*
X263866666Y-111887676D01*
X263866666Y-111887676D02*
X263771428Y-111792438D01*
X263771428Y-111792438D02*
X263628571Y-111744819D01*
X263628571Y-111744819D02*
X263533333Y-111744819D01*
X263533333Y-111744819D02*
X263390476Y-111792438D01*
X263390476Y-111792438D02*
X263342857Y-111840057D01*
X262390476Y-112744819D02*
X262961904Y-112744819D01*
X262676190Y-112744819D02*
X262676190Y-111744819D01*
X262676190Y-111744819D02*
X262771428Y-111887676D01*
X262771428Y-111887676D02*
X262866666Y-111982914D01*
X262866666Y-111982914D02*
X262961904Y-112030533D01*
X261533333Y-112078152D02*
X261533333Y-112744819D01*
X261771428Y-111697200D02*
X262009523Y-112411485D01*
X262009523Y-112411485D02*
X261390476Y-112411485D01*
X254762857Y-88099580D02*
X254810476Y-88147200D01*
X254810476Y-88147200D02*
X254953333Y-88194819D01*
X254953333Y-88194819D02*
X255048571Y-88194819D01*
X255048571Y-88194819D02*
X255191428Y-88147200D01*
X255191428Y-88147200D02*
X255286666Y-88051961D01*
X255286666Y-88051961D02*
X255334285Y-87956723D01*
X255334285Y-87956723D02*
X255381904Y-87766247D01*
X255381904Y-87766247D02*
X255381904Y-87623390D01*
X255381904Y-87623390D02*
X255334285Y-87432914D01*
X255334285Y-87432914D02*
X255286666Y-87337676D01*
X255286666Y-87337676D02*
X255191428Y-87242438D01*
X255191428Y-87242438D02*
X255048571Y-87194819D01*
X255048571Y-87194819D02*
X254953333Y-87194819D01*
X254953333Y-87194819D02*
X254810476Y-87242438D01*
X254810476Y-87242438D02*
X254762857Y-87290057D01*
X253858095Y-87194819D02*
X254334285Y-87194819D01*
X254334285Y-87194819D02*
X254381904Y-87671009D01*
X254381904Y-87671009D02*
X254334285Y-87623390D01*
X254334285Y-87623390D02*
X254239047Y-87575771D01*
X254239047Y-87575771D02*
X254000952Y-87575771D01*
X254000952Y-87575771D02*
X253905714Y-87623390D01*
X253905714Y-87623390D02*
X253858095Y-87671009D01*
X253858095Y-87671009D02*
X253810476Y-87766247D01*
X253810476Y-87766247D02*
X253810476Y-88004342D01*
X253810476Y-88004342D02*
X253858095Y-88099580D01*
X253858095Y-88099580D02*
X253905714Y-88147200D01*
X253905714Y-88147200D02*
X254000952Y-88194819D01*
X254000952Y-88194819D02*
X254239047Y-88194819D01*
X254239047Y-88194819D02*
X254334285Y-88147200D01*
X254334285Y-88147200D02*
X254381904Y-88099580D01*
X253191428Y-87194819D02*
X253096190Y-87194819D01*
X253096190Y-87194819D02*
X253000952Y-87242438D01*
X253000952Y-87242438D02*
X252953333Y-87290057D01*
X252953333Y-87290057D02*
X252905714Y-87385295D01*
X252905714Y-87385295D02*
X252858095Y-87575771D01*
X252858095Y-87575771D02*
X252858095Y-87813866D01*
X252858095Y-87813866D02*
X252905714Y-88004342D01*
X252905714Y-88004342D02*
X252953333Y-88099580D01*
X252953333Y-88099580D02*
X253000952Y-88147200D01*
X253000952Y-88147200D02*
X253096190Y-88194819D01*
X253096190Y-88194819D02*
X253191428Y-88194819D01*
X253191428Y-88194819D02*
X253286666Y-88147200D01*
X253286666Y-88147200D02*
X253334285Y-88099580D01*
X253334285Y-88099580D02*
X253381904Y-88004342D01*
X253381904Y-88004342D02*
X253429523Y-87813866D01*
X253429523Y-87813866D02*
X253429523Y-87575771D01*
X253429523Y-87575771D02*
X253381904Y-87385295D01*
X253381904Y-87385295D02*
X253334285Y-87290057D01*
X253334285Y-87290057D02*
X253286666Y-87242438D01*
X253286666Y-87242438D02*
X253191428Y-87194819D01*
X245885713Y-68754819D02*
X245219047Y-69754819D01*
X245219047Y-68754819D02*
X245885713Y-69754819D01*
X244885713Y-69707200D02*
X244742856Y-69754819D01*
X244742856Y-69754819D02*
X244504761Y-69754819D01*
X244504761Y-69754819D02*
X244409523Y-69707200D01*
X244409523Y-69707200D02*
X244361904Y-69659580D01*
X244361904Y-69659580D02*
X244314285Y-69564342D01*
X244314285Y-69564342D02*
X244314285Y-69469104D01*
X244314285Y-69469104D02*
X244361904Y-69373866D01*
X244361904Y-69373866D02*
X244409523Y-69326247D01*
X244409523Y-69326247D02*
X244504761Y-69278628D01*
X244504761Y-69278628D02*
X244695237Y-69231009D01*
X244695237Y-69231009D02*
X244790475Y-69183390D01*
X244790475Y-69183390D02*
X244838094Y-69135771D01*
X244838094Y-69135771D02*
X244885713Y-69040533D01*
X244885713Y-69040533D02*
X244885713Y-68945295D01*
X244885713Y-68945295D02*
X244838094Y-68850057D01*
X244838094Y-68850057D02*
X244790475Y-68802438D01*
X244790475Y-68802438D02*
X244695237Y-68754819D01*
X244695237Y-68754819D02*
X244457142Y-68754819D01*
X244457142Y-68754819D02*
X244314285Y-68802438D01*
X243361904Y-69754819D02*
X243933332Y-69754819D01*
X243647618Y-69754819D02*
X243647618Y-68754819D01*
X243647618Y-68754819D02*
X243742856Y-68897676D01*
X243742856Y-68897676D02*
X243838094Y-68992914D01*
X243838094Y-68992914D02*
X243933332Y-69040533D01*
X243417857Y-82959580D02*
X243465476Y-83007200D01*
X243465476Y-83007200D02*
X243608333Y-83054819D01*
X243608333Y-83054819D02*
X243703571Y-83054819D01*
X243703571Y-83054819D02*
X243846428Y-83007200D01*
X243846428Y-83007200D02*
X243941666Y-82911961D01*
X243941666Y-82911961D02*
X243989285Y-82816723D01*
X243989285Y-82816723D02*
X244036904Y-82626247D01*
X244036904Y-82626247D02*
X244036904Y-82483390D01*
X244036904Y-82483390D02*
X243989285Y-82292914D01*
X243989285Y-82292914D02*
X243941666Y-82197676D01*
X243941666Y-82197676D02*
X243846428Y-82102438D01*
X243846428Y-82102438D02*
X243703571Y-82054819D01*
X243703571Y-82054819D02*
X243608333Y-82054819D01*
X243608333Y-82054819D02*
X243465476Y-82102438D01*
X243465476Y-82102438D02*
X243417857Y-82150057D01*
X242560714Y-82388152D02*
X242560714Y-83054819D01*
X242798809Y-82007200D02*
X243036904Y-82721485D01*
X243036904Y-82721485D02*
X242417857Y-82721485D01*
X242132142Y-82054819D02*
X241465476Y-82054819D01*
X241465476Y-82054819D02*
X241894047Y-83054819D01*
X234327857Y-112129580D02*
X234375476Y-112177200D01*
X234375476Y-112177200D02*
X234518333Y-112224819D01*
X234518333Y-112224819D02*
X234613571Y-112224819D01*
X234613571Y-112224819D02*
X234756428Y-112177200D01*
X234756428Y-112177200D02*
X234851666Y-112081961D01*
X234851666Y-112081961D02*
X234899285Y-111986723D01*
X234899285Y-111986723D02*
X234946904Y-111796247D01*
X234946904Y-111796247D02*
X234946904Y-111653390D01*
X234946904Y-111653390D02*
X234899285Y-111462914D01*
X234899285Y-111462914D02*
X234851666Y-111367676D01*
X234851666Y-111367676D02*
X234756428Y-111272438D01*
X234756428Y-111272438D02*
X234613571Y-111224819D01*
X234613571Y-111224819D02*
X234518333Y-111224819D01*
X234518333Y-111224819D02*
X234375476Y-111272438D01*
X234375476Y-111272438D02*
X234327857Y-111320057D01*
X233470714Y-111558152D02*
X233470714Y-112224819D01*
X233708809Y-111177200D02*
X233946904Y-111891485D01*
X233946904Y-111891485D02*
X233327857Y-111891485D01*
X232994523Y-111320057D02*
X232946904Y-111272438D01*
X232946904Y-111272438D02*
X232851666Y-111224819D01*
X232851666Y-111224819D02*
X232613571Y-111224819D01*
X232613571Y-111224819D02*
X232518333Y-111272438D01*
X232518333Y-111272438D02*
X232470714Y-111320057D01*
X232470714Y-111320057D02*
X232423095Y-111415295D01*
X232423095Y-111415295D02*
X232423095Y-111510533D01*
X232423095Y-111510533D02*
X232470714Y-111653390D01*
X232470714Y-111653390D02*
X233042142Y-112224819D01*
X233042142Y-112224819D02*
X232423095Y-112224819D01*
X254532857Y-89929580D02*
X254580476Y-89977200D01*
X254580476Y-89977200D02*
X254723333Y-90024819D01*
X254723333Y-90024819D02*
X254818571Y-90024819D01*
X254818571Y-90024819D02*
X254961428Y-89977200D01*
X254961428Y-89977200D02*
X255056666Y-89881961D01*
X255056666Y-89881961D02*
X255104285Y-89786723D01*
X255104285Y-89786723D02*
X255151904Y-89596247D01*
X255151904Y-89596247D02*
X255151904Y-89453390D01*
X255151904Y-89453390D02*
X255104285Y-89262914D01*
X255104285Y-89262914D02*
X255056666Y-89167676D01*
X255056666Y-89167676D02*
X254961428Y-89072438D01*
X254961428Y-89072438D02*
X254818571Y-89024819D01*
X254818571Y-89024819D02*
X254723333Y-89024819D01*
X254723333Y-89024819D02*
X254580476Y-89072438D01*
X254580476Y-89072438D02*
X254532857Y-89120057D01*
X253675714Y-89358152D02*
X253675714Y-90024819D01*
X253913809Y-88977200D02*
X254151904Y-89691485D01*
X254151904Y-89691485D02*
X253532857Y-89691485D01*
X253009047Y-89453390D02*
X253104285Y-89405771D01*
X253104285Y-89405771D02*
X253151904Y-89358152D01*
X253151904Y-89358152D02*
X253199523Y-89262914D01*
X253199523Y-89262914D02*
X253199523Y-89215295D01*
X253199523Y-89215295D02*
X253151904Y-89120057D01*
X253151904Y-89120057D02*
X253104285Y-89072438D01*
X253104285Y-89072438D02*
X253009047Y-89024819D01*
X253009047Y-89024819D02*
X252818571Y-89024819D01*
X252818571Y-89024819D02*
X252723333Y-89072438D01*
X252723333Y-89072438D02*
X252675714Y-89120057D01*
X252675714Y-89120057D02*
X252628095Y-89215295D01*
X252628095Y-89215295D02*
X252628095Y-89262914D01*
X252628095Y-89262914D02*
X252675714Y-89358152D01*
X252675714Y-89358152D02*
X252723333Y-89405771D01*
X252723333Y-89405771D02*
X252818571Y-89453390D01*
X252818571Y-89453390D02*
X253009047Y-89453390D01*
X253009047Y-89453390D02*
X253104285Y-89501009D01*
X253104285Y-89501009D02*
X253151904Y-89548628D01*
X253151904Y-89548628D02*
X253199523Y-89643866D01*
X253199523Y-89643866D02*
X253199523Y-89834342D01*
X253199523Y-89834342D02*
X253151904Y-89929580D01*
X253151904Y-89929580D02*
X253104285Y-89977200D01*
X253104285Y-89977200D02*
X253009047Y-90024819D01*
X253009047Y-90024819D02*
X252818571Y-90024819D01*
X252818571Y-90024819D02*
X252723333Y-89977200D01*
X252723333Y-89977200D02*
X252675714Y-89929580D01*
X252675714Y-89929580D02*
X252628095Y-89834342D01*
X252628095Y-89834342D02*
X252628095Y-89643866D01*
X252628095Y-89643866D02*
X252675714Y-89548628D01*
X252675714Y-89548628D02*
X252723333Y-89501009D01*
X252723333Y-89501009D02*
X252818571Y-89453390D01*
X226924404Y-81054819D02*
X226924404Y-81864342D01*
X226924404Y-81864342D02*
X226876785Y-81959580D01*
X226876785Y-81959580D02*
X226829166Y-82007200D01*
X226829166Y-82007200D02*
X226733928Y-82054819D01*
X226733928Y-82054819D02*
X226543452Y-82054819D01*
X226543452Y-82054819D02*
X226448214Y-82007200D01*
X226448214Y-82007200D02*
X226400595Y-81959580D01*
X226400595Y-81959580D02*
X226352976Y-81864342D01*
X226352976Y-81864342D02*
X226352976Y-81054819D01*
X225352976Y-82054819D02*
X225924404Y-82054819D01*
X225638690Y-82054819D02*
X225638690Y-81054819D01*
X225638690Y-81054819D02*
X225733928Y-81197676D01*
X225733928Y-81197676D02*
X225829166Y-81292914D01*
X225829166Y-81292914D02*
X225924404Y-81340533D01*
X267809580Y-89167142D02*
X267857200Y-89119523D01*
X267857200Y-89119523D02*
X267904819Y-88976666D01*
X267904819Y-88976666D02*
X267904819Y-88881428D01*
X267904819Y-88881428D02*
X267857200Y-88738571D01*
X267857200Y-88738571D02*
X267761961Y-88643333D01*
X267761961Y-88643333D02*
X267666723Y-88595714D01*
X267666723Y-88595714D02*
X267476247Y-88548095D01*
X267476247Y-88548095D02*
X267333390Y-88548095D01*
X267333390Y-88548095D02*
X267142914Y-88595714D01*
X267142914Y-88595714D02*
X267047676Y-88643333D01*
X267047676Y-88643333D02*
X266952438Y-88738571D01*
X266952438Y-88738571D02*
X266904819Y-88881428D01*
X266904819Y-88881428D02*
X266904819Y-88976666D01*
X266904819Y-88976666D02*
X266952438Y-89119523D01*
X266952438Y-89119523D02*
X267000057Y-89167142D01*
X267000057Y-89548095D02*
X266952438Y-89595714D01*
X266952438Y-89595714D02*
X266904819Y-89690952D01*
X266904819Y-89690952D02*
X266904819Y-89929047D01*
X266904819Y-89929047D02*
X266952438Y-90024285D01*
X266952438Y-90024285D02*
X267000057Y-90071904D01*
X267000057Y-90071904D02*
X267095295Y-90119523D01*
X267095295Y-90119523D02*
X267190533Y-90119523D01*
X267190533Y-90119523D02*
X267333390Y-90071904D01*
X267333390Y-90071904D02*
X267904819Y-89500476D01*
X267904819Y-89500476D02*
X267904819Y-90119523D01*
X267904819Y-90595714D02*
X267904819Y-90786190D01*
X267904819Y-90786190D02*
X267857200Y-90881428D01*
X267857200Y-90881428D02*
X267809580Y-90929047D01*
X267809580Y-90929047D02*
X267666723Y-91024285D01*
X267666723Y-91024285D02*
X267476247Y-91071904D01*
X267476247Y-91071904D02*
X267095295Y-91071904D01*
X267095295Y-91071904D02*
X267000057Y-91024285D01*
X267000057Y-91024285D02*
X266952438Y-90976666D01*
X266952438Y-90976666D02*
X266904819Y-90881428D01*
X266904819Y-90881428D02*
X266904819Y-90690952D01*
X266904819Y-90690952D02*
X266952438Y-90595714D01*
X266952438Y-90595714D02*
X267000057Y-90548095D01*
X267000057Y-90548095D02*
X267095295Y-90500476D01*
X267095295Y-90500476D02*
X267333390Y-90500476D01*
X267333390Y-90500476D02*
X267428628Y-90548095D01*
X267428628Y-90548095D02*
X267476247Y-90595714D01*
X267476247Y-90595714D02*
X267523866Y-90690952D01*
X267523866Y-90690952D02*
X267523866Y-90881428D01*
X267523866Y-90881428D02*
X267476247Y-90976666D01*
X267476247Y-90976666D02*
X267428628Y-91024285D01*
X267428628Y-91024285D02*
X267333390Y-91071904D01*
X268599580Y-61588333D02*
X268647200Y-61540714D01*
X268647200Y-61540714D02*
X268694819Y-61397857D01*
X268694819Y-61397857D02*
X268694819Y-61302619D01*
X268694819Y-61302619D02*
X268647200Y-61159762D01*
X268647200Y-61159762D02*
X268551961Y-61064524D01*
X268551961Y-61064524D02*
X268456723Y-61016905D01*
X268456723Y-61016905D02*
X268266247Y-60969286D01*
X268266247Y-60969286D02*
X268123390Y-60969286D01*
X268123390Y-60969286D02*
X267932914Y-61016905D01*
X267932914Y-61016905D02*
X267837676Y-61064524D01*
X267837676Y-61064524D02*
X267742438Y-61159762D01*
X267742438Y-61159762D02*
X267694819Y-61302619D01*
X267694819Y-61302619D02*
X267694819Y-61397857D01*
X267694819Y-61397857D02*
X267742438Y-61540714D01*
X267742438Y-61540714D02*
X267790057Y-61588333D01*
X267694819Y-61921667D02*
X267694819Y-62588333D01*
X267694819Y-62588333D02*
X268694819Y-62159762D01*
X264485180Y-83976666D02*
X264485180Y-84452856D01*
X264485180Y-84452856D02*
X265485180Y-84452856D01*
X264485180Y-83119523D02*
X264485180Y-83690951D01*
X264485180Y-83405237D02*
X265485180Y-83405237D01*
X265485180Y-83405237D02*
X265342323Y-83500475D01*
X265342323Y-83500475D02*
X265247085Y-83595713D01*
X265247085Y-83595713D02*
X265199466Y-83690951D01*
X239862857Y-93959580D02*
X239910476Y-94007200D01*
X239910476Y-94007200D02*
X240053333Y-94054819D01*
X240053333Y-94054819D02*
X240148571Y-94054819D01*
X240148571Y-94054819D02*
X240291428Y-94007200D01*
X240291428Y-94007200D02*
X240386666Y-93911961D01*
X240386666Y-93911961D02*
X240434285Y-93816723D01*
X240434285Y-93816723D02*
X240481904Y-93626247D01*
X240481904Y-93626247D02*
X240481904Y-93483390D01*
X240481904Y-93483390D02*
X240434285Y-93292914D01*
X240434285Y-93292914D02*
X240386666Y-93197676D01*
X240386666Y-93197676D02*
X240291428Y-93102438D01*
X240291428Y-93102438D02*
X240148571Y-93054819D01*
X240148571Y-93054819D02*
X240053333Y-93054819D01*
X240053333Y-93054819D02*
X239910476Y-93102438D01*
X239910476Y-93102438D02*
X239862857Y-93150057D01*
X239005714Y-93054819D02*
X239196190Y-93054819D01*
X239196190Y-93054819D02*
X239291428Y-93102438D01*
X239291428Y-93102438D02*
X239339047Y-93150057D01*
X239339047Y-93150057D02*
X239434285Y-93292914D01*
X239434285Y-93292914D02*
X239481904Y-93483390D01*
X239481904Y-93483390D02*
X239481904Y-93864342D01*
X239481904Y-93864342D02*
X239434285Y-93959580D01*
X239434285Y-93959580D02*
X239386666Y-94007200D01*
X239386666Y-94007200D02*
X239291428Y-94054819D01*
X239291428Y-94054819D02*
X239100952Y-94054819D01*
X239100952Y-94054819D02*
X239005714Y-94007200D01*
X239005714Y-94007200D02*
X238958095Y-93959580D01*
X238958095Y-93959580D02*
X238910476Y-93864342D01*
X238910476Y-93864342D02*
X238910476Y-93626247D01*
X238910476Y-93626247D02*
X238958095Y-93531009D01*
X238958095Y-93531009D02*
X239005714Y-93483390D01*
X239005714Y-93483390D02*
X239100952Y-93435771D01*
X239100952Y-93435771D02*
X239291428Y-93435771D01*
X239291428Y-93435771D02*
X239386666Y-93483390D01*
X239386666Y-93483390D02*
X239434285Y-93531009D01*
X239434285Y-93531009D02*
X239481904Y-93626247D01*
X238291428Y-93054819D02*
X238196190Y-93054819D01*
X238196190Y-93054819D02*
X238100952Y-93102438D01*
X238100952Y-93102438D02*
X238053333Y-93150057D01*
X238053333Y-93150057D02*
X238005714Y-93245295D01*
X238005714Y-93245295D02*
X237958095Y-93435771D01*
X237958095Y-93435771D02*
X237958095Y-93673866D01*
X237958095Y-93673866D02*
X238005714Y-93864342D01*
X238005714Y-93864342D02*
X238053333Y-93959580D01*
X238053333Y-93959580D02*
X238100952Y-94007200D01*
X238100952Y-94007200D02*
X238196190Y-94054819D01*
X238196190Y-94054819D02*
X238291428Y-94054819D01*
X238291428Y-94054819D02*
X238386666Y-94007200D01*
X238386666Y-94007200D02*
X238434285Y-93959580D01*
X238434285Y-93959580D02*
X238481904Y-93864342D01*
X238481904Y-93864342D02*
X238529523Y-93673866D01*
X238529523Y-93673866D02*
X238529523Y-93435771D01*
X238529523Y-93435771D02*
X238481904Y-93245295D01*
X238481904Y-93245295D02*
X238434285Y-93150057D01*
X238434285Y-93150057D02*
X238386666Y-93102438D01*
X238386666Y-93102438D02*
X238291428Y-93054819D01*
X263452857Y-61734819D02*
X263786190Y-61258628D01*
X264024285Y-61734819D02*
X264024285Y-60734819D01*
X264024285Y-60734819D02*
X263643333Y-60734819D01*
X263643333Y-60734819D02*
X263548095Y-60782438D01*
X263548095Y-60782438D02*
X263500476Y-60830057D01*
X263500476Y-60830057D02*
X263452857Y-60925295D01*
X263452857Y-60925295D02*
X263452857Y-61068152D01*
X263452857Y-61068152D02*
X263500476Y-61163390D01*
X263500476Y-61163390D02*
X263548095Y-61211009D01*
X263548095Y-61211009D02*
X263643333Y-61258628D01*
X263643333Y-61258628D02*
X264024285Y-61258628D01*
X262500476Y-61734819D02*
X263071904Y-61734819D01*
X262786190Y-61734819D02*
X262786190Y-60734819D01*
X262786190Y-60734819D02*
X262881428Y-60877676D01*
X262881428Y-60877676D02*
X262976666Y-60972914D01*
X262976666Y-60972914D02*
X263071904Y-61020533D01*
X262119523Y-60830057D02*
X262071904Y-60782438D01*
X262071904Y-60782438D02*
X261976666Y-60734819D01*
X261976666Y-60734819D02*
X261738571Y-60734819D01*
X261738571Y-60734819D02*
X261643333Y-60782438D01*
X261643333Y-60782438D02*
X261595714Y-60830057D01*
X261595714Y-60830057D02*
X261548095Y-60925295D01*
X261548095Y-60925295D02*
X261548095Y-61020533D01*
X261548095Y-61020533D02*
X261595714Y-61163390D01*
X261595714Y-61163390D02*
X262167142Y-61734819D01*
X262167142Y-61734819D02*
X261548095Y-61734819D01*
X237449580Y-88607142D02*
X237497200Y-88559523D01*
X237497200Y-88559523D02*
X237544819Y-88416666D01*
X237544819Y-88416666D02*
X237544819Y-88321428D01*
X237544819Y-88321428D02*
X237497200Y-88178571D01*
X237497200Y-88178571D02*
X237401961Y-88083333D01*
X237401961Y-88083333D02*
X237306723Y-88035714D01*
X237306723Y-88035714D02*
X237116247Y-87988095D01*
X237116247Y-87988095D02*
X236973390Y-87988095D01*
X236973390Y-87988095D02*
X236782914Y-88035714D01*
X236782914Y-88035714D02*
X236687676Y-88083333D01*
X236687676Y-88083333D02*
X236592438Y-88178571D01*
X236592438Y-88178571D02*
X236544819Y-88321428D01*
X236544819Y-88321428D02*
X236544819Y-88416666D01*
X236544819Y-88416666D02*
X236592438Y-88559523D01*
X236592438Y-88559523D02*
X236640057Y-88607142D01*
X236544819Y-88940476D02*
X236544819Y-89559523D01*
X236544819Y-89559523D02*
X236925771Y-89226190D01*
X236925771Y-89226190D02*
X236925771Y-89369047D01*
X236925771Y-89369047D02*
X236973390Y-89464285D01*
X236973390Y-89464285D02*
X237021009Y-89511904D01*
X237021009Y-89511904D02*
X237116247Y-89559523D01*
X237116247Y-89559523D02*
X237354342Y-89559523D01*
X237354342Y-89559523D02*
X237449580Y-89511904D01*
X237449580Y-89511904D02*
X237497200Y-89464285D01*
X237497200Y-89464285D02*
X237544819Y-89369047D01*
X237544819Y-89369047D02*
X237544819Y-89083333D01*
X237544819Y-89083333D02*
X237497200Y-88988095D01*
X237497200Y-88988095D02*
X237449580Y-88940476D01*
X236544819Y-90178571D02*
X236544819Y-90273809D01*
X236544819Y-90273809D02*
X236592438Y-90369047D01*
X236592438Y-90369047D02*
X236640057Y-90416666D01*
X236640057Y-90416666D02*
X236735295Y-90464285D01*
X236735295Y-90464285D02*
X236925771Y-90511904D01*
X236925771Y-90511904D02*
X237163866Y-90511904D01*
X237163866Y-90511904D02*
X237354342Y-90464285D01*
X237354342Y-90464285D02*
X237449580Y-90416666D01*
X237449580Y-90416666D02*
X237497200Y-90369047D01*
X237497200Y-90369047D02*
X237544819Y-90273809D01*
X237544819Y-90273809D02*
X237544819Y-90178571D01*
X237544819Y-90178571D02*
X237497200Y-90083333D01*
X237497200Y-90083333D02*
X237449580Y-90035714D01*
X237449580Y-90035714D02*
X237354342Y-89988095D01*
X237354342Y-89988095D02*
X237163866Y-89940476D01*
X237163866Y-89940476D02*
X236925771Y-89940476D01*
X236925771Y-89940476D02*
X236735295Y-89988095D01*
X236735295Y-89988095D02*
X236640057Y-90035714D01*
X236640057Y-90035714D02*
X236592438Y-90083333D01*
X236592438Y-90083333D02*
X236544819Y-90178571D01*
X261391666Y-73304819D02*
X261724999Y-72828628D01*
X261963094Y-73304819D02*
X261963094Y-72304819D01*
X261963094Y-72304819D02*
X261582142Y-72304819D01*
X261582142Y-72304819D02*
X261486904Y-72352438D01*
X261486904Y-72352438D02*
X261439285Y-72400057D01*
X261439285Y-72400057D02*
X261391666Y-72495295D01*
X261391666Y-72495295D02*
X261391666Y-72638152D01*
X261391666Y-72638152D02*
X261439285Y-72733390D01*
X261439285Y-72733390D02*
X261486904Y-72781009D01*
X261486904Y-72781009D02*
X261582142Y-72828628D01*
X261582142Y-72828628D02*
X261963094Y-72828628D01*
X260915475Y-73304819D02*
X260724999Y-73304819D01*
X260724999Y-73304819D02*
X260629761Y-73257200D01*
X260629761Y-73257200D02*
X260582142Y-73209580D01*
X260582142Y-73209580D02*
X260486904Y-73066723D01*
X260486904Y-73066723D02*
X260439285Y-72876247D01*
X260439285Y-72876247D02*
X260439285Y-72495295D01*
X260439285Y-72495295D02*
X260486904Y-72400057D01*
X260486904Y-72400057D02*
X260534523Y-72352438D01*
X260534523Y-72352438D02*
X260629761Y-72304819D01*
X260629761Y-72304819D02*
X260820237Y-72304819D01*
X260820237Y-72304819D02*
X260915475Y-72352438D01*
X260915475Y-72352438D02*
X260963094Y-72400057D01*
X260963094Y-72400057D02*
X261010713Y-72495295D01*
X261010713Y-72495295D02*
X261010713Y-72733390D01*
X261010713Y-72733390D02*
X260963094Y-72828628D01*
X260963094Y-72828628D02*
X260915475Y-72876247D01*
X260915475Y-72876247D02*
X260820237Y-72923866D01*
X260820237Y-72923866D02*
X260629761Y-72923866D01*
X260629761Y-72923866D02*
X260534523Y-72876247D01*
X260534523Y-72876247D02*
X260486904Y-72828628D01*
X260486904Y-72828628D02*
X260439285Y-72733390D01*
X254802857Y-93389580D02*
X254850476Y-93437200D01*
X254850476Y-93437200D02*
X254993333Y-93484819D01*
X254993333Y-93484819D02*
X255088571Y-93484819D01*
X255088571Y-93484819D02*
X255231428Y-93437200D01*
X255231428Y-93437200D02*
X255326666Y-93341961D01*
X255326666Y-93341961D02*
X255374285Y-93246723D01*
X255374285Y-93246723D02*
X255421904Y-93056247D01*
X255421904Y-93056247D02*
X255421904Y-92913390D01*
X255421904Y-92913390D02*
X255374285Y-92722914D01*
X255374285Y-92722914D02*
X255326666Y-92627676D01*
X255326666Y-92627676D02*
X255231428Y-92532438D01*
X255231428Y-92532438D02*
X255088571Y-92484819D01*
X255088571Y-92484819D02*
X254993333Y-92484819D01*
X254993333Y-92484819D02*
X254850476Y-92532438D01*
X254850476Y-92532438D02*
X254802857Y-92580057D01*
X254469523Y-92484819D02*
X253850476Y-92484819D01*
X253850476Y-92484819D02*
X254183809Y-92865771D01*
X254183809Y-92865771D02*
X254040952Y-92865771D01*
X254040952Y-92865771D02*
X253945714Y-92913390D01*
X253945714Y-92913390D02*
X253898095Y-92961009D01*
X253898095Y-92961009D02*
X253850476Y-93056247D01*
X253850476Y-93056247D02*
X253850476Y-93294342D01*
X253850476Y-93294342D02*
X253898095Y-93389580D01*
X253898095Y-93389580D02*
X253945714Y-93437200D01*
X253945714Y-93437200D02*
X254040952Y-93484819D01*
X254040952Y-93484819D02*
X254326666Y-93484819D01*
X254326666Y-93484819D02*
X254421904Y-93437200D01*
X254421904Y-93437200D02*
X254469523Y-93389580D01*
X252993333Y-92484819D02*
X253183809Y-92484819D01*
X253183809Y-92484819D02*
X253279047Y-92532438D01*
X253279047Y-92532438D02*
X253326666Y-92580057D01*
X253326666Y-92580057D02*
X253421904Y-92722914D01*
X253421904Y-92722914D02*
X253469523Y-92913390D01*
X253469523Y-92913390D02*
X253469523Y-93294342D01*
X253469523Y-93294342D02*
X253421904Y-93389580D01*
X253421904Y-93389580D02*
X253374285Y-93437200D01*
X253374285Y-93437200D02*
X253279047Y-93484819D01*
X253279047Y-93484819D02*
X253088571Y-93484819D01*
X253088571Y-93484819D02*
X252993333Y-93437200D01*
X252993333Y-93437200D02*
X252945714Y-93389580D01*
X252945714Y-93389580D02*
X252898095Y-93294342D01*
X252898095Y-93294342D02*
X252898095Y-93056247D01*
X252898095Y-93056247D02*
X252945714Y-92961009D01*
X252945714Y-92961009D02*
X252993333Y-92913390D01*
X252993333Y-92913390D02*
X253088571Y-92865771D01*
X253088571Y-92865771D02*
X253279047Y-92865771D01*
X253279047Y-92865771D02*
X253374285Y-92913390D01*
X253374285Y-92913390D02*
X253421904Y-92961009D01*
X253421904Y-92961009D02*
X253469523Y-93056247D01*
X220024819Y-60032142D02*
X219548628Y-59698809D01*
X220024819Y-59460714D02*
X219024819Y-59460714D01*
X219024819Y-59460714D02*
X219024819Y-59841666D01*
X219024819Y-59841666D02*
X219072438Y-59936904D01*
X219072438Y-59936904D02*
X219120057Y-59984523D01*
X219120057Y-59984523D02*
X219215295Y-60032142D01*
X219215295Y-60032142D02*
X219358152Y-60032142D01*
X219358152Y-60032142D02*
X219453390Y-59984523D01*
X219453390Y-59984523D02*
X219501009Y-59936904D01*
X219501009Y-59936904D02*
X219548628Y-59841666D01*
X219548628Y-59841666D02*
X219548628Y-59460714D01*
X220024819Y-60984523D02*
X220024819Y-60413095D01*
X220024819Y-60698809D02*
X219024819Y-60698809D01*
X219024819Y-60698809D02*
X219167676Y-60603571D01*
X219167676Y-60603571D02*
X219262914Y-60508333D01*
X219262914Y-60508333D02*
X219310533Y-60413095D01*
X219024819Y-61841666D02*
X219024819Y-61651190D01*
X219024819Y-61651190D02*
X219072438Y-61555952D01*
X219072438Y-61555952D02*
X219120057Y-61508333D01*
X219120057Y-61508333D02*
X219262914Y-61413095D01*
X219262914Y-61413095D02*
X219453390Y-61365476D01*
X219453390Y-61365476D02*
X219834342Y-61365476D01*
X219834342Y-61365476D02*
X219929580Y-61413095D01*
X219929580Y-61413095D02*
X219977200Y-61460714D01*
X219977200Y-61460714D02*
X220024819Y-61555952D01*
X220024819Y-61555952D02*
X220024819Y-61746428D01*
X220024819Y-61746428D02*
X219977200Y-61841666D01*
X219977200Y-61841666D02*
X219929580Y-61889285D01*
X219929580Y-61889285D02*
X219834342Y-61936904D01*
X219834342Y-61936904D02*
X219596247Y-61936904D01*
X219596247Y-61936904D02*
X219501009Y-61889285D01*
X219501009Y-61889285D02*
X219453390Y-61841666D01*
X219453390Y-61841666D02*
X219405771Y-61746428D01*
X219405771Y-61746428D02*
X219405771Y-61555952D01*
X219405771Y-61555952D02*
X219453390Y-61460714D01*
X219453390Y-61460714D02*
X219501009Y-61413095D01*
X219501009Y-61413095D02*
X219596247Y-61365476D01*
X231717857Y-68934819D02*
X232051190Y-68458628D01*
X232289285Y-68934819D02*
X232289285Y-67934819D01*
X232289285Y-67934819D02*
X231908333Y-67934819D01*
X231908333Y-67934819D02*
X231813095Y-67982438D01*
X231813095Y-67982438D02*
X231765476Y-68030057D01*
X231765476Y-68030057D02*
X231717857Y-68125295D01*
X231717857Y-68125295D02*
X231717857Y-68268152D01*
X231717857Y-68268152D02*
X231765476Y-68363390D01*
X231765476Y-68363390D02*
X231813095Y-68411009D01*
X231813095Y-68411009D02*
X231908333Y-68458628D01*
X231908333Y-68458628D02*
X232289285Y-68458628D01*
X231336904Y-68030057D02*
X231289285Y-67982438D01*
X231289285Y-67982438D02*
X231194047Y-67934819D01*
X231194047Y-67934819D02*
X230955952Y-67934819D01*
X230955952Y-67934819D02*
X230860714Y-67982438D01*
X230860714Y-67982438D02*
X230813095Y-68030057D01*
X230813095Y-68030057D02*
X230765476Y-68125295D01*
X230765476Y-68125295D02*
X230765476Y-68220533D01*
X230765476Y-68220533D02*
X230813095Y-68363390D01*
X230813095Y-68363390D02*
X231384523Y-68934819D01*
X231384523Y-68934819D02*
X230765476Y-68934819D01*
X230289285Y-68934819D02*
X230098809Y-68934819D01*
X230098809Y-68934819D02*
X230003571Y-68887200D01*
X230003571Y-68887200D02*
X229955952Y-68839580D01*
X229955952Y-68839580D02*
X229860714Y-68696723D01*
X229860714Y-68696723D02*
X229813095Y-68506247D01*
X229813095Y-68506247D02*
X229813095Y-68125295D01*
X229813095Y-68125295D02*
X229860714Y-68030057D01*
X229860714Y-68030057D02*
X229908333Y-67982438D01*
X229908333Y-67982438D02*
X230003571Y-67934819D01*
X230003571Y-67934819D02*
X230194047Y-67934819D01*
X230194047Y-67934819D02*
X230289285Y-67982438D01*
X230289285Y-67982438D02*
X230336904Y-68030057D01*
X230336904Y-68030057D02*
X230384523Y-68125295D01*
X230384523Y-68125295D02*
X230384523Y-68363390D01*
X230384523Y-68363390D02*
X230336904Y-68458628D01*
X230336904Y-68458628D02*
X230289285Y-68506247D01*
X230289285Y-68506247D02*
X230194047Y-68553866D01*
X230194047Y-68553866D02*
X230003571Y-68553866D01*
X230003571Y-68553866D02*
X229908333Y-68506247D01*
X229908333Y-68506247D02*
X229860714Y-68458628D01*
X229860714Y-68458628D02*
X229813095Y-68363390D01*
X238222857Y-97669580D02*
X238270476Y-97717200D01*
X238270476Y-97717200D02*
X238413333Y-97764819D01*
X238413333Y-97764819D02*
X238508571Y-97764819D01*
X238508571Y-97764819D02*
X238651428Y-97717200D01*
X238651428Y-97717200D02*
X238746666Y-97621961D01*
X238746666Y-97621961D02*
X238794285Y-97526723D01*
X238794285Y-97526723D02*
X238841904Y-97336247D01*
X238841904Y-97336247D02*
X238841904Y-97193390D01*
X238841904Y-97193390D02*
X238794285Y-97002914D01*
X238794285Y-97002914D02*
X238746666Y-96907676D01*
X238746666Y-96907676D02*
X238651428Y-96812438D01*
X238651428Y-96812438D02*
X238508571Y-96764819D01*
X238508571Y-96764819D02*
X238413333Y-96764819D01*
X238413333Y-96764819D02*
X238270476Y-96812438D01*
X238270476Y-96812438D02*
X238222857Y-96860057D01*
X237318095Y-96764819D02*
X237794285Y-96764819D01*
X237794285Y-96764819D02*
X237841904Y-97241009D01*
X237841904Y-97241009D02*
X237794285Y-97193390D01*
X237794285Y-97193390D02*
X237699047Y-97145771D01*
X237699047Y-97145771D02*
X237460952Y-97145771D01*
X237460952Y-97145771D02*
X237365714Y-97193390D01*
X237365714Y-97193390D02*
X237318095Y-97241009D01*
X237318095Y-97241009D02*
X237270476Y-97336247D01*
X237270476Y-97336247D02*
X237270476Y-97574342D01*
X237270476Y-97574342D02*
X237318095Y-97669580D01*
X237318095Y-97669580D02*
X237365714Y-97717200D01*
X237365714Y-97717200D02*
X237460952Y-97764819D01*
X237460952Y-97764819D02*
X237699047Y-97764819D01*
X237699047Y-97764819D02*
X237794285Y-97717200D01*
X237794285Y-97717200D02*
X237841904Y-97669580D01*
X236889523Y-96860057D02*
X236841904Y-96812438D01*
X236841904Y-96812438D02*
X236746666Y-96764819D01*
X236746666Y-96764819D02*
X236508571Y-96764819D01*
X236508571Y-96764819D02*
X236413333Y-96812438D01*
X236413333Y-96812438D02*
X236365714Y-96860057D01*
X236365714Y-96860057D02*
X236318095Y-96955295D01*
X236318095Y-96955295D02*
X236318095Y-97050533D01*
X236318095Y-97050533D02*
X236365714Y-97193390D01*
X236365714Y-97193390D02*
X236937142Y-97764819D01*
X236937142Y-97764819D02*
X236318095Y-97764819D01*
X230499580Y-97197142D02*
X230547200Y-97149523D01*
X230547200Y-97149523D02*
X230594819Y-97006666D01*
X230594819Y-97006666D02*
X230594819Y-96911428D01*
X230594819Y-96911428D02*
X230547200Y-96768571D01*
X230547200Y-96768571D02*
X230451961Y-96673333D01*
X230451961Y-96673333D02*
X230356723Y-96625714D01*
X230356723Y-96625714D02*
X230166247Y-96578095D01*
X230166247Y-96578095D02*
X230023390Y-96578095D01*
X230023390Y-96578095D02*
X229832914Y-96625714D01*
X229832914Y-96625714D02*
X229737676Y-96673333D01*
X229737676Y-96673333D02*
X229642438Y-96768571D01*
X229642438Y-96768571D02*
X229594819Y-96911428D01*
X229594819Y-96911428D02*
X229594819Y-97006666D01*
X229594819Y-97006666D02*
X229642438Y-97149523D01*
X229642438Y-97149523D02*
X229690057Y-97197142D01*
X229594819Y-97530476D02*
X229594819Y-98149523D01*
X229594819Y-98149523D02*
X229975771Y-97816190D01*
X229975771Y-97816190D02*
X229975771Y-97959047D01*
X229975771Y-97959047D02*
X230023390Y-98054285D01*
X230023390Y-98054285D02*
X230071009Y-98101904D01*
X230071009Y-98101904D02*
X230166247Y-98149523D01*
X230166247Y-98149523D02*
X230404342Y-98149523D01*
X230404342Y-98149523D02*
X230499580Y-98101904D01*
X230499580Y-98101904D02*
X230547200Y-98054285D01*
X230547200Y-98054285D02*
X230594819Y-97959047D01*
X230594819Y-97959047D02*
X230594819Y-97673333D01*
X230594819Y-97673333D02*
X230547200Y-97578095D01*
X230547200Y-97578095D02*
X230499580Y-97530476D01*
X229594819Y-98482857D02*
X229594819Y-99149523D01*
X229594819Y-99149523D02*
X230594819Y-98720952D01*
X248274819Y-102181905D02*
X247274819Y-102181905D01*
X247274819Y-102181905D02*
X247274819Y-102420000D01*
X247274819Y-102420000D02*
X247322438Y-102562857D01*
X247322438Y-102562857D02*
X247417676Y-102658095D01*
X247417676Y-102658095D02*
X247512914Y-102705714D01*
X247512914Y-102705714D02*
X247703390Y-102753333D01*
X247703390Y-102753333D02*
X247846247Y-102753333D01*
X247846247Y-102753333D02*
X248036723Y-102705714D01*
X248036723Y-102705714D02*
X248131961Y-102658095D01*
X248131961Y-102658095D02*
X248227200Y-102562857D01*
X248227200Y-102562857D02*
X248274819Y-102420000D01*
X248274819Y-102420000D02*
X248274819Y-102181905D01*
X247274819Y-103658095D02*
X247274819Y-103181905D01*
X247274819Y-103181905D02*
X247751009Y-103134286D01*
X247751009Y-103134286D02*
X247703390Y-103181905D01*
X247703390Y-103181905D02*
X247655771Y-103277143D01*
X247655771Y-103277143D02*
X247655771Y-103515238D01*
X247655771Y-103515238D02*
X247703390Y-103610476D01*
X247703390Y-103610476D02*
X247751009Y-103658095D01*
X247751009Y-103658095D02*
X247846247Y-103705714D01*
X247846247Y-103705714D02*
X248084342Y-103705714D01*
X248084342Y-103705714D02*
X248179580Y-103658095D01*
X248179580Y-103658095D02*
X248227200Y-103610476D01*
X248227200Y-103610476D02*
X248274819Y-103515238D01*
X248274819Y-103515238D02*
X248274819Y-103277143D01*
X248274819Y-103277143D02*
X248227200Y-103181905D01*
X248227200Y-103181905D02*
X248179580Y-103134286D01*
X232142857Y-87699580D02*
X232190476Y-87747200D01*
X232190476Y-87747200D02*
X232333333Y-87794819D01*
X232333333Y-87794819D02*
X232428571Y-87794819D01*
X232428571Y-87794819D02*
X232571428Y-87747200D01*
X232571428Y-87747200D02*
X232666666Y-87651961D01*
X232666666Y-87651961D02*
X232714285Y-87556723D01*
X232714285Y-87556723D02*
X232761904Y-87366247D01*
X232761904Y-87366247D02*
X232761904Y-87223390D01*
X232761904Y-87223390D02*
X232714285Y-87032914D01*
X232714285Y-87032914D02*
X232666666Y-86937676D01*
X232666666Y-86937676D02*
X232571428Y-86842438D01*
X232571428Y-86842438D02*
X232428571Y-86794819D01*
X232428571Y-86794819D02*
X232333333Y-86794819D01*
X232333333Y-86794819D02*
X232190476Y-86842438D01*
X232190476Y-86842438D02*
X232142857Y-86890057D01*
X231761904Y-86890057D02*
X231714285Y-86842438D01*
X231714285Y-86842438D02*
X231619047Y-86794819D01*
X231619047Y-86794819D02*
X231380952Y-86794819D01*
X231380952Y-86794819D02*
X231285714Y-86842438D01*
X231285714Y-86842438D02*
X231238095Y-86890057D01*
X231238095Y-86890057D02*
X231190476Y-86985295D01*
X231190476Y-86985295D02*
X231190476Y-87080533D01*
X231190476Y-87080533D02*
X231238095Y-87223390D01*
X231238095Y-87223390D02*
X231809523Y-87794819D01*
X231809523Y-87794819D02*
X231190476Y-87794819D01*
X230619047Y-87223390D02*
X230714285Y-87175771D01*
X230714285Y-87175771D02*
X230761904Y-87128152D01*
X230761904Y-87128152D02*
X230809523Y-87032914D01*
X230809523Y-87032914D02*
X230809523Y-86985295D01*
X230809523Y-86985295D02*
X230761904Y-86890057D01*
X230761904Y-86890057D02*
X230714285Y-86842438D01*
X230714285Y-86842438D02*
X230619047Y-86794819D01*
X230619047Y-86794819D02*
X230428571Y-86794819D01*
X230428571Y-86794819D02*
X230333333Y-86842438D01*
X230333333Y-86842438D02*
X230285714Y-86890057D01*
X230285714Y-86890057D02*
X230238095Y-86985295D01*
X230238095Y-86985295D02*
X230238095Y-87032914D01*
X230238095Y-87032914D02*
X230285714Y-87128152D01*
X230285714Y-87128152D02*
X230333333Y-87175771D01*
X230333333Y-87175771D02*
X230428571Y-87223390D01*
X230428571Y-87223390D02*
X230619047Y-87223390D01*
X230619047Y-87223390D02*
X230714285Y-87271009D01*
X230714285Y-87271009D02*
X230761904Y-87318628D01*
X230761904Y-87318628D02*
X230809523Y-87413866D01*
X230809523Y-87413866D02*
X230809523Y-87604342D01*
X230809523Y-87604342D02*
X230761904Y-87699580D01*
X230761904Y-87699580D02*
X230714285Y-87747200D01*
X230714285Y-87747200D02*
X230619047Y-87794819D01*
X230619047Y-87794819D02*
X230428571Y-87794819D01*
X230428571Y-87794819D02*
X230333333Y-87747200D01*
X230333333Y-87747200D02*
X230285714Y-87699580D01*
X230285714Y-87699580D02*
X230238095Y-87604342D01*
X230238095Y-87604342D02*
X230238095Y-87413866D01*
X230238095Y-87413866D02*
X230285714Y-87318628D01*
X230285714Y-87318628D02*
X230333333Y-87271009D01*
X230333333Y-87271009D02*
X230428571Y-87223390D01*
X224990476Y-95931009D02*
X225323809Y-95931009D01*
X225323809Y-96454819D02*
X225323809Y-95454819D01*
X225323809Y-95454819D02*
X224847619Y-95454819D01*
X224466666Y-95931009D02*
X224133333Y-95931009D01*
X223990476Y-96454819D02*
X224466666Y-96454819D01*
X224466666Y-96454819D02*
X224466666Y-95454819D01*
X224466666Y-95454819D02*
X223990476Y-95454819D01*
X223085714Y-96454819D02*
X223561904Y-96454819D01*
X223561904Y-96454819D02*
X223561904Y-95454819D01*
X222228571Y-96454819D02*
X222799999Y-96454819D01*
X222514285Y-96454819D02*
X222514285Y-95454819D01*
X222514285Y-95454819D02*
X222609523Y-95597676D01*
X222609523Y-95597676D02*
X222704761Y-95692914D01*
X222704761Y-95692914D02*
X222799999Y-95740533D01*
X226874819Y-83657142D02*
X226398628Y-83323809D01*
X226874819Y-83085714D02*
X225874819Y-83085714D01*
X225874819Y-83085714D02*
X225874819Y-83466666D01*
X225874819Y-83466666D02*
X225922438Y-83561904D01*
X225922438Y-83561904D02*
X225970057Y-83609523D01*
X225970057Y-83609523D02*
X226065295Y-83657142D01*
X226065295Y-83657142D02*
X226208152Y-83657142D01*
X226208152Y-83657142D02*
X226303390Y-83609523D01*
X226303390Y-83609523D02*
X226351009Y-83561904D01*
X226351009Y-83561904D02*
X226398628Y-83466666D01*
X226398628Y-83466666D02*
X226398628Y-83085714D01*
X225970057Y-84038095D02*
X225922438Y-84085714D01*
X225922438Y-84085714D02*
X225874819Y-84180952D01*
X225874819Y-84180952D02*
X225874819Y-84419047D01*
X225874819Y-84419047D02*
X225922438Y-84514285D01*
X225922438Y-84514285D02*
X225970057Y-84561904D01*
X225970057Y-84561904D02*
X226065295Y-84609523D01*
X226065295Y-84609523D02*
X226160533Y-84609523D01*
X226160533Y-84609523D02*
X226303390Y-84561904D01*
X226303390Y-84561904D02*
X226874819Y-83990476D01*
X226874819Y-83990476D02*
X226874819Y-84609523D01*
X225874819Y-85228571D02*
X225874819Y-85323809D01*
X225874819Y-85323809D02*
X225922438Y-85419047D01*
X225922438Y-85419047D02*
X225970057Y-85466666D01*
X225970057Y-85466666D02*
X226065295Y-85514285D01*
X226065295Y-85514285D02*
X226255771Y-85561904D01*
X226255771Y-85561904D02*
X226493866Y-85561904D01*
X226493866Y-85561904D02*
X226684342Y-85514285D01*
X226684342Y-85514285D02*
X226779580Y-85466666D01*
X226779580Y-85466666D02*
X226827200Y-85419047D01*
X226827200Y-85419047D02*
X226874819Y-85323809D01*
X226874819Y-85323809D02*
X226874819Y-85228571D01*
X226874819Y-85228571D02*
X226827200Y-85133333D01*
X226827200Y-85133333D02*
X226779580Y-85085714D01*
X226779580Y-85085714D02*
X226684342Y-85038095D01*
X226684342Y-85038095D02*
X226493866Y-84990476D01*
X226493866Y-84990476D02*
X226255771Y-84990476D01*
X226255771Y-84990476D02*
X226065295Y-85038095D01*
X226065295Y-85038095D02*
X225970057Y-85085714D01*
X225970057Y-85085714D02*
X225922438Y-85133333D01*
X225922438Y-85133333D02*
X225874819Y-85228571D01*
X235704819Y-52527142D02*
X235228628Y-52193809D01*
X235704819Y-51955714D02*
X234704819Y-51955714D01*
X234704819Y-51955714D02*
X234704819Y-52336666D01*
X234704819Y-52336666D02*
X234752438Y-52431904D01*
X234752438Y-52431904D02*
X234800057Y-52479523D01*
X234800057Y-52479523D02*
X234895295Y-52527142D01*
X234895295Y-52527142D02*
X235038152Y-52527142D01*
X235038152Y-52527142D02*
X235133390Y-52479523D01*
X235133390Y-52479523D02*
X235181009Y-52431904D01*
X235181009Y-52431904D02*
X235228628Y-52336666D01*
X235228628Y-52336666D02*
X235228628Y-51955714D01*
X235704819Y-53479523D02*
X235704819Y-52908095D01*
X235704819Y-53193809D02*
X234704819Y-53193809D01*
X234704819Y-53193809D02*
X234847676Y-53098571D01*
X234847676Y-53098571D02*
X234942914Y-53003333D01*
X234942914Y-53003333D02*
X234990533Y-52908095D01*
X235704819Y-53955714D02*
X235704819Y-54146190D01*
X235704819Y-54146190D02*
X235657200Y-54241428D01*
X235657200Y-54241428D02*
X235609580Y-54289047D01*
X235609580Y-54289047D02*
X235466723Y-54384285D01*
X235466723Y-54384285D02*
X235276247Y-54431904D01*
X235276247Y-54431904D02*
X234895295Y-54431904D01*
X234895295Y-54431904D02*
X234800057Y-54384285D01*
X234800057Y-54384285D02*
X234752438Y-54336666D01*
X234752438Y-54336666D02*
X234704819Y-54241428D01*
X234704819Y-54241428D02*
X234704819Y-54050952D01*
X234704819Y-54050952D02*
X234752438Y-53955714D01*
X234752438Y-53955714D02*
X234800057Y-53908095D01*
X234800057Y-53908095D02*
X234895295Y-53860476D01*
X234895295Y-53860476D02*
X235133390Y-53860476D01*
X235133390Y-53860476D02*
X235228628Y-53908095D01*
X235228628Y-53908095D02*
X235276247Y-53955714D01*
X235276247Y-53955714D02*
X235323866Y-54050952D01*
X235323866Y-54050952D02*
X235323866Y-54241428D01*
X235323866Y-54241428D02*
X235276247Y-54336666D01*
X235276247Y-54336666D02*
X235228628Y-54384285D01*
X235228628Y-54384285D02*
X235133390Y-54431904D01*
X231967857Y-63024819D02*
X232301190Y-62548628D01*
X232539285Y-63024819D02*
X232539285Y-62024819D01*
X232539285Y-62024819D02*
X232158333Y-62024819D01*
X232158333Y-62024819D02*
X232063095Y-62072438D01*
X232063095Y-62072438D02*
X232015476Y-62120057D01*
X232015476Y-62120057D02*
X231967857Y-62215295D01*
X231967857Y-62215295D02*
X231967857Y-62358152D01*
X231967857Y-62358152D02*
X232015476Y-62453390D01*
X232015476Y-62453390D02*
X232063095Y-62501009D01*
X232063095Y-62501009D02*
X232158333Y-62548628D01*
X232158333Y-62548628D02*
X232539285Y-62548628D01*
X231015476Y-63024819D02*
X231586904Y-63024819D01*
X231301190Y-63024819D02*
X231301190Y-62024819D01*
X231301190Y-62024819D02*
X231396428Y-62167676D01*
X231396428Y-62167676D02*
X231491666Y-62262914D01*
X231491666Y-62262914D02*
X231586904Y-62310533D01*
X230110714Y-62024819D02*
X230586904Y-62024819D01*
X230586904Y-62024819D02*
X230634523Y-62501009D01*
X230634523Y-62501009D02*
X230586904Y-62453390D01*
X230586904Y-62453390D02*
X230491666Y-62405771D01*
X230491666Y-62405771D02*
X230253571Y-62405771D01*
X230253571Y-62405771D02*
X230158333Y-62453390D01*
X230158333Y-62453390D02*
X230110714Y-62501009D01*
X230110714Y-62501009D02*
X230063095Y-62596247D01*
X230063095Y-62596247D02*
X230063095Y-62834342D01*
X230063095Y-62834342D02*
X230110714Y-62929580D01*
X230110714Y-62929580D02*
X230158333Y-62977200D01*
X230158333Y-62977200D02*
X230253571Y-63024819D01*
X230253571Y-63024819D02*
X230491666Y-63024819D01*
X230491666Y-63024819D02*
X230586904Y-62977200D01*
X230586904Y-62977200D02*
X230634523Y-62929580D01*
X246579580Y-96357142D02*
X246627200Y-96309523D01*
X246627200Y-96309523D02*
X246674819Y-96166666D01*
X246674819Y-96166666D02*
X246674819Y-96071428D01*
X246674819Y-96071428D02*
X246627200Y-95928571D01*
X246627200Y-95928571D02*
X246531961Y-95833333D01*
X246531961Y-95833333D02*
X246436723Y-95785714D01*
X246436723Y-95785714D02*
X246246247Y-95738095D01*
X246246247Y-95738095D02*
X246103390Y-95738095D01*
X246103390Y-95738095D02*
X245912914Y-95785714D01*
X245912914Y-95785714D02*
X245817676Y-95833333D01*
X245817676Y-95833333D02*
X245722438Y-95928571D01*
X245722438Y-95928571D02*
X245674819Y-96071428D01*
X245674819Y-96071428D02*
X245674819Y-96166666D01*
X245674819Y-96166666D02*
X245722438Y-96309523D01*
X245722438Y-96309523D02*
X245770057Y-96357142D01*
X245674819Y-97214285D02*
X245674819Y-97023809D01*
X245674819Y-97023809D02*
X245722438Y-96928571D01*
X245722438Y-96928571D02*
X245770057Y-96880952D01*
X245770057Y-96880952D02*
X245912914Y-96785714D01*
X245912914Y-96785714D02*
X246103390Y-96738095D01*
X246103390Y-96738095D02*
X246484342Y-96738095D01*
X246484342Y-96738095D02*
X246579580Y-96785714D01*
X246579580Y-96785714D02*
X246627200Y-96833333D01*
X246627200Y-96833333D02*
X246674819Y-96928571D01*
X246674819Y-96928571D02*
X246674819Y-97119047D01*
X246674819Y-97119047D02*
X246627200Y-97214285D01*
X246627200Y-97214285D02*
X246579580Y-97261904D01*
X246579580Y-97261904D02*
X246484342Y-97309523D01*
X246484342Y-97309523D02*
X246246247Y-97309523D01*
X246246247Y-97309523D02*
X246151009Y-97261904D01*
X246151009Y-97261904D02*
X246103390Y-97214285D01*
X246103390Y-97214285D02*
X246055771Y-97119047D01*
X246055771Y-97119047D02*
X246055771Y-96928571D01*
X246055771Y-96928571D02*
X246103390Y-96833333D01*
X246103390Y-96833333D02*
X246151009Y-96785714D01*
X246151009Y-96785714D02*
X246246247Y-96738095D01*
X246674819Y-98261904D02*
X246674819Y-97690476D01*
X246674819Y-97976190D02*
X245674819Y-97976190D01*
X245674819Y-97976190D02*
X245817676Y-97880952D01*
X245817676Y-97880952D02*
X245912914Y-97785714D01*
X245912914Y-97785714D02*
X245960533Y-97690476D01*
X230799580Y-89997142D02*
X230847200Y-89949523D01*
X230847200Y-89949523D02*
X230894819Y-89806666D01*
X230894819Y-89806666D02*
X230894819Y-89711428D01*
X230894819Y-89711428D02*
X230847200Y-89568571D01*
X230847200Y-89568571D02*
X230751961Y-89473333D01*
X230751961Y-89473333D02*
X230656723Y-89425714D01*
X230656723Y-89425714D02*
X230466247Y-89378095D01*
X230466247Y-89378095D02*
X230323390Y-89378095D01*
X230323390Y-89378095D02*
X230132914Y-89425714D01*
X230132914Y-89425714D02*
X230037676Y-89473333D01*
X230037676Y-89473333D02*
X229942438Y-89568571D01*
X229942438Y-89568571D02*
X229894819Y-89711428D01*
X229894819Y-89711428D02*
X229894819Y-89806666D01*
X229894819Y-89806666D02*
X229942438Y-89949523D01*
X229942438Y-89949523D02*
X229990057Y-89997142D01*
X229894819Y-90330476D02*
X229894819Y-90949523D01*
X229894819Y-90949523D02*
X230275771Y-90616190D01*
X230275771Y-90616190D02*
X230275771Y-90759047D01*
X230275771Y-90759047D02*
X230323390Y-90854285D01*
X230323390Y-90854285D02*
X230371009Y-90901904D01*
X230371009Y-90901904D02*
X230466247Y-90949523D01*
X230466247Y-90949523D02*
X230704342Y-90949523D01*
X230704342Y-90949523D02*
X230799580Y-90901904D01*
X230799580Y-90901904D02*
X230847200Y-90854285D01*
X230847200Y-90854285D02*
X230894819Y-90759047D01*
X230894819Y-90759047D02*
X230894819Y-90473333D01*
X230894819Y-90473333D02*
X230847200Y-90378095D01*
X230847200Y-90378095D02*
X230799580Y-90330476D01*
X230894819Y-91901904D02*
X230894819Y-91330476D01*
X230894819Y-91616190D02*
X229894819Y-91616190D01*
X229894819Y-91616190D02*
X230037676Y-91520952D01*
X230037676Y-91520952D02*
X230132914Y-91425714D01*
X230132914Y-91425714D02*
X230180533Y-91330476D01*
X260282857Y-109844819D02*
X260616190Y-109368628D01*
X260854285Y-109844819D02*
X260854285Y-108844819D01*
X260854285Y-108844819D02*
X260473333Y-108844819D01*
X260473333Y-108844819D02*
X260378095Y-108892438D01*
X260378095Y-108892438D02*
X260330476Y-108940057D01*
X260330476Y-108940057D02*
X260282857Y-109035295D01*
X260282857Y-109035295D02*
X260282857Y-109178152D01*
X260282857Y-109178152D02*
X260330476Y-109273390D01*
X260330476Y-109273390D02*
X260378095Y-109321009D01*
X260378095Y-109321009D02*
X260473333Y-109368628D01*
X260473333Y-109368628D02*
X260854285Y-109368628D01*
X259949523Y-108844819D02*
X259330476Y-108844819D01*
X259330476Y-108844819D02*
X259663809Y-109225771D01*
X259663809Y-109225771D02*
X259520952Y-109225771D01*
X259520952Y-109225771D02*
X259425714Y-109273390D01*
X259425714Y-109273390D02*
X259378095Y-109321009D01*
X259378095Y-109321009D02*
X259330476Y-109416247D01*
X259330476Y-109416247D02*
X259330476Y-109654342D01*
X259330476Y-109654342D02*
X259378095Y-109749580D01*
X259378095Y-109749580D02*
X259425714Y-109797200D01*
X259425714Y-109797200D02*
X259520952Y-109844819D01*
X259520952Y-109844819D02*
X259806666Y-109844819D01*
X259806666Y-109844819D02*
X259901904Y-109797200D01*
X259901904Y-109797200D02*
X259949523Y-109749580D01*
X258997142Y-108844819D02*
X258330476Y-108844819D01*
X258330476Y-108844819D02*
X258759047Y-109844819D01*
X264694819Y-94090595D02*
X265504342Y-94090595D01*
X265504342Y-94090595D02*
X265599580Y-94138214D01*
X265599580Y-94138214D02*
X265647200Y-94185833D01*
X265647200Y-94185833D02*
X265694819Y-94281071D01*
X265694819Y-94281071D02*
X265694819Y-94471547D01*
X265694819Y-94471547D02*
X265647200Y-94566785D01*
X265647200Y-94566785D02*
X265599580Y-94614404D01*
X265599580Y-94614404D02*
X265504342Y-94662023D01*
X265504342Y-94662023D02*
X264694819Y-94662023D01*
X265028152Y-95566785D02*
X265694819Y-95566785D01*
X264647200Y-95328690D02*
X265361485Y-95090595D01*
X265361485Y-95090595D02*
X265361485Y-95709642D01*
X224017857Y-107299580D02*
X224065476Y-107347200D01*
X224065476Y-107347200D02*
X224208333Y-107394819D01*
X224208333Y-107394819D02*
X224303571Y-107394819D01*
X224303571Y-107394819D02*
X224446428Y-107347200D01*
X224446428Y-107347200D02*
X224541666Y-107251961D01*
X224541666Y-107251961D02*
X224589285Y-107156723D01*
X224589285Y-107156723D02*
X224636904Y-106966247D01*
X224636904Y-106966247D02*
X224636904Y-106823390D01*
X224636904Y-106823390D02*
X224589285Y-106632914D01*
X224589285Y-106632914D02*
X224541666Y-106537676D01*
X224541666Y-106537676D02*
X224446428Y-106442438D01*
X224446428Y-106442438D02*
X224303571Y-106394819D01*
X224303571Y-106394819D02*
X224208333Y-106394819D01*
X224208333Y-106394819D02*
X224065476Y-106442438D01*
X224065476Y-106442438D02*
X224017857Y-106490057D01*
X223684523Y-106394819D02*
X223065476Y-106394819D01*
X223065476Y-106394819D02*
X223398809Y-106775771D01*
X223398809Y-106775771D02*
X223255952Y-106775771D01*
X223255952Y-106775771D02*
X223160714Y-106823390D01*
X223160714Y-106823390D02*
X223113095Y-106871009D01*
X223113095Y-106871009D02*
X223065476Y-106966247D01*
X223065476Y-106966247D02*
X223065476Y-107204342D01*
X223065476Y-107204342D02*
X223113095Y-107299580D01*
X223113095Y-107299580D02*
X223160714Y-107347200D01*
X223160714Y-107347200D02*
X223255952Y-107394819D01*
X223255952Y-107394819D02*
X223541666Y-107394819D01*
X223541666Y-107394819D02*
X223636904Y-107347200D01*
X223636904Y-107347200D02*
X223684523Y-107299580D01*
X222589285Y-107394819D02*
X222398809Y-107394819D01*
X222398809Y-107394819D02*
X222303571Y-107347200D01*
X222303571Y-107347200D02*
X222255952Y-107299580D01*
X222255952Y-107299580D02*
X222160714Y-107156723D01*
X222160714Y-107156723D02*
X222113095Y-106966247D01*
X222113095Y-106966247D02*
X222113095Y-106585295D01*
X222113095Y-106585295D02*
X222160714Y-106490057D01*
X222160714Y-106490057D02*
X222208333Y-106442438D01*
X222208333Y-106442438D02*
X222303571Y-106394819D01*
X222303571Y-106394819D02*
X222494047Y-106394819D01*
X222494047Y-106394819D02*
X222589285Y-106442438D01*
X222589285Y-106442438D02*
X222636904Y-106490057D01*
X222636904Y-106490057D02*
X222684523Y-106585295D01*
X222684523Y-106585295D02*
X222684523Y-106823390D01*
X222684523Y-106823390D02*
X222636904Y-106918628D01*
X222636904Y-106918628D02*
X222589285Y-106966247D01*
X222589285Y-106966247D02*
X222494047Y-107013866D01*
X222494047Y-107013866D02*
X222303571Y-107013866D01*
X222303571Y-107013866D02*
X222208333Y-106966247D01*
X222208333Y-106966247D02*
X222160714Y-106918628D01*
X222160714Y-106918628D02*
X222113095Y-106823390D01*
X252499523Y-110714819D02*
X252499523Y-111429104D01*
X252499523Y-111429104D02*
X252547142Y-111571961D01*
X252547142Y-111571961D02*
X252642380Y-111667200D01*
X252642380Y-111667200D02*
X252785237Y-111714819D01*
X252785237Y-111714819D02*
X252880475Y-111714819D01*
X251499523Y-111714819D02*
X252070951Y-111714819D01*
X251785237Y-111714819D02*
X251785237Y-110714819D01*
X251785237Y-110714819D02*
X251880475Y-110857676D01*
X251880475Y-110857676D02*
X251975713Y-110952914D01*
X251975713Y-110952914D02*
X252070951Y-111000533D01*
X250547142Y-111714819D02*
X251118570Y-111714819D01*
X250832856Y-111714819D02*
X250832856Y-110714819D01*
X250832856Y-110714819D02*
X250928094Y-110857676D01*
X250928094Y-110857676D02*
X251023332Y-110952914D01*
X251023332Y-110952914D02*
X251118570Y-111000533D01*
X239882857Y-91539580D02*
X239930476Y-91587200D01*
X239930476Y-91587200D02*
X240073333Y-91634819D01*
X240073333Y-91634819D02*
X240168571Y-91634819D01*
X240168571Y-91634819D02*
X240311428Y-91587200D01*
X240311428Y-91587200D02*
X240406666Y-91491961D01*
X240406666Y-91491961D02*
X240454285Y-91396723D01*
X240454285Y-91396723D02*
X240501904Y-91206247D01*
X240501904Y-91206247D02*
X240501904Y-91063390D01*
X240501904Y-91063390D02*
X240454285Y-90872914D01*
X240454285Y-90872914D02*
X240406666Y-90777676D01*
X240406666Y-90777676D02*
X240311428Y-90682438D01*
X240311428Y-90682438D02*
X240168571Y-90634819D01*
X240168571Y-90634819D02*
X240073333Y-90634819D01*
X240073333Y-90634819D02*
X239930476Y-90682438D01*
X239930476Y-90682438D02*
X239882857Y-90730057D01*
X238978095Y-90634819D02*
X239454285Y-90634819D01*
X239454285Y-90634819D02*
X239501904Y-91111009D01*
X239501904Y-91111009D02*
X239454285Y-91063390D01*
X239454285Y-91063390D02*
X239359047Y-91015771D01*
X239359047Y-91015771D02*
X239120952Y-91015771D01*
X239120952Y-91015771D02*
X239025714Y-91063390D01*
X239025714Y-91063390D02*
X238978095Y-91111009D01*
X238978095Y-91111009D02*
X238930476Y-91206247D01*
X238930476Y-91206247D02*
X238930476Y-91444342D01*
X238930476Y-91444342D02*
X238978095Y-91539580D01*
X238978095Y-91539580D02*
X239025714Y-91587200D01*
X239025714Y-91587200D02*
X239120952Y-91634819D01*
X239120952Y-91634819D02*
X239359047Y-91634819D01*
X239359047Y-91634819D02*
X239454285Y-91587200D01*
X239454285Y-91587200D02*
X239501904Y-91539580D01*
X238454285Y-91634819D02*
X238263809Y-91634819D01*
X238263809Y-91634819D02*
X238168571Y-91587200D01*
X238168571Y-91587200D02*
X238120952Y-91539580D01*
X238120952Y-91539580D02*
X238025714Y-91396723D01*
X238025714Y-91396723D02*
X237978095Y-91206247D01*
X237978095Y-91206247D02*
X237978095Y-90825295D01*
X237978095Y-90825295D02*
X238025714Y-90730057D01*
X238025714Y-90730057D02*
X238073333Y-90682438D01*
X238073333Y-90682438D02*
X238168571Y-90634819D01*
X238168571Y-90634819D02*
X238359047Y-90634819D01*
X238359047Y-90634819D02*
X238454285Y-90682438D01*
X238454285Y-90682438D02*
X238501904Y-90730057D01*
X238501904Y-90730057D02*
X238549523Y-90825295D01*
X238549523Y-90825295D02*
X238549523Y-91063390D01*
X238549523Y-91063390D02*
X238501904Y-91158628D01*
X238501904Y-91158628D02*
X238454285Y-91206247D01*
X238454285Y-91206247D02*
X238359047Y-91253866D01*
X238359047Y-91253866D02*
X238168571Y-91253866D01*
X238168571Y-91253866D02*
X238073333Y-91206247D01*
X238073333Y-91206247D02*
X238025714Y-91158628D01*
X238025714Y-91158628D02*
X237978095Y-91063390D01*
X239717857Y-109604819D02*
X240051190Y-109128628D01*
X240289285Y-109604819D02*
X240289285Y-108604819D01*
X240289285Y-108604819D02*
X239908333Y-108604819D01*
X239908333Y-108604819D02*
X239813095Y-108652438D01*
X239813095Y-108652438D02*
X239765476Y-108700057D01*
X239765476Y-108700057D02*
X239717857Y-108795295D01*
X239717857Y-108795295D02*
X239717857Y-108938152D01*
X239717857Y-108938152D02*
X239765476Y-109033390D01*
X239765476Y-109033390D02*
X239813095Y-109081009D01*
X239813095Y-109081009D02*
X239908333Y-109128628D01*
X239908333Y-109128628D02*
X240289285Y-109128628D01*
X238860714Y-108938152D02*
X238860714Y-109604819D01*
X239098809Y-108557200D02*
X239336904Y-109271485D01*
X239336904Y-109271485D02*
X238717857Y-109271485D01*
X237908333Y-108604819D02*
X238098809Y-108604819D01*
X238098809Y-108604819D02*
X238194047Y-108652438D01*
X238194047Y-108652438D02*
X238241666Y-108700057D01*
X238241666Y-108700057D02*
X238336904Y-108842914D01*
X238336904Y-108842914D02*
X238384523Y-109033390D01*
X238384523Y-109033390D02*
X238384523Y-109414342D01*
X238384523Y-109414342D02*
X238336904Y-109509580D01*
X238336904Y-109509580D02*
X238289285Y-109557200D01*
X238289285Y-109557200D02*
X238194047Y-109604819D01*
X238194047Y-109604819D02*
X238003571Y-109604819D01*
X238003571Y-109604819D02*
X237908333Y-109557200D01*
X237908333Y-109557200D02*
X237860714Y-109509580D01*
X237860714Y-109509580D02*
X237813095Y-109414342D01*
X237813095Y-109414342D02*
X237813095Y-109176247D01*
X237813095Y-109176247D02*
X237860714Y-109081009D01*
X237860714Y-109081009D02*
X237908333Y-109033390D01*
X237908333Y-109033390D02*
X238003571Y-108985771D01*
X238003571Y-108985771D02*
X238194047Y-108985771D01*
X238194047Y-108985771D02*
X238289285Y-109033390D01*
X238289285Y-109033390D02*
X238336904Y-109081009D01*
X238336904Y-109081009D02*
X238384523Y-109176247D01*
X228672857Y-101134819D02*
X229006190Y-100658628D01*
X229244285Y-101134819D02*
X229244285Y-100134819D01*
X229244285Y-100134819D02*
X228863333Y-100134819D01*
X228863333Y-100134819D02*
X228768095Y-100182438D01*
X228768095Y-100182438D02*
X228720476Y-100230057D01*
X228720476Y-100230057D02*
X228672857Y-100325295D01*
X228672857Y-100325295D02*
X228672857Y-100468152D01*
X228672857Y-100468152D02*
X228720476Y-100563390D01*
X228720476Y-100563390D02*
X228768095Y-100611009D01*
X228768095Y-100611009D02*
X228863333Y-100658628D01*
X228863333Y-100658628D02*
X229244285Y-100658628D01*
X227815714Y-100468152D02*
X227815714Y-101134819D01*
X228053809Y-100087200D02*
X228291904Y-100801485D01*
X228291904Y-100801485D02*
X227672857Y-100801485D01*
X226815714Y-100134819D02*
X227291904Y-100134819D01*
X227291904Y-100134819D02*
X227339523Y-100611009D01*
X227339523Y-100611009D02*
X227291904Y-100563390D01*
X227291904Y-100563390D02*
X227196666Y-100515771D01*
X227196666Y-100515771D02*
X226958571Y-100515771D01*
X226958571Y-100515771D02*
X226863333Y-100563390D01*
X226863333Y-100563390D02*
X226815714Y-100611009D01*
X226815714Y-100611009D02*
X226768095Y-100706247D01*
X226768095Y-100706247D02*
X226768095Y-100944342D01*
X226768095Y-100944342D02*
X226815714Y-101039580D01*
X226815714Y-101039580D02*
X226863333Y-101087200D01*
X226863333Y-101087200D02*
X226958571Y-101134819D01*
X226958571Y-101134819D02*
X227196666Y-101134819D01*
X227196666Y-101134819D02*
X227291904Y-101087200D01*
X227291904Y-101087200D02*
X227339523Y-101039580D01*
X230589580Y-93347142D02*
X230637200Y-93299523D01*
X230637200Y-93299523D02*
X230684819Y-93156666D01*
X230684819Y-93156666D02*
X230684819Y-93061428D01*
X230684819Y-93061428D02*
X230637200Y-92918571D01*
X230637200Y-92918571D02*
X230541961Y-92823333D01*
X230541961Y-92823333D02*
X230446723Y-92775714D01*
X230446723Y-92775714D02*
X230256247Y-92728095D01*
X230256247Y-92728095D02*
X230113390Y-92728095D01*
X230113390Y-92728095D02*
X229922914Y-92775714D01*
X229922914Y-92775714D02*
X229827676Y-92823333D01*
X229827676Y-92823333D02*
X229732438Y-92918571D01*
X229732438Y-92918571D02*
X229684819Y-93061428D01*
X229684819Y-93061428D02*
X229684819Y-93156666D01*
X229684819Y-93156666D02*
X229732438Y-93299523D01*
X229732438Y-93299523D02*
X229780057Y-93347142D01*
X229684819Y-93680476D02*
X229684819Y-94299523D01*
X229684819Y-94299523D02*
X230065771Y-93966190D01*
X230065771Y-93966190D02*
X230065771Y-94109047D01*
X230065771Y-94109047D02*
X230113390Y-94204285D01*
X230113390Y-94204285D02*
X230161009Y-94251904D01*
X230161009Y-94251904D02*
X230256247Y-94299523D01*
X230256247Y-94299523D02*
X230494342Y-94299523D01*
X230494342Y-94299523D02*
X230589580Y-94251904D01*
X230589580Y-94251904D02*
X230637200Y-94204285D01*
X230637200Y-94204285D02*
X230684819Y-94109047D01*
X230684819Y-94109047D02*
X230684819Y-93823333D01*
X230684819Y-93823333D02*
X230637200Y-93728095D01*
X230637200Y-93728095D02*
X230589580Y-93680476D01*
X229684819Y-94632857D02*
X229684819Y-95251904D01*
X229684819Y-95251904D02*
X230065771Y-94918571D01*
X230065771Y-94918571D02*
X230065771Y-95061428D01*
X230065771Y-95061428D02*
X230113390Y-95156666D01*
X230113390Y-95156666D02*
X230161009Y-95204285D01*
X230161009Y-95204285D02*
X230256247Y-95251904D01*
X230256247Y-95251904D02*
X230494342Y-95251904D01*
X230494342Y-95251904D02*
X230589580Y-95204285D01*
X230589580Y-95204285D02*
X230637200Y-95156666D01*
X230637200Y-95156666D02*
X230684819Y-95061428D01*
X230684819Y-95061428D02*
X230684819Y-94775714D01*
X230684819Y-94775714D02*
X230637200Y-94680476D01*
X230637200Y-94680476D02*
X230589580Y-94632857D01*
X247429580Y-84082142D02*
X247477200Y-84034523D01*
X247477200Y-84034523D02*
X247524819Y-83891666D01*
X247524819Y-83891666D02*
X247524819Y-83796428D01*
X247524819Y-83796428D02*
X247477200Y-83653571D01*
X247477200Y-83653571D02*
X247381961Y-83558333D01*
X247381961Y-83558333D02*
X247286723Y-83510714D01*
X247286723Y-83510714D02*
X247096247Y-83463095D01*
X247096247Y-83463095D02*
X246953390Y-83463095D01*
X246953390Y-83463095D02*
X246762914Y-83510714D01*
X246762914Y-83510714D02*
X246667676Y-83558333D01*
X246667676Y-83558333D02*
X246572438Y-83653571D01*
X246572438Y-83653571D02*
X246524819Y-83796428D01*
X246524819Y-83796428D02*
X246524819Y-83891666D01*
X246524819Y-83891666D02*
X246572438Y-84034523D01*
X246572438Y-84034523D02*
X246620057Y-84082142D01*
X246524819Y-84986904D02*
X246524819Y-84510714D01*
X246524819Y-84510714D02*
X247001009Y-84463095D01*
X247001009Y-84463095D02*
X246953390Y-84510714D01*
X246953390Y-84510714D02*
X246905771Y-84605952D01*
X246905771Y-84605952D02*
X246905771Y-84844047D01*
X246905771Y-84844047D02*
X246953390Y-84939285D01*
X246953390Y-84939285D02*
X247001009Y-84986904D01*
X247001009Y-84986904D02*
X247096247Y-85034523D01*
X247096247Y-85034523D02*
X247334342Y-85034523D01*
X247334342Y-85034523D02*
X247429580Y-84986904D01*
X247429580Y-84986904D02*
X247477200Y-84939285D01*
X247477200Y-84939285D02*
X247524819Y-84844047D01*
X247524819Y-84844047D02*
X247524819Y-84605952D01*
X247524819Y-84605952D02*
X247477200Y-84510714D01*
X247477200Y-84510714D02*
X247429580Y-84463095D01*
X246524819Y-85367857D02*
X246524819Y-86034523D01*
X246524819Y-86034523D02*
X247524819Y-85605952D01*
X231364819Y-112500595D02*
X232174342Y-112500595D01*
X232174342Y-112500595D02*
X232269580Y-112548214D01*
X232269580Y-112548214D02*
X232317200Y-112595833D01*
X232317200Y-112595833D02*
X232364819Y-112691071D01*
X232364819Y-112691071D02*
X232364819Y-112881547D01*
X232364819Y-112881547D02*
X232317200Y-112976785D01*
X232317200Y-112976785D02*
X232269580Y-113024404D01*
X232269580Y-113024404D02*
X232174342Y-113072023D01*
X232174342Y-113072023D02*
X231364819Y-113072023D01*
X231364819Y-113976785D02*
X231364819Y-113786309D01*
X231364819Y-113786309D02*
X231412438Y-113691071D01*
X231412438Y-113691071D02*
X231460057Y-113643452D01*
X231460057Y-113643452D02*
X231602914Y-113548214D01*
X231602914Y-113548214D02*
X231793390Y-113500595D01*
X231793390Y-113500595D02*
X232174342Y-113500595D01*
X232174342Y-113500595D02*
X232269580Y-113548214D01*
X232269580Y-113548214D02*
X232317200Y-113595833D01*
X232317200Y-113595833D02*
X232364819Y-113691071D01*
X232364819Y-113691071D02*
X232364819Y-113881547D01*
X232364819Y-113881547D02*
X232317200Y-113976785D01*
X232317200Y-113976785D02*
X232269580Y-114024404D01*
X232269580Y-114024404D02*
X232174342Y-114072023D01*
X232174342Y-114072023D02*
X231936247Y-114072023D01*
X231936247Y-114072023D02*
X231841009Y-114024404D01*
X231841009Y-114024404D02*
X231793390Y-113976785D01*
X231793390Y-113976785D02*
X231745771Y-113881547D01*
X231745771Y-113881547D02*
X231745771Y-113691071D01*
X231745771Y-113691071D02*
X231793390Y-113595833D01*
X231793390Y-113595833D02*
X231841009Y-113548214D01*
X231841009Y-113548214D02*
X231936247Y-113500595D01*
X252139580Y-72817142D02*
X252187200Y-72769523D01*
X252187200Y-72769523D02*
X252234819Y-72626666D01*
X252234819Y-72626666D02*
X252234819Y-72531428D01*
X252234819Y-72531428D02*
X252187200Y-72388571D01*
X252187200Y-72388571D02*
X252091961Y-72293333D01*
X252091961Y-72293333D02*
X251996723Y-72245714D01*
X251996723Y-72245714D02*
X251806247Y-72198095D01*
X251806247Y-72198095D02*
X251663390Y-72198095D01*
X251663390Y-72198095D02*
X251472914Y-72245714D01*
X251472914Y-72245714D02*
X251377676Y-72293333D01*
X251377676Y-72293333D02*
X251282438Y-72388571D01*
X251282438Y-72388571D02*
X251234819Y-72531428D01*
X251234819Y-72531428D02*
X251234819Y-72626666D01*
X251234819Y-72626666D02*
X251282438Y-72769523D01*
X251282438Y-72769523D02*
X251330057Y-72817142D01*
X252234819Y-73769523D02*
X252234819Y-73198095D01*
X252234819Y-73483809D02*
X251234819Y-73483809D01*
X251234819Y-73483809D02*
X251377676Y-73388571D01*
X251377676Y-73388571D02*
X251472914Y-73293333D01*
X251472914Y-73293333D02*
X251520533Y-73198095D01*
X251234819Y-74674285D02*
X251234819Y-74198095D01*
X251234819Y-74198095D02*
X251711009Y-74150476D01*
X251711009Y-74150476D02*
X251663390Y-74198095D01*
X251663390Y-74198095D02*
X251615771Y-74293333D01*
X251615771Y-74293333D02*
X251615771Y-74531428D01*
X251615771Y-74531428D02*
X251663390Y-74626666D01*
X251663390Y-74626666D02*
X251711009Y-74674285D01*
X251711009Y-74674285D02*
X251806247Y-74721904D01*
X251806247Y-74721904D02*
X252044342Y-74721904D01*
X252044342Y-74721904D02*
X252139580Y-74674285D01*
X252139580Y-74674285D02*
X252187200Y-74626666D01*
X252187200Y-74626666D02*
X252234819Y-74531428D01*
X252234819Y-74531428D02*
X252234819Y-74293333D01*
X252234819Y-74293333D02*
X252187200Y-74198095D01*
X252187200Y-74198095D02*
X252139580Y-74150476D01*
X242599404Y-105794819D02*
X242599404Y-106604342D01*
X242599404Y-106604342D02*
X242551785Y-106699580D01*
X242551785Y-106699580D02*
X242504166Y-106747200D01*
X242504166Y-106747200D02*
X242408928Y-106794819D01*
X242408928Y-106794819D02*
X242218452Y-106794819D01*
X242218452Y-106794819D02*
X242123214Y-106747200D01*
X242123214Y-106747200D02*
X242075595Y-106699580D01*
X242075595Y-106699580D02*
X242027976Y-106604342D01*
X242027976Y-106604342D02*
X242027976Y-105794819D01*
X241647023Y-105794819D02*
X240980357Y-105794819D01*
X240980357Y-105794819D02*
X241408928Y-106794819D01*
X259764819Y-79838095D02*
X260574342Y-79838095D01*
X260574342Y-79838095D02*
X260669580Y-79885714D01*
X260669580Y-79885714D02*
X260717200Y-79933333D01*
X260717200Y-79933333D02*
X260764819Y-80028571D01*
X260764819Y-80028571D02*
X260764819Y-80219047D01*
X260764819Y-80219047D02*
X260717200Y-80314285D01*
X260717200Y-80314285D02*
X260669580Y-80361904D01*
X260669580Y-80361904D02*
X260574342Y-80409523D01*
X260574342Y-80409523D02*
X259764819Y-80409523D01*
X259860057Y-80838095D02*
X259812438Y-80885714D01*
X259812438Y-80885714D02*
X259764819Y-80980952D01*
X259764819Y-80980952D02*
X259764819Y-81219047D01*
X259764819Y-81219047D02*
X259812438Y-81314285D01*
X259812438Y-81314285D02*
X259860057Y-81361904D01*
X259860057Y-81361904D02*
X259955295Y-81409523D01*
X259955295Y-81409523D02*
X260050533Y-81409523D01*
X260050533Y-81409523D02*
X260193390Y-81361904D01*
X260193390Y-81361904D02*
X260764819Y-80790476D01*
X260764819Y-80790476D02*
X260764819Y-81409523D01*
X228612857Y-103869580D02*
X228660476Y-103917200D01*
X228660476Y-103917200D02*
X228803333Y-103964819D01*
X228803333Y-103964819D02*
X228898571Y-103964819D01*
X228898571Y-103964819D02*
X229041428Y-103917200D01*
X229041428Y-103917200D02*
X229136666Y-103821961D01*
X229136666Y-103821961D02*
X229184285Y-103726723D01*
X229184285Y-103726723D02*
X229231904Y-103536247D01*
X229231904Y-103536247D02*
X229231904Y-103393390D01*
X229231904Y-103393390D02*
X229184285Y-103202914D01*
X229184285Y-103202914D02*
X229136666Y-103107676D01*
X229136666Y-103107676D02*
X229041428Y-103012438D01*
X229041428Y-103012438D02*
X228898571Y-102964819D01*
X228898571Y-102964819D02*
X228803333Y-102964819D01*
X228803333Y-102964819D02*
X228660476Y-103012438D01*
X228660476Y-103012438D02*
X228612857Y-103060057D01*
X227708095Y-102964819D02*
X228184285Y-102964819D01*
X228184285Y-102964819D02*
X228231904Y-103441009D01*
X228231904Y-103441009D02*
X228184285Y-103393390D01*
X228184285Y-103393390D02*
X228089047Y-103345771D01*
X228089047Y-103345771D02*
X227850952Y-103345771D01*
X227850952Y-103345771D02*
X227755714Y-103393390D01*
X227755714Y-103393390D02*
X227708095Y-103441009D01*
X227708095Y-103441009D02*
X227660476Y-103536247D01*
X227660476Y-103536247D02*
X227660476Y-103774342D01*
X227660476Y-103774342D02*
X227708095Y-103869580D01*
X227708095Y-103869580D02*
X227755714Y-103917200D01*
X227755714Y-103917200D02*
X227850952Y-103964819D01*
X227850952Y-103964819D02*
X228089047Y-103964819D01*
X228089047Y-103964819D02*
X228184285Y-103917200D01*
X228184285Y-103917200D02*
X228231904Y-103869580D01*
X226803333Y-102964819D02*
X226993809Y-102964819D01*
X226993809Y-102964819D02*
X227089047Y-103012438D01*
X227089047Y-103012438D02*
X227136666Y-103060057D01*
X227136666Y-103060057D02*
X227231904Y-103202914D01*
X227231904Y-103202914D02*
X227279523Y-103393390D01*
X227279523Y-103393390D02*
X227279523Y-103774342D01*
X227279523Y-103774342D02*
X227231904Y-103869580D01*
X227231904Y-103869580D02*
X227184285Y-103917200D01*
X227184285Y-103917200D02*
X227089047Y-103964819D01*
X227089047Y-103964819D02*
X226898571Y-103964819D01*
X226898571Y-103964819D02*
X226803333Y-103917200D01*
X226803333Y-103917200D02*
X226755714Y-103869580D01*
X226755714Y-103869580D02*
X226708095Y-103774342D01*
X226708095Y-103774342D02*
X226708095Y-103536247D01*
X226708095Y-103536247D02*
X226755714Y-103441009D01*
X226755714Y-103441009D02*
X226803333Y-103393390D01*
X226803333Y-103393390D02*
X226898571Y-103345771D01*
X226898571Y-103345771D02*
X227089047Y-103345771D01*
X227089047Y-103345771D02*
X227184285Y-103393390D01*
X227184285Y-103393390D02*
X227231904Y-103441009D01*
X227231904Y-103441009D02*
X227279523Y-103536247D01*
X222112857Y-70294819D02*
X222446190Y-69818628D01*
X222684285Y-70294819D02*
X222684285Y-69294819D01*
X222684285Y-69294819D02*
X222303333Y-69294819D01*
X222303333Y-69294819D02*
X222208095Y-69342438D01*
X222208095Y-69342438D02*
X222160476Y-69390057D01*
X222160476Y-69390057D02*
X222112857Y-69485295D01*
X222112857Y-69485295D02*
X222112857Y-69628152D01*
X222112857Y-69628152D02*
X222160476Y-69723390D01*
X222160476Y-69723390D02*
X222208095Y-69771009D01*
X222208095Y-69771009D02*
X222303333Y-69818628D01*
X222303333Y-69818628D02*
X222684285Y-69818628D01*
X221160476Y-70294819D02*
X221731904Y-70294819D01*
X221446190Y-70294819D02*
X221446190Y-69294819D01*
X221446190Y-69294819D02*
X221541428Y-69437676D01*
X221541428Y-69437676D02*
X221636666Y-69532914D01*
X221636666Y-69532914D02*
X221731904Y-69580533D01*
X220827142Y-69294819D02*
X220208095Y-69294819D01*
X220208095Y-69294819D02*
X220541428Y-69675771D01*
X220541428Y-69675771D02*
X220398571Y-69675771D01*
X220398571Y-69675771D02*
X220303333Y-69723390D01*
X220303333Y-69723390D02*
X220255714Y-69771009D01*
X220255714Y-69771009D02*
X220208095Y-69866247D01*
X220208095Y-69866247D02*
X220208095Y-70104342D01*
X220208095Y-70104342D02*
X220255714Y-70199580D01*
X220255714Y-70199580D02*
X220303333Y-70247200D01*
X220303333Y-70247200D02*
X220398571Y-70294819D01*
X220398571Y-70294819D02*
X220684285Y-70294819D01*
X220684285Y-70294819D02*
X220779523Y-70247200D01*
X220779523Y-70247200D02*
X220827142Y-70199580D01*
X253299580Y-94907142D02*
X253347200Y-94859523D01*
X253347200Y-94859523D02*
X253394819Y-94716666D01*
X253394819Y-94716666D02*
X253394819Y-94621428D01*
X253394819Y-94621428D02*
X253347200Y-94478571D01*
X253347200Y-94478571D02*
X253251961Y-94383333D01*
X253251961Y-94383333D02*
X253156723Y-94335714D01*
X253156723Y-94335714D02*
X252966247Y-94288095D01*
X252966247Y-94288095D02*
X252823390Y-94288095D01*
X252823390Y-94288095D02*
X252632914Y-94335714D01*
X252632914Y-94335714D02*
X252537676Y-94383333D01*
X252537676Y-94383333D02*
X252442438Y-94478571D01*
X252442438Y-94478571D02*
X252394819Y-94621428D01*
X252394819Y-94621428D02*
X252394819Y-94716666D01*
X252394819Y-94716666D02*
X252442438Y-94859523D01*
X252442438Y-94859523D02*
X252490057Y-94907142D01*
X252394819Y-95764285D02*
X252394819Y-95573809D01*
X252394819Y-95573809D02*
X252442438Y-95478571D01*
X252442438Y-95478571D02*
X252490057Y-95430952D01*
X252490057Y-95430952D02*
X252632914Y-95335714D01*
X252632914Y-95335714D02*
X252823390Y-95288095D01*
X252823390Y-95288095D02*
X253204342Y-95288095D01*
X253204342Y-95288095D02*
X253299580Y-95335714D01*
X253299580Y-95335714D02*
X253347200Y-95383333D01*
X253347200Y-95383333D02*
X253394819Y-95478571D01*
X253394819Y-95478571D02*
X253394819Y-95669047D01*
X253394819Y-95669047D02*
X253347200Y-95764285D01*
X253347200Y-95764285D02*
X253299580Y-95811904D01*
X253299580Y-95811904D02*
X253204342Y-95859523D01*
X253204342Y-95859523D02*
X252966247Y-95859523D01*
X252966247Y-95859523D02*
X252871009Y-95811904D01*
X252871009Y-95811904D02*
X252823390Y-95764285D01*
X252823390Y-95764285D02*
X252775771Y-95669047D01*
X252775771Y-95669047D02*
X252775771Y-95478571D01*
X252775771Y-95478571D02*
X252823390Y-95383333D01*
X252823390Y-95383333D02*
X252871009Y-95335714D01*
X252871009Y-95335714D02*
X252966247Y-95288095D01*
X252490057Y-96240476D02*
X252442438Y-96288095D01*
X252442438Y-96288095D02*
X252394819Y-96383333D01*
X252394819Y-96383333D02*
X252394819Y-96621428D01*
X252394819Y-96621428D02*
X252442438Y-96716666D01*
X252442438Y-96716666D02*
X252490057Y-96764285D01*
X252490057Y-96764285D02*
X252585295Y-96811904D01*
X252585295Y-96811904D02*
X252680533Y-96811904D01*
X252680533Y-96811904D02*
X252823390Y-96764285D01*
X252823390Y-96764285D02*
X253394819Y-96192857D01*
X253394819Y-96192857D02*
X253394819Y-96811904D01*
X265454819Y-55863333D02*
X264978628Y-55530000D01*
X265454819Y-55291905D02*
X264454819Y-55291905D01*
X264454819Y-55291905D02*
X264454819Y-55672857D01*
X264454819Y-55672857D02*
X264502438Y-55768095D01*
X264502438Y-55768095D02*
X264550057Y-55815714D01*
X264550057Y-55815714D02*
X264645295Y-55863333D01*
X264645295Y-55863333D02*
X264788152Y-55863333D01*
X264788152Y-55863333D02*
X264883390Y-55815714D01*
X264883390Y-55815714D02*
X264931009Y-55768095D01*
X264931009Y-55768095D02*
X264978628Y-55672857D01*
X264978628Y-55672857D02*
X264978628Y-55291905D01*
X264788152Y-56720476D02*
X265454819Y-56720476D01*
X264407200Y-56482381D02*
X265121485Y-56244286D01*
X265121485Y-56244286D02*
X265121485Y-56863333D01*
X266712857Y-93294819D02*
X267046190Y-92818628D01*
X267284285Y-93294819D02*
X267284285Y-92294819D01*
X267284285Y-92294819D02*
X266903333Y-92294819D01*
X266903333Y-92294819D02*
X266808095Y-92342438D01*
X266808095Y-92342438D02*
X266760476Y-92390057D01*
X266760476Y-92390057D02*
X266712857Y-92485295D01*
X266712857Y-92485295D02*
X266712857Y-92628152D01*
X266712857Y-92628152D02*
X266760476Y-92723390D01*
X266760476Y-92723390D02*
X266808095Y-92771009D01*
X266808095Y-92771009D02*
X266903333Y-92818628D01*
X266903333Y-92818628D02*
X267284285Y-92818628D01*
X266379523Y-92294819D02*
X265760476Y-92294819D01*
X265760476Y-92294819D02*
X266093809Y-92675771D01*
X266093809Y-92675771D02*
X265950952Y-92675771D01*
X265950952Y-92675771D02*
X265855714Y-92723390D01*
X265855714Y-92723390D02*
X265808095Y-92771009D01*
X265808095Y-92771009D02*
X265760476Y-92866247D01*
X265760476Y-92866247D02*
X265760476Y-93104342D01*
X265760476Y-93104342D02*
X265808095Y-93199580D01*
X265808095Y-93199580D02*
X265855714Y-93247200D01*
X265855714Y-93247200D02*
X265950952Y-93294819D01*
X265950952Y-93294819D02*
X266236666Y-93294819D01*
X266236666Y-93294819D02*
X266331904Y-93247200D01*
X266331904Y-93247200D02*
X266379523Y-93199580D01*
X264903333Y-92628152D02*
X264903333Y-93294819D01*
X265141428Y-92247200D02*
X265379523Y-92961485D01*
X265379523Y-92961485D02*
X264760476Y-92961485D01*
X258422857Y-85419580D02*
X258470476Y-85467200D01*
X258470476Y-85467200D02*
X258613333Y-85514819D01*
X258613333Y-85514819D02*
X258708571Y-85514819D01*
X258708571Y-85514819D02*
X258851428Y-85467200D01*
X258851428Y-85467200D02*
X258946666Y-85371961D01*
X258946666Y-85371961D02*
X258994285Y-85276723D01*
X258994285Y-85276723D02*
X259041904Y-85086247D01*
X259041904Y-85086247D02*
X259041904Y-84943390D01*
X259041904Y-84943390D02*
X258994285Y-84752914D01*
X258994285Y-84752914D02*
X258946666Y-84657676D01*
X258946666Y-84657676D02*
X258851428Y-84562438D01*
X258851428Y-84562438D02*
X258708571Y-84514819D01*
X258708571Y-84514819D02*
X258613333Y-84514819D01*
X258613333Y-84514819D02*
X258470476Y-84562438D01*
X258470476Y-84562438D02*
X258422857Y-84610057D01*
X258041904Y-84610057D02*
X257994285Y-84562438D01*
X257994285Y-84562438D02*
X257899047Y-84514819D01*
X257899047Y-84514819D02*
X257660952Y-84514819D01*
X257660952Y-84514819D02*
X257565714Y-84562438D01*
X257565714Y-84562438D02*
X257518095Y-84610057D01*
X257518095Y-84610057D02*
X257470476Y-84705295D01*
X257470476Y-84705295D02*
X257470476Y-84800533D01*
X257470476Y-84800533D02*
X257518095Y-84943390D01*
X257518095Y-84943390D02*
X258089523Y-85514819D01*
X258089523Y-85514819D02*
X257470476Y-85514819D01*
X257137142Y-84514819D02*
X256470476Y-84514819D01*
X256470476Y-84514819D02*
X256899047Y-85514819D01*
X222629580Y-57473333D02*
X222677200Y-57425714D01*
X222677200Y-57425714D02*
X222724819Y-57282857D01*
X222724819Y-57282857D02*
X222724819Y-57187619D01*
X222724819Y-57187619D02*
X222677200Y-57044762D01*
X222677200Y-57044762D02*
X222581961Y-56949524D01*
X222581961Y-56949524D02*
X222486723Y-56901905D01*
X222486723Y-56901905D02*
X222296247Y-56854286D01*
X222296247Y-56854286D02*
X222153390Y-56854286D01*
X222153390Y-56854286D02*
X221962914Y-56901905D01*
X221962914Y-56901905D02*
X221867676Y-56949524D01*
X221867676Y-56949524D02*
X221772438Y-57044762D01*
X221772438Y-57044762D02*
X221724819Y-57187619D01*
X221724819Y-57187619D02*
X221724819Y-57282857D01*
X221724819Y-57282857D02*
X221772438Y-57425714D01*
X221772438Y-57425714D02*
X221820057Y-57473333D01*
X222153390Y-58044762D02*
X222105771Y-57949524D01*
X222105771Y-57949524D02*
X222058152Y-57901905D01*
X222058152Y-57901905D02*
X221962914Y-57854286D01*
X221962914Y-57854286D02*
X221915295Y-57854286D01*
X221915295Y-57854286D02*
X221820057Y-57901905D01*
X221820057Y-57901905D02*
X221772438Y-57949524D01*
X221772438Y-57949524D02*
X221724819Y-58044762D01*
X221724819Y-58044762D02*
X221724819Y-58235238D01*
X221724819Y-58235238D02*
X221772438Y-58330476D01*
X221772438Y-58330476D02*
X221820057Y-58378095D01*
X221820057Y-58378095D02*
X221915295Y-58425714D01*
X221915295Y-58425714D02*
X221962914Y-58425714D01*
X221962914Y-58425714D02*
X222058152Y-58378095D01*
X222058152Y-58378095D02*
X222105771Y-58330476D01*
X222105771Y-58330476D02*
X222153390Y-58235238D01*
X222153390Y-58235238D02*
X222153390Y-58044762D01*
X222153390Y-58044762D02*
X222201009Y-57949524D01*
X222201009Y-57949524D02*
X222248628Y-57901905D01*
X222248628Y-57901905D02*
X222343866Y-57854286D01*
X222343866Y-57854286D02*
X222534342Y-57854286D01*
X222534342Y-57854286D02*
X222629580Y-57901905D01*
X222629580Y-57901905D02*
X222677200Y-57949524D01*
X222677200Y-57949524D02*
X222724819Y-58044762D01*
X222724819Y-58044762D02*
X222724819Y-58235238D01*
X222724819Y-58235238D02*
X222677200Y-58330476D01*
X222677200Y-58330476D02*
X222629580Y-58378095D01*
X222629580Y-58378095D02*
X222534342Y-58425714D01*
X222534342Y-58425714D02*
X222343866Y-58425714D01*
X222343866Y-58425714D02*
X222248628Y-58378095D01*
X222248628Y-58378095D02*
X222201009Y-58330476D01*
X222201009Y-58330476D02*
X222153390Y-58235238D01*
X220339580Y-110082142D02*
X220387200Y-110034523D01*
X220387200Y-110034523D02*
X220434819Y-109891666D01*
X220434819Y-109891666D02*
X220434819Y-109796428D01*
X220434819Y-109796428D02*
X220387200Y-109653571D01*
X220387200Y-109653571D02*
X220291961Y-109558333D01*
X220291961Y-109558333D02*
X220196723Y-109510714D01*
X220196723Y-109510714D02*
X220006247Y-109463095D01*
X220006247Y-109463095D02*
X219863390Y-109463095D01*
X219863390Y-109463095D02*
X219672914Y-109510714D01*
X219672914Y-109510714D02*
X219577676Y-109558333D01*
X219577676Y-109558333D02*
X219482438Y-109653571D01*
X219482438Y-109653571D02*
X219434819Y-109796428D01*
X219434819Y-109796428D02*
X219434819Y-109891666D01*
X219434819Y-109891666D02*
X219482438Y-110034523D01*
X219482438Y-110034523D02*
X219530057Y-110082142D01*
X219434819Y-110415476D02*
X219434819Y-111034523D01*
X219434819Y-111034523D02*
X219815771Y-110701190D01*
X219815771Y-110701190D02*
X219815771Y-110844047D01*
X219815771Y-110844047D02*
X219863390Y-110939285D01*
X219863390Y-110939285D02*
X219911009Y-110986904D01*
X219911009Y-110986904D02*
X220006247Y-111034523D01*
X220006247Y-111034523D02*
X220244342Y-111034523D01*
X220244342Y-111034523D02*
X220339580Y-110986904D01*
X220339580Y-110986904D02*
X220387200Y-110939285D01*
X220387200Y-110939285D02*
X220434819Y-110844047D01*
X220434819Y-110844047D02*
X220434819Y-110558333D01*
X220434819Y-110558333D02*
X220387200Y-110463095D01*
X220387200Y-110463095D02*
X220339580Y-110415476D01*
X219863390Y-111605952D02*
X219815771Y-111510714D01*
X219815771Y-111510714D02*
X219768152Y-111463095D01*
X219768152Y-111463095D02*
X219672914Y-111415476D01*
X219672914Y-111415476D02*
X219625295Y-111415476D01*
X219625295Y-111415476D02*
X219530057Y-111463095D01*
X219530057Y-111463095D02*
X219482438Y-111510714D01*
X219482438Y-111510714D02*
X219434819Y-111605952D01*
X219434819Y-111605952D02*
X219434819Y-111796428D01*
X219434819Y-111796428D02*
X219482438Y-111891666D01*
X219482438Y-111891666D02*
X219530057Y-111939285D01*
X219530057Y-111939285D02*
X219625295Y-111986904D01*
X219625295Y-111986904D02*
X219672914Y-111986904D01*
X219672914Y-111986904D02*
X219768152Y-111939285D01*
X219768152Y-111939285D02*
X219815771Y-111891666D01*
X219815771Y-111891666D02*
X219863390Y-111796428D01*
X219863390Y-111796428D02*
X219863390Y-111605952D01*
X219863390Y-111605952D02*
X219911009Y-111510714D01*
X219911009Y-111510714D02*
X219958628Y-111463095D01*
X219958628Y-111463095D02*
X220053866Y-111415476D01*
X220053866Y-111415476D02*
X220244342Y-111415476D01*
X220244342Y-111415476D02*
X220339580Y-111463095D01*
X220339580Y-111463095D02*
X220387200Y-111510714D01*
X220387200Y-111510714D02*
X220434819Y-111605952D01*
X220434819Y-111605952D02*
X220434819Y-111796428D01*
X220434819Y-111796428D02*
X220387200Y-111891666D01*
X220387200Y-111891666D02*
X220339580Y-111939285D01*
X220339580Y-111939285D02*
X220244342Y-111986904D01*
X220244342Y-111986904D02*
X220053866Y-111986904D01*
X220053866Y-111986904D02*
X219958628Y-111939285D01*
X219958628Y-111939285D02*
X219911009Y-111891666D01*
X219911009Y-111891666D02*
X219863390Y-111796428D01*
X231742857Y-66204819D02*
X232076190Y-65728628D01*
X232314285Y-66204819D02*
X232314285Y-65204819D01*
X232314285Y-65204819D02*
X231933333Y-65204819D01*
X231933333Y-65204819D02*
X231838095Y-65252438D01*
X231838095Y-65252438D02*
X231790476Y-65300057D01*
X231790476Y-65300057D02*
X231742857Y-65395295D01*
X231742857Y-65395295D02*
X231742857Y-65538152D01*
X231742857Y-65538152D02*
X231790476Y-65633390D01*
X231790476Y-65633390D02*
X231838095Y-65681009D01*
X231838095Y-65681009D02*
X231933333Y-65728628D01*
X231933333Y-65728628D02*
X232314285Y-65728628D01*
X230790476Y-66204819D02*
X231361904Y-66204819D01*
X231076190Y-66204819D02*
X231076190Y-65204819D01*
X231076190Y-65204819D02*
X231171428Y-65347676D01*
X231171428Y-65347676D02*
X231266666Y-65442914D01*
X231266666Y-65442914D02*
X231361904Y-65490533D01*
X229933333Y-65538152D02*
X229933333Y-66204819D01*
X230171428Y-65157200D02*
X230409523Y-65871485D01*
X230409523Y-65871485D02*
X229790476Y-65871485D01*
X254752857Y-91589580D02*
X254800476Y-91637200D01*
X254800476Y-91637200D02*
X254943333Y-91684819D01*
X254943333Y-91684819D02*
X255038571Y-91684819D01*
X255038571Y-91684819D02*
X255181428Y-91637200D01*
X255181428Y-91637200D02*
X255276666Y-91541961D01*
X255276666Y-91541961D02*
X255324285Y-91446723D01*
X255324285Y-91446723D02*
X255371904Y-91256247D01*
X255371904Y-91256247D02*
X255371904Y-91113390D01*
X255371904Y-91113390D02*
X255324285Y-90922914D01*
X255324285Y-90922914D02*
X255276666Y-90827676D01*
X255276666Y-90827676D02*
X255181428Y-90732438D01*
X255181428Y-90732438D02*
X255038571Y-90684819D01*
X255038571Y-90684819D02*
X254943333Y-90684819D01*
X254943333Y-90684819D02*
X254800476Y-90732438D01*
X254800476Y-90732438D02*
X254752857Y-90780057D01*
X253848095Y-90684819D02*
X254324285Y-90684819D01*
X254324285Y-90684819D02*
X254371904Y-91161009D01*
X254371904Y-91161009D02*
X254324285Y-91113390D01*
X254324285Y-91113390D02*
X254229047Y-91065771D01*
X254229047Y-91065771D02*
X253990952Y-91065771D01*
X253990952Y-91065771D02*
X253895714Y-91113390D01*
X253895714Y-91113390D02*
X253848095Y-91161009D01*
X253848095Y-91161009D02*
X253800476Y-91256247D01*
X253800476Y-91256247D02*
X253800476Y-91494342D01*
X253800476Y-91494342D02*
X253848095Y-91589580D01*
X253848095Y-91589580D02*
X253895714Y-91637200D01*
X253895714Y-91637200D02*
X253990952Y-91684819D01*
X253990952Y-91684819D02*
X254229047Y-91684819D01*
X254229047Y-91684819D02*
X254324285Y-91637200D01*
X254324285Y-91637200D02*
X254371904Y-91589580D01*
X252848095Y-91684819D02*
X253419523Y-91684819D01*
X253133809Y-91684819D02*
X253133809Y-90684819D01*
X253133809Y-90684819D02*
X253229047Y-90827676D01*
X253229047Y-90827676D02*
X253324285Y-90922914D01*
X253324285Y-90922914D02*
X253419523Y-90970533D01*
X270539580Y-60163333D02*
X270587200Y-60115714D01*
X270587200Y-60115714D02*
X270634819Y-59972857D01*
X270634819Y-59972857D02*
X270634819Y-59877619D01*
X270634819Y-59877619D02*
X270587200Y-59734762D01*
X270587200Y-59734762D02*
X270491961Y-59639524D01*
X270491961Y-59639524D02*
X270396723Y-59591905D01*
X270396723Y-59591905D02*
X270206247Y-59544286D01*
X270206247Y-59544286D02*
X270063390Y-59544286D01*
X270063390Y-59544286D02*
X269872914Y-59591905D01*
X269872914Y-59591905D02*
X269777676Y-59639524D01*
X269777676Y-59639524D02*
X269682438Y-59734762D01*
X269682438Y-59734762D02*
X269634819Y-59877619D01*
X269634819Y-59877619D02*
X269634819Y-59972857D01*
X269634819Y-59972857D02*
X269682438Y-60115714D01*
X269682438Y-60115714D02*
X269730057Y-60163333D01*
X270634819Y-61115714D02*
X270634819Y-60544286D01*
X270634819Y-60830000D02*
X269634819Y-60830000D01*
X269634819Y-60830000D02*
X269777676Y-60734762D01*
X269777676Y-60734762D02*
X269872914Y-60639524D01*
X269872914Y-60639524D02*
X269920533Y-60544286D01*
X254862857Y-86069580D02*
X254910476Y-86117200D01*
X254910476Y-86117200D02*
X255053333Y-86164819D01*
X255053333Y-86164819D02*
X255148571Y-86164819D01*
X255148571Y-86164819D02*
X255291428Y-86117200D01*
X255291428Y-86117200D02*
X255386666Y-86021961D01*
X255386666Y-86021961D02*
X255434285Y-85926723D01*
X255434285Y-85926723D02*
X255481904Y-85736247D01*
X255481904Y-85736247D02*
X255481904Y-85593390D01*
X255481904Y-85593390D02*
X255434285Y-85402914D01*
X255434285Y-85402914D02*
X255386666Y-85307676D01*
X255386666Y-85307676D02*
X255291428Y-85212438D01*
X255291428Y-85212438D02*
X255148571Y-85164819D01*
X255148571Y-85164819D02*
X255053333Y-85164819D01*
X255053333Y-85164819D02*
X254910476Y-85212438D01*
X254910476Y-85212438D02*
X254862857Y-85260057D01*
X254005714Y-85164819D02*
X254196190Y-85164819D01*
X254196190Y-85164819D02*
X254291428Y-85212438D01*
X254291428Y-85212438D02*
X254339047Y-85260057D01*
X254339047Y-85260057D02*
X254434285Y-85402914D01*
X254434285Y-85402914D02*
X254481904Y-85593390D01*
X254481904Y-85593390D02*
X254481904Y-85974342D01*
X254481904Y-85974342D02*
X254434285Y-86069580D01*
X254434285Y-86069580D02*
X254386666Y-86117200D01*
X254386666Y-86117200D02*
X254291428Y-86164819D01*
X254291428Y-86164819D02*
X254100952Y-86164819D01*
X254100952Y-86164819D02*
X254005714Y-86117200D01*
X254005714Y-86117200D02*
X253958095Y-86069580D01*
X253958095Y-86069580D02*
X253910476Y-85974342D01*
X253910476Y-85974342D02*
X253910476Y-85736247D01*
X253910476Y-85736247D02*
X253958095Y-85641009D01*
X253958095Y-85641009D02*
X254005714Y-85593390D01*
X254005714Y-85593390D02*
X254100952Y-85545771D01*
X254100952Y-85545771D02*
X254291428Y-85545771D01*
X254291428Y-85545771D02*
X254386666Y-85593390D01*
X254386666Y-85593390D02*
X254434285Y-85641009D01*
X254434285Y-85641009D02*
X254481904Y-85736247D01*
X253577142Y-85164819D02*
X252958095Y-85164819D01*
X252958095Y-85164819D02*
X253291428Y-85545771D01*
X253291428Y-85545771D02*
X253148571Y-85545771D01*
X253148571Y-85545771D02*
X253053333Y-85593390D01*
X253053333Y-85593390D02*
X253005714Y-85641009D01*
X253005714Y-85641009D02*
X252958095Y-85736247D01*
X252958095Y-85736247D02*
X252958095Y-85974342D01*
X252958095Y-85974342D02*
X253005714Y-86069580D01*
X253005714Y-86069580D02*
X253053333Y-86117200D01*
X253053333Y-86117200D02*
X253148571Y-86164819D01*
X253148571Y-86164819D02*
X253434285Y-86164819D01*
X253434285Y-86164819D02*
X253529523Y-86117200D01*
X253529523Y-86117200D02*
X253577142Y-86069580D01*
X226927857Y-111724819D02*
X227261190Y-111248628D01*
X227499285Y-111724819D02*
X227499285Y-110724819D01*
X227499285Y-110724819D02*
X227118333Y-110724819D01*
X227118333Y-110724819D02*
X227023095Y-110772438D01*
X227023095Y-110772438D02*
X226975476Y-110820057D01*
X226975476Y-110820057D02*
X226927857Y-110915295D01*
X226927857Y-110915295D02*
X226927857Y-111058152D01*
X226927857Y-111058152D02*
X226975476Y-111153390D01*
X226975476Y-111153390D02*
X227023095Y-111201009D01*
X227023095Y-111201009D02*
X227118333Y-111248628D01*
X227118333Y-111248628D02*
X227499285Y-111248628D01*
X226594523Y-110724819D02*
X225975476Y-110724819D01*
X225975476Y-110724819D02*
X226308809Y-111105771D01*
X226308809Y-111105771D02*
X226165952Y-111105771D01*
X226165952Y-111105771D02*
X226070714Y-111153390D01*
X226070714Y-111153390D02*
X226023095Y-111201009D01*
X226023095Y-111201009D02*
X225975476Y-111296247D01*
X225975476Y-111296247D02*
X225975476Y-111534342D01*
X225975476Y-111534342D02*
X226023095Y-111629580D01*
X226023095Y-111629580D02*
X226070714Y-111677200D01*
X226070714Y-111677200D02*
X226165952Y-111724819D01*
X226165952Y-111724819D02*
X226451666Y-111724819D01*
X226451666Y-111724819D02*
X226546904Y-111677200D01*
X226546904Y-111677200D02*
X226594523Y-111629580D01*
X225404047Y-111153390D02*
X225499285Y-111105771D01*
X225499285Y-111105771D02*
X225546904Y-111058152D01*
X225546904Y-111058152D02*
X225594523Y-110962914D01*
X225594523Y-110962914D02*
X225594523Y-110915295D01*
X225594523Y-110915295D02*
X225546904Y-110820057D01*
X225546904Y-110820057D02*
X225499285Y-110772438D01*
X225499285Y-110772438D02*
X225404047Y-110724819D01*
X225404047Y-110724819D02*
X225213571Y-110724819D01*
X225213571Y-110724819D02*
X225118333Y-110772438D01*
X225118333Y-110772438D02*
X225070714Y-110820057D01*
X225070714Y-110820057D02*
X225023095Y-110915295D01*
X225023095Y-110915295D02*
X225023095Y-110962914D01*
X225023095Y-110962914D02*
X225070714Y-111058152D01*
X225070714Y-111058152D02*
X225118333Y-111105771D01*
X225118333Y-111105771D02*
X225213571Y-111153390D01*
X225213571Y-111153390D02*
X225404047Y-111153390D01*
X225404047Y-111153390D02*
X225499285Y-111201009D01*
X225499285Y-111201009D02*
X225546904Y-111248628D01*
X225546904Y-111248628D02*
X225594523Y-111343866D01*
X225594523Y-111343866D02*
X225594523Y-111534342D01*
X225594523Y-111534342D02*
X225546904Y-111629580D01*
X225546904Y-111629580D02*
X225499285Y-111677200D01*
X225499285Y-111677200D02*
X225404047Y-111724819D01*
X225404047Y-111724819D02*
X225213571Y-111724819D01*
X225213571Y-111724819D02*
X225118333Y-111677200D01*
X225118333Y-111677200D02*
X225070714Y-111629580D01*
X225070714Y-111629580D02*
X225023095Y-111534342D01*
X225023095Y-111534342D02*
X225023095Y-111343866D01*
X225023095Y-111343866D02*
X225070714Y-111248628D01*
X225070714Y-111248628D02*
X225118333Y-111201009D01*
X225118333Y-111201009D02*
X225213571Y-111153390D01*
X227589580Y-55367142D02*
X227637200Y-55319523D01*
X227637200Y-55319523D02*
X227684819Y-55176666D01*
X227684819Y-55176666D02*
X227684819Y-55081428D01*
X227684819Y-55081428D02*
X227637200Y-54938571D01*
X227637200Y-54938571D02*
X227541961Y-54843333D01*
X227541961Y-54843333D02*
X227446723Y-54795714D01*
X227446723Y-54795714D02*
X227256247Y-54748095D01*
X227256247Y-54748095D02*
X227113390Y-54748095D01*
X227113390Y-54748095D02*
X226922914Y-54795714D01*
X226922914Y-54795714D02*
X226827676Y-54843333D01*
X226827676Y-54843333D02*
X226732438Y-54938571D01*
X226732438Y-54938571D02*
X226684819Y-55081428D01*
X226684819Y-55081428D02*
X226684819Y-55176666D01*
X226684819Y-55176666D02*
X226732438Y-55319523D01*
X226732438Y-55319523D02*
X226780057Y-55367142D01*
X227684819Y-56319523D02*
X227684819Y-55748095D01*
X227684819Y-56033809D02*
X226684819Y-56033809D01*
X226684819Y-56033809D02*
X226827676Y-55938571D01*
X226827676Y-55938571D02*
X226922914Y-55843333D01*
X226922914Y-55843333D02*
X226970533Y-55748095D01*
X227684819Y-57271904D02*
X227684819Y-56700476D01*
X227684819Y-56986190D02*
X226684819Y-56986190D01*
X226684819Y-56986190D02*
X226827676Y-56890952D01*
X226827676Y-56890952D02*
X226922914Y-56795714D01*
X226922914Y-56795714D02*
X226970533Y-56700476D01*
D12*
%TO.C,U9*%
X264160000Y-64547500D02*
X263830000Y-64787500D01*
X263830000Y-64307500D01*
X264160000Y-64547500D01*
G36*
X264160000Y-64547500D02*
G01*
X263830000Y-64787500D01*
X263830000Y-64307500D01*
X264160000Y-64547500D01*
G37*
X267230000Y-66647500D02*
X267230000Y-65847500D01*
X267230000Y-65047500D02*
X267230000Y-65847500D01*
X264110000Y-66647500D02*
X264110000Y-65847500D01*
X264110000Y-65047500D02*
X264110000Y-65847500D01*
%TO.C,R50*%
X268102742Y-86987500D02*
X268577258Y-86987500D01*
X268102742Y-88032500D02*
X268577258Y-88032500D01*
%TO.C,R49*%
X264372258Y-72682500D02*
X263897742Y-72682500D01*
X264372258Y-71637500D02*
X263897742Y-71637500D01*
%TO.C,R48*%
X262657258Y-67152500D02*
X262182742Y-67152500D01*
X262657258Y-66107500D02*
X262182742Y-66107500D01*
%TO.C,C65*%
X262400000Y-68929420D02*
X262400000Y-69210580D01*
X261380000Y-68929420D02*
X261380000Y-69210580D01*
%TO.C,C6*%
X266690000Y-82860580D02*
X266690000Y-82579420D01*
X267710000Y-82860580D02*
X267710000Y-82579420D01*
%TO.C,C4*%
X268520580Y-86560000D02*
X268239420Y-86560000D01*
X268520580Y-85540000D02*
X268239420Y-85540000D01*
%TO.C,C10*%
X222990000Y-59084420D02*
X222990000Y-59365580D01*
X224010000Y-59084420D02*
X224010000Y-59365580D01*
%TO.C,C3*%
X257850580Y-70960000D02*
X257569420Y-70960000D01*
X257850580Y-71980000D02*
X257569420Y-71980000D01*
%TO.C,U8*%
X222815000Y-93150000D02*
X222815000Y-87160000D01*
X228035000Y-93150000D02*
X228035000Y-87150000D01*
X223115000Y-86920000D02*
X222635000Y-86920000D01*
X223115000Y-86440000D01*
X223115000Y-86920000D01*
G36*
X223115000Y-86920000D02*
G01*
X222635000Y-86920000D01*
X223115000Y-86440000D01*
X223115000Y-86920000D01*
G37*
%TO.C,U5*%
X221450000Y-112987500D02*
X221450000Y-113637500D01*
X221450000Y-114287500D02*
X221450000Y-113637500D01*
X224570000Y-112987500D02*
X224570000Y-113637500D01*
X224570000Y-114287500D02*
X224570000Y-113637500D01*
X221500000Y-112475000D02*
X221170000Y-112715000D01*
X221170000Y-112235000D01*
X221500000Y-112475000D01*
G36*
X221500000Y-112475000D02*
G01*
X221170000Y-112715000D01*
X221170000Y-112235000D01*
X221500000Y-112475000D01*
G37*
%TO.C,C58*%
X254628080Y-81052500D02*
X254346920Y-81052500D01*
X254628080Y-82072500D02*
X254346920Y-82072500D01*
%TO.C,R41*%
X244017742Y-98237500D02*
X244492258Y-98237500D01*
X244017742Y-99282500D02*
X244492258Y-99282500D01*
%TO.C,C46*%
X246990000Y-94584420D02*
X246990000Y-94865580D01*
X248010000Y-94584420D02*
X248010000Y-94865580D01*
%TO.C,C19*%
X257619420Y-83330000D02*
X257900580Y-83330000D01*
X257619420Y-84350000D02*
X257900580Y-84350000D01*
%TO.C,Y2*%
X233125000Y-92075000D02*
X233125000Y-93425000D01*
X234875000Y-92075000D02*
X234875000Y-93425000D01*
%TO.C,L2*%
X261560000Y-98855000D02*
X261560000Y-101855000D01*
X264880000Y-98855000D02*
X264880000Y-100355000D01*
%TO.C,C49*%
X243840000Y-94584420D02*
X243840000Y-94865580D01*
X244860000Y-94584420D02*
X244860000Y-94865580D01*
%TO.C,R21*%
X223142258Y-52257500D02*
X222667742Y-52257500D01*
X223142258Y-53302500D02*
X222667742Y-53302500D01*
%TO.C,C5*%
X252690000Y-76364420D02*
X252690000Y-76645580D01*
X253710000Y-76364420D02*
X253710000Y-76645580D01*
%TO.C,X1*%
X232450000Y-79550000D02*
X236250000Y-79550000D01*
X236250000Y-79550000D02*
X236250000Y-76400000D01*
%TO.C,C13*%
X247510580Y-98230000D02*
X247229420Y-98230000D01*
X247510580Y-99250000D02*
X247229420Y-99250000D01*
%TO.C,L3*%
X243530000Y-101330000D02*
X240530000Y-101330000D01*
X243530000Y-104650000D02*
X242030000Y-104650000D01*
%TO.C,R33*%
X237637500Y-110697258D02*
X237637500Y-110222742D01*
X238682500Y-110697258D02*
X238682500Y-110222742D01*
%TO.C,C17*%
X265390000Y-87365580D02*
X265390000Y-87084420D01*
X266410000Y-87365580D02*
X266410000Y-87084420D01*
%TO.C,C54*%
X238020000Y-103179420D02*
X238020000Y-103460580D01*
X239040000Y-103179420D02*
X239040000Y-103460580D01*
%TO.C,C43*%
X226094420Y-114190000D02*
X226375580Y-114190000D01*
X226094420Y-115210000D02*
X226375580Y-115210000D01*
%TO.C,C40*%
X241865580Y-94990000D02*
X241584420Y-94990000D01*
X241865580Y-96010000D02*
X241584420Y-96010000D01*
%TO.C,R2*%
X269977500Y-53562258D02*
X269977500Y-53087742D01*
X271022500Y-53562258D02*
X271022500Y-53087742D01*
%TO.C,C20*%
X230080580Y-81960000D02*
X229799420Y-81960000D01*
X230080580Y-82980000D02*
X229799420Y-82980000D01*
%TO.C,C9*%
X220990000Y-55365580D02*
X220990000Y-55084420D01*
X222010000Y-55365580D02*
X222010000Y-55084420D01*
%TO.C,C53*%
X237880000Y-107010580D02*
X237880000Y-106729420D01*
X238900000Y-107010580D02*
X238900000Y-106729420D01*
%TO.C,C14*%
X262840580Y-110350000D02*
X262559420Y-110350000D01*
X262840580Y-111370000D02*
X262559420Y-111370000D01*
%TO.C,C50*%
X251034420Y-87740000D02*
X251315580Y-87740000D01*
X251034420Y-88760000D02*
X251315580Y-88760000D01*
%TO.C,XS1*%
X237700000Y-54550000D02*
X237700000Y-56350000D01*
X237700000Y-57650000D02*
X237700000Y-62350000D01*
X237700000Y-64050000D02*
X237700000Y-67660000D01*
X237700000Y-67660000D02*
X238150000Y-67660000D01*
X238530000Y-51590000D02*
X238730000Y-51390000D01*
X240590000Y-51390000D02*
X238730000Y-51390000D01*
X240800000Y-51590000D02*
X240590000Y-51390000D01*
X240800000Y-51590000D02*
X240800000Y-51740000D01*
X247170000Y-51740000D02*
X240800000Y-51740000D01*
X247170000Y-51740000D02*
X247680000Y-51390000D01*
X247680000Y-51390000D02*
X249990000Y-51390000D01*
X250190000Y-51590000D02*
X249990000Y-51390000D01*
X250450000Y-51590000D02*
X250190000Y-51590000D01*
X251670000Y-53650000D02*
X251670000Y-67660000D01*
X251670000Y-67660000D02*
X249750000Y-67660000D01*
%TO.C,C47*%
X242634420Y-83520000D02*
X242915580Y-83520000D01*
X242634420Y-84540000D02*
X242915580Y-84540000D01*
%TO.C,C42*%
X233544420Y-112690000D02*
X233825580Y-112690000D01*
X233544420Y-113710000D02*
X233825580Y-113710000D01*
%TO.C,C48*%
X250984420Y-89440000D02*
X251265580Y-89440000D01*
X250984420Y-90460000D02*
X251265580Y-90460000D01*
%TO.C,U1*%
X222552500Y-72140000D02*
X223002500Y-72140000D01*
X222552500Y-72590000D02*
X222552500Y-72140000D01*
X222552500Y-78910000D02*
X222552500Y-79360000D01*
X222552500Y-79360000D02*
X223002500Y-79360000D01*
X229772500Y-72140000D02*
X229322500Y-72140000D01*
X229772500Y-72590000D02*
X229772500Y-72140000D01*
X229772500Y-78910000D02*
X229772500Y-79360000D01*
X229772500Y-79360000D02*
X229322500Y-79360000D01*
X222302500Y-79380000D02*
X221622500Y-79380000D01*
X221962500Y-78910000D01*
X222302500Y-79380000D01*
G36*
X222302500Y-79380000D02*
G01*
X221622500Y-79380000D01*
X221962500Y-78910000D01*
X222302500Y-79380000D01*
G37*
%TO.C,C29*%
X265079420Y-89150000D02*
X265360580Y-89150000D01*
X265079420Y-90170000D02*
X265360580Y-90170000D01*
%TO.C,C7*%
X265980000Y-61960580D02*
X265980000Y-61679420D01*
X267000000Y-61960580D02*
X267000000Y-61679420D01*
%TO.C,L1*%
X260840000Y-84550000D02*
X260840000Y-87550000D01*
X264160000Y-84550000D02*
X264160000Y-86050000D01*
%TO.C,C60*%
X241865580Y-92990000D02*
X241584420Y-92990000D01*
X241865580Y-94010000D02*
X241584420Y-94010000D01*
%TO.C,R12*%
X262572742Y-62187500D02*
X263047258Y-62187500D01*
X262572742Y-63232500D02*
X263047258Y-63232500D01*
%TO.C,C30*%
X235460000Y-91505580D02*
X235460000Y-91224420D01*
X236480000Y-91505580D02*
X236480000Y-91224420D01*
%TO.C,R9*%
X261247258Y-70887500D02*
X260772742Y-70887500D01*
X261247258Y-71932500D02*
X260772742Y-71932500D01*
%TO.C,C36*%
X251240580Y-92540000D02*
X250959420Y-92540000D01*
X251240580Y-93560000D02*
X250959420Y-93560000D01*
%TO.C,R16*%
X220477500Y-60912258D02*
X220477500Y-60437742D01*
X221522500Y-60912258D02*
X221522500Y-60437742D01*
%TO.C,R29*%
X230837742Y-69387500D02*
X231312258Y-69387500D01*
X230837742Y-70432500D02*
X231312258Y-70432500D01*
%TO.C,C52*%
X238084420Y-97990000D02*
X238365580Y-97990000D01*
X238084420Y-99010000D02*
X238365580Y-99010000D01*
%TO.C,C37*%
X230950000Y-98195580D02*
X230950000Y-97914420D01*
X231970000Y-98195580D02*
X231970000Y-97914420D01*
%TO.C,D5*%
X243955000Y-100420000D02*
X243955000Y-106105000D01*
X243955000Y-106105000D02*
X247125000Y-106105000D01*
X247125000Y-106105000D02*
X247125000Y-100420000D01*
%TO.C,C28*%
X231359420Y-87990000D02*
X231640580Y-87990000D01*
X231359420Y-89010000D02*
X231640580Y-89010000D01*
%TO.C,FEL1*%
X220700000Y-94150000D02*
X220700000Y-94800000D01*
X220700000Y-97200000D02*
X220700000Y-97850000D01*
X220700000Y-97850000D02*
X226900000Y-97850000D01*
X226900000Y-94150000D02*
X220700000Y-94150000D01*
X226900000Y-94800000D02*
X226900000Y-94150000D01*
X226900000Y-97200000D02*
X226900000Y-97850000D01*
%TO.C,R20*%
X227140000Y-83562258D02*
X227140000Y-83087742D01*
X228185000Y-83562258D02*
X228185000Y-83087742D01*
%TO.C,R19*%
X233347500Y-55552258D02*
X233347500Y-55077742D01*
X234392500Y-55552258D02*
X234392500Y-55077742D01*
%TO.C,R15*%
X231087742Y-63477500D02*
X231562258Y-63477500D01*
X231087742Y-64522500D02*
X231562258Y-64522500D01*
%TO.C,C61*%
X245440000Y-94584420D02*
X245440000Y-94865580D01*
X246460000Y-94584420D02*
X246460000Y-94865580D01*
%TO.C,C31*%
X230990000Y-90634420D02*
X230990000Y-90915580D01*
X232010000Y-90634420D02*
X232010000Y-90915580D01*
%TO.C,R37*%
X259402742Y-110297500D02*
X259877258Y-110297500D01*
X259402742Y-111342500D02*
X259877258Y-111342500D01*
%TO.C,U4*%
X261280000Y-94052500D02*
X261280000Y-94852500D01*
X261280000Y-95652500D02*
X261280000Y-94852500D01*
X264400000Y-94052500D02*
X264400000Y-94852500D01*
X264400000Y-95652500D02*
X264400000Y-94852500D01*
X264680000Y-96392500D02*
X264350000Y-96152500D01*
X264680000Y-95912500D01*
X264680000Y-96392500D01*
G36*
X264680000Y-96392500D02*
G01*
X264350000Y-96152500D01*
X264680000Y-95912500D01*
X264680000Y-96392500D01*
G37*
%TO.C,C39*%
X223234420Y-107860000D02*
X223515580Y-107860000D01*
X223234420Y-108880000D02*
X223515580Y-108880000D01*
%TO.C,J11*%
X238865000Y-116400000D02*
X238975000Y-116400000D01*
X238865000Y-117000000D02*
X238865000Y-116400000D01*
X261240000Y-113810000D02*
X261440000Y-114210000D01*
X261440000Y-114210000D02*
X261640000Y-113810000D01*
X261640000Y-113810000D02*
X261240000Y-113810000D01*
X264515000Y-116400000D02*
X264405000Y-116400000D01*
X264515000Y-117000000D02*
X264515000Y-116400000D01*
%TO.C,C59*%
X241915580Y-90990000D02*
X241634420Y-90990000D01*
X241915580Y-92010000D02*
X241634420Y-92010000D01*
%TO.C,R46*%
X240362742Y-110087500D02*
X240837258Y-110087500D01*
X240362742Y-111132500D02*
X240837258Y-111132500D01*
%TO.C,R45*%
X231122258Y-99977500D02*
X230647742Y-99977500D01*
X231122258Y-101022500D02*
X230647742Y-101022500D01*
%TO.C,C33*%
X231000000Y-94885580D02*
X231000000Y-94604420D01*
X232020000Y-94885580D02*
X232020000Y-94604420D01*
%TO.C,C57*%
X247990000Y-84865580D02*
X247990000Y-84584420D01*
X249010000Y-84865580D02*
X249010000Y-84584420D01*
%TO.C,U6*%
X227950000Y-112612500D02*
X227950000Y-113262500D01*
X227950000Y-113912500D02*
X227950000Y-113262500D01*
X231070000Y-112612500D02*
X231070000Y-113262500D01*
X231070000Y-113912500D02*
X231070000Y-113262500D01*
X231350000Y-114665000D02*
X231020000Y-114425000D01*
X231350000Y-114185000D01*
X231350000Y-114665000D01*
G36*
X231350000Y-114665000D02*
G01*
X231020000Y-114425000D01*
X231350000Y-114185000D01*
X231350000Y-114665000D01*
G37*
%TO.C,C15*%
X252700000Y-73600580D02*
X252700000Y-73319420D01*
X253720000Y-73600580D02*
X253720000Y-73319420D01*
%TO.C,U7*%
X240400000Y-105230000D02*
X241200000Y-105230000D01*
X240400000Y-108350000D02*
X241200000Y-108350000D01*
X242000000Y-105230000D02*
X241200000Y-105230000D01*
X242000000Y-108350000D02*
X241200000Y-108350000D01*
X242500000Y-105280000D02*
X242260000Y-104950000D01*
X242740000Y-104950000D01*
X242500000Y-105280000D01*
G36*
X242500000Y-105280000D02*
G01*
X242260000Y-104950000D01*
X242740000Y-104950000D01*
X242500000Y-105280000D01*
G37*
%TO.C,U2*%
X260990000Y-80562500D02*
X260990000Y-81362500D01*
X260990000Y-82162500D02*
X260990000Y-81362500D01*
X264110000Y-80562500D02*
X264110000Y-81362500D01*
X264110000Y-82162500D02*
X264110000Y-81362500D01*
X264390000Y-82902500D02*
X264060000Y-82662500D01*
X264390000Y-82422500D01*
X264390000Y-82902500D01*
G36*
X264390000Y-82902500D02*
G01*
X264060000Y-82662500D01*
X264390000Y-82422500D01*
X264390000Y-82902500D01*
G37*
%TO.C,C56*%
X230754420Y-102470000D02*
X231035580Y-102470000D01*
X230754420Y-103490000D02*
X231035580Y-103490000D01*
%TO.C,R13*%
X225107258Y-68747500D02*
X224632742Y-68747500D01*
X225107258Y-69792500D02*
X224632742Y-69792500D01*
%TO.C,C62*%
X250780000Y-95154420D02*
X250780000Y-95435580D01*
X251800000Y-95154420D02*
X251800000Y-95435580D01*
%TO.C,R4*%
X263077500Y-55362742D02*
X263077500Y-55837258D01*
X264122500Y-55362742D02*
X264122500Y-55837258D01*
%TO.C,R34*%
X265507258Y-90937500D02*
X265032742Y-90937500D01*
X265507258Y-91982500D02*
X265032742Y-91982500D01*
%TO.C,C27*%
X257639420Y-85980000D02*
X257920580Y-85980000D01*
X257639420Y-87000000D02*
X257920580Y-87000000D01*
%TO.C,C8*%
X222990000Y-55365580D02*
X222990000Y-55084420D01*
X224010000Y-55365580D02*
X224010000Y-55084420D01*
%TO.C,C38*%
X219970000Y-114140580D02*
X219970000Y-113859420D01*
X220990000Y-114140580D02*
X220990000Y-113859420D01*
%TO.C,R14*%
X230862742Y-66657500D02*
X231337258Y-66657500D01*
X230862742Y-67702500D02*
X231337258Y-67702500D01*
%TO.C,C51*%
X250969420Y-90910000D02*
X251250580Y-90910000D01*
X250969420Y-91930000D02*
X251250580Y-91930000D01*
%TO.C,C1*%
X269990000Y-57915580D02*
X269990000Y-57634420D01*
X271010000Y-57915580D02*
X271010000Y-57634420D01*
%TO.C,C63*%
X251084420Y-85990000D02*
X251365580Y-85990000D01*
X251084420Y-87010000D02*
X251365580Y-87010000D01*
%TO.C,R38*%
X226047742Y-112177500D02*
X226522258Y-112177500D01*
X226047742Y-113222500D02*
X226522258Y-113222500D01*
%TO.C,C11*%
X224990000Y-55365580D02*
X224990000Y-55084420D01*
X226010000Y-55365580D02*
X226010000Y-55084420D01*
%TD*%
M02*
