%TF.GenerationSoftware,KiCad,Pcbnew,8.0.3-8.0.3-0~ubuntu24.04.1*%
%TF.CreationDate,2024-07-16T09:03:33+03:00*%
%TF.ProjectId,displinux,64697370-6c69-46e7-9578-2e6b69636164,rev?*%
%TF.SameCoordinates,Original*%
%TF.FileFunction,Soldermask,Top*%
%TF.FilePolarity,Negative*%
%FSLAX46Y46*%
G04 Gerber Fmt 4.6, Leading zero omitted, Abs format (unit mm)*
G04 Created by KiCad (PCBNEW 8.0.3-8.0.3-0~ubuntu24.04.1) date 2024-07-16 09:03:33*
%MOMM*%
%LPD*%
G01*
G04 APERTURE LIST*
G04 Aperture macros list*
%AMRoundRect*
0 Rectangle with rounded corners*
0 $1 Rounding radius*
0 $2 $3 $4 $5 $6 $7 $8 $9 X,Y pos of 4 corners*
0 Add a 4 corners polygon primitive as box body*
4,1,4,$2,$3,$4,$5,$6,$7,$8,$9,$2,$3,0*
0 Add four circle primitives for the rounded corners*
1,1,$1+$1,$2,$3*
1,1,$1+$1,$4,$5*
1,1,$1+$1,$6,$7*
1,1,$1+$1,$8,$9*
0 Add four rect primitives between the rounded corners*
20,1,$1+$1,$2,$3,$4,$5,0*
20,1,$1+$1,$4,$5,$6,$7,0*
20,1,$1+$1,$6,$7,$8,$9,0*
20,1,$1+$1,$8,$9,$2,$3,0*%
G04 Aperture macros list end*
%ADD10RoundRect,0.200000X-0.200000X-0.275000X0.200000X-0.275000X0.200000X0.275000X-0.200000X0.275000X0*%
%ADD11RoundRect,0.225000X-0.225000X-0.250000X0.225000X-0.250000X0.225000X0.250000X-0.225000X0.250000X0*%
%ADD12RoundRect,0.200000X0.275000X-0.200000X0.275000X0.200000X-0.275000X0.200000X-0.275000X-0.200000X0*%
%ADD13RoundRect,0.250000X-0.450000X-0.425000X0.450000X-0.425000X0.450000X0.425000X-0.450000X0.425000X0*%
%ADD14R,0.300000X1.100000*%
%ADD15R,2.300000X3.100000*%
%ADD16RoundRect,0.200000X-0.275000X0.200000X-0.275000X-0.200000X0.275000X-0.200000X0.275000X0.200000X0*%
%ADD17RoundRect,0.218750X-0.256250X0.218750X-0.256250X-0.218750X0.256250X-0.218750X0.256250X0.218750X0*%
%ADD18C,0.650000*%
%ADD19R,0.600000X1.240000*%
%ADD20R,0.300000X1.240000*%
%ADD21O,1.000000X2.100000*%
%ADD22O,1.000000X1.800000*%
%ADD23R,1.700000X1.700000*%
%ADD24O,1.700000X1.700000*%
%ADD25R,1.200000X1.400000*%
%ADD26RoundRect,0.200000X0.200000X0.275000X-0.200000X0.275000X-0.200000X-0.275000X0.200000X-0.275000X0*%
%ADD27RoundRect,0.225000X0.225000X0.250000X-0.225000X0.250000X-0.225000X-0.250000X0.225000X-0.250000X0*%
%ADD28RoundRect,0.062500X-0.675000X-0.062500X0.675000X-0.062500X0.675000X0.062500X-0.675000X0.062500X0*%
%ADD29RoundRect,0.062500X-0.062500X-0.675000X0.062500X-0.675000X0.062500X0.675000X-0.062500X0.675000X0*%
%ADD30RoundRect,0.225000X-0.250000X0.225000X-0.250000X-0.225000X0.250000X-0.225000X0.250000X0.225000X0*%
%ADD31C,3.250000*%
%ADD32RoundRect,0.250500X0.499500X0.499500X-0.499500X0.499500X-0.499500X-0.499500X0.499500X-0.499500X0*%
%ADD33C,1.500000*%
%ADD34C,2.500000*%
%ADD35R,5.730000X5.730000*%
%ADD36R,1.200000X2.500000*%
%ADD37R,2.000000X1.600000*%
%ADD38RoundRect,0.225000X0.250000X-0.225000X0.250000X0.225000X-0.250000X0.225000X-0.250000X-0.225000X0*%
G04 APERTURE END LIST*
D10*
%TO.C,R27*%
X232662500Y-72500000D03*
X234312500Y-72500000D03*
%TD*%
D11*
%TO.C,C35*%
X263880000Y-101480000D03*
X265430000Y-101480000D03*
%TD*%
D12*
%TO.C,R7*%
X225500000Y-93000000D03*
X225500000Y-91350000D03*
%TD*%
D13*
%TO.C,C23*%
X228730000Y-70450000D03*
X231430000Y-70450000D03*
%TD*%
D14*
%TO.C,J6*%
X222790000Y-110700000D03*
X223290000Y-110700000D03*
X223790000Y-110700000D03*
X224290000Y-110700000D03*
X224790000Y-110700000D03*
X225290000Y-110700000D03*
X225790000Y-110700000D03*
X226290000Y-110700000D03*
X226790000Y-110700000D03*
X227290000Y-110700000D03*
X227790000Y-110700000D03*
X228290000Y-110700000D03*
X228790000Y-110700000D03*
X229290000Y-110700000D03*
X229790000Y-110700000D03*
X230290000Y-110700000D03*
X230790000Y-110700000D03*
X231290000Y-110700000D03*
X231790000Y-110700000D03*
X232290000Y-110700000D03*
X232790000Y-110700000D03*
X233290000Y-110700000D03*
X233790000Y-110700000D03*
X234290000Y-110700000D03*
D15*
X221120000Y-112400000D03*
X235960000Y-112400000D03*
%TD*%
D16*
%TO.C,R44*%
X223120000Y-92875000D03*
X223120000Y-94525000D03*
%TD*%
D17*
%TO.C,D1*%
X253500000Y-55362500D03*
X253500000Y-56937500D03*
%TD*%
D18*
%TO.C,J1*%
X267490000Y-57000000D03*
X261710000Y-57000000D03*
D19*
X267800000Y-58120000D03*
X267000000Y-58120000D03*
D20*
X265850000Y-58120000D03*
X264850000Y-58120000D03*
X264350000Y-58120000D03*
X263350000Y-58120000D03*
D19*
X262200000Y-58120000D03*
X261400000Y-58120000D03*
X261400000Y-58120000D03*
X262200000Y-58120000D03*
D20*
X262850000Y-58120000D03*
X263850000Y-58120000D03*
X265350000Y-58120000D03*
X266350000Y-58120000D03*
D19*
X267000000Y-58120000D03*
X267800000Y-58120000D03*
D21*
X268920000Y-57520000D03*
D22*
X268920000Y-53320000D03*
D21*
X260280000Y-57520000D03*
D22*
X260280000Y-53320000D03*
%TD*%
D10*
%TO.C,R42*%
X244350000Y-64500000D03*
X246000000Y-64500000D03*
%TD*%
D23*
%TO.C,J4*%
X215460000Y-79680000D03*
D24*
X218000000Y-79680000D03*
X215460000Y-82220000D03*
X218000000Y-82220000D03*
X215460000Y-84760000D03*
X218000000Y-84760000D03*
X215460000Y-87300000D03*
X218000000Y-87300000D03*
X215460000Y-89840000D03*
X218000000Y-89840000D03*
X215460000Y-92380000D03*
X218000000Y-92380000D03*
X215460000Y-94920000D03*
X218000000Y-94920000D03*
X215460000Y-97460000D03*
X218000000Y-97460000D03*
X215460000Y-100000000D03*
X218000000Y-100000000D03*
X215460000Y-102540000D03*
X218000000Y-102540000D03*
%TD*%
D10*
%TO.C,R28*%
X227000000Y-75500000D03*
X228650000Y-75500000D03*
%TD*%
D25*
%TO.C,Y1*%
X234200000Y-92200000D03*
X234200000Y-90000000D03*
X232500000Y-90000000D03*
X232500000Y-92200000D03*
%TD*%
D26*
%TO.C,R22*%
X234325000Y-76050000D03*
X232675000Y-76050000D03*
%TD*%
D27*
%TO.C,C55*%
X243800000Y-66500000D03*
X242250000Y-66500000D03*
%TD*%
D28*
%TO.C,U3*%
X238500000Y-83700000D03*
X238500000Y-84100000D03*
X238500000Y-84500000D03*
X238500000Y-84900000D03*
X238500000Y-85300000D03*
X238500000Y-85700000D03*
X238500000Y-86100000D03*
X238500000Y-86500000D03*
X238500000Y-86900000D03*
X238500000Y-87300000D03*
X238500000Y-87700000D03*
X238500000Y-88100000D03*
X238500000Y-88500000D03*
X238500000Y-88900000D03*
X238500000Y-89300000D03*
X238500000Y-89700000D03*
X238500000Y-90100000D03*
X238500000Y-90500000D03*
X238500000Y-90900000D03*
X238500000Y-91300000D03*
X238500000Y-91700000D03*
X238500000Y-92100000D03*
X238500000Y-92500000D03*
X238500000Y-92900000D03*
X238500000Y-93300000D03*
X238500000Y-93700000D03*
X238500000Y-94100000D03*
X238500000Y-94500000D03*
X238500000Y-94900000D03*
X238500000Y-95300000D03*
X238500000Y-95700000D03*
X238500000Y-96100000D03*
D29*
X239962500Y-97562500D03*
X240362500Y-97562500D03*
X240762500Y-97562500D03*
X241162500Y-97562500D03*
X241562500Y-97562500D03*
X241962500Y-97562500D03*
X242362500Y-97562500D03*
X242762500Y-97562500D03*
X243162500Y-97562500D03*
X243562500Y-97562500D03*
X243962500Y-97562500D03*
X244362500Y-97562500D03*
X244762500Y-97562500D03*
X245162500Y-97562500D03*
X245562500Y-97562500D03*
X245962500Y-97562500D03*
X246362500Y-97562500D03*
X246762500Y-97562500D03*
X247162500Y-97562500D03*
X247562500Y-97562500D03*
X247962500Y-97562500D03*
X248362500Y-97562500D03*
X248762500Y-97562500D03*
X249162500Y-97562500D03*
X249562500Y-97562500D03*
X249962500Y-97562500D03*
X250362500Y-97562500D03*
X250762500Y-97562500D03*
X251162500Y-97562500D03*
X251562500Y-97562500D03*
X251962500Y-97562500D03*
X252362500Y-97562500D03*
D28*
X253825000Y-96100000D03*
X253825000Y-95700000D03*
X253825000Y-95300000D03*
X253825000Y-94900000D03*
X253825000Y-94500000D03*
X253825000Y-94100000D03*
X253825000Y-93700000D03*
X253825000Y-93300000D03*
X253825000Y-92900000D03*
X253825000Y-92500000D03*
X253825000Y-92100000D03*
X253825000Y-91700000D03*
X253825000Y-91300000D03*
X253825000Y-90900000D03*
X253825000Y-90500000D03*
X253825000Y-90100000D03*
X253825000Y-89700000D03*
X253825000Y-89300000D03*
X253825000Y-88900000D03*
X253825000Y-88500000D03*
X253825000Y-88100000D03*
X253825000Y-87700000D03*
X253825000Y-87300000D03*
X253825000Y-86900000D03*
X253825000Y-86500000D03*
X253825000Y-86100000D03*
X253825000Y-85700000D03*
X253825000Y-85300000D03*
X253825000Y-84900000D03*
X253825000Y-84500000D03*
X253825000Y-84100000D03*
X253825000Y-83700000D03*
D29*
X252362500Y-82237500D03*
X251962500Y-82237500D03*
X251562500Y-82237500D03*
X251162500Y-82237500D03*
X250762500Y-82237500D03*
X250362500Y-82237500D03*
X249962500Y-82237500D03*
X249562500Y-82237500D03*
X249162500Y-82237500D03*
X248762500Y-82237500D03*
X248362500Y-82237500D03*
X247962500Y-82237500D03*
X247562500Y-82237500D03*
X247162500Y-82237500D03*
X246762500Y-82237500D03*
X246362500Y-82237500D03*
X245962500Y-82237500D03*
X245562500Y-82237500D03*
X245162500Y-82237500D03*
X244762500Y-82237500D03*
X244362500Y-82237500D03*
X243962500Y-82237500D03*
X243562500Y-82237500D03*
X243162500Y-82237500D03*
X242762500Y-82237500D03*
X242362500Y-82237500D03*
X241962500Y-82237500D03*
X241562500Y-82237500D03*
X241162500Y-82237500D03*
X240762500Y-82237500D03*
X240362500Y-82237500D03*
X239962500Y-82237500D03*
%TD*%
D30*
%TO.C,C24*%
X221000000Y-80000000D03*
X221000000Y-81550000D03*
%TD*%
D12*
%TO.C,R39*%
X263260000Y-93240000D03*
X263260000Y-91590000D03*
%TD*%
D10*
%TO.C,R26*%
X224025000Y-70700000D03*
X225675000Y-70700000D03*
%TD*%
D12*
%TO.C,R32*%
X236150000Y-78650000D03*
X236150000Y-77000000D03*
%TD*%
D31*
%TO.C,J5*%
X229915000Y-58290000D03*
X218485000Y-58290000D03*
D32*
X228640000Y-64650000D03*
D33*
X227380000Y-67190000D03*
X226100000Y-64650000D03*
X224840000Y-67190000D03*
X223560000Y-64650000D03*
X222300000Y-67190000D03*
X221020000Y-64650000D03*
X219760000Y-67190000D03*
X230825000Y-53390000D03*
X228285000Y-53390000D03*
X220115000Y-53390000D03*
X217575000Y-53390000D03*
D34*
X231945000Y-61340000D03*
X216455000Y-61340000D03*
%TD*%
D11*
%TO.C,C25*%
X227030000Y-73840000D03*
X228580000Y-73840000D03*
%TD*%
%TO.C,C34*%
X262035000Y-97580000D03*
X263585000Y-97580000D03*
%TD*%
D26*
%TO.C,R36*%
X224000000Y-103000000D03*
X222350000Y-103000000D03*
%TD*%
D23*
%TO.C,J10*%
X269500000Y-79670000D03*
D24*
X269500000Y-82210000D03*
X269500000Y-84750000D03*
%TD*%
D18*
%TO.C,J2*%
X247500000Y-57000000D03*
X241720000Y-57000000D03*
D19*
X247810000Y-58120000D03*
X247010000Y-58120000D03*
D20*
X245860000Y-58120000D03*
X244860000Y-58120000D03*
X244360000Y-58120000D03*
X243360000Y-58120000D03*
D19*
X242210000Y-58120000D03*
X241410000Y-58120000D03*
X241410000Y-58120000D03*
X242210000Y-58120000D03*
D20*
X242860000Y-58120000D03*
X243860000Y-58120000D03*
X245360000Y-58120000D03*
X246360000Y-58120000D03*
D19*
X247010000Y-58120000D03*
X247810000Y-58120000D03*
D21*
X248930000Y-57520000D03*
D22*
X248930000Y-53320000D03*
D21*
X240290000Y-57520000D03*
D22*
X240290000Y-53320000D03*
%TD*%
D35*
%TO.C,*%
X246162500Y-89900000D03*
%TD*%
D10*
%TO.C,R35*%
X222350000Y-105500000D03*
X224000000Y-105500000D03*
%TD*%
D30*
%TO.C,C18*%
X265900000Y-86450000D03*
X265900000Y-88000000D03*
%TD*%
D27*
%TO.C,C16*%
X261550000Y-78225000D03*
X260000000Y-78225000D03*
%TD*%
D33*
%TO.C,J3*%
X268500000Y-65000000D03*
X261500000Y-65000000D03*
D36*
X263900000Y-68250000D03*
X266900000Y-68250000D03*
X258800000Y-61750000D03*
X259900000Y-68250000D03*
%TD*%
D30*
%TO.C,C12*%
X237280000Y-80290000D03*
X237280000Y-81840000D03*
%TD*%
D10*
%TO.C,R30*%
X263850000Y-78225000D03*
X265500000Y-78225000D03*
%TD*%
D11*
%TO.C,C26*%
X233390000Y-81070000D03*
X234940000Y-81070000D03*
%TD*%
D30*
%TO.C,C41*%
X235500000Y-95950000D03*
X235500000Y-97500000D03*
%TD*%
D12*
%TO.C,R40*%
X265570000Y-97395000D03*
X265570000Y-95745000D03*
%TD*%
D23*
%TO.C,J7*%
X269500000Y-89650000D03*
D24*
X269500000Y-92190000D03*
X269500000Y-94730000D03*
X269500000Y-97270000D03*
X269500000Y-99810000D03*
X269500000Y-102350000D03*
%TD*%
D12*
%TO.C,R10*%
X227460000Y-93505000D03*
X227460000Y-91855000D03*
%TD*%
%TO.C,R18*%
X256000000Y-60650000D03*
X256000000Y-59000000D03*
%TD*%
D17*
%TO.C,D2*%
X256000000Y-55425000D03*
X256000000Y-57000000D03*
%TD*%
D12*
%TO.C,R17*%
X253500000Y-60650000D03*
X253500000Y-59000000D03*
%TD*%
D16*
%TO.C,R25*%
X263500000Y-80575000D03*
X263500000Y-82225000D03*
%TD*%
D37*
%TO.C,RST1*%
X228220000Y-102980000D03*
X233620000Y-102980000D03*
%TD*%
D12*
%TO.C,R11*%
X221070000Y-86175000D03*
X221070000Y-84525000D03*
%TD*%
D26*
%TO.C,R33*%
X258555000Y-85030000D03*
X256905000Y-85030000D03*
%TD*%
D38*
%TO.C,C2*%
X237000000Y-54775000D03*
X237000000Y-53225000D03*
%TD*%
%TO.C,C44*%
X243520000Y-108935000D03*
X243520000Y-107385000D03*
%TD*%
D30*
%TO.C,C21*%
X229162500Y-82500000D03*
X229162500Y-84050000D03*
%TD*%
D11*
%TO.C,C45*%
X242210000Y-104080000D03*
X243760000Y-104080000D03*
%TD*%
D23*
%TO.C,J9*%
X225040000Y-100000000D03*
D24*
X222500000Y-100000000D03*
%TD*%
D10*
%TO.C,R8*%
X222750000Y-87400000D03*
X224400000Y-87400000D03*
%TD*%
D12*
%TO.C,R31*%
X266000000Y-82150000D03*
X266000000Y-80500000D03*
%TD*%
D26*
%TO.C,R23*%
X234325000Y-74300000D03*
X232675000Y-74300000D03*
%TD*%
D12*
%TO.C,R24*%
X226162500Y-84150000D03*
X226162500Y-82500000D03*
%TD*%
D27*
%TO.C,C22*%
X224845000Y-73630000D03*
X223295000Y-73630000D03*
%TD*%
D26*
%TO.C,R5*%
X247650000Y-60500000D03*
X246000000Y-60500000D03*
%TD*%
D10*
%TO.C,R43*%
X239650000Y-64500000D03*
X241300000Y-64500000D03*
%TD*%
D14*
%TO.C,J8*%
X241960000Y-110700000D03*
X242460000Y-110700000D03*
X242960000Y-110700000D03*
X243460000Y-110700000D03*
X243960000Y-110700000D03*
X244460000Y-110700000D03*
X244960000Y-110700000D03*
X245460000Y-110700000D03*
X245960000Y-110700000D03*
X246460000Y-110700000D03*
X246960000Y-110700000D03*
X247460000Y-110700000D03*
X247960000Y-110700000D03*
X248460000Y-110700000D03*
X248960000Y-110700000D03*
X249460000Y-110700000D03*
X249960000Y-110700000D03*
X250460000Y-110700000D03*
X250960000Y-110700000D03*
X251460000Y-110700000D03*
X251960000Y-110700000D03*
X252460000Y-110700000D03*
X252960000Y-110700000D03*
X253460000Y-110700000D03*
X253960000Y-110700000D03*
X254460000Y-110700000D03*
X254960000Y-110700000D03*
X255460000Y-110700000D03*
X255960000Y-110700000D03*
X256460000Y-110700000D03*
X256960000Y-110700000D03*
X257460000Y-110700000D03*
X257960000Y-110700000D03*
X258460000Y-110700000D03*
X258960000Y-110700000D03*
X259460000Y-110700000D03*
X259960000Y-110700000D03*
X260460000Y-110700000D03*
X260960000Y-110700000D03*
X261460000Y-110700000D03*
D15*
X240290000Y-112400000D03*
X263130000Y-112400000D03*
%TD*%
D11*
%TO.C,C32*%
X260275000Y-89150000D03*
X261825000Y-89150000D03*
%TD*%
D10*
%TO.C,R6*%
X240850000Y-60500000D03*
X242500000Y-60500000D03*
%TD*%
M02*
