%TF.GenerationSoftware,KiCad,Pcbnew,8.0.4-8.0.4-0~ubuntu24.04.1*%
%TF.CreationDate,2024-08-30T09:50:49+03:00*%
%TF.ProjectId,displinux,64697370-6c69-46e7-9578-2e6b69636164,rev?*%
%TF.SameCoordinates,Original*%
%TF.FileFunction,Legend,Top*%
%TF.FilePolarity,Positive*%
%FSLAX46Y46*%
G04 Gerber Fmt 4.6, Leading zero omitted, Abs format (unit mm)*
G04 Created by KiCad (PCBNEW 8.0.4-8.0.4-0~ubuntu24.04.1) date 2024-08-30 09:50:49*
%MOMM*%
%LPD*%
G01*
G04 APERTURE LIST*
%ADD10C,0.200000*%
%ADD11C,0.100000*%
%ADD12C,0.400000*%
%ADD13C,0.300000*%
%ADD14C,0.150000*%
%ADD15C,0.000000*%
%ADD16C,0.120000*%
G04 APERTURE END LIST*
D10*
X219901101Y-109901980D02*
X219853482Y-109949600D01*
X219853482Y-109949600D02*
X219710625Y-109997219D01*
X219710625Y-109997219D02*
X219615387Y-109997219D01*
X219615387Y-109997219D02*
X219472530Y-109949600D01*
X219472530Y-109949600D02*
X219377292Y-109854361D01*
X219377292Y-109854361D02*
X219329673Y-109759123D01*
X219329673Y-109759123D02*
X219282054Y-109568647D01*
X219282054Y-109568647D02*
X219282054Y-109425790D01*
X219282054Y-109425790D02*
X219329673Y-109235314D01*
X219329673Y-109235314D02*
X219377292Y-109140076D01*
X219377292Y-109140076D02*
X219472530Y-109044838D01*
X219472530Y-109044838D02*
X219615387Y-108997219D01*
X219615387Y-108997219D02*
X219710625Y-108997219D01*
X219710625Y-108997219D02*
X219853482Y-109044838D01*
X219853482Y-109044838D02*
X219901101Y-109092457D01*
X220282054Y-109711504D02*
X220758244Y-109711504D01*
X220186816Y-109997219D02*
X220520149Y-108997219D01*
X220520149Y-108997219D02*
X220853482Y-109997219D01*
X221186816Y-109997219D02*
X221186816Y-108997219D01*
X221186816Y-108997219D02*
X221520149Y-109711504D01*
X221520149Y-109711504D02*
X221853482Y-108997219D01*
X221853482Y-108997219D02*
X221853482Y-109997219D01*
X257581101Y-108607219D02*
X257247768Y-108131028D01*
X257009673Y-108607219D02*
X257009673Y-107607219D01*
X257009673Y-107607219D02*
X257390625Y-107607219D01*
X257390625Y-107607219D02*
X257485863Y-107654838D01*
X257485863Y-107654838D02*
X257533482Y-107702457D01*
X257533482Y-107702457D02*
X257581101Y-107797695D01*
X257581101Y-107797695D02*
X257581101Y-107940552D01*
X257581101Y-107940552D02*
X257533482Y-108035790D01*
X257533482Y-108035790D02*
X257485863Y-108083409D01*
X257485863Y-108083409D02*
X257390625Y-108131028D01*
X257390625Y-108131028D02*
X257009673Y-108131028D01*
X258533482Y-107654838D02*
X258438244Y-107607219D01*
X258438244Y-107607219D02*
X258295387Y-107607219D01*
X258295387Y-107607219D02*
X258152530Y-107654838D01*
X258152530Y-107654838D02*
X258057292Y-107750076D01*
X258057292Y-107750076D02*
X258009673Y-107845314D01*
X258009673Y-107845314D02*
X257962054Y-108035790D01*
X257962054Y-108035790D02*
X257962054Y-108178647D01*
X257962054Y-108178647D02*
X258009673Y-108369123D01*
X258009673Y-108369123D02*
X258057292Y-108464361D01*
X258057292Y-108464361D02*
X258152530Y-108559600D01*
X258152530Y-108559600D02*
X258295387Y-108607219D01*
X258295387Y-108607219D02*
X258390625Y-108607219D01*
X258390625Y-108607219D02*
X258533482Y-108559600D01*
X258533482Y-108559600D02*
X258581101Y-108511980D01*
X258581101Y-108511980D02*
X258581101Y-108178647D01*
X258581101Y-108178647D02*
X258390625Y-108178647D01*
X259343006Y-108083409D02*
X259485863Y-108131028D01*
X259485863Y-108131028D02*
X259533482Y-108178647D01*
X259533482Y-108178647D02*
X259581101Y-108273885D01*
X259581101Y-108273885D02*
X259581101Y-108416742D01*
X259581101Y-108416742D02*
X259533482Y-108511980D01*
X259533482Y-108511980D02*
X259485863Y-108559600D01*
X259485863Y-108559600D02*
X259390625Y-108607219D01*
X259390625Y-108607219D02*
X259009673Y-108607219D01*
X259009673Y-108607219D02*
X259009673Y-107607219D01*
X259009673Y-107607219D02*
X259343006Y-107607219D01*
X259343006Y-107607219D02*
X259438244Y-107654838D01*
X259438244Y-107654838D02*
X259485863Y-107702457D01*
X259485863Y-107702457D02*
X259533482Y-107797695D01*
X259533482Y-107797695D02*
X259533482Y-107892933D01*
X259533482Y-107892933D02*
X259485863Y-107988171D01*
X259485863Y-107988171D02*
X259438244Y-108035790D01*
X259438244Y-108035790D02*
X259343006Y-108083409D01*
X259343006Y-108083409D02*
X259009673Y-108083409D01*
X259962054Y-107702457D02*
X260009673Y-107654838D01*
X260009673Y-107654838D02*
X260104911Y-107607219D01*
X260104911Y-107607219D02*
X260343006Y-107607219D01*
X260343006Y-107607219D02*
X260438244Y-107654838D01*
X260438244Y-107654838D02*
X260485863Y-107702457D01*
X260485863Y-107702457D02*
X260533482Y-107797695D01*
X260533482Y-107797695D02*
X260533482Y-107892933D01*
X260533482Y-107892933D02*
X260485863Y-108035790D01*
X260485863Y-108035790D02*
X259914435Y-108607219D01*
X259914435Y-108607219D02*
X260533482Y-108607219D01*
X261390625Y-107940552D02*
X261390625Y-108607219D01*
X261152530Y-107559600D02*
X260914435Y-108273885D01*
X260914435Y-108273885D02*
X261533482Y-108273885D01*
D11*
X266222455Y-79015752D02*
X266222455Y-79825276D01*
X266222455Y-79825276D02*
X266174836Y-79920514D01*
X266174836Y-79920514D02*
X266127217Y-79968133D01*
X266127217Y-79968133D02*
X266031979Y-80015752D01*
X266031979Y-80015752D02*
X265889122Y-80015752D01*
X265889122Y-80015752D02*
X265793884Y-79968133D01*
X266222455Y-79634800D02*
X266127217Y-79682419D01*
X266127217Y-79682419D02*
X265936741Y-79682419D01*
X265936741Y-79682419D02*
X265841503Y-79634800D01*
X265841503Y-79634800D02*
X265793884Y-79587180D01*
X265793884Y-79587180D02*
X265746265Y-79491942D01*
X265746265Y-79491942D02*
X265746265Y-79206228D01*
X265746265Y-79206228D02*
X265793884Y-79110990D01*
X265793884Y-79110990D02*
X265841503Y-79063371D01*
X265841503Y-79063371D02*
X265936741Y-79015752D01*
X265936741Y-79015752D02*
X266127217Y-79015752D01*
X266127217Y-79015752D02*
X266222455Y-79063371D01*
X266698646Y-79015752D02*
X266698646Y-79682419D01*
X266698646Y-79110990D02*
X266746265Y-79063371D01*
X266746265Y-79063371D02*
X266841503Y-79015752D01*
X266841503Y-79015752D02*
X266984360Y-79015752D01*
X266984360Y-79015752D02*
X267079598Y-79063371D01*
X267079598Y-79063371D02*
X267127217Y-79158609D01*
X267127217Y-79158609D02*
X267127217Y-79682419D01*
X268031979Y-79682419D02*
X268031979Y-78682419D01*
X268031979Y-79634800D02*
X267936741Y-79682419D01*
X267936741Y-79682419D02*
X267746265Y-79682419D01*
X267746265Y-79682419D02*
X267651027Y-79634800D01*
X267651027Y-79634800D02*
X267603408Y-79587180D01*
X267603408Y-79587180D02*
X267555789Y-79491942D01*
X267555789Y-79491942D02*
X267555789Y-79206228D01*
X267555789Y-79206228D02*
X267603408Y-79110990D01*
X267603408Y-79110990D02*
X267651027Y-79063371D01*
X267651027Y-79063371D02*
X267746265Y-79015752D01*
X267746265Y-79015752D02*
X267936741Y-79015752D01*
X267936741Y-79015752D02*
X268031979Y-79063371D01*
X266132455Y-102125752D02*
X266132455Y-102935276D01*
X266132455Y-102935276D02*
X266084836Y-103030514D01*
X266084836Y-103030514D02*
X266037217Y-103078133D01*
X266037217Y-103078133D02*
X265941979Y-103125752D01*
X265941979Y-103125752D02*
X265799122Y-103125752D01*
X265799122Y-103125752D02*
X265703884Y-103078133D01*
X266132455Y-102744800D02*
X266037217Y-102792419D01*
X266037217Y-102792419D02*
X265846741Y-102792419D01*
X265846741Y-102792419D02*
X265751503Y-102744800D01*
X265751503Y-102744800D02*
X265703884Y-102697180D01*
X265703884Y-102697180D02*
X265656265Y-102601942D01*
X265656265Y-102601942D02*
X265656265Y-102316228D01*
X265656265Y-102316228D02*
X265703884Y-102220990D01*
X265703884Y-102220990D02*
X265751503Y-102173371D01*
X265751503Y-102173371D02*
X265846741Y-102125752D01*
X265846741Y-102125752D02*
X266037217Y-102125752D01*
X266037217Y-102125752D02*
X266132455Y-102173371D01*
X266608646Y-102125752D02*
X266608646Y-102792419D01*
X266608646Y-102220990D02*
X266656265Y-102173371D01*
X266656265Y-102173371D02*
X266751503Y-102125752D01*
X266751503Y-102125752D02*
X266894360Y-102125752D01*
X266894360Y-102125752D02*
X266989598Y-102173371D01*
X266989598Y-102173371D02*
X267037217Y-102268609D01*
X267037217Y-102268609D02*
X267037217Y-102792419D01*
X267941979Y-102792419D02*
X267941979Y-101792419D01*
X267941979Y-102744800D02*
X267846741Y-102792419D01*
X267846741Y-102792419D02*
X267656265Y-102792419D01*
X267656265Y-102792419D02*
X267561027Y-102744800D01*
X267561027Y-102744800D02*
X267513408Y-102697180D01*
X267513408Y-102697180D02*
X267465789Y-102601942D01*
X267465789Y-102601942D02*
X267465789Y-102316228D01*
X267465789Y-102316228D02*
X267513408Y-102220990D01*
X267513408Y-102220990D02*
X267561027Y-102173371D01*
X267561027Y-102173371D02*
X267656265Y-102125752D01*
X267656265Y-102125752D02*
X267846741Y-102125752D01*
X267846741Y-102125752D02*
X267941979Y-102173371D01*
X266794360Y-99776228D02*
X266794360Y-100252419D01*
X266461027Y-99252419D02*
X266794360Y-99776228D01*
X266794360Y-99776228D02*
X267127693Y-99252419D01*
X267413408Y-99347657D02*
X267461027Y-99300038D01*
X267461027Y-99300038D02*
X267556265Y-99252419D01*
X267556265Y-99252419D02*
X267794360Y-99252419D01*
X267794360Y-99252419D02*
X267889598Y-99300038D01*
X267889598Y-99300038D02*
X267937217Y-99347657D01*
X267937217Y-99347657D02*
X267984836Y-99442895D01*
X267984836Y-99442895D02*
X267984836Y-99538133D01*
X267984836Y-99538133D02*
X267937217Y-99680990D01*
X267937217Y-99680990D02*
X267365789Y-100252419D01*
X267365789Y-100252419D02*
X267984836Y-100252419D01*
X266468646Y-96812419D02*
X267135312Y-97812419D01*
X267135312Y-96812419D02*
X266468646Y-97812419D01*
X267468646Y-96907657D02*
X267516265Y-96860038D01*
X267516265Y-96860038D02*
X267611503Y-96812419D01*
X267611503Y-96812419D02*
X267849598Y-96812419D01*
X267849598Y-96812419D02*
X267944836Y-96860038D01*
X267944836Y-96860038D02*
X267992455Y-96907657D01*
X267992455Y-96907657D02*
X268040074Y-97002895D01*
X268040074Y-97002895D02*
X268040074Y-97098133D01*
X268040074Y-97098133D02*
X267992455Y-97240990D01*
X267992455Y-97240990D02*
X267421027Y-97812419D01*
X267421027Y-97812419D02*
X268040074Y-97812419D01*
X266814360Y-94806228D02*
X266814360Y-95282419D01*
X266481027Y-94282419D02*
X266814360Y-94806228D01*
X266814360Y-94806228D02*
X267147693Y-94282419D01*
X268004836Y-95282419D02*
X267433408Y-95282419D01*
X267719122Y-95282419D02*
X267719122Y-94282419D01*
X267719122Y-94282419D02*
X267623884Y-94425276D01*
X267623884Y-94425276D02*
X267528646Y-94520514D01*
X267528646Y-94520514D02*
X267433408Y-94568133D01*
X266508646Y-91682419D02*
X267175312Y-92682419D01*
X267175312Y-91682419D02*
X266508646Y-92682419D01*
X268080074Y-92682419D02*
X267508646Y-92682419D01*
X267794360Y-92682419D02*
X267794360Y-91682419D01*
X267794360Y-91682419D02*
X267699122Y-91825276D01*
X267699122Y-91825276D02*
X267603884Y-91920514D01*
X267603884Y-91920514D02*
X267508646Y-91968133D01*
D10*
X234827219Y-64536517D02*
X234827219Y-65107945D01*
X234827219Y-64822231D02*
X233827219Y-64822231D01*
X233827219Y-64822231D02*
X233970076Y-64917469D01*
X233970076Y-64917469D02*
X234065314Y-65012707D01*
X234065314Y-65012707D02*
X234112933Y-65107945D01*
X233827219Y-63917469D02*
X233827219Y-63822231D01*
X233827219Y-63822231D02*
X233874838Y-63726993D01*
X233874838Y-63726993D02*
X233922457Y-63679374D01*
X233922457Y-63679374D02*
X234017695Y-63631755D01*
X234017695Y-63631755D02*
X234208171Y-63584136D01*
X234208171Y-63584136D02*
X234446266Y-63584136D01*
X234446266Y-63584136D02*
X234636742Y-63631755D01*
X234636742Y-63631755D02*
X234731980Y-63679374D01*
X234731980Y-63679374D02*
X234779600Y-63726993D01*
X234779600Y-63726993D02*
X234827219Y-63822231D01*
X234827219Y-63822231D02*
X234827219Y-63917469D01*
X234827219Y-63917469D02*
X234779600Y-64012707D01*
X234779600Y-64012707D02*
X234731980Y-64060326D01*
X234731980Y-64060326D02*
X234636742Y-64107945D01*
X234636742Y-64107945D02*
X234446266Y-64155564D01*
X234446266Y-64155564D02*
X234208171Y-64155564D01*
X234208171Y-64155564D02*
X234017695Y-64107945D01*
X234017695Y-64107945D02*
X233922457Y-64060326D01*
X233922457Y-64060326D02*
X233874838Y-64012707D01*
X233874838Y-64012707D02*
X233827219Y-63917469D01*
X233827219Y-62965088D02*
X233827219Y-62869850D01*
X233827219Y-62869850D02*
X233874838Y-62774612D01*
X233874838Y-62774612D02*
X233922457Y-62726993D01*
X233922457Y-62726993D02*
X234017695Y-62679374D01*
X234017695Y-62679374D02*
X234208171Y-62631755D01*
X234208171Y-62631755D02*
X234446266Y-62631755D01*
X234446266Y-62631755D02*
X234636742Y-62679374D01*
X234636742Y-62679374D02*
X234731980Y-62726993D01*
X234731980Y-62726993D02*
X234779600Y-62774612D01*
X234779600Y-62774612D02*
X234827219Y-62869850D01*
X234827219Y-62869850D02*
X234827219Y-62965088D01*
X234827219Y-62965088D02*
X234779600Y-63060326D01*
X234779600Y-63060326D02*
X234731980Y-63107945D01*
X234731980Y-63107945D02*
X234636742Y-63155564D01*
X234636742Y-63155564D02*
X234446266Y-63203183D01*
X234446266Y-63203183D02*
X234208171Y-63203183D01*
X234208171Y-63203183D02*
X234017695Y-63155564D01*
X234017695Y-63155564D02*
X233922457Y-63107945D01*
X233922457Y-63107945D02*
X233874838Y-63060326D01*
X233874838Y-63060326D02*
X233827219Y-62965088D01*
X234827219Y-62203183D02*
X233827219Y-62203183D01*
X233827219Y-62203183D02*
X234541504Y-61869850D01*
X234541504Y-61869850D02*
X233827219Y-61536517D01*
X233827219Y-61536517D02*
X234827219Y-61536517D01*
X234827219Y-61060326D02*
X233827219Y-61060326D01*
X234208171Y-61060326D02*
X234160552Y-60965088D01*
X234160552Y-60965088D02*
X234160552Y-60774612D01*
X234160552Y-60774612D02*
X234208171Y-60679374D01*
X234208171Y-60679374D02*
X234255790Y-60631755D01*
X234255790Y-60631755D02*
X234351028Y-60584136D01*
X234351028Y-60584136D02*
X234636742Y-60584136D01*
X234636742Y-60584136D02*
X234731980Y-60631755D01*
X234731980Y-60631755D02*
X234779600Y-60679374D01*
X234779600Y-60679374D02*
X234827219Y-60774612D01*
X234827219Y-60774612D02*
X234827219Y-60965088D01*
X234827219Y-60965088D02*
X234779600Y-61060326D01*
X234827219Y-60155564D02*
X234160552Y-60155564D01*
X233827219Y-60155564D02*
X233874838Y-60203183D01*
X233874838Y-60203183D02*
X233922457Y-60155564D01*
X233922457Y-60155564D02*
X233874838Y-60107945D01*
X233874838Y-60107945D02*
X233827219Y-60155564D01*
X233827219Y-60155564D02*
X233922457Y-60155564D01*
X234160552Y-59822231D02*
X234160552Y-59441279D01*
X233827219Y-59679374D02*
X234684361Y-59679374D01*
X234684361Y-59679374D02*
X234779600Y-59631755D01*
X234779600Y-59631755D02*
X234827219Y-59536517D01*
X234827219Y-59536517D02*
X234827219Y-59441279D01*
D11*
X266738646Y-83832419D02*
X267357693Y-83832419D01*
X267357693Y-83832419D02*
X267024360Y-84213371D01*
X267024360Y-84213371D02*
X267167217Y-84213371D01*
X267167217Y-84213371D02*
X267262455Y-84260990D01*
X267262455Y-84260990D02*
X267310074Y-84308609D01*
X267310074Y-84308609D02*
X267357693Y-84403847D01*
X267357693Y-84403847D02*
X267357693Y-84641942D01*
X267357693Y-84641942D02*
X267310074Y-84737180D01*
X267310074Y-84737180D02*
X267262455Y-84784800D01*
X267262455Y-84784800D02*
X267167217Y-84832419D01*
X267167217Y-84832419D02*
X266881503Y-84832419D01*
X266881503Y-84832419D02*
X266786265Y-84784800D01*
X266786265Y-84784800D02*
X266738646Y-84737180D01*
X267786265Y-84165752D02*
X267786265Y-84832419D01*
X267786265Y-84260990D02*
X267833884Y-84213371D01*
X267833884Y-84213371D02*
X267929122Y-84165752D01*
X267929122Y-84165752D02*
X268071979Y-84165752D01*
X268071979Y-84165752D02*
X268167217Y-84213371D01*
X268167217Y-84213371D02*
X268214836Y-84308609D01*
X268214836Y-84308609D02*
X268214836Y-84832419D01*
X266858646Y-81492419D02*
X267477693Y-81492419D01*
X267477693Y-81492419D02*
X267144360Y-81873371D01*
X267144360Y-81873371D02*
X267287217Y-81873371D01*
X267287217Y-81873371D02*
X267382455Y-81920990D01*
X267382455Y-81920990D02*
X267430074Y-81968609D01*
X267430074Y-81968609D02*
X267477693Y-82063847D01*
X267477693Y-82063847D02*
X267477693Y-82301942D01*
X267477693Y-82301942D02*
X267430074Y-82397180D01*
X267430074Y-82397180D02*
X267382455Y-82444800D01*
X267382455Y-82444800D02*
X267287217Y-82492419D01*
X267287217Y-82492419D02*
X267001503Y-82492419D01*
X267001503Y-82492419D02*
X266906265Y-82444800D01*
X266906265Y-82444800D02*
X266858646Y-82397180D01*
X267906265Y-81825752D02*
X267906265Y-82825752D01*
X267906265Y-81873371D02*
X268001503Y-81825752D01*
X268001503Y-81825752D02*
X268191979Y-81825752D01*
X268191979Y-81825752D02*
X268287217Y-81873371D01*
X268287217Y-81873371D02*
X268334836Y-81920990D01*
X268334836Y-81920990D02*
X268382455Y-82016228D01*
X268382455Y-82016228D02*
X268382455Y-82301942D01*
X268382455Y-82301942D02*
X268334836Y-82397180D01*
X268334836Y-82397180D02*
X268287217Y-82444800D01*
X268287217Y-82444800D02*
X268191979Y-82492419D01*
X268191979Y-82492419D02*
X268001503Y-82492419D01*
X268001503Y-82492419D02*
X267906265Y-82444800D01*
D10*
X256950149Y-52737219D02*
X257140625Y-52737219D01*
X257140625Y-52737219D02*
X257235863Y-52784838D01*
X257235863Y-52784838D02*
X257331101Y-52880076D01*
X257331101Y-52880076D02*
X257378720Y-53070552D01*
X257378720Y-53070552D02*
X257378720Y-53403885D01*
X257378720Y-53403885D02*
X257331101Y-53594361D01*
X257331101Y-53594361D02*
X257235863Y-53689600D01*
X257235863Y-53689600D02*
X257140625Y-53737219D01*
X257140625Y-53737219D02*
X256950149Y-53737219D01*
X256950149Y-53737219D02*
X256854911Y-53689600D01*
X256854911Y-53689600D02*
X256759673Y-53594361D01*
X256759673Y-53594361D02*
X256712054Y-53403885D01*
X256712054Y-53403885D02*
X256712054Y-53070552D01*
X256712054Y-53070552D02*
X256759673Y-52880076D01*
X256759673Y-52880076D02*
X256854911Y-52784838D01*
X256854911Y-52784838D02*
X256950149Y-52737219D01*
X257664435Y-52737219D02*
X258235863Y-52737219D01*
X257950149Y-53737219D02*
X257950149Y-52737219D01*
X259093006Y-52784838D02*
X258997768Y-52737219D01*
X258997768Y-52737219D02*
X258854911Y-52737219D01*
X258854911Y-52737219D02*
X258712054Y-52784838D01*
X258712054Y-52784838D02*
X258616816Y-52880076D01*
X258616816Y-52880076D02*
X258569197Y-52975314D01*
X258569197Y-52975314D02*
X258521578Y-53165790D01*
X258521578Y-53165790D02*
X258521578Y-53308647D01*
X258521578Y-53308647D02*
X258569197Y-53499123D01*
X258569197Y-53499123D02*
X258616816Y-53594361D01*
X258616816Y-53594361D02*
X258712054Y-53689600D01*
X258712054Y-53689600D02*
X258854911Y-53737219D01*
X258854911Y-53737219D02*
X258950149Y-53737219D01*
X258950149Y-53737219D02*
X259093006Y-53689600D01*
X259093006Y-53689600D02*
X259140625Y-53641980D01*
X259140625Y-53641980D02*
X259140625Y-53308647D01*
X259140625Y-53308647D02*
X258950149Y-53308647D01*
X250219673Y-53737219D02*
X250219673Y-52737219D01*
X250219673Y-53213409D02*
X250791101Y-53213409D01*
X250791101Y-53737219D02*
X250791101Y-52737219D01*
X251457768Y-52737219D02*
X251648244Y-52737219D01*
X251648244Y-52737219D02*
X251743482Y-52784838D01*
X251743482Y-52784838D02*
X251838720Y-52880076D01*
X251838720Y-52880076D02*
X251886339Y-53070552D01*
X251886339Y-53070552D02*
X251886339Y-53403885D01*
X251886339Y-53403885D02*
X251838720Y-53594361D01*
X251838720Y-53594361D02*
X251743482Y-53689600D01*
X251743482Y-53689600D02*
X251648244Y-53737219D01*
X251648244Y-53737219D02*
X251457768Y-53737219D01*
X251457768Y-53737219D02*
X251362530Y-53689600D01*
X251362530Y-53689600D02*
X251267292Y-53594361D01*
X251267292Y-53594361D02*
X251219673Y-53403885D01*
X251219673Y-53403885D02*
X251219673Y-53070552D01*
X251219673Y-53070552D02*
X251267292Y-52880076D01*
X251267292Y-52880076D02*
X251362530Y-52784838D01*
X251362530Y-52784838D02*
X251457768Y-52737219D01*
X252267292Y-53689600D02*
X252410149Y-53737219D01*
X252410149Y-53737219D02*
X252648244Y-53737219D01*
X252648244Y-53737219D02*
X252743482Y-53689600D01*
X252743482Y-53689600D02*
X252791101Y-53641980D01*
X252791101Y-53641980D02*
X252838720Y-53546742D01*
X252838720Y-53546742D02*
X252838720Y-53451504D01*
X252838720Y-53451504D02*
X252791101Y-53356266D01*
X252791101Y-53356266D02*
X252743482Y-53308647D01*
X252743482Y-53308647D02*
X252648244Y-53261028D01*
X252648244Y-53261028D02*
X252457768Y-53213409D01*
X252457768Y-53213409D02*
X252362530Y-53165790D01*
X252362530Y-53165790D02*
X252314911Y-53118171D01*
X252314911Y-53118171D02*
X252267292Y-53022933D01*
X252267292Y-53022933D02*
X252267292Y-52927695D01*
X252267292Y-52927695D02*
X252314911Y-52832457D01*
X252314911Y-52832457D02*
X252362530Y-52784838D01*
X252362530Y-52784838D02*
X252457768Y-52737219D01*
X252457768Y-52737219D02*
X252695863Y-52737219D01*
X252695863Y-52737219D02*
X252838720Y-52784838D01*
X253124435Y-52737219D02*
X253695863Y-52737219D01*
X253410149Y-53737219D02*
X253410149Y-52737219D01*
D12*
G36*
X235122281Y-67808995D02*
G01*
X235185296Y-67808995D01*
X235342432Y-67813271D01*
X235491737Y-67842689D01*
X235530411Y-67872009D01*
X235559068Y-68019756D01*
X235559720Y-68187083D01*
X235559720Y-69518450D01*
X235561948Y-69671334D01*
X235570973Y-69825490D01*
X235591323Y-69972224D01*
X235635081Y-70122576D01*
X235668897Y-70194026D01*
X235766646Y-70330851D01*
X235897691Y-70445633D01*
X236025724Y-70521272D01*
X236173733Y-70582261D01*
X236341127Y-70628362D01*
X236527313Y-70659332D01*
X236678928Y-70672487D01*
X236840530Y-70676894D01*
X237032340Y-70670154D01*
X237205165Y-70649623D01*
X237360147Y-70614838D01*
X237498428Y-70565336D01*
X237649534Y-70482056D01*
X237778559Y-70374149D01*
X237887733Y-70240710D01*
X237907383Y-70210879D01*
X237980736Y-70063383D01*
X238022607Y-69913575D01*
X238044523Y-69753237D01*
X238054504Y-69587121D01*
X238057926Y-69427509D01*
X238058325Y-69337466D01*
X238058325Y-68493363D01*
X238059859Y-68309362D01*
X238072247Y-68160979D01*
X238116889Y-67996997D01*
X238219012Y-67879470D01*
X238359514Y-67827526D01*
X238520676Y-67808995D01*
X238520676Y-67581849D01*
X237323398Y-67581849D01*
X237323398Y-67808995D01*
X237481339Y-67827526D01*
X237619250Y-67879470D01*
X237719670Y-67996997D01*
X237763585Y-68160979D01*
X237775680Y-68309362D01*
X237776957Y-68493363D01*
X237776957Y-69337466D01*
X237775644Y-69486202D01*
X237770149Y-69634130D01*
X237754839Y-69788175D01*
X237715616Y-69940653D01*
X237705882Y-69963217D01*
X237625051Y-70098294D01*
X237519509Y-70205811D01*
X237389430Y-70285566D01*
X237234990Y-70337355D01*
X237087804Y-70359003D01*
X236991472Y-70362554D01*
X236841324Y-70352838D01*
X236692578Y-70317740D01*
X236553552Y-70247252D01*
X236454382Y-70156657D01*
X236381182Y-70022888D01*
X236341969Y-69875933D01*
X236321880Y-69717577D01*
X236315301Y-69559327D01*
X236315163Y-69530907D01*
X236315163Y-68187083D01*
X236315633Y-68033679D01*
X236335289Y-67886840D01*
X236345205Y-67872009D01*
X236493483Y-67816761D01*
X236652442Y-67809195D01*
X236693251Y-67808995D01*
X236756266Y-67808995D01*
X236756266Y-67581849D01*
X235122281Y-67581849D01*
X235122281Y-67808995D01*
G37*
G36*
X239690111Y-67581849D02*
G01*
X238632051Y-67581849D01*
X238632051Y-67814124D01*
X238781586Y-67835678D01*
X238924912Y-67901161D01*
X239045122Y-68009846D01*
X239076817Y-68050795D01*
X239076817Y-69714089D01*
X239075541Y-69899330D01*
X239063445Y-70048705D01*
X239019531Y-70213764D01*
X238919111Y-70332030D01*
X238781200Y-70384260D01*
X238623258Y-70402854D01*
X238623258Y-70630000D01*
X239820537Y-70630000D01*
X239820537Y-70402854D01*
X239659374Y-70384260D01*
X239518873Y-70332030D01*
X239416749Y-70213764D01*
X239372107Y-70048705D01*
X239359719Y-69899330D01*
X239358185Y-69714089D01*
X239358185Y-68324836D01*
X241311639Y-70676894D01*
X241593007Y-70676894D01*
X241593007Y-68502889D01*
X241593429Y-68316468D01*
X241605589Y-68165845D01*
X241640841Y-68022373D01*
X241735768Y-67892441D01*
X241895147Y-67827646D01*
X242055359Y-67810460D01*
X242055359Y-67581849D01*
X240858080Y-67581849D01*
X240858080Y-67810460D01*
X241015977Y-67827646D01*
X241153762Y-67879651D01*
X241254048Y-67999086D01*
X241297958Y-68165845D01*
X241310152Y-68316468D01*
X241311639Y-68502889D01*
X241311639Y-69501598D01*
X239690111Y-67581849D01*
G37*
G36*
X242170397Y-70630000D02*
G01*
X243804382Y-70630000D01*
X243804382Y-70402854D01*
X243741367Y-70402854D01*
X243581609Y-70398561D01*
X243431217Y-70368850D01*
X243392588Y-70339106D01*
X243363931Y-70190815D01*
X243363279Y-70022568D01*
X243363279Y-68190013D01*
X243363737Y-68035751D01*
X243382914Y-67887817D01*
X243392588Y-67872742D01*
X243529056Y-67818907D01*
X243681188Y-67810182D01*
X243741367Y-67809727D01*
X243804382Y-67809727D01*
X243804382Y-67581849D01*
X242170397Y-67581849D01*
X242170397Y-67809727D01*
X242233412Y-67809727D01*
X242390406Y-67814004D01*
X242539234Y-67843421D01*
X242577794Y-67872742D01*
X242606451Y-68021750D01*
X242607103Y-68190013D01*
X242607103Y-70022568D01*
X242606646Y-70176818D01*
X242587469Y-70324273D01*
X242577794Y-70339106D01*
X242430218Y-70395048D01*
X242273569Y-70402653D01*
X242233412Y-70402854D01*
X242170397Y-70402854D01*
X242170397Y-70630000D01*
G37*
G36*
X245470607Y-69497934D02*
G01*
X245908046Y-69089804D01*
X246030102Y-68989569D01*
X246158442Y-68916440D01*
X246305613Y-68878096D01*
X246386517Y-68873649D01*
X246386517Y-68660425D01*
X245353370Y-68660425D01*
X245353370Y-68873649D01*
X245450090Y-68873649D01*
X245592421Y-68910500D01*
X245617885Y-68965240D01*
X245546687Y-69094148D01*
X245529958Y-69111053D01*
X245315268Y-69314752D01*
X245076399Y-69027522D01*
X245030237Y-68940327D01*
X245168722Y-68873649D01*
X245214884Y-68873649D01*
X245214884Y-68660425D01*
X243971444Y-68660425D01*
X243971444Y-68873649D01*
X244118448Y-68907904D01*
X244233045Y-69012560D01*
X244252812Y-69035582D01*
X244853649Y-69747794D01*
X244345136Y-70229930D01*
X244229537Y-70323475D01*
X244096367Y-70395323D01*
X243971444Y-70417508D01*
X243971444Y-70630000D01*
X244954033Y-70630000D01*
X244954033Y-70417508D01*
X244899811Y-70417508D01*
X244755280Y-70387283D01*
X244701974Y-70301004D01*
X244761325Y-70180104D01*
X245013384Y-69934640D01*
X245261046Y-70229930D01*
X245307208Y-70325917D01*
X245189546Y-70415348D01*
X245139413Y-70417508D01*
X245110104Y-70417508D01*
X245110104Y-70630000D01*
X246428283Y-70630000D01*
X246428283Y-70417508D01*
X246277004Y-70389793D01*
X246150215Y-70290312D01*
X246050928Y-70180104D01*
X245470607Y-69497934D01*
G37*
G36*
X248111082Y-67582024D02*
G01*
X248265519Y-67584728D01*
X248450659Y-67593756D01*
X248614573Y-67609515D01*
X248760008Y-67632590D01*
X248920003Y-67672612D01*
X249060785Y-67726117D01*
X249211919Y-67809727D01*
X249283621Y-67860751D01*
X249413684Y-67974522D01*
X249525783Y-68103634D01*
X249619712Y-68247733D01*
X249695266Y-68406469D01*
X249752239Y-68579488D01*
X249790423Y-68766440D01*
X249806609Y-68915584D01*
X249812023Y-69072219D01*
X249809620Y-69179294D01*
X249797088Y-69334273D01*
X249774013Y-69482180D01*
X249727170Y-69667790D01*
X249662363Y-69839385D01*
X249580040Y-69996144D01*
X249480647Y-70137240D01*
X249364629Y-70261849D01*
X249232435Y-70369148D01*
X249104479Y-70448127D01*
X248962693Y-70511793D01*
X248804412Y-70560936D01*
X248626968Y-70596344D01*
X248469424Y-70615311D01*
X248296545Y-70626395D01*
X248106964Y-70630000D01*
X246560907Y-70630000D01*
X246560907Y-70402854D01*
X246623921Y-70402854D01*
X246664086Y-70402653D01*
X246820921Y-70395048D01*
X246968304Y-70339106D01*
X246978220Y-70324273D01*
X246997876Y-70176818D01*
X246998346Y-70022568D01*
X246998346Y-68190013D01*
X246997842Y-68063251D01*
X247753789Y-68063251D01*
X247753789Y-70128080D01*
X247763085Y-70266532D01*
X247852579Y-70383075D01*
X248005847Y-70402854D01*
X248094508Y-70402854D01*
X248223611Y-70394966D01*
X248369327Y-70365618D01*
X248522455Y-70306089D01*
X248652416Y-70221868D01*
X248753963Y-70115624D01*
X248802033Y-70034500D01*
X248865043Y-69878720D01*
X248908128Y-69722114D01*
X248941589Y-69545484D01*
X248960764Y-69392490D01*
X248972641Y-69231355D01*
X248976713Y-69064159D01*
X248975886Y-68986230D01*
X248963452Y-68767697D01*
X248936016Y-68571947D01*
X248893485Y-68398854D01*
X248835763Y-68248290D01*
X248735008Y-68082366D01*
X248606857Y-67955967D01*
X248451087Y-67868795D01*
X248267475Y-67820548D01*
X248111360Y-67809727D01*
X248005847Y-67809727D01*
X247890098Y-67822559D01*
X247770334Y-67909784D01*
X247753789Y-68063251D01*
X246997842Y-68063251D01*
X246997677Y-68021750D01*
X246968304Y-67872742D01*
X246930053Y-67843421D01*
X246781041Y-67814004D01*
X246623921Y-67809727D01*
X246560907Y-67809727D01*
X246560907Y-67581849D01*
X248056406Y-67581849D01*
X248111082Y-67582024D01*
G37*
G36*
X250095589Y-70630000D02*
G01*
X251729574Y-70630000D01*
X251729574Y-70402854D01*
X251666559Y-70402854D01*
X251506801Y-70398561D01*
X251356409Y-70368850D01*
X251317780Y-70339106D01*
X251289123Y-70190815D01*
X251288471Y-70022568D01*
X251288471Y-68190013D01*
X251288929Y-68035751D01*
X251308106Y-67887817D01*
X251317780Y-67872742D01*
X251454248Y-67818907D01*
X251606380Y-67810182D01*
X251666559Y-67809727D01*
X251729574Y-67809727D01*
X251729574Y-67581849D01*
X250095589Y-67581849D01*
X250095589Y-67809727D01*
X250158604Y-67809727D01*
X250315598Y-67814004D01*
X250464426Y-67843421D01*
X250502986Y-67872742D01*
X250531643Y-68021750D01*
X250532295Y-68190013D01*
X250532295Y-70022568D01*
X250531837Y-70176818D01*
X250512661Y-70324273D01*
X250502986Y-70339106D01*
X250355410Y-70395048D01*
X250198761Y-70402653D01*
X250158604Y-70402854D01*
X250095589Y-70402854D01*
X250095589Y-70630000D01*
G37*
G36*
X254311709Y-67568660D02*
G01*
X254122665Y-67568660D01*
X253904312Y-67762100D01*
X253769465Y-67681822D01*
X253636048Y-67620034D01*
X253477097Y-67570001D01*
X253308812Y-67542228D01*
X253152533Y-67534954D01*
X252975081Y-67544740D01*
X252809891Y-67573440D01*
X252658097Y-67620068D01*
X252520833Y-67683641D01*
X252362377Y-67793058D01*
X252234454Y-67928510D01*
X252139753Y-68087660D01*
X252080962Y-68268175D01*
X252062050Y-68416176D01*
X252060767Y-68467718D01*
X252078300Y-68651661D01*
X252130136Y-68820801D01*
X252215134Y-68974004D01*
X252332151Y-69110137D01*
X252480047Y-69228067D01*
X252610545Y-69303885D01*
X252757287Y-69368349D01*
X252919792Y-69420979D01*
X253097578Y-69461297D01*
X253358429Y-69511123D01*
X253512176Y-69540657D01*
X253662020Y-69575822D01*
X253802566Y-69631433D01*
X253811988Y-69636420D01*
X253929337Y-69739963D01*
X253987225Y-69876476D01*
X253996636Y-69970544D01*
X253972119Y-70125503D01*
X253901582Y-70255037D01*
X253789545Y-70355669D01*
X253640530Y-70423920D01*
X253491365Y-70453552D01*
X253392135Y-70458541D01*
X253217077Y-70441356D01*
X253049000Y-70390718D01*
X252889390Y-70308000D01*
X252739732Y-70194576D01*
X252634913Y-70090183D01*
X252537154Y-69969871D01*
X252447082Y-69834219D01*
X252365323Y-69683807D01*
X252292505Y-69519213D01*
X252270327Y-69461297D01*
X252056371Y-69461297D01*
X252081284Y-70643921D01*
X252270327Y-70643921D01*
X252531179Y-70396259D01*
X252676394Y-70493717D01*
X252826131Y-70569740D01*
X252983054Y-70624993D01*
X253149831Y-70660144D01*
X253298261Y-70674562D01*
X253392135Y-70676894D01*
X253570850Y-70666375D01*
X253737692Y-70635554D01*
X253891417Y-70585537D01*
X254030776Y-70517427D01*
X254154526Y-70432330D01*
X254261419Y-70331351D01*
X254375567Y-70173917D01*
X254438281Y-70040176D01*
X254479985Y-69894236D01*
X254499432Y-69737201D01*
X254500753Y-69682581D01*
X254485795Y-69494446D01*
X254440166Y-69327151D01*
X254362731Y-69179553D01*
X254252358Y-69050512D01*
X254107913Y-68938883D01*
X253976538Y-68865903D01*
X253824882Y-68801594D01*
X253652466Y-68745474D01*
X253458813Y-68697062D01*
X253257313Y-68650900D01*
X253106810Y-68621778D01*
X252961474Y-68591732D01*
X252829399Y-68551249D01*
X252689984Y-68481980D01*
X252589936Y-68374664D01*
X252544719Y-68220023D01*
X252543635Y-68187815D01*
X252575951Y-68032785D01*
X252667098Y-67905794D01*
X252808380Y-67813422D01*
X252962789Y-67766789D01*
X253110767Y-67754040D01*
X253270204Y-67768114D01*
X253420986Y-67810300D01*
X253563113Y-67880547D01*
X253696584Y-67978804D01*
X253821399Y-68105020D01*
X253937560Y-68259142D01*
X254019000Y-68393016D01*
X254095571Y-68542537D01*
X254143914Y-68650900D01*
X254366664Y-68650900D01*
X254311709Y-67568660D01*
G37*
G36*
X256523180Y-67582986D02*
G01*
X256694485Y-67590126D01*
X256846122Y-67604217D01*
X257007011Y-67630937D01*
X257150575Y-67669099D01*
X257304173Y-67729127D01*
X257353252Y-67754277D01*
X257483909Y-67847119D01*
X257588406Y-67963841D01*
X257665091Y-68101602D01*
X257712314Y-68257563D01*
X257728422Y-68428883D01*
X257727118Y-68483326D01*
X257707565Y-68636393D01*
X257645097Y-68816485D01*
X257541173Y-68969083D01*
X257395947Y-69094109D01*
X257260016Y-69169738D01*
X257101005Y-69229782D01*
X256918979Y-69274208D01*
X256714003Y-69302984D01*
X256564634Y-69313457D01*
X256405115Y-69316950D01*
X255934703Y-69316950D01*
X255934703Y-70021102D01*
X255935355Y-70189589D01*
X255964012Y-70342770D01*
X256002641Y-70369972D01*
X256153033Y-70397926D01*
X256312791Y-70402121D01*
X256405115Y-70402121D01*
X256405115Y-70630000D01*
X254741821Y-70630000D01*
X254741821Y-70402121D01*
X254804836Y-70402121D01*
X254845001Y-70401921D01*
X255001835Y-70394547D01*
X255149218Y-70342770D01*
X255160922Y-70322470D01*
X255178069Y-70175536D01*
X255178527Y-70021102D01*
X255178527Y-68192944D01*
X255178035Y-68066182D01*
X255934703Y-68066182D01*
X255934703Y-69086140D01*
X256178702Y-69086140D01*
X256365904Y-69077605D01*
X256522546Y-69050969D01*
X256678003Y-68989866D01*
X256791778Y-68895046D01*
X256867242Y-68763492D01*
X256907765Y-68592184D01*
X256917292Y-68424487D01*
X256903928Y-68243793D01*
X256863187Y-68096060D01*
X256776791Y-67960944D01*
X256647891Y-67870264D01*
X256506794Y-67827450D01*
X256334040Y-67813391D01*
X256165512Y-67813391D01*
X256060997Y-67821707D01*
X255948211Y-67917939D01*
X255934703Y-68066182D01*
X255178035Y-68066182D01*
X255177875Y-68025043D01*
X255149218Y-67872009D01*
X255110967Y-67845230D01*
X254961955Y-67817570D01*
X254804836Y-67813391D01*
X254741821Y-67813391D01*
X254741821Y-67581849D01*
X256409511Y-67581849D01*
X256523180Y-67582986D01*
G37*
D13*
X247649999Y-74998328D02*
X247649999Y-73498328D01*
X247649999Y-74212614D02*
X248507142Y-74212614D01*
X248507142Y-74998328D02*
X248507142Y-73498328D01*
X249792857Y-74926900D02*
X249650000Y-74998328D01*
X249650000Y-74998328D02*
X249364286Y-74998328D01*
X249364286Y-74998328D02*
X249221428Y-74926900D01*
X249221428Y-74926900D02*
X249150000Y-74784042D01*
X249150000Y-74784042D02*
X249150000Y-74212614D01*
X249150000Y-74212614D02*
X249221428Y-74069757D01*
X249221428Y-74069757D02*
X249364286Y-73998328D01*
X249364286Y-73998328D02*
X249650000Y-73998328D01*
X249650000Y-73998328D02*
X249792857Y-74069757D01*
X249792857Y-74069757D02*
X249864286Y-74212614D01*
X249864286Y-74212614D02*
X249864286Y-74355471D01*
X249864286Y-74355471D02*
X249150000Y-74498328D01*
X250721428Y-74998328D02*
X250578571Y-74926900D01*
X250578571Y-74926900D02*
X250507142Y-74784042D01*
X250507142Y-74784042D02*
X250507142Y-73498328D01*
X251507142Y-74998328D02*
X251364285Y-74926900D01*
X251364285Y-74926900D02*
X251292856Y-74784042D01*
X251292856Y-74784042D02*
X251292856Y-73498328D01*
X252292856Y-74998328D02*
X252149999Y-74926900D01*
X252149999Y-74926900D02*
X252078570Y-74855471D01*
X252078570Y-74855471D02*
X252007142Y-74712614D01*
X252007142Y-74712614D02*
X252007142Y-74284042D01*
X252007142Y-74284042D02*
X252078570Y-74141185D01*
X252078570Y-74141185D02*
X252149999Y-74069757D01*
X252149999Y-74069757D02*
X252292856Y-73998328D01*
X252292856Y-73998328D02*
X252507142Y-73998328D01*
X252507142Y-73998328D02*
X252649999Y-74069757D01*
X252649999Y-74069757D02*
X252721428Y-74141185D01*
X252721428Y-74141185D02*
X252792856Y-74284042D01*
X252792856Y-74284042D02*
X252792856Y-74712614D01*
X252792856Y-74712614D02*
X252721428Y-74855471D01*
X252721428Y-74855471D02*
X252649999Y-74926900D01*
X252649999Y-74926900D02*
X252507142Y-74998328D01*
X252507142Y-74998328D02*
X252292856Y-74998328D01*
X254578570Y-74998328D02*
X254578570Y-73498328D01*
X254578570Y-73498328D02*
X254935713Y-73498328D01*
X254935713Y-73498328D02*
X255149999Y-73569757D01*
X255149999Y-73569757D02*
X255292856Y-73712614D01*
X255292856Y-73712614D02*
X255364285Y-73855471D01*
X255364285Y-73855471D02*
X255435713Y-74141185D01*
X255435713Y-74141185D02*
X255435713Y-74355471D01*
X255435713Y-74355471D02*
X255364285Y-74641185D01*
X255364285Y-74641185D02*
X255292856Y-74784042D01*
X255292856Y-74784042D02*
X255149999Y-74926900D01*
X255149999Y-74926900D02*
X254935713Y-74998328D01*
X254935713Y-74998328D02*
X254578570Y-74998328D01*
X256078570Y-74998328D02*
X256078570Y-73998328D01*
X256078570Y-73498328D02*
X256007142Y-73569757D01*
X256007142Y-73569757D02*
X256078570Y-73641185D01*
X256078570Y-73641185D02*
X256149999Y-73569757D01*
X256149999Y-73569757D02*
X256078570Y-73498328D01*
X256078570Y-73498328D02*
X256078570Y-73641185D01*
X256721428Y-74926900D02*
X256864285Y-74998328D01*
X256864285Y-74998328D02*
X257149999Y-74998328D01*
X257149999Y-74998328D02*
X257292856Y-74926900D01*
X257292856Y-74926900D02*
X257364285Y-74784042D01*
X257364285Y-74784042D02*
X257364285Y-74712614D01*
X257364285Y-74712614D02*
X257292856Y-74569757D01*
X257292856Y-74569757D02*
X257149999Y-74498328D01*
X257149999Y-74498328D02*
X256935714Y-74498328D01*
X256935714Y-74498328D02*
X256792856Y-74426900D01*
X256792856Y-74426900D02*
X256721428Y-74284042D01*
X256721428Y-74284042D02*
X256721428Y-74212614D01*
X256721428Y-74212614D02*
X256792856Y-74069757D01*
X256792856Y-74069757D02*
X256935714Y-73998328D01*
X256935714Y-73998328D02*
X257149999Y-73998328D01*
X257149999Y-73998328D02*
X257292856Y-74069757D01*
X258007142Y-73998328D02*
X258007142Y-75498328D01*
X258007142Y-74069757D02*
X258150000Y-73998328D01*
X258150000Y-73998328D02*
X258435714Y-73998328D01*
X258435714Y-73998328D02*
X258578571Y-74069757D01*
X258578571Y-74069757D02*
X258650000Y-74141185D01*
X258650000Y-74141185D02*
X258721428Y-74284042D01*
X258721428Y-74284042D02*
X258721428Y-74712614D01*
X258721428Y-74712614D02*
X258650000Y-74855471D01*
X258650000Y-74855471D02*
X258578571Y-74926900D01*
X258578571Y-74926900D02*
X258435714Y-74998328D01*
X258435714Y-74998328D02*
X258150000Y-74998328D01*
X258150000Y-74998328D02*
X258007142Y-74926900D01*
D14*
X263107142Y-110664819D02*
X262773809Y-110188628D01*
X262535714Y-110664819D02*
X262535714Y-109664819D01*
X262535714Y-109664819D02*
X262916666Y-109664819D01*
X262916666Y-109664819D02*
X263011904Y-109712438D01*
X263011904Y-109712438D02*
X263059523Y-109760057D01*
X263059523Y-109760057D02*
X263107142Y-109855295D01*
X263107142Y-109855295D02*
X263107142Y-109998152D01*
X263107142Y-109998152D02*
X263059523Y-110093390D01*
X263059523Y-110093390D02*
X263011904Y-110141009D01*
X263011904Y-110141009D02*
X262916666Y-110188628D01*
X262916666Y-110188628D02*
X262535714Y-110188628D01*
X264011904Y-109664819D02*
X263535714Y-109664819D01*
X263535714Y-109664819D02*
X263488095Y-110141009D01*
X263488095Y-110141009D02*
X263535714Y-110093390D01*
X263535714Y-110093390D02*
X263630952Y-110045771D01*
X263630952Y-110045771D02*
X263869047Y-110045771D01*
X263869047Y-110045771D02*
X263964285Y-110093390D01*
X263964285Y-110093390D02*
X264011904Y-110141009D01*
X264011904Y-110141009D02*
X264059523Y-110236247D01*
X264059523Y-110236247D02*
X264059523Y-110474342D01*
X264059523Y-110474342D02*
X264011904Y-110569580D01*
X264011904Y-110569580D02*
X263964285Y-110617200D01*
X263964285Y-110617200D02*
X263869047Y-110664819D01*
X263869047Y-110664819D02*
X263630952Y-110664819D01*
X263630952Y-110664819D02*
X263535714Y-110617200D01*
X263535714Y-110617200D02*
X263488095Y-110569580D01*
X264392857Y-109664819D02*
X265011904Y-109664819D01*
X265011904Y-109664819D02*
X264678571Y-110045771D01*
X264678571Y-110045771D02*
X264821428Y-110045771D01*
X264821428Y-110045771D02*
X264916666Y-110093390D01*
X264916666Y-110093390D02*
X264964285Y-110141009D01*
X264964285Y-110141009D02*
X265011904Y-110236247D01*
X265011904Y-110236247D02*
X265011904Y-110474342D01*
X265011904Y-110474342D02*
X264964285Y-110569580D01*
X264964285Y-110569580D02*
X264916666Y-110617200D01*
X264916666Y-110617200D02*
X264821428Y-110664819D01*
X264821428Y-110664819D02*
X264535714Y-110664819D01*
X264535714Y-110664819D02*
X264440476Y-110617200D01*
X264440476Y-110617200D02*
X264392857Y-110569580D01*
X263007142Y-115564819D02*
X262673809Y-115088628D01*
X262435714Y-115564819D02*
X262435714Y-114564819D01*
X262435714Y-114564819D02*
X262816666Y-114564819D01*
X262816666Y-114564819D02*
X262911904Y-114612438D01*
X262911904Y-114612438D02*
X262959523Y-114660057D01*
X262959523Y-114660057D02*
X263007142Y-114755295D01*
X263007142Y-114755295D02*
X263007142Y-114898152D01*
X263007142Y-114898152D02*
X262959523Y-114993390D01*
X262959523Y-114993390D02*
X262911904Y-115041009D01*
X262911904Y-115041009D02*
X262816666Y-115088628D01*
X262816666Y-115088628D02*
X262435714Y-115088628D01*
X263911904Y-114564819D02*
X263435714Y-114564819D01*
X263435714Y-114564819D02*
X263388095Y-115041009D01*
X263388095Y-115041009D02*
X263435714Y-114993390D01*
X263435714Y-114993390D02*
X263530952Y-114945771D01*
X263530952Y-114945771D02*
X263769047Y-114945771D01*
X263769047Y-114945771D02*
X263864285Y-114993390D01*
X263864285Y-114993390D02*
X263911904Y-115041009D01*
X263911904Y-115041009D02*
X263959523Y-115136247D01*
X263959523Y-115136247D02*
X263959523Y-115374342D01*
X263959523Y-115374342D02*
X263911904Y-115469580D01*
X263911904Y-115469580D02*
X263864285Y-115517200D01*
X263864285Y-115517200D02*
X263769047Y-115564819D01*
X263769047Y-115564819D02*
X263530952Y-115564819D01*
X263530952Y-115564819D02*
X263435714Y-115517200D01*
X263435714Y-115517200D02*
X263388095Y-115469580D01*
X264340476Y-114660057D02*
X264388095Y-114612438D01*
X264388095Y-114612438D02*
X264483333Y-114564819D01*
X264483333Y-114564819D02*
X264721428Y-114564819D01*
X264721428Y-114564819D02*
X264816666Y-114612438D01*
X264816666Y-114612438D02*
X264864285Y-114660057D01*
X264864285Y-114660057D02*
X264911904Y-114755295D01*
X264911904Y-114755295D02*
X264911904Y-114850533D01*
X264911904Y-114850533D02*
X264864285Y-114993390D01*
X264864285Y-114993390D02*
X264292857Y-115564819D01*
X264292857Y-115564819D02*
X264911904Y-115564819D01*
X235647142Y-73304819D02*
X235313809Y-72828628D01*
X235075714Y-73304819D02*
X235075714Y-72304819D01*
X235075714Y-72304819D02*
X235456666Y-72304819D01*
X235456666Y-72304819D02*
X235551904Y-72352438D01*
X235551904Y-72352438D02*
X235599523Y-72400057D01*
X235599523Y-72400057D02*
X235647142Y-72495295D01*
X235647142Y-72495295D02*
X235647142Y-72638152D01*
X235647142Y-72638152D02*
X235599523Y-72733390D01*
X235599523Y-72733390D02*
X235551904Y-72781009D01*
X235551904Y-72781009D02*
X235456666Y-72828628D01*
X235456666Y-72828628D02*
X235075714Y-72828628D01*
X236028095Y-72400057D02*
X236075714Y-72352438D01*
X236075714Y-72352438D02*
X236170952Y-72304819D01*
X236170952Y-72304819D02*
X236409047Y-72304819D01*
X236409047Y-72304819D02*
X236504285Y-72352438D01*
X236504285Y-72352438D02*
X236551904Y-72400057D01*
X236551904Y-72400057D02*
X236599523Y-72495295D01*
X236599523Y-72495295D02*
X236599523Y-72590533D01*
X236599523Y-72590533D02*
X236551904Y-72733390D01*
X236551904Y-72733390D02*
X235980476Y-73304819D01*
X235980476Y-73304819D02*
X236599523Y-73304819D01*
X236932857Y-72304819D02*
X237599523Y-72304819D01*
X237599523Y-72304819D02*
X237170952Y-73304819D01*
X264012142Y-100409580D02*
X263964523Y-100457200D01*
X263964523Y-100457200D02*
X263821666Y-100504819D01*
X263821666Y-100504819D02*
X263726428Y-100504819D01*
X263726428Y-100504819D02*
X263583571Y-100457200D01*
X263583571Y-100457200D02*
X263488333Y-100361961D01*
X263488333Y-100361961D02*
X263440714Y-100266723D01*
X263440714Y-100266723D02*
X263393095Y-100076247D01*
X263393095Y-100076247D02*
X263393095Y-99933390D01*
X263393095Y-99933390D02*
X263440714Y-99742914D01*
X263440714Y-99742914D02*
X263488333Y-99647676D01*
X263488333Y-99647676D02*
X263583571Y-99552438D01*
X263583571Y-99552438D02*
X263726428Y-99504819D01*
X263726428Y-99504819D02*
X263821666Y-99504819D01*
X263821666Y-99504819D02*
X263964523Y-99552438D01*
X263964523Y-99552438D02*
X264012142Y-99600057D01*
X264345476Y-99504819D02*
X264964523Y-99504819D01*
X264964523Y-99504819D02*
X264631190Y-99885771D01*
X264631190Y-99885771D02*
X264774047Y-99885771D01*
X264774047Y-99885771D02*
X264869285Y-99933390D01*
X264869285Y-99933390D02*
X264916904Y-99981009D01*
X264916904Y-99981009D02*
X264964523Y-100076247D01*
X264964523Y-100076247D02*
X264964523Y-100314342D01*
X264964523Y-100314342D02*
X264916904Y-100409580D01*
X264916904Y-100409580D02*
X264869285Y-100457200D01*
X264869285Y-100457200D02*
X264774047Y-100504819D01*
X264774047Y-100504819D02*
X264488333Y-100504819D01*
X264488333Y-100504819D02*
X264393095Y-100457200D01*
X264393095Y-100457200D02*
X264345476Y-100409580D01*
X265869285Y-99504819D02*
X265393095Y-99504819D01*
X265393095Y-99504819D02*
X265345476Y-99981009D01*
X265345476Y-99981009D02*
X265393095Y-99933390D01*
X265393095Y-99933390D02*
X265488333Y-99885771D01*
X265488333Y-99885771D02*
X265726428Y-99885771D01*
X265726428Y-99885771D02*
X265821666Y-99933390D01*
X265821666Y-99933390D02*
X265869285Y-99981009D01*
X265869285Y-99981009D02*
X265916904Y-100076247D01*
X265916904Y-100076247D02*
X265916904Y-100314342D01*
X265916904Y-100314342D02*
X265869285Y-100409580D01*
X265869285Y-100409580D02*
X265821666Y-100457200D01*
X265821666Y-100457200D02*
X265726428Y-100504819D01*
X265726428Y-100504819D02*
X265488333Y-100504819D01*
X265488333Y-100504819D02*
X265393095Y-100457200D01*
X265393095Y-100457200D02*
X265345476Y-100409580D01*
X225934819Y-95356666D02*
X225458628Y-95689999D01*
X225934819Y-95928094D02*
X224934819Y-95928094D01*
X224934819Y-95928094D02*
X224934819Y-95547142D01*
X224934819Y-95547142D02*
X224982438Y-95451904D01*
X224982438Y-95451904D02*
X225030057Y-95404285D01*
X225030057Y-95404285D02*
X225125295Y-95356666D01*
X225125295Y-95356666D02*
X225268152Y-95356666D01*
X225268152Y-95356666D02*
X225363390Y-95404285D01*
X225363390Y-95404285D02*
X225411009Y-95451904D01*
X225411009Y-95451904D02*
X225458628Y-95547142D01*
X225458628Y-95547142D02*
X225458628Y-95928094D01*
X224934819Y-95023332D02*
X224934819Y-94356666D01*
X224934819Y-94356666D02*
X225934819Y-94785237D01*
X233067142Y-70799580D02*
X233019523Y-70847200D01*
X233019523Y-70847200D02*
X232876666Y-70894819D01*
X232876666Y-70894819D02*
X232781428Y-70894819D01*
X232781428Y-70894819D02*
X232638571Y-70847200D01*
X232638571Y-70847200D02*
X232543333Y-70751961D01*
X232543333Y-70751961D02*
X232495714Y-70656723D01*
X232495714Y-70656723D02*
X232448095Y-70466247D01*
X232448095Y-70466247D02*
X232448095Y-70323390D01*
X232448095Y-70323390D02*
X232495714Y-70132914D01*
X232495714Y-70132914D02*
X232543333Y-70037676D01*
X232543333Y-70037676D02*
X232638571Y-69942438D01*
X232638571Y-69942438D02*
X232781428Y-69894819D01*
X232781428Y-69894819D02*
X232876666Y-69894819D01*
X232876666Y-69894819D02*
X233019523Y-69942438D01*
X233019523Y-69942438D02*
X233067142Y-69990057D01*
X233448095Y-69990057D02*
X233495714Y-69942438D01*
X233495714Y-69942438D02*
X233590952Y-69894819D01*
X233590952Y-69894819D02*
X233829047Y-69894819D01*
X233829047Y-69894819D02*
X233924285Y-69942438D01*
X233924285Y-69942438D02*
X233971904Y-69990057D01*
X233971904Y-69990057D02*
X234019523Y-70085295D01*
X234019523Y-70085295D02*
X234019523Y-70180533D01*
X234019523Y-70180533D02*
X233971904Y-70323390D01*
X233971904Y-70323390D02*
X233400476Y-70894819D01*
X233400476Y-70894819D02*
X234019523Y-70894819D01*
X234352857Y-69894819D02*
X234971904Y-69894819D01*
X234971904Y-69894819D02*
X234638571Y-70275771D01*
X234638571Y-70275771D02*
X234781428Y-70275771D01*
X234781428Y-70275771D02*
X234876666Y-70323390D01*
X234876666Y-70323390D02*
X234924285Y-70371009D01*
X234924285Y-70371009D02*
X234971904Y-70466247D01*
X234971904Y-70466247D02*
X234971904Y-70704342D01*
X234971904Y-70704342D02*
X234924285Y-70799580D01*
X234924285Y-70799580D02*
X234876666Y-70847200D01*
X234876666Y-70847200D02*
X234781428Y-70894819D01*
X234781428Y-70894819D02*
X234495714Y-70894819D01*
X234495714Y-70894819D02*
X234400476Y-70847200D01*
X234400476Y-70847200D02*
X234352857Y-70799580D01*
X226876666Y-107924819D02*
X226876666Y-108639104D01*
X226876666Y-108639104D02*
X226829047Y-108781961D01*
X226829047Y-108781961D02*
X226733809Y-108877200D01*
X226733809Y-108877200D02*
X226590952Y-108924819D01*
X226590952Y-108924819D02*
X226495714Y-108924819D01*
X227781428Y-107924819D02*
X227590952Y-107924819D01*
X227590952Y-107924819D02*
X227495714Y-107972438D01*
X227495714Y-107972438D02*
X227448095Y-108020057D01*
X227448095Y-108020057D02*
X227352857Y-108162914D01*
X227352857Y-108162914D02*
X227305238Y-108353390D01*
X227305238Y-108353390D02*
X227305238Y-108734342D01*
X227305238Y-108734342D02*
X227352857Y-108829580D01*
X227352857Y-108829580D02*
X227400476Y-108877200D01*
X227400476Y-108877200D02*
X227495714Y-108924819D01*
X227495714Y-108924819D02*
X227686190Y-108924819D01*
X227686190Y-108924819D02*
X227781428Y-108877200D01*
X227781428Y-108877200D02*
X227829047Y-108829580D01*
X227829047Y-108829580D02*
X227876666Y-108734342D01*
X227876666Y-108734342D02*
X227876666Y-108496247D01*
X227876666Y-108496247D02*
X227829047Y-108401009D01*
X227829047Y-108401009D02*
X227781428Y-108353390D01*
X227781428Y-108353390D02*
X227686190Y-108305771D01*
X227686190Y-108305771D02*
X227495714Y-108305771D01*
X227495714Y-108305771D02*
X227400476Y-108353390D01*
X227400476Y-108353390D02*
X227352857Y-108401009D01*
X227352857Y-108401009D02*
X227305238Y-108496247D01*
X223664819Y-97102857D02*
X223188628Y-97436190D01*
X223664819Y-97674285D02*
X222664819Y-97674285D01*
X222664819Y-97674285D02*
X222664819Y-97293333D01*
X222664819Y-97293333D02*
X222712438Y-97198095D01*
X222712438Y-97198095D02*
X222760057Y-97150476D01*
X222760057Y-97150476D02*
X222855295Y-97102857D01*
X222855295Y-97102857D02*
X222998152Y-97102857D01*
X222998152Y-97102857D02*
X223093390Y-97150476D01*
X223093390Y-97150476D02*
X223141009Y-97198095D01*
X223141009Y-97198095D02*
X223188628Y-97293333D01*
X223188628Y-97293333D02*
X223188628Y-97674285D01*
X222998152Y-96245714D02*
X223664819Y-96245714D01*
X222617200Y-96483809D02*
X223331485Y-96721904D01*
X223331485Y-96721904D02*
X223331485Y-96102857D01*
X222998152Y-95293333D02*
X223664819Y-95293333D01*
X222617200Y-95531428D02*
X223331485Y-95769523D01*
X223331485Y-95769523D02*
X223331485Y-95150476D01*
X251954819Y-56488094D02*
X250954819Y-56488094D01*
X250954819Y-56488094D02*
X250954819Y-56249999D01*
X250954819Y-56249999D02*
X251002438Y-56107142D01*
X251002438Y-56107142D02*
X251097676Y-56011904D01*
X251097676Y-56011904D02*
X251192914Y-55964285D01*
X251192914Y-55964285D02*
X251383390Y-55916666D01*
X251383390Y-55916666D02*
X251526247Y-55916666D01*
X251526247Y-55916666D02*
X251716723Y-55964285D01*
X251716723Y-55964285D02*
X251811961Y-56011904D01*
X251811961Y-56011904D02*
X251907200Y-56107142D01*
X251907200Y-56107142D02*
X251954819Y-56249999D01*
X251954819Y-56249999D02*
X251954819Y-56488094D01*
X251954819Y-54964285D02*
X251954819Y-55535713D01*
X251954819Y-55249999D02*
X250954819Y-55249999D01*
X250954819Y-55249999D02*
X251097676Y-55345237D01*
X251097676Y-55345237D02*
X251192914Y-55440475D01*
X251192914Y-55440475D02*
X251240533Y-55535713D01*
X264266666Y-59349819D02*
X264266666Y-60064104D01*
X264266666Y-60064104D02*
X264219047Y-60206961D01*
X264219047Y-60206961D02*
X264123809Y-60302200D01*
X264123809Y-60302200D02*
X263980952Y-60349819D01*
X263980952Y-60349819D02*
X263885714Y-60349819D01*
X265266666Y-60349819D02*
X264695238Y-60349819D01*
X264980952Y-60349819D02*
X264980952Y-59349819D01*
X264980952Y-59349819D02*
X264885714Y-59492676D01*
X264885714Y-59492676D02*
X264790476Y-59587914D01*
X264790476Y-59587914D02*
X264695238Y-59635533D01*
X244532142Y-63524819D02*
X244198809Y-63048628D01*
X243960714Y-63524819D02*
X243960714Y-62524819D01*
X243960714Y-62524819D02*
X244341666Y-62524819D01*
X244341666Y-62524819D02*
X244436904Y-62572438D01*
X244436904Y-62572438D02*
X244484523Y-62620057D01*
X244484523Y-62620057D02*
X244532142Y-62715295D01*
X244532142Y-62715295D02*
X244532142Y-62858152D01*
X244532142Y-62858152D02*
X244484523Y-62953390D01*
X244484523Y-62953390D02*
X244436904Y-63001009D01*
X244436904Y-63001009D02*
X244341666Y-63048628D01*
X244341666Y-63048628D02*
X243960714Y-63048628D01*
X245389285Y-62858152D02*
X245389285Y-63524819D01*
X245151190Y-62477200D02*
X244913095Y-63191485D01*
X244913095Y-63191485D02*
X245532142Y-63191485D01*
X245865476Y-62620057D02*
X245913095Y-62572438D01*
X245913095Y-62572438D02*
X246008333Y-62524819D01*
X246008333Y-62524819D02*
X246246428Y-62524819D01*
X246246428Y-62524819D02*
X246341666Y-62572438D01*
X246341666Y-62572438D02*
X246389285Y-62620057D01*
X246389285Y-62620057D02*
X246436904Y-62715295D01*
X246436904Y-62715295D02*
X246436904Y-62810533D01*
X246436904Y-62810533D02*
X246389285Y-62953390D01*
X246389285Y-62953390D02*
X245817857Y-63524819D01*
X245817857Y-63524819D02*
X246436904Y-63524819D01*
X216396666Y-76804819D02*
X216396666Y-77519104D01*
X216396666Y-77519104D02*
X216349047Y-77661961D01*
X216349047Y-77661961D02*
X216253809Y-77757200D01*
X216253809Y-77757200D02*
X216110952Y-77804819D01*
X216110952Y-77804819D02*
X216015714Y-77804819D01*
X217301428Y-77138152D02*
X217301428Y-77804819D01*
X217063333Y-76757200D02*
X216825238Y-77471485D01*
X216825238Y-77471485D02*
X217444285Y-77471485D01*
X227182142Y-74524819D02*
X226848809Y-74048628D01*
X226610714Y-74524819D02*
X226610714Y-73524819D01*
X226610714Y-73524819D02*
X226991666Y-73524819D01*
X226991666Y-73524819D02*
X227086904Y-73572438D01*
X227086904Y-73572438D02*
X227134523Y-73620057D01*
X227134523Y-73620057D02*
X227182142Y-73715295D01*
X227182142Y-73715295D02*
X227182142Y-73858152D01*
X227182142Y-73858152D02*
X227134523Y-73953390D01*
X227134523Y-73953390D02*
X227086904Y-74001009D01*
X227086904Y-74001009D02*
X226991666Y-74048628D01*
X226991666Y-74048628D02*
X226610714Y-74048628D01*
X227563095Y-73620057D02*
X227610714Y-73572438D01*
X227610714Y-73572438D02*
X227705952Y-73524819D01*
X227705952Y-73524819D02*
X227944047Y-73524819D01*
X227944047Y-73524819D02*
X228039285Y-73572438D01*
X228039285Y-73572438D02*
X228086904Y-73620057D01*
X228086904Y-73620057D02*
X228134523Y-73715295D01*
X228134523Y-73715295D02*
X228134523Y-73810533D01*
X228134523Y-73810533D02*
X228086904Y-73953390D01*
X228086904Y-73953390D02*
X227515476Y-74524819D01*
X227515476Y-74524819D02*
X228134523Y-74524819D01*
X228705952Y-73953390D02*
X228610714Y-73905771D01*
X228610714Y-73905771D02*
X228563095Y-73858152D01*
X228563095Y-73858152D02*
X228515476Y-73762914D01*
X228515476Y-73762914D02*
X228515476Y-73715295D01*
X228515476Y-73715295D02*
X228563095Y-73620057D01*
X228563095Y-73620057D02*
X228610714Y-73572438D01*
X228610714Y-73572438D02*
X228705952Y-73524819D01*
X228705952Y-73524819D02*
X228896428Y-73524819D01*
X228896428Y-73524819D02*
X228991666Y-73572438D01*
X228991666Y-73572438D02*
X229039285Y-73620057D01*
X229039285Y-73620057D02*
X229086904Y-73715295D01*
X229086904Y-73715295D02*
X229086904Y-73762914D01*
X229086904Y-73762914D02*
X229039285Y-73858152D01*
X229039285Y-73858152D02*
X228991666Y-73905771D01*
X228991666Y-73905771D02*
X228896428Y-73953390D01*
X228896428Y-73953390D02*
X228705952Y-73953390D01*
X228705952Y-73953390D02*
X228610714Y-74001009D01*
X228610714Y-74001009D02*
X228563095Y-74048628D01*
X228563095Y-74048628D02*
X228515476Y-74143866D01*
X228515476Y-74143866D02*
X228515476Y-74334342D01*
X228515476Y-74334342D02*
X228563095Y-74429580D01*
X228563095Y-74429580D02*
X228610714Y-74477200D01*
X228610714Y-74477200D02*
X228705952Y-74524819D01*
X228705952Y-74524819D02*
X228896428Y-74524819D01*
X228896428Y-74524819D02*
X228991666Y-74477200D01*
X228991666Y-74477200D02*
X229039285Y-74429580D01*
X229039285Y-74429580D02*
X229086904Y-74334342D01*
X229086904Y-74334342D02*
X229086904Y-74143866D01*
X229086904Y-74143866D02*
X229039285Y-74048628D01*
X229039285Y-74048628D02*
X228991666Y-74001009D01*
X228991666Y-74001009D02*
X228896428Y-73953390D01*
X231028628Y-91996190D02*
X231504819Y-91996190D01*
X230504819Y-92329523D02*
X231028628Y-91996190D01*
X231028628Y-91996190D02*
X230504819Y-91662857D01*
X231504819Y-90805714D02*
X231504819Y-91377142D01*
X231504819Y-91091428D02*
X230504819Y-91091428D01*
X230504819Y-91091428D02*
X230647676Y-91186666D01*
X230647676Y-91186666D02*
X230742914Y-91281904D01*
X230742914Y-91281904D02*
X230790533Y-91377142D01*
X265569580Y-75582857D02*
X265617200Y-75630476D01*
X265617200Y-75630476D02*
X265664819Y-75773333D01*
X265664819Y-75773333D02*
X265664819Y-75868571D01*
X265664819Y-75868571D02*
X265617200Y-76011428D01*
X265617200Y-76011428D02*
X265521961Y-76106666D01*
X265521961Y-76106666D02*
X265426723Y-76154285D01*
X265426723Y-76154285D02*
X265236247Y-76201904D01*
X265236247Y-76201904D02*
X265093390Y-76201904D01*
X265093390Y-76201904D02*
X264902914Y-76154285D01*
X264902914Y-76154285D02*
X264807676Y-76106666D01*
X264807676Y-76106666D02*
X264712438Y-76011428D01*
X264712438Y-76011428D02*
X264664819Y-75868571D01*
X264664819Y-75868571D02*
X264664819Y-75773333D01*
X264664819Y-75773333D02*
X264712438Y-75630476D01*
X264712438Y-75630476D02*
X264760057Y-75582857D01*
X264664819Y-74725714D02*
X264664819Y-74916190D01*
X264664819Y-74916190D02*
X264712438Y-75011428D01*
X264712438Y-75011428D02*
X264760057Y-75059047D01*
X264760057Y-75059047D02*
X264902914Y-75154285D01*
X264902914Y-75154285D02*
X265093390Y-75201904D01*
X265093390Y-75201904D02*
X265474342Y-75201904D01*
X265474342Y-75201904D02*
X265569580Y-75154285D01*
X265569580Y-75154285D02*
X265617200Y-75106666D01*
X265617200Y-75106666D02*
X265664819Y-75011428D01*
X265664819Y-75011428D02*
X265664819Y-74820952D01*
X265664819Y-74820952D02*
X265617200Y-74725714D01*
X265617200Y-74725714D02*
X265569580Y-74678095D01*
X265569580Y-74678095D02*
X265474342Y-74630476D01*
X265474342Y-74630476D02*
X265236247Y-74630476D01*
X265236247Y-74630476D02*
X265141009Y-74678095D01*
X265141009Y-74678095D02*
X265093390Y-74725714D01*
X265093390Y-74725714D02*
X265045771Y-74820952D01*
X265045771Y-74820952D02*
X265045771Y-75011428D01*
X265045771Y-75011428D02*
X265093390Y-75106666D01*
X265093390Y-75106666D02*
X265141009Y-75154285D01*
X265141009Y-75154285D02*
X265236247Y-75201904D01*
X264998152Y-73773333D02*
X265664819Y-73773333D01*
X264617200Y-74011428D02*
X265331485Y-74249523D01*
X265331485Y-74249523D02*
X265331485Y-73630476D01*
X235617142Y-76274819D02*
X235283809Y-75798628D01*
X235045714Y-76274819D02*
X235045714Y-75274819D01*
X235045714Y-75274819D02*
X235426666Y-75274819D01*
X235426666Y-75274819D02*
X235521904Y-75322438D01*
X235521904Y-75322438D02*
X235569523Y-75370057D01*
X235569523Y-75370057D02*
X235617142Y-75465295D01*
X235617142Y-75465295D02*
X235617142Y-75608152D01*
X235617142Y-75608152D02*
X235569523Y-75703390D01*
X235569523Y-75703390D02*
X235521904Y-75751009D01*
X235521904Y-75751009D02*
X235426666Y-75798628D01*
X235426666Y-75798628D02*
X235045714Y-75798628D01*
X235998095Y-75370057D02*
X236045714Y-75322438D01*
X236045714Y-75322438D02*
X236140952Y-75274819D01*
X236140952Y-75274819D02*
X236379047Y-75274819D01*
X236379047Y-75274819D02*
X236474285Y-75322438D01*
X236474285Y-75322438D02*
X236521904Y-75370057D01*
X236521904Y-75370057D02*
X236569523Y-75465295D01*
X236569523Y-75465295D02*
X236569523Y-75560533D01*
X236569523Y-75560533D02*
X236521904Y-75703390D01*
X236521904Y-75703390D02*
X235950476Y-76274819D01*
X235950476Y-76274819D02*
X236569523Y-76274819D01*
X236950476Y-75370057D02*
X236998095Y-75322438D01*
X236998095Y-75322438D02*
X237093333Y-75274819D01*
X237093333Y-75274819D02*
X237331428Y-75274819D01*
X237331428Y-75274819D02*
X237426666Y-75322438D01*
X237426666Y-75322438D02*
X237474285Y-75370057D01*
X237474285Y-75370057D02*
X237521904Y-75465295D01*
X237521904Y-75465295D02*
X237521904Y-75560533D01*
X237521904Y-75560533D02*
X237474285Y-75703390D01*
X237474285Y-75703390D02*
X236902857Y-76274819D01*
X236902857Y-76274819D02*
X237521904Y-76274819D01*
X245697142Y-66889580D02*
X245649523Y-66937200D01*
X245649523Y-66937200D02*
X245506666Y-66984819D01*
X245506666Y-66984819D02*
X245411428Y-66984819D01*
X245411428Y-66984819D02*
X245268571Y-66937200D01*
X245268571Y-66937200D02*
X245173333Y-66841961D01*
X245173333Y-66841961D02*
X245125714Y-66746723D01*
X245125714Y-66746723D02*
X245078095Y-66556247D01*
X245078095Y-66556247D02*
X245078095Y-66413390D01*
X245078095Y-66413390D02*
X245125714Y-66222914D01*
X245125714Y-66222914D02*
X245173333Y-66127676D01*
X245173333Y-66127676D02*
X245268571Y-66032438D01*
X245268571Y-66032438D02*
X245411428Y-65984819D01*
X245411428Y-65984819D02*
X245506666Y-65984819D01*
X245506666Y-65984819D02*
X245649523Y-66032438D01*
X245649523Y-66032438D02*
X245697142Y-66080057D01*
X246601904Y-65984819D02*
X246125714Y-65984819D01*
X246125714Y-65984819D02*
X246078095Y-66461009D01*
X246078095Y-66461009D02*
X246125714Y-66413390D01*
X246125714Y-66413390D02*
X246220952Y-66365771D01*
X246220952Y-66365771D02*
X246459047Y-66365771D01*
X246459047Y-66365771D02*
X246554285Y-66413390D01*
X246554285Y-66413390D02*
X246601904Y-66461009D01*
X246601904Y-66461009D02*
X246649523Y-66556247D01*
X246649523Y-66556247D02*
X246649523Y-66794342D01*
X246649523Y-66794342D02*
X246601904Y-66889580D01*
X246601904Y-66889580D02*
X246554285Y-66937200D01*
X246554285Y-66937200D02*
X246459047Y-66984819D01*
X246459047Y-66984819D02*
X246220952Y-66984819D01*
X246220952Y-66984819D02*
X246125714Y-66937200D01*
X246125714Y-66937200D02*
X246078095Y-66889580D01*
X247554285Y-65984819D02*
X247078095Y-65984819D01*
X247078095Y-65984819D02*
X247030476Y-66461009D01*
X247030476Y-66461009D02*
X247078095Y-66413390D01*
X247078095Y-66413390D02*
X247173333Y-66365771D01*
X247173333Y-66365771D02*
X247411428Y-66365771D01*
X247411428Y-66365771D02*
X247506666Y-66413390D01*
X247506666Y-66413390D02*
X247554285Y-66461009D01*
X247554285Y-66461009D02*
X247601904Y-66556247D01*
X247601904Y-66556247D02*
X247601904Y-66794342D01*
X247601904Y-66794342D02*
X247554285Y-66889580D01*
X247554285Y-66889580D02*
X247506666Y-66937200D01*
X247506666Y-66937200D02*
X247411428Y-66984819D01*
X247411428Y-66984819D02*
X247173333Y-66984819D01*
X247173333Y-66984819D02*
X247078095Y-66937200D01*
X247078095Y-66937200D02*
X247030476Y-66889580D01*
X245400595Y-89354819D02*
X245400595Y-90164342D01*
X245400595Y-90164342D02*
X245448214Y-90259580D01*
X245448214Y-90259580D02*
X245495833Y-90307200D01*
X245495833Y-90307200D02*
X245591071Y-90354819D01*
X245591071Y-90354819D02*
X245781547Y-90354819D01*
X245781547Y-90354819D02*
X245876785Y-90307200D01*
X245876785Y-90307200D02*
X245924404Y-90259580D01*
X245924404Y-90259580D02*
X245972023Y-90164342D01*
X245972023Y-90164342D02*
X245972023Y-89354819D01*
X246352976Y-89354819D02*
X246972023Y-89354819D01*
X246972023Y-89354819D02*
X246638690Y-89735771D01*
X246638690Y-89735771D02*
X246781547Y-89735771D01*
X246781547Y-89735771D02*
X246876785Y-89783390D01*
X246876785Y-89783390D02*
X246924404Y-89831009D01*
X246924404Y-89831009D02*
X246972023Y-89926247D01*
X246972023Y-89926247D02*
X246972023Y-90164342D01*
X246972023Y-90164342D02*
X246924404Y-90259580D01*
X246924404Y-90259580D02*
X246876785Y-90307200D01*
X246876785Y-90307200D02*
X246781547Y-90354819D01*
X246781547Y-90354819D02*
X246495833Y-90354819D01*
X246495833Y-90354819D02*
X246400595Y-90307200D01*
X246400595Y-90307200D02*
X246352976Y-90259580D01*
X222839580Y-79672857D02*
X222887200Y-79720476D01*
X222887200Y-79720476D02*
X222934819Y-79863333D01*
X222934819Y-79863333D02*
X222934819Y-79958571D01*
X222934819Y-79958571D02*
X222887200Y-80101428D01*
X222887200Y-80101428D02*
X222791961Y-80196666D01*
X222791961Y-80196666D02*
X222696723Y-80244285D01*
X222696723Y-80244285D02*
X222506247Y-80291904D01*
X222506247Y-80291904D02*
X222363390Y-80291904D01*
X222363390Y-80291904D02*
X222172914Y-80244285D01*
X222172914Y-80244285D02*
X222077676Y-80196666D01*
X222077676Y-80196666D02*
X221982438Y-80101428D01*
X221982438Y-80101428D02*
X221934819Y-79958571D01*
X221934819Y-79958571D02*
X221934819Y-79863333D01*
X221934819Y-79863333D02*
X221982438Y-79720476D01*
X221982438Y-79720476D02*
X222030057Y-79672857D01*
X222030057Y-79291904D02*
X221982438Y-79244285D01*
X221982438Y-79244285D02*
X221934819Y-79149047D01*
X221934819Y-79149047D02*
X221934819Y-78910952D01*
X221934819Y-78910952D02*
X221982438Y-78815714D01*
X221982438Y-78815714D02*
X222030057Y-78768095D01*
X222030057Y-78768095D02*
X222125295Y-78720476D01*
X222125295Y-78720476D02*
X222220533Y-78720476D01*
X222220533Y-78720476D02*
X222363390Y-78768095D01*
X222363390Y-78768095D02*
X222934819Y-79339523D01*
X222934819Y-79339523D02*
X222934819Y-78720476D01*
X222268152Y-77863333D02*
X222934819Y-77863333D01*
X221887200Y-78101428D02*
X222601485Y-78339523D01*
X222601485Y-78339523D02*
X222601485Y-77720476D01*
X262284819Y-93057857D02*
X261808628Y-93391190D01*
X262284819Y-93629285D02*
X261284819Y-93629285D01*
X261284819Y-93629285D02*
X261284819Y-93248333D01*
X261284819Y-93248333D02*
X261332438Y-93153095D01*
X261332438Y-93153095D02*
X261380057Y-93105476D01*
X261380057Y-93105476D02*
X261475295Y-93057857D01*
X261475295Y-93057857D02*
X261618152Y-93057857D01*
X261618152Y-93057857D02*
X261713390Y-93105476D01*
X261713390Y-93105476D02*
X261761009Y-93153095D01*
X261761009Y-93153095D02*
X261808628Y-93248333D01*
X261808628Y-93248333D02*
X261808628Y-93629285D01*
X261284819Y-92724523D02*
X261284819Y-92105476D01*
X261284819Y-92105476D02*
X261665771Y-92438809D01*
X261665771Y-92438809D02*
X261665771Y-92295952D01*
X261665771Y-92295952D02*
X261713390Y-92200714D01*
X261713390Y-92200714D02*
X261761009Y-92153095D01*
X261761009Y-92153095D02*
X261856247Y-92105476D01*
X261856247Y-92105476D02*
X262094342Y-92105476D01*
X262094342Y-92105476D02*
X262189580Y-92153095D01*
X262189580Y-92153095D02*
X262237200Y-92200714D01*
X262237200Y-92200714D02*
X262284819Y-92295952D01*
X262284819Y-92295952D02*
X262284819Y-92581666D01*
X262284819Y-92581666D02*
X262237200Y-92676904D01*
X262237200Y-92676904D02*
X262189580Y-92724523D01*
X262284819Y-91629285D02*
X262284819Y-91438809D01*
X262284819Y-91438809D02*
X262237200Y-91343571D01*
X262237200Y-91343571D02*
X262189580Y-91295952D01*
X262189580Y-91295952D02*
X262046723Y-91200714D01*
X262046723Y-91200714D02*
X261856247Y-91153095D01*
X261856247Y-91153095D02*
X261475295Y-91153095D01*
X261475295Y-91153095D02*
X261380057Y-91200714D01*
X261380057Y-91200714D02*
X261332438Y-91248333D01*
X261332438Y-91248333D02*
X261284819Y-91343571D01*
X261284819Y-91343571D02*
X261284819Y-91534047D01*
X261284819Y-91534047D02*
X261332438Y-91629285D01*
X261332438Y-91629285D02*
X261380057Y-91676904D01*
X261380057Y-91676904D02*
X261475295Y-91724523D01*
X261475295Y-91724523D02*
X261713390Y-91724523D01*
X261713390Y-91724523D02*
X261808628Y-91676904D01*
X261808628Y-91676904D02*
X261856247Y-91629285D01*
X261856247Y-91629285D02*
X261903866Y-91534047D01*
X261903866Y-91534047D02*
X261903866Y-91343571D01*
X261903866Y-91343571D02*
X261856247Y-91248333D01*
X261856247Y-91248333D02*
X261808628Y-91200714D01*
X261808628Y-91200714D02*
X261713390Y-91153095D01*
X220607142Y-70404819D02*
X220273809Y-69928628D01*
X220035714Y-70404819D02*
X220035714Y-69404819D01*
X220035714Y-69404819D02*
X220416666Y-69404819D01*
X220416666Y-69404819D02*
X220511904Y-69452438D01*
X220511904Y-69452438D02*
X220559523Y-69500057D01*
X220559523Y-69500057D02*
X220607142Y-69595295D01*
X220607142Y-69595295D02*
X220607142Y-69738152D01*
X220607142Y-69738152D02*
X220559523Y-69833390D01*
X220559523Y-69833390D02*
X220511904Y-69881009D01*
X220511904Y-69881009D02*
X220416666Y-69928628D01*
X220416666Y-69928628D02*
X220035714Y-69928628D01*
X220988095Y-69500057D02*
X221035714Y-69452438D01*
X221035714Y-69452438D02*
X221130952Y-69404819D01*
X221130952Y-69404819D02*
X221369047Y-69404819D01*
X221369047Y-69404819D02*
X221464285Y-69452438D01*
X221464285Y-69452438D02*
X221511904Y-69500057D01*
X221511904Y-69500057D02*
X221559523Y-69595295D01*
X221559523Y-69595295D02*
X221559523Y-69690533D01*
X221559523Y-69690533D02*
X221511904Y-69833390D01*
X221511904Y-69833390D02*
X220940476Y-70404819D01*
X220940476Y-70404819D02*
X221559523Y-70404819D01*
X222416666Y-69404819D02*
X222226190Y-69404819D01*
X222226190Y-69404819D02*
X222130952Y-69452438D01*
X222130952Y-69452438D02*
X222083333Y-69500057D01*
X222083333Y-69500057D02*
X221988095Y-69642914D01*
X221988095Y-69642914D02*
X221940476Y-69833390D01*
X221940476Y-69833390D02*
X221940476Y-70214342D01*
X221940476Y-70214342D02*
X221988095Y-70309580D01*
X221988095Y-70309580D02*
X222035714Y-70357200D01*
X222035714Y-70357200D02*
X222130952Y-70404819D01*
X222130952Y-70404819D02*
X222321428Y-70404819D01*
X222321428Y-70404819D02*
X222416666Y-70357200D01*
X222416666Y-70357200D02*
X222464285Y-70309580D01*
X222464285Y-70309580D02*
X222511904Y-70214342D01*
X222511904Y-70214342D02*
X222511904Y-69976247D01*
X222511904Y-69976247D02*
X222464285Y-69881009D01*
X222464285Y-69881009D02*
X222416666Y-69833390D01*
X222416666Y-69833390D02*
X222321428Y-69785771D01*
X222321428Y-69785771D02*
X222130952Y-69785771D01*
X222130952Y-69785771D02*
X222035714Y-69833390D01*
X222035714Y-69833390D02*
X221988095Y-69881009D01*
X221988095Y-69881009D02*
X221940476Y-69976247D01*
X235254819Y-78412857D02*
X234778628Y-78746190D01*
X235254819Y-78984285D02*
X234254819Y-78984285D01*
X234254819Y-78984285D02*
X234254819Y-78603333D01*
X234254819Y-78603333D02*
X234302438Y-78508095D01*
X234302438Y-78508095D02*
X234350057Y-78460476D01*
X234350057Y-78460476D02*
X234445295Y-78412857D01*
X234445295Y-78412857D02*
X234588152Y-78412857D01*
X234588152Y-78412857D02*
X234683390Y-78460476D01*
X234683390Y-78460476D02*
X234731009Y-78508095D01*
X234731009Y-78508095D02*
X234778628Y-78603333D01*
X234778628Y-78603333D02*
X234778628Y-78984285D01*
X234254819Y-78079523D02*
X234254819Y-77460476D01*
X234254819Y-77460476D02*
X234635771Y-77793809D01*
X234635771Y-77793809D02*
X234635771Y-77650952D01*
X234635771Y-77650952D02*
X234683390Y-77555714D01*
X234683390Y-77555714D02*
X234731009Y-77508095D01*
X234731009Y-77508095D02*
X234826247Y-77460476D01*
X234826247Y-77460476D02*
X235064342Y-77460476D01*
X235064342Y-77460476D02*
X235159580Y-77508095D01*
X235159580Y-77508095D02*
X235207200Y-77555714D01*
X235207200Y-77555714D02*
X235254819Y-77650952D01*
X235254819Y-77650952D02*
X235254819Y-77936666D01*
X235254819Y-77936666D02*
X235207200Y-78031904D01*
X235207200Y-78031904D02*
X235159580Y-78079523D01*
X234350057Y-77079523D02*
X234302438Y-77031904D01*
X234302438Y-77031904D02*
X234254819Y-76936666D01*
X234254819Y-76936666D02*
X234254819Y-76698571D01*
X234254819Y-76698571D02*
X234302438Y-76603333D01*
X234302438Y-76603333D02*
X234350057Y-76555714D01*
X234350057Y-76555714D02*
X234445295Y-76508095D01*
X234445295Y-76508095D02*
X234540533Y-76508095D01*
X234540533Y-76508095D02*
X234683390Y-76555714D01*
X234683390Y-76555714D02*
X235254819Y-77127142D01*
X235254819Y-77127142D02*
X235254819Y-76508095D01*
X216046666Y-69544819D02*
X216046666Y-70259104D01*
X216046666Y-70259104D02*
X215999047Y-70401961D01*
X215999047Y-70401961D02*
X215903809Y-70497200D01*
X215903809Y-70497200D02*
X215760952Y-70544819D01*
X215760952Y-70544819D02*
X215665714Y-70544819D01*
X216999047Y-69544819D02*
X216522857Y-69544819D01*
X216522857Y-69544819D02*
X216475238Y-70021009D01*
X216475238Y-70021009D02*
X216522857Y-69973390D01*
X216522857Y-69973390D02*
X216618095Y-69925771D01*
X216618095Y-69925771D02*
X216856190Y-69925771D01*
X216856190Y-69925771D02*
X216951428Y-69973390D01*
X216951428Y-69973390D02*
X216999047Y-70021009D01*
X216999047Y-70021009D02*
X217046666Y-70116247D01*
X217046666Y-70116247D02*
X217046666Y-70354342D01*
X217046666Y-70354342D02*
X216999047Y-70449580D01*
X216999047Y-70449580D02*
X216951428Y-70497200D01*
X216951428Y-70497200D02*
X216856190Y-70544819D01*
X216856190Y-70544819D02*
X216618095Y-70544819D01*
X216618095Y-70544819D02*
X216522857Y-70497200D01*
X216522857Y-70497200D02*
X216475238Y-70449580D01*
X229937142Y-74389580D02*
X229889523Y-74437200D01*
X229889523Y-74437200D02*
X229746666Y-74484819D01*
X229746666Y-74484819D02*
X229651428Y-74484819D01*
X229651428Y-74484819D02*
X229508571Y-74437200D01*
X229508571Y-74437200D02*
X229413333Y-74341961D01*
X229413333Y-74341961D02*
X229365714Y-74246723D01*
X229365714Y-74246723D02*
X229318095Y-74056247D01*
X229318095Y-74056247D02*
X229318095Y-73913390D01*
X229318095Y-73913390D02*
X229365714Y-73722914D01*
X229365714Y-73722914D02*
X229413333Y-73627676D01*
X229413333Y-73627676D02*
X229508571Y-73532438D01*
X229508571Y-73532438D02*
X229651428Y-73484819D01*
X229651428Y-73484819D02*
X229746666Y-73484819D01*
X229746666Y-73484819D02*
X229889523Y-73532438D01*
X229889523Y-73532438D02*
X229937142Y-73580057D01*
X230318095Y-73580057D02*
X230365714Y-73532438D01*
X230365714Y-73532438D02*
X230460952Y-73484819D01*
X230460952Y-73484819D02*
X230699047Y-73484819D01*
X230699047Y-73484819D02*
X230794285Y-73532438D01*
X230794285Y-73532438D02*
X230841904Y-73580057D01*
X230841904Y-73580057D02*
X230889523Y-73675295D01*
X230889523Y-73675295D02*
X230889523Y-73770533D01*
X230889523Y-73770533D02*
X230841904Y-73913390D01*
X230841904Y-73913390D02*
X230270476Y-74484819D01*
X230270476Y-74484819D02*
X230889523Y-74484819D01*
X231794285Y-73484819D02*
X231318095Y-73484819D01*
X231318095Y-73484819D02*
X231270476Y-73961009D01*
X231270476Y-73961009D02*
X231318095Y-73913390D01*
X231318095Y-73913390D02*
X231413333Y-73865771D01*
X231413333Y-73865771D02*
X231651428Y-73865771D01*
X231651428Y-73865771D02*
X231746666Y-73913390D01*
X231746666Y-73913390D02*
X231794285Y-73961009D01*
X231794285Y-73961009D02*
X231841904Y-74056247D01*
X231841904Y-74056247D02*
X231841904Y-74294342D01*
X231841904Y-74294342D02*
X231794285Y-74389580D01*
X231794285Y-74389580D02*
X231746666Y-74437200D01*
X231746666Y-74437200D02*
X231651428Y-74484819D01*
X231651428Y-74484819D02*
X231413333Y-74484819D01*
X231413333Y-74484819D02*
X231318095Y-74437200D01*
X231318095Y-74437200D02*
X231270476Y-74389580D01*
X259257142Y-97809580D02*
X259209523Y-97857200D01*
X259209523Y-97857200D02*
X259066666Y-97904819D01*
X259066666Y-97904819D02*
X258971428Y-97904819D01*
X258971428Y-97904819D02*
X258828571Y-97857200D01*
X258828571Y-97857200D02*
X258733333Y-97761961D01*
X258733333Y-97761961D02*
X258685714Y-97666723D01*
X258685714Y-97666723D02*
X258638095Y-97476247D01*
X258638095Y-97476247D02*
X258638095Y-97333390D01*
X258638095Y-97333390D02*
X258685714Y-97142914D01*
X258685714Y-97142914D02*
X258733333Y-97047676D01*
X258733333Y-97047676D02*
X258828571Y-96952438D01*
X258828571Y-96952438D02*
X258971428Y-96904819D01*
X258971428Y-96904819D02*
X259066666Y-96904819D01*
X259066666Y-96904819D02*
X259209523Y-96952438D01*
X259209523Y-96952438D02*
X259257142Y-97000057D01*
X259590476Y-96904819D02*
X260209523Y-96904819D01*
X260209523Y-96904819D02*
X259876190Y-97285771D01*
X259876190Y-97285771D02*
X260019047Y-97285771D01*
X260019047Y-97285771D02*
X260114285Y-97333390D01*
X260114285Y-97333390D02*
X260161904Y-97381009D01*
X260161904Y-97381009D02*
X260209523Y-97476247D01*
X260209523Y-97476247D02*
X260209523Y-97714342D01*
X260209523Y-97714342D02*
X260161904Y-97809580D01*
X260161904Y-97809580D02*
X260114285Y-97857200D01*
X260114285Y-97857200D02*
X260019047Y-97904819D01*
X260019047Y-97904819D02*
X259733333Y-97904819D01*
X259733333Y-97904819D02*
X259638095Y-97857200D01*
X259638095Y-97857200D02*
X259590476Y-97809580D01*
X261066666Y-97238152D02*
X261066666Y-97904819D01*
X260828571Y-96857200D02*
X260590476Y-97571485D01*
X260590476Y-97571485D02*
X261209523Y-97571485D01*
X225067142Y-103544819D02*
X224733809Y-103068628D01*
X224495714Y-103544819D02*
X224495714Y-102544819D01*
X224495714Y-102544819D02*
X224876666Y-102544819D01*
X224876666Y-102544819D02*
X224971904Y-102592438D01*
X224971904Y-102592438D02*
X225019523Y-102640057D01*
X225019523Y-102640057D02*
X225067142Y-102735295D01*
X225067142Y-102735295D02*
X225067142Y-102878152D01*
X225067142Y-102878152D02*
X225019523Y-102973390D01*
X225019523Y-102973390D02*
X224971904Y-103021009D01*
X224971904Y-103021009D02*
X224876666Y-103068628D01*
X224876666Y-103068628D02*
X224495714Y-103068628D01*
X225400476Y-102544819D02*
X226019523Y-102544819D01*
X226019523Y-102544819D02*
X225686190Y-102925771D01*
X225686190Y-102925771D02*
X225829047Y-102925771D01*
X225829047Y-102925771D02*
X225924285Y-102973390D01*
X225924285Y-102973390D02*
X225971904Y-103021009D01*
X225971904Y-103021009D02*
X226019523Y-103116247D01*
X226019523Y-103116247D02*
X226019523Y-103354342D01*
X226019523Y-103354342D02*
X225971904Y-103449580D01*
X225971904Y-103449580D02*
X225924285Y-103497200D01*
X225924285Y-103497200D02*
X225829047Y-103544819D01*
X225829047Y-103544819D02*
X225543333Y-103544819D01*
X225543333Y-103544819D02*
X225448095Y-103497200D01*
X225448095Y-103497200D02*
X225400476Y-103449580D01*
X226876666Y-102544819D02*
X226686190Y-102544819D01*
X226686190Y-102544819D02*
X226590952Y-102592438D01*
X226590952Y-102592438D02*
X226543333Y-102640057D01*
X226543333Y-102640057D02*
X226448095Y-102782914D01*
X226448095Y-102782914D02*
X226400476Y-102973390D01*
X226400476Y-102973390D02*
X226400476Y-103354342D01*
X226400476Y-103354342D02*
X226448095Y-103449580D01*
X226448095Y-103449580D02*
X226495714Y-103497200D01*
X226495714Y-103497200D02*
X226590952Y-103544819D01*
X226590952Y-103544819D02*
X226781428Y-103544819D01*
X226781428Y-103544819D02*
X226876666Y-103497200D01*
X226876666Y-103497200D02*
X226924285Y-103449580D01*
X226924285Y-103449580D02*
X226971904Y-103354342D01*
X226971904Y-103354342D02*
X226971904Y-103116247D01*
X226971904Y-103116247D02*
X226924285Y-103021009D01*
X226924285Y-103021009D02*
X226876666Y-102973390D01*
X226876666Y-102973390D02*
X226781428Y-102925771D01*
X226781428Y-102925771D02*
X226590952Y-102925771D01*
X226590952Y-102925771D02*
X226495714Y-102973390D01*
X226495714Y-102973390D02*
X226448095Y-103021009D01*
X226448095Y-103021009D02*
X226400476Y-103116247D01*
X268690476Y-76794819D02*
X268690476Y-77509104D01*
X268690476Y-77509104D02*
X268642857Y-77651961D01*
X268642857Y-77651961D02*
X268547619Y-77747200D01*
X268547619Y-77747200D02*
X268404762Y-77794819D01*
X268404762Y-77794819D02*
X268309524Y-77794819D01*
X269690476Y-77794819D02*
X269119048Y-77794819D01*
X269404762Y-77794819D02*
X269404762Y-76794819D01*
X269404762Y-76794819D02*
X269309524Y-76937676D01*
X269309524Y-76937676D02*
X269214286Y-77032914D01*
X269214286Y-77032914D02*
X269119048Y-77080533D01*
X270309524Y-76794819D02*
X270404762Y-76794819D01*
X270404762Y-76794819D02*
X270500000Y-76842438D01*
X270500000Y-76842438D02*
X270547619Y-76890057D01*
X270547619Y-76890057D02*
X270595238Y-76985295D01*
X270595238Y-76985295D02*
X270642857Y-77175771D01*
X270642857Y-77175771D02*
X270642857Y-77413866D01*
X270642857Y-77413866D02*
X270595238Y-77604342D01*
X270595238Y-77604342D02*
X270547619Y-77699580D01*
X270547619Y-77699580D02*
X270500000Y-77747200D01*
X270500000Y-77747200D02*
X270404762Y-77794819D01*
X270404762Y-77794819D02*
X270309524Y-77794819D01*
X270309524Y-77794819D02*
X270214286Y-77747200D01*
X270214286Y-77747200D02*
X270166667Y-77699580D01*
X270166667Y-77699580D02*
X270119048Y-77604342D01*
X270119048Y-77604342D02*
X270071429Y-77413866D01*
X270071429Y-77413866D02*
X270071429Y-77175771D01*
X270071429Y-77175771D02*
X270119048Y-76985295D01*
X270119048Y-76985295D02*
X270166667Y-76890057D01*
X270166667Y-76890057D02*
X270214286Y-76842438D01*
X270214286Y-76842438D02*
X270309524Y-76794819D01*
X266697142Y-108294819D02*
X266363809Y-107818628D01*
X266125714Y-108294819D02*
X266125714Y-107294819D01*
X266125714Y-107294819D02*
X266506666Y-107294819D01*
X266506666Y-107294819D02*
X266601904Y-107342438D01*
X266601904Y-107342438D02*
X266649523Y-107390057D01*
X266649523Y-107390057D02*
X266697142Y-107485295D01*
X266697142Y-107485295D02*
X266697142Y-107628152D01*
X266697142Y-107628152D02*
X266649523Y-107723390D01*
X266649523Y-107723390D02*
X266601904Y-107771009D01*
X266601904Y-107771009D02*
X266506666Y-107818628D01*
X266506666Y-107818628D02*
X266125714Y-107818628D01*
X267554285Y-107628152D02*
X267554285Y-108294819D01*
X267316190Y-107247200D02*
X267078095Y-107961485D01*
X267078095Y-107961485D02*
X267697142Y-107961485D01*
X267982857Y-107294819D02*
X268649523Y-107294819D01*
X268649523Y-107294819D02*
X268220952Y-108294819D01*
X244166666Y-53954819D02*
X244166666Y-54669104D01*
X244166666Y-54669104D02*
X244119047Y-54811961D01*
X244119047Y-54811961D02*
X244023809Y-54907200D01*
X244023809Y-54907200D02*
X243880952Y-54954819D01*
X243880952Y-54954819D02*
X243785714Y-54954819D01*
X244595238Y-54050057D02*
X244642857Y-54002438D01*
X244642857Y-54002438D02*
X244738095Y-53954819D01*
X244738095Y-53954819D02*
X244976190Y-53954819D01*
X244976190Y-53954819D02*
X245071428Y-54002438D01*
X245071428Y-54002438D02*
X245119047Y-54050057D01*
X245119047Y-54050057D02*
X245166666Y-54145295D01*
X245166666Y-54145295D02*
X245166666Y-54240533D01*
X245166666Y-54240533D02*
X245119047Y-54383390D01*
X245119047Y-54383390D02*
X244547619Y-54954819D01*
X244547619Y-54954819D02*
X245166666Y-54954819D01*
X225507142Y-106054819D02*
X225173809Y-105578628D01*
X224935714Y-106054819D02*
X224935714Y-105054819D01*
X224935714Y-105054819D02*
X225316666Y-105054819D01*
X225316666Y-105054819D02*
X225411904Y-105102438D01*
X225411904Y-105102438D02*
X225459523Y-105150057D01*
X225459523Y-105150057D02*
X225507142Y-105245295D01*
X225507142Y-105245295D02*
X225507142Y-105388152D01*
X225507142Y-105388152D02*
X225459523Y-105483390D01*
X225459523Y-105483390D02*
X225411904Y-105531009D01*
X225411904Y-105531009D02*
X225316666Y-105578628D01*
X225316666Y-105578628D02*
X224935714Y-105578628D01*
X225840476Y-105054819D02*
X226459523Y-105054819D01*
X226459523Y-105054819D02*
X226126190Y-105435771D01*
X226126190Y-105435771D02*
X226269047Y-105435771D01*
X226269047Y-105435771D02*
X226364285Y-105483390D01*
X226364285Y-105483390D02*
X226411904Y-105531009D01*
X226411904Y-105531009D02*
X226459523Y-105626247D01*
X226459523Y-105626247D02*
X226459523Y-105864342D01*
X226459523Y-105864342D02*
X226411904Y-105959580D01*
X226411904Y-105959580D02*
X226364285Y-106007200D01*
X226364285Y-106007200D02*
X226269047Y-106054819D01*
X226269047Y-106054819D02*
X225983333Y-106054819D01*
X225983333Y-106054819D02*
X225888095Y-106007200D01*
X225888095Y-106007200D02*
X225840476Y-105959580D01*
X227364285Y-105054819D02*
X226888095Y-105054819D01*
X226888095Y-105054819D02*
X226840476Y-105531009D01*
X226840476Y-105531009D02*
X226888095Y-105483390D01*
X226888095Y-105483390D02*
X226983333Y-105435771D01*
X226983333Y-105435771D02*
X227221428Y-105435771D01*
X227221428Y-105435771D02*
X227316666Y-105483390D01*
X227316666Y-105483390D02*
X227364285Y-105531009D01*
X227364285Y-105531009D02*
X227411904Y-105626247D01*
X227411904Y-105626247D02*
X227411904Y-105864342D01*
X227411904Y-105864342D02*
X227364285Y-105959580D01*
X227364285Y-105959580D02*
X227316666Y-106007200D01*
X227316666Y-106007200D02*
X227221428Y-106054819D01*
X227221428Y-106054819D02*
X226983333Y-106054819D01*
X226983333Y-106054819D02*
X226888095Y-106007200D01*
X226888095Y-106007200D02*
X226840476Y-105959580D01*
X267569580Y-87382857D02*
X267617200Y-87430476D01*
X267617200Y-87430476D02*
X267664819Y-87573333D01*
X267664819Y-87573333D02*
X267664819Y-87668571D01*
X267664819Y-87668571D02*
X267617200Y-87811428D01*
X267617200Y-87811428D02*
X267521961Y-87906666D01*
X267521961Y-87906666D02*
X267426723Y-87954285D01*
X267426723Y-87954285D02*
X267236247Y-88001904D01*
X267236247Y-88001904D02*
X267093390Y-88001904D01*
X267093390Y-88001904D02*
X266902914Y-87954285D01*
X266902914Y-87954285D02*
X266807676Y-87906666D01*
X266807676Y-87906666D02*
X266712438Y-87811428D01*
X266712438Y-87811428D02*
X266664819Y-87668571D01*
X266664819Y-87668571D02*
X266664819Y-87573333D01*
X266664819Y-87573333D02*
X266712438Y-87430476D01*
X266712438Y-87430476D02*
X266760057Y-87382857D01*
X267664819Y-86430476D02*
X267664819Y-87001904D01*
X267664819Y-86716190D02*
X266664819Y-86716190D01*
X266664819Y-86716190D02*
X266807676Y-86811428D01*
X266807676Y-86811428D02*
X266902914Y-86906666D01*
X266902914Y-86906666D02*
X266950533Y-87001904D01*
X267093390Y-85859047D02*
X267045771Y-85954285D01*
X267045771Y-85954285D02*
X266998152Y-86001904D01*
X266998152Y-86001904D02*
X266902914Y-86049523D01*
X266902914Y-86049523D02*
X266855295Y-86049523D01*
X266855295Y-86049523D02*
X266760057Y-86001904D01*
X266760057Y-86001904D02*
X266712438Y-85954285D01*
X266712438Y-85954285D02*
X266664819Y-85859047D01*
X266664819Y-85859047D02*
X266664819Y-85668571D01*
X266664819Y-85668571D02*
X266712438Y-85573333D01*
X266712438Y-85573333D02*
X266760057Y-85525714D01*
X266760057Y-85525714D02*
X266855295Y-85478095D01*
X266855295Y-85478095D02*
X266902914Y-85478095D01*
X266902914Y-85478095D02*
X266998152Y-85525714D01*
X266998152Y-85525714D02*
X267045771Y-85573333D01*
X267045771Y-85573333D02*
X267093390Y-85668571D01*
X267093390Y-85668571D02*
X267093390Y-85859047D01*
X267093390Y-85859047D02*
X267141009Y-85954285D01*
X267141009Y-85954285D02*
X267188628Y-86001904D01*
X267188628Y-86001904D02*
X267283866Y-86049523D01*
X267283866Y-86049523D02*
X267474342Y-86049523D01*
X267474342Y-86049523D02*
X267569580Y-86001904D01*
X267569580Y-86001904D02*
X267617200Y-85954285D01*
X267617200Y-85954285D02*
X267664819Y-85859047D01*
X267664819Y-85859047D02*
X267664819Y-85668571D01*
X267664819Y-85668571D02*
X267617200Y-85573333D01*
X267617200Y-85573333D02*
X267569580Y-85525714D01*
X267569580Y-85525714D02*
X267474342Y-85478095D01*
X267474342Y-85478095D02*
X267283866Y-85478095D01*
X267283866Y-85478095D02*
X267188628Y-85525714D01*
X267188628Y-85525714D02*
X267141009Y-85573333D01*
X267141009Y-85573333D02*
X267093390Y-85668571D01*
X259007142Y-77259580D02*
X258959523Y-77307200D01*
X258959523Y-77307200D02*
X258816666Y-77354819D01*
X258816666Y-77354819D02*
X258721428Y-77354819D01*
X258721428Y-77354819D02*
X258578571Y-77307200D01*
X258578571Y-77307200D02*
X258483333Y-77211961D01*
X258483333Y-77211961D02*
X258435714Y-77116723D01*
X258435714Y-77116723D02*
X258388095Y-76926247D01*
X258388095Y-76926247D02*
X258388095Y-76783390D01*
X258388095Y-76783390D02*
X258435714Y-76592914D01*
X258435714Y-76592914D02*
X258483333Y-76497676D01*
X258483333Y-76497676D02*
X258578571Y-76402438D01*
X258578571Y-76402438D02*
X258721428Y-76354819D01*
X258721428Y-76354819D02*
X258816666Y-76354819D01*
X258816666Y-76354819D02*
X258959523Y-76402438D01*
X258959523Y-76402438D02*
X259007142Y-76450057D01*
X259959523Y-77354819D02*
X259388095Y-77354819D01*
X259673809Y-77354819D02*
X259673809Y-76354819D01*
X259673809Y-76354819D02*
X259578571Y-76497676D01*
X259578571Y-76497676D02*
X259483333Y-76592914D01*
X259483333Y-76592914D02*
X259388095Y-76640533D01*
X260816666Y-76354819D02*
X260626190Y-76354819D01*
X260626190Y-76354819D02*
X260530952Y-76402438D01*
X260530952Y-76402438D02*
X260483333Y-76450057D01*
X260483333Y-76450057D02*
X260388095Y-76592914D01*
X260388095Y-76592914D02*
X260340476Y-76783390D01*
X260340476Y-76783390D02*
X260340476Y-77164342D01*
X260340476Y-77164342D02*
X260388095Y-77259580D01*
X260388095Y-77259580D02*
X260435714Y-77307200D01*
X260435714Y-77307200D02*
X260530952Y-77354819D01*
X260530952Y-77354819D02*
X260721428Y-77354819D01*
X260721428Y-77354819D02*
X260816666Y-77307200D01*
X260816666Y-77307200D02*
X260864285Y-77259580D01*
X260864285Y-77259580D02*
X260911904Y-77164342D01*
X260911904Y-77164342D02*
X260911904Y-76926247D01*
X260911904Y-76926247D02*
X260864285Y-76831009D01*
X260864285Y-76831009D02*
X260816666Y-76783390D01*
X260816666Y-76783390D02*
X260721428Y-76735771D01*
X260721428Y-76735771D02*
X260530952Y-76735771D01*
X260530952Y-76735771D02*
X260435714Y-76783390D01*
X260435714Y-76783390D02*
X260388095Y-76831009D01*
X260388095Y-76831009D02*
X260340476Y-76926247D01*
X263341666Y-69804819D02*
X263341666Y-70519104D01*
X263341666Y-70519104D02*
X263294047Y-70661961D01*
X263294047Y-70661961D02*
X263198809Y-70757200D01*
X263198809Y-70757200D02*
X263055952Y-70804819D01*
X263055952Y-70804819D02*
X262960714Y-70804819D01*
X263722619Y-69804819D02*
X264341666Y-69804819D01*
X264341666Y-69804819D02*
X264008333Y-70185771D01*
X264008333Y-70185771D02*
X264151190Y-70185771D01*
X264151190Y-70185771D02*
X264246428Y-70233390D01*
X264246428Y-70233390D02*
X264294047Y-70281009D01*
X264294047Y-70281009D02*
X264341666Y-70376247D01*
X264341666Y-70376247D02*
X264341666Y-70614342D01*
X264341666Y-70614342D02*
X264294047Y-70709580D01*
X264294047Y-70709580D02*
X264246428Y-70757200D01*
X264246428Y-70757200D02*
X264151190Y-70804819D01*
X264151190Y-70804819D02*
X263865476Y-70804819D01*
X263865476Y-70804819D02*
X263770238Y-70757200D01*
X263770238Y-70757200D02*
X263722619Y-70709580D01*
X236619580Y-84302857D02*
X236667200Y-84350476D01*
X236667200Y-84350476D02*
X236714819Y-84493333D01*
X236714819Y-84493333D02*
X236714819Y-84588571D01*
X236714819Y-84588571D02*
X236667200Y-84731428D01*
X236667200Y-84731428D02*
X236571961Y-84826666D01*
X236571961Y-84826666D02*
X236476723Y-84874285D01*
X236476723Y-84874285D02*
X236286247Y-84921904D01*
X236286247Y-84921904D02*
X236143390Y-84921904D01*
X236143390Y-84921904D02*
X235952914Y-84874285D01*
X235952914Y-84874285D02*
X235857676Y-84826666D01*
X235857676Y-84826666D02*
X235762438Y-84731428D01*
X235762438Y-84731428D02*
X235714819Y-84588571D01*
X235714819Y-84588571D02*
X235714819Y-84493333D01*
X235714819Y-84493333D02*
X235762438Y-84350476D01*
X235762438Y-84350476D02*
X235810057Y-84302857D01*
X236714819Y-83350476D02*
X236714819Y-83921904D01*
X236714819Y-83636190D02*
X235714819Y-83636190D01*
X235714819Y-83636190D02*
X235857676Y-83731428D01*
X235857676Y-83731428D02*
X235952914Y-83826666D01*
X235952914Y-83826666D02*
X236000533Y-83921904D01*
X235810057Y-82969523D02*
X235762438Y-82921904D01*
X235762438Y-82921904D02*
X235714819Y-82826666D01*
X235714819Y-82826666D02*
X235714819Y-82588571D01*
X235714819Y-82588571D02*
X235762438Y-82493333D01*
X235762438Y-82493333D02*
X235810057Y-82445714D01*
X235810057Y-82445714D02*
X235905295Y-82398095D01*
X235905295Y-82398095D02*
X236000533Y-82398095D01*
X236000533Y-82398095D02*
X236143390Y-82445714D01*
X236143390Y-82445714D02*
X236714819Y-83017142D01*
X236714819Y-83017142D02*
X236714819Y-82398095D01*
X263727142Y-77414819D02*
X263393809Y-76938628D01*
X263155714Y-77414819D02*
X263155714Y-76414819D01*
X263155714Y-76414819D02*
X263536666Y-76414819D01*
X263536666Y-76414819D02*
X263631904Y-76462438D01*
X263631904Y-76462438D02*
X263679523Y-76510057D01*
X263679523Y-76510057D02*
X263727142Y-76605295D01*
X263727142Y-76605295D02*
X263727142Y-76748152D01*
X263727142Y-76748152D02*
X263679523Y-76843390D01*
X263679523Y-76843390D02*
X263631904Y-76891009D01*
X263631904Y-76891009D02*
X263536666Y-76938628D01*
X263536666Y-76938628D02*
X263155714Y-76938628D01*
X264060476Y-76414819D02*
X264679523Y-76414819D01*
X264679523Y-76414819D02*
X264346190Y-76795771D01*
X264346190Y-76795771D02*
X264489047Y-76795771D01*
X264489047Y-76795771D02*
X264584285Y-76843390D01*
X264584285Y-76843390D02*
X264631904Y-76891009D01*
X264631904Y-76891009D02*
X264679523Y-76986247D01*
X264679523Y-76986247D02*
X264679523Y-77224342D01*
X264679523Y-77224342D02*
X264631904Y-77319580D01*
X264631904Y-77319580D02*
X264584285Y-77367200D01*
X264584285Y-77367200D02*
X264489047Y-77414819D01*
X264489047Y-77414819D02*
X264203333Y-77414819D01*
X264203333Y-77414819D02*
X264108095Y-77367200D01*
X264108095Y-77367200D02*
X264060476Y-77319580D01*
X265298571Y-76414819D02*
X265393809Y-76414819D01*
X265393809Y-76414819D02*
X265489047Y-76462438D01*
X265489047Y-76462438D02*
X265536666Y-76510057D01*
X265536666Y-76510057D02*
X265584285Y-76605295D01*
X265584285Y-76605295D02*
X265631904Y-76795771D01*
X265631904Y-76795771D02*
X265631904Y-77033866D01*
X265631904Y-77033866D02*
X265584285Y-77224342D01*
X265584285Y-77224342D02*
X265536666Y-77319580D01*
X265536666Y-77319580D02*
X265489047Y-77367200D01*
X265489047Y-77367200D02*
X265393809Y-77414819D01*
X265393809Y-77414819D02*
X265298571Y-77414819D01*
X265298571Y-77414819D02*
X265203333Y-77367200D01*
X265203333Y-77367200D02*
X265155714Y-77319580D01*
X265155714Y-77319580D02*
X265108095Y-77224342D01*
X265108095Y-77224342D02*
X265060476Y-77033866D01*
X265060476Y-77033866D02*
X265060476Y-76795771D01*
X265060476Y-76795771D02*
X265108095Y-76605295D01*
X265108095Y-76605295D02*
X265155714Y-76510057D01*
X265155714Y-76510057D02*
X265203333Y-76462438D01*
X265203333Y-76462438D02*
X265298571Y-76414819D01*
X232597142Y-82759580D02*
X232549523Y-82807200D01*
X232549523Y-82807200D02*
X232406666Y-82854819D01*
X232406666Y-82854819D02*
X232311428Y-82854819D01*
X232311428Y-82854819D02*
X232168571Y-82807200D01*
X232168571Y-82807200D02*
X232073333Y-82711961D01*
X232073333Y-82711961D02*
X232025714Y-82616723D01*
X232025714Y-82616723D02*
X231978095Y-82426247D01*
X231978095Y-82426247D02*
X231978095Y-82283390D01*
X231978095Y-82283390D02*
X232025714Y-82092914D01*
X232025714Y-82092914D02*
X232073333Y-81997676D01*
X232073333Y-81997676D02*
X232168571Y-81902438D01*
X232168571Y-81902438D02*
X232311428Y-81854819D01*
X232311428Y-81854819D02*
X232406666Y-81854819D01*
X232406666Y-81854819D02*
X232549523Y-81902438D01*
X232549523Y-81902438D02*
X232597142Y-81950057D01*
X232978095Y-81950057D02*
X233025714Y-81902438D01*
X233025714Y-81902438D02*
X233120952Y-81854819D01*
X233120952Y-81854819D02*
X233359047Y-81854819D01*
X233359047Y-81854819D02*
X233454285Y-81902438D01*
X233454285Y-81902438D02*
X233501904Y-81950057D01*
X233501904Y-81950057D02*
X233549523Y-82045295D01*
X233549523Y-82045295D02*
X233549523Y-82140533D01*
X233549523Y-82140533D02*
X233501904Y-82283390D01*
X233501904Y-82283390D02*
X232930476Y-82854819D01*
X232930476Y-82854819D02*
X233549523Y-82854819D01*
X234406666Y-81854819D02*
X234216190Y-81854819D01*
X234216190Y-81854819D02*
X234120952Y-81902438D01*
X234120952Y-81902438D02*
X234073333Y-81950057D01*
X234073333Y-81950057D02*
X233978095Y-82092914D01*
X233978095Y-82092914D02*
X233930476Y-82283390D01*
X233930476Y-82283390D02*
X233930476Y-82664342D01*
X233930476Y-82664342D02*
X233978095Y-82759580D01*
X233978095Y-82759580D02*
X234025714Y-82807200D01*
X234025714Y-82807200D02*
X234120952Y-82854819D01*
X234120952Y-82854819D02*
X234311428Y-82854819D01*
X234311428Y-82854819D02*
X234406666Y-82807200D01*
X234406666Y-82807200D02*
X234454285Y-82759580D01*
X234454285Y-82759580D02*
X234501904Y-82664342D01*
X234501904Y-82664342D02*
X234501904Y-82426247D01*
X234501904Y-82426247D02*
X234454285Y-82331009D01*
X234454285Y-82331009D02*
X234406666Y-82283390D01*
X234406666Y-82283390D02*
X234311428Y-82235771D01*
X234311428Y-82235771D02*
X234120952Y-82235771D01*
X234120952Y-82235771D02*
X234025714Y-82283390D01*
X234025714Y-82283390D02*
X233978095Y-82331009D01*
X233978095Y-82331009D02*
X233930476Y-82426247D01*
X236849580Y-99797857D02*
X236897200Y-99845476D01*
X236897200Y-99845476D02*
X236944819Y-99988333D01*
X236944819Y-99988333D02*
X236944819Y-100083571D01*
X236944819Y-100083571D02*
X236897200Y-100226428D01*
X236897200Y-100226428D02*
X236801961Y-100321666D01*
X236801961Y-100321666D02*
X236706723Y-100369285D01*
X236706723Y-100369285D02*
X236516247Y-100416904D01*
X236516247Y-100416904D02*
X236373390Y-100416904D01*
X236373390Y-100416904D02*
X236182914Y-100369285D01*
X236182914Y-100369285D02*
X236087676Y-100321666D01*
X236087676Y-100321666D02*
X235992438Y-100226428D01*
X235992438Y-100226428D02*
X235944819Y-100083571D01*
X235944819Y-100083571D02*
X235944819Y-99988333D01*
X235944819Y-99988333D02*
X235992438Y-99845476D01*
X235992438Y-99845476D02*
X236040057Y-99797857D01*
X236278152Y-98940714D02*
X236944819Y-98940714D01*
X235897200Y-99178809D02*
X236611485Y-99416904D01*
X236611485Y-99416904D02*
X236611485Y-98797857D01*
X236944819Y-97893095D02*
X236944819Y-98464523D01*
X236944819Y-98178809D02*
X235944819Y-98178809D01*
X235944819Y-98178809D02*
X236087676Y-98274047D01*
X236087676Y-98274047D02*
X236182914Y-98369285D01*
X236182914Y-98369285D02*
X236230533Y-98464523D01*
X265814819Y-94612857D02*
X265338628Y-94946190D01*
X265814819Y-95184285D02*
X264814819Y-95184285D01*
X264814819Y-95184285D02*
X264814819Y-94803333D01*
X264814819Y-94803333D02*
X264862438Y-94708095D01*
X264862438Y-94708095D02*
X264910057Y-94660476D01*
X264910057Y-94660476D02*
X265005295Y-94612857D01*
X265005295Y-94612857D02*
X265148152Y-94612857D01*
X265148152Y-94612857D02*
X265243390Y-94660476D01*
X265243390Y-94660476D02*
X265291009Y-94708095D01*
X265291009Y-94708095D02*
X265338628Y-94803333D01*
X265338628Y-94803333D02*
X265338628Y-95184285D01*
X265148152Y-93755714D02*
X265814819Y-93755714D01*
X264767200Y-93993809D02*
X265481485Y-94231904D01*
X265481485Y-94231904D02*
X265481485Y-93612857D01*
X264814819Y-93041428D02*
X264814819Y-92946190D01*
X264814819Y-92946190D02*
X264862438Y-92850952D01*
X264862438Y-92850952D02*
X264910057Y-92803333D01*
X264910057Y-92803333D02*
X265005295Y-92755714D01*
X265005295Y-92755714D02*
X265195771Y-92708095D01*
X265195771Y-92708095D02*
X265433866Y-92708095D01*
X265433866Y-92708095D02*
X265624342Y-92755714D01*
X265624342Y-92755714D02*
X265719580Y-92803333D01*
X265719580Y-92803333D02*
X265767200Y-92850952D01*
X265767200Y-92850952D02*
X265814819Y-92946190D01*
X265814819Y-92946190D02*
X265814819Y-93041428D01*
X265814819Y-93041428D02*
X265767200Y-93136666D01*
X265767200Y-93136666D02*
X265719580Y-93184285D01*
X265719580Y-93184285D02*
X265624342Y-93231904D01*
X265624342Y-93231904D02*
X265433866Y-93279523D01*
X265433866Y-93279523D02*
X265195771Y-93279523D01*
X265195771Y-93279523D02*
X265005295Y-93231904D01*
X265005295Y-93231904D02*
X264910057Y-93184285D01*
X264910057Y-93184285D02*
X264862438Y-93136666D01*
X264862438Y-93136666D02*
X264814819Y-93041428D01*
X269166666Y-86774819D02*
X269166666Y-87489104D01*
X269166666Y-87489104D02*
X269119047Y-87631961D01*
X269119047Y-87631961D02*
X269023809Y-87727200D01*
X269023809Y-87727200D02*
X268880952Y-87774819D01*
X268880952Y-87774819D02*
X268785714Y-87774819D01*
X269547619Y-86774819D02*
X270214285Y-86774819D01*
X270214285Y-86774819D02*
X269785714Y-87774819D01*
X227924819Y-96342857D02*
X227448628Y-96676190D01*
X227924819Y-96914285D02*
X226924819Y-96914285D01*
X226924819Y-96914285D02*
X226924819Y-96533333D01*
X226924819Y-96533333D02*
X226972438Y-96438095D01*
X226972438Y-96438095D02*
X227020057Y-96390476D01*
X227020057Y-96390476D02*
X227115295Y-96342857D01*
X227115295Y-96342857D02*
X227258152Y-96342857D01*
X227258152Y-96342857D02*
X227353390Y-96390476D01*
X227353390Y-96390476D02*
X227401009Y-96438095D01*
X227401009Y-96438095D02*
X227448628Y-96533333D01*
X227448628Y-96533333D02*
X227448628Y-96914285D01*
X227924819Y-95390476D02*
X227924819Y-95961904D01*
X227924819Y-95676190D02*
X226924819Y-95676190D01*
X226924819Y-95676190D02*
X227067676Y-95771428D01*
X227067676Y-95771428D02*
X227162914Y-95866666D01*
X227162914Y-95866666D02*
X227210533Y-95961904D01*
X226924819Y-94771428D02*
X226924819Y-94676190D01*
X226924819Y-94676190D02*
X226972438Y-94580952D01*
X226972438Y-94580952D02*
X227020057Y-94533333D01*
X227020057Y-94533333D02*
X227115295Y-94485714D01*
X227115295Y-94485714D02*
X227305771Y-94438095D01*
X227305771Y-94438095D02*
X227543866Y-94438095D01*
X227543866Y-94438095D02*
X227734342Y-94485714D01*
X227734342Y-94485714D02*
X227829580Y-94533333D01*
X227829580Y-94533333D02*
X227877200Y-94580952D01*
X227877200Y-94580952D02*
X227924819Y-94676190D01*
X227924819Y-94676190D02*
X227924819Y-94771428D01*
X227924819Y-94771428D02*
X227877200Y-94866666D01*
X227877200Y-94866666D02*
X227829580Y-94914285D01*
X227829580Y-94914285D02*
X227734342Y-94961904D01*
X227734342Y-94961904D02*
X227543866Y-95009523D01*
X227543866Y-95009523D02*
X227305771Y-95009523D01*
X227305771Y-95009523D02*
X227115295Y-94961904D01*
X227115295Y-94961904D02*
X227020057Y-94914285D01*
X227020057Y-94914285D02*
X226972438Y-94866666D01*
X226972438Y-94866666D02*
X226924819Y-94771428D01*
X257854819Y-60262857D02*
X257378628Y-60596190D01*
X257854819Y-60834285D02*
X256854819Y-60834285D01*
X256854819Y-60834285D02*
X256854819Y-60453333D01*
X256854819Y-60453333D02*
X256902438Y-60358095D01*
X256902438Y-60358095D02*
X256950057Y-60310476D01*
X256950057Y-60310476D02*
X257045295Y-60262857D01*
X257045295Y-60262857D02*
X257188152Y-60262857D01*
X257188152Y-60262857D02*
X257283390Y-60310476D01*
X257283390Y-60310476D02*
X257331009Y-60358095D01*
X257331009Y-60358095D02*
X257378628Y-60453333D01*
X257378628Y-60453333D02*
X257378628Y-60834285D01*
X257854819Y-59310476D02*
X257854819Y-59881904D01*
X257854819Y-59596190D02*
X256854819Y-59596190D01*
X256854819Y-59596190D02*
X256997676Y-59691428D01*
X256997676Y-59691428D02*
X257092914Y-59786666D01*
X257092914Y-59786666D02*
X257140533Y-59881904D01*
X257283390Y-58739047D02*
X257235771Y-58834285D01*
X257235771Y-58834285D02*
X257188152Y-58881904D01*
X257188152Y-58881904D02*
X257092914Y-58929523D01*
X257092914Y-58929523D02*
X257045295Y-58929523D01*
X257045295Y-58929523D02*
X256950057Y-58881904D01*
X256950057Y-58881904D02*
X256902438Y-58834285D01*
X256902438Y-58834285D02*
X256854819Y-58739047D01*
X256854819Y-58739047D02*
X256854819Y-58548571D01*
X256854819Y-58548571D02*
X256902438Y-58453333D01*
X256902438Y-58453333D02*
X256950057Y-58405714D01*
X256950057Y-58405714D02*
X257045295Y-58358095D01*
X257045295Y-58358095D02*
X257092914Y-58358095D01*
X257092914Y-58358095D02*
X257188152Y-58405714D01*
X257188152Y-58405714D02*
X257235771Y-58453333D01*
X257235771Y-58453333D02*
X257283390Y-58548571D01*
X257283390Y-58548571D02*
X257283390Y-58739047D01*
X257283390Y-58739047D02*
X257331009Y-58834285D01*
X257331009Y-58834285D02*
X257378628Y-58881904D01*
X257378628Y-58881904D02*
X257473866Y-58929523D01*
X257473866Y-58929523D02*
X257664342Y-58929523D01*
X257664342Y-58929523D02*
X257759580Y-58881904D01*
X257759580Y-58881904D02*
X257807200Y-58834285D01*
X257807200Y-58834285D02*
X257854819Y-58739047D01*
X257854819Y-58739047D02*
X257854819Y-58548571D01*
X257854819Y-58548571D02*
X257807200Y-58453333D01*
X257807200Y-58453333D02*
X257759580Y-58405714D01*
X257759580Y-58405714D02*
X257664342Y-58358095D01*
X257664342Y-58358095D02*
X257473866Y-58358095D01*
X257473866Y-58358095D02*
X257378628Y-58405714D01*
X257378628Y-58405714D02*
X257331009Y-58453333D01*
X257331009Y-58453333D02*
X257283390Y-58548571D01*
X258184819Y-56518094D02*
X257184819Y-56518094D01*
X257184819Y-56518094D02*
X257184819Y-56279999D01*
X257184819Y-56279999D02*
X257232438Y-56137142D01*
X257232438Y-56137142D02*
X257327676Y-56041904D01*
X257327676Y-56041904D02*
X257422914Y-55994285D01*
X257422914Y-55994285D02*
X257613390Y-55946666D01*
X257613390Y-55946666D02*
X257756247Y-55946666D01*
X257756247Y-55946666D02*
X257946723Y-55994285D01*
X257946723Y-55994285D02*
X258041961Y-56041904D01*
X258041961Y-56041904D02*
X258137200Y-56137142D01*
X258137200Y-56137142D02*
X258184819Y-56279999D01*
X258184819Y-56279999D02*
X258184819Y-56518094D01*
X257280057Y-55565713D02*
X257232438Y-55518094D01*
X257232438Y-55518094D02*
X257184819Y-55422856D01*
X257184819Y-55422856D02*
X257184819Y-55184761D01*
X257184819Y-55184761D02*
X257232438Y-55089523D01*
X257232438Y-55089523D02*
X257280057Y-55041904D01*
X257280057Y-55041904D02*
X257375295Y-54994285D01*
X257375295Y-54994285D02*
X257470533Y-54994285D01*
X257470533Y-54994285D02*
X257613390Y-55041904D01*
X257613390Y-55041904D02*
X258184819Y-55613332D01*
X258184819Y-55613332D02*
X258184819Y-54994285D01*
X252434819Y-60262857D02*
X251958628Y-60596190D01*
X252434819Y-60834285D02*
X251434819Y-60834285D01*
X251434819Y-60834285D02*
X251434819Y-60453333D01*
X251434819Y-60453333D02*
X251482438Y-60358095D01*
X251482438Y-60358095D02*
X251530057Y-60310476D01*
X251530057Y-60310476D02*
X251625295Y-60262857D01*
X251625295Y-60262857D02*
X251768152Y-60262857D01*
X251768152Y-60262857D02*
X251863390Y-60310476D01*
X251863390Y-60310476D02*
X251911009Y-60358095D01*
X251911009Y-60358095D02*
X251958628Y-60453333D01*
X251958628Y-60453333D02*
X251958628Y-60834285D01*
X252434819Y-59310476D02*
X252434819Y-59881904D01*
X252434819Y-59596190D02*
X251434819Y-59596190D01*
X251434819Y-59596190D02*
X251577676Y-59691428D01*
X251577676Y-59691428D02*
X251672914Y-59786666D01*
X251672914Y-59786666D02*
X251720533Y-59881904D01*
X251434819Y-58977142D02*
X251434819Y-58310476D01*
X251434819Y-58310476D02*
X252434819Y-58739047D01*
X262754819Y-83002857D02*
X262278628Y-83336190D01*
X262754819Y-83574285D02*
X261754819Y-83574285D01*
X261754819Y-83574285D02*
X261754819Y-83193333D01*
X261754819Y-83193333D02*
X261802438Y-83098095D01*
X261802438Y-83098095D02*
X261850057Y-83050476D01*
X261850057Y-83050476D02*
X261945295Y-83002857D01*
X261945295Y-83002857D02*
X262088152Y-83002857D01*
X262088152Y-83002857D02*
X262183390Y-83050476D01*
X262183390Y-83050476D02*
X262231009Y-83098095D01*
X262231009Y-83098095D02*
X262278628Y-83193333D01*
X262278628Y-83193333D02*
X262278628Y-83574285D01*
X261850057Y-82621904D02*
X261802438Y-82574285D01*
X261802438Y-82574285D02*
X261754819Y-82479047D01*
X261754819Y-82479047D02*
X261754819Y-82240952D01*
X261754819Y-82240952D02*
X261802438Y-82145714D01*
X261802438Y-82145714D02*
X261850057Y-82098095D01*
X261850057Y-82098095D02*
X261945295Y-82050476D01*
X261945295Y-82050476D02*
X262040533Y-82050476D01*
X262040533Y-82050476D02*
X262183390Y-82098095D01*
X262183390Y-82098095D02*
X262754819Y-82669523D01*
X262754819Y-82669523D02*
X262754819Y-82050476D01*
X261754819Y-81145714D02*
X261754819Y-81621904D01*
X261754819Y-81621904D02*
X262231009Y-81669523D01*
X262231009Y-81669523D02*
X262183390Y-81621904D01*
X262183390Y-81621904D02*
X262135771Y-81526666D01*
X262135771Y-81526666D02*
X262135771Y-81288571D01*
X262135771Y-81288571D02*
X262183390Y-81193333D01*
X262183390Y-81193333D02*
X262231009Y-81145714D01*
X262231009Y-81145714D02*
X262326247Y-81098095D01*
X262326247Y-81098095D02*
X262564342Y-81098095D01*
X262564342Y-81098095D02*
X262659580Y-81145714D01*
X262659580Y-81145714D02*
X262707200Y-81193333D01*
X262707200Y-81193333D02*
X262754819Y-81288571D01*
X262754819Y-81288571D02*
X262754819Y-81526666D01*
X262754819Y-81526666D02*
X262707200Y-81621904D01*
X262707200Y-81621904D02*
X262659580Y-81669523D01*
X229896190Y-100784819D02*
X229562857Y-100308628D01*
X229324762Y-100784819D02*
X229324762Y-99784819D01*
X229324762Y-99784819D02*
X229705714Y-99784819D01*
X229705714Y-99784819D02*
X229800952Y-99832438D01*
X229800952Y-99832438D02*
X229848571Y-99880057D01*
X229848571Y-99880057D02*
X229896190Y-99975295D01*
X229896190Y-99975295D02*
X229896190Y-100118152D01*
X229896190Y-100118152D02*
X229848571Y-100213390D01*
X229848571Y-100213390D02*
X229800952Y-100261009D01*
X229800952Y-100261009D02*
X229705714Y-100308628D01*
X229705714Y-100308628D02*
X229324762Y-100308628D01*
X230277143Y-100737200D02*
X230420000Y-100784819D01*
X230420000Y-100784819D02*
X230658095Y-100784819D01*
X230658095Y-100784819D02*
X230753333Y-100737200D01*
X230753333Y-100737200D02*
X230800952Y-100689580D01*
X230800952Y-100689580D02*
X230848571Y-100594342D01*
X230848571Y-100594342D02*
X230848571Y-100499104D01*
X230848571Y-100499104D02*
X230800952Y-100403866D01*
X230800952Y-100403866D02*
X230753333Y-100356247D01*
X230753333Y-100356247D02*
X230658095Y-100308628D01*
X230658095Y-100308628D02*
X230467619Y-100261009D01*
X230467619Y-100261009D02*
X230372381Y-100213390D01*
X230372381Y-100213390D02*
X230324762Y-100165771D01*
X230324762Y-100165771D02*
X230277143Y-100070533D01*
X230277143Y-100070533D02*
X230277143Y-99975295D01*
X230277143Y-99975295D02*
X230324762Y-99880057D01*
X230324762Y-99880057D02*
X230372381Y-99832438D01*
X230372381Y-99832438D02*
X230467619Y-99784819D01*
X230467619Y-99784819D02*
X230705714Y-99784819D01*
X230705714Y-99784819D02*
X230848571Y-99832438D01*
X231134286Y-99784819D02*
X231705714Y-99784819D01*
X231420000Y-100784819D02*
X231420000Y-99784819D01*
X232562857Y-100784819D02*
X231991429Y-100784819D01*
X232277143Y-100784819D02*
X232277143Y-99784819D01*
X232277143Y-99784819D02*
X232181905Y-99927676D01*
X232181905Y-99927676D02*
X232086667Y-100022914D01*
X232086667Y-100022914D02*
X231991429Y-100070533D01*
X220254819Y-84172857D02*
X219778628Y-84506190D01*
X220254819Y-84744285D02*
X219254819Y-84744285D01*
X219254819Y-84744285D02*
X219254819Y-84363333D01*
X219254819Y-84363333D02*
X219302438Y-84268095D01*
X219302438Y-84268095D02*
X219350057Y-84220476D01*
X219350057Y-84220476D02*
X219445295Y-84172857D01*
X219445295Y-84172857D02*
X219588152Y-84172857D01*
X219588152Y-84172857D02*
X219683390Y-84220476D01*
X219683390Y-84220476D02*
X219731009Y-84268095D01*
X219731009Y-84268095D02*
X219778628Y-84363333D01*
X219778628Y-84363333D02*
X219778628Y-84744285D01*
X220254819Y-83220476D02*
X220254819Y-83791904D01*
X220254819Y-83506190D02*
X219254819Y-83506190D01*
X219254819Y-83506190D02*
X219397676Y-83601428D01*
X219397676Y-83601428D02*
X219492914Y-83696666D01*
X219492914Y-83696666D02*
X219540533Y-83791904D01*
X220254819Y-82268095D02*
X220254819Y-82839523D01*
X220254819Y-82553809D02*
X219254819Y-82553809D01*
X219254819Y-82553809D02*
X219397676Y-82649047D01*
X219397676Y-82649047D02*
X219492914Y-82744285D01*
X219492914Y-82744285D02*
X219540533Y-82839523D01*
X235929580Y-54166666D02*
X235977200Y-54214285D01*
X235977200Y-54214285D02*
X236024819Y-54357142D01*
X236024819Y-54357142D02*
X236024819Y-54452380D01*
X236024819Y-54452380D02*
X235977200Y-54595237D01*
X235977200Y-54595237D02*
X235881961Y-54690475D01*
X235881961Y-54690475D02*
X235786723Y-54738094D01*
X235786723Y-54738094D02*
X235596247Y-54785713D01*
X235596247Y-54785713D02*
X235453390Y-54785713D01*
X235453390Y-54785713D02*
X235262914Y-54738094D01*
X235262914Y-54738094D02*
X235167676Y-54690475D01*
X235167676Y-54690475D02*
X235072438Y-54595237D01*
X235072438Y-54595237D02*
X235024819Y-54452380D01*
X235024819Y-54452380D02*
X235024819Y-54357142D01*
X235024819Y-54357142D02*
X235072438Y-54214285D01*
X235072438Y-54214285D02*
X235120057Y-54166666D01*
X235120057Y-53785713D02*
X235072438Y-53738094D01*
X235072438Y-53738094D02*
X235024819Y-53642856D01*
X235024819Y-53642856D02*
X235024819Y-53404761D01*
X235024819Y-53404761D02*
X235072438Y-53309523D01*
X235072438Y-53309523D02*
X235120057Y-53261904D01*
X235120057Y-53261904D02*
X235215295Y-53214285D01*
X235215295Y-53214285D02*
X235310533Y-53214285D01*
X235310533Y-53214285D02*
X235453390Y-53261904D01*
X235453390Y-53261904D02*
X236024819Y-53833332D01*
X236024819Y-53833332D02*
X236024819Y-53214285D01*
X242449580Y-108802857D02*
X242497200Y-108850476D01*
X242497200Y-108850476D02*
X242544819Y-108993333D01*
X242544819Y-108993333D02*
X242544819Y-109088571D01*
X242544819Y-109088571D02*
X242497200Y-109231428D01*
X242497200Y-109231428D02*
X242401961Y-109326666D01*
X242401961Y-109326666D02*
X242306723Y-109374285D01*
X242306723Y-109374285D02*
X242116247Y-109421904D01*
X242116247Y-109421904D02*
X241973390Y-109421904D01*
X241973390Y-109421904D02*
X241782914Y-109374285D01*
X241782914Y-109374285D02*
X241687676Y-109326666D01*
X241687676Y-109326666D02*
X241592438Y-109231428D01*
X241592438Y-109231428D02*
X241544819Y-109088571D01*
X241544819Y-109088571D02*
X241544819Y-108993333D01*
X241544819Y-108993333D02*
X241592438Y-108850476D01*
X241592438Y-108850476D02*
X241640057Y-108802857D01*
X241878152Y-107945714D02*
X242544819Y-107945714D01*
X241497200Y-108183809D02*
X242211485Y-108421904D01*
X242211485Y-108421904D02*
X242211485Y-107802857D01*
X241878152Y-106993333D02*
X242544819Y-106993333D01*
X241497200Y-107231428D02*
X242211485Y-107469523D01*
X242211485Y-107469523D02*
X242211485Y-106850476D01*
X229319580Y-81192857D02*
X229367200Y-81240476D01*
X229367200Y-81240476D02*
X229414819Y-81383333D01*
X229414819Y-81383333D02*
X229414819Y-81478571D01*
X229414819Y-81478571D02*
X229367200Y-81621428D01*
X229367200Y-81621428D02*
X229271961Y-81716666D01*
X229271961Y-81716666D02*
X229176723Y-81764285D01*
X229176723Y-81764285D02*
X228986247Y-81811904D01*
X228986247Y-81811904D02*
X228843390Y-81811904D01*
X228843390Y-81811904D02*
X228652914Y-81764285D01*
X228652914Y-81764285D02*
X228557676Y-81716666D01*
X228557676Y-81716666D02*
X228462438Y-81621428D01*
X228462438Y-81621428D02*
X228414819Y-81478571D01*
X228414819Y-81478571D02*
X228414819Y-81383333D01*
X228414819Y-81383333D02*
X228462438Y-81240476D01*
X228462438Y-81240476D02*
X228510057Y-81192857D01*
X228510057Y-80811904D02*
X228462438Y-80764285D01*
X228462438Y-80764285D02*
X228414819Y-80669047D01*
X228414819Y-80669047D02*
X228414819Y-80430952D01*
X228414819Y-80430952D02*
X228462438Y-80335714D01*
X228462438Y-80335714D02*
X228510057Y-80288095D01*
X228510057Y-80288095D02*
X228605295Y-80240476D01*
X228605295Y-80240476D02*
X228700533Y-80240476D01*
X228700533Y-80240476D02*
X228843390Y-80288095D01*
X228843390Y-80288095D02*
X229414819Y-80859523D01*
X229414819Y-80859523D02*
X229414819Y-80240476D01*
X229414819Y-79288095D02*
X229414819Y-79859523D01*
X229414819Y-79573809D02*
X228414819Y-79573809D01*
X228414819Y-79573809D02*
X228557676Y-79669047D01*
X228557676Y-79669047D02*
X228652914Y-79764285D01*
X228652914Y-79764285D02*
X228700533Y-79859523D01*
X242342142Y-103009580D02*
X242294523Y-103057200D01*
X242294523Y-103057200D02*
X242151666Y-103104819D01*
X242151666Y-103104819D02*
X242056428Y-103104819D01*
X242056428Y-103104819D02*
X241913571Y-103057200D01*
X241913571Y-103057200D02*
X241818333Y-102961961D01*
X241818333Y-102961961D02*
X241770714Y-102866723D01*
X241770714Y-102866723D02*
X241723095Y-102676247D01*
X241723095Y-102676247D02*
X241723095Y-102533390D01*
X241723095Y-102533390D02*
X241770714Y-102342914D01*
X241770714Y-102342914D02*
X241818333Y-102247676D01*
X241818333Y-102247676D02*
X241913571Y-102152438D01*
X241913571Y-102152438D02*
X242056428Y-102104819D01*
X242056428Y-102104819D02*
X242151666Y-102104819D01*
X242151666Y-102104819D02*
X242294523Y-102152438D01*
X242294523Y-102152438D02*
X242342142Y-102200057D01*
X243199285Y-102438152D02*
X243199285Y-103104819D01*
X242961190Y-102057200D02*
X242723095Y-102771485D01*
X242723095Y-102771485D02*
X243342142Y-102771485D01*
X244199285Y-102104819D02*
X243723095Y-102104819D01*
X243723095Y-102104819D02*
X243675476Y-102581009D01*
X243675476Y-102581009D02*
X243723095Y-102533390D01*
X243723095Y-102533390D02*
X243818333Y-102485771D01*
X243818333Y-102485771D02*
X244056428Y-102485771D01*
X244056428Y-102485771D02*
X244151666Y-102533390D01*
X244151666Y-102533390D02*
X244199285Y-102581009D01*
X244199285Y-102581009D02*
X244246904Y-102676247D01*
X244246904Y-102676247D02*
X244246904Y-102914342D01*
X244246904Y-102914342D02*
X244199285Y-103009580D01*
X244199285Y-103009580D02*
X244151666Y-103057200D01*
X244151666Y-103057200D02*
X244056428Y-103104819D01*
X244056428Y-103104819D02*
X243818333Y-103104819D01*
X243818333Y-103104819D02*
X243723095Y-103057200D01*
X243723095Y-103057200D02*
X243675476Y-103009580D01*
X224744819Y-98033333D02*
X225459104Y-98033333D01*
X225459104Y-98033333D02*
X225601961Y-98080952D01*
X225601961Y-98080952D02*
X225697200Y-98176190D01*
X225697200Y-98176190D02*
X225744819Y-98319047D01*
X225744819Y-98319047D02*
X225744819Y-98414285D01*
X225744819Y-97509523D02*
X225744819Y-97319047D01*
X225744819Y-97319047D02*
X225697200Y-97223809D01*
X225697200Y-97223809D02*
X225649580Y-97176190D01*
X225649580Y-97176190D02*
X225506723Y-97080952D01*
X225506723Y-97080952D02*
X225316247Y-97033333D01*
X225316247Y-97033333D02*
X224935295Y-97033333D01*
X224935295Y-97033333D02*
X224840057Y-97080952D01*
X224840057Y-97080952D02*
X224792438Y-97128571D01*
X224792438Y-97128571D02*
X224744819Y-97223809D01*
X224744819Y-97223809D02*
X224744819Y-97414285D01*
X224744819Y-97414285D02*
X224792438Y-97509523D01*
X224792438Y-97509523D02*
X224840057Y-97557142D01*
X224840057Y-97557142D02*
X224935295Y-97604761D01*
X224935295Y-97604761D02*
X225173390Y-97604761D01*
X225173390Y-97604761D02*
X225268628Y-97557142D01*
X225268628Y-97557142D02*
X225316247Y-97509523D01*
X225316247Y-97509523D02*
X225363866Y-97414285D01*
X225363866Y-97414285D02*
X225363866Y-97223809D01*
X225363866Y-97223809D02*
X225316247Y-97128571D01*
X225316247Y-97128571D02*
X225268628Y-97080952D01*
X225268628Y-97080952D02*
X225173390Y-97033333D01*
X225653333Y-87004819D02*
X225320000Y-86528628D01*
X225081905Y-87004819D02*
X225081905Y-86004819D01*
X225081905Y-86004819D02*
X225462857Y-86004819D01*
X225462857Y-86004819D02*
X225558095Y-86052438D01*
X225558095Y-86052438D02*
X225605714Y-86100057D01*
X225605714Y-86100057D02*
X225653333Y-86195295D01*
X225653333Y-86195295D02*
X225653333Y-86338152D01*
X225653333Y-86338152D02*
X225605714Y-86433390D01*
X225605714Y-86433390D02*
X225558095Y-86481009D01*
X225558095Y-86481009D02*
X225462857Y-86528628D01*
X225462857Y-86528628D02*
X225081905Y-86528628D01*
X226224762Y-86433390D02*
X226129524Y-86385771D01*
X226129524Y-86385771D02*
X226081905Y-86338152D01*
X226081905Y-86338152D02*
X226034286Y-86242914D01*
X226034286Y-86242914D02*
X226034286Y-86195295D01*
X226034286Y-86195295D02*
X226081905Y-86100057D01*
X226081905Y-86100057D02*
X226129524Y-86052438D01*
X226129524Y-86052438D02*
X226224762Y-86004819D01*
X226224762Y-86004819D02*
X226415238Y-86004819D01*
X226415238Y-86004819D02*
X226510476Y-86052438D01*
X226510476Y-86052438D02*
X226558095Y-86100057D01*
X226558095Y-86100057D02*
X226605714Y-86195295D01*
X226605714Y-86195295D02*
X226605714Y-86242914D01*
X226605714Y-86242914D02*
X226558095Y-86338152D01*
X226558095Y-86338152D02*
X226510476Y-86385771D01*
X226510476Y-86385771D02*
X226415238Y-86433390D01*
X226415238Y-86433390D02*
X226224762Y-86433390D01*
X226224762Y-86433390D02*
X226129524Y-86481009D01*
X226129524Y-86481009D02*
X226081905Y-86528628D01*
X226081905Y-86528628D02*
X226034286Y-86623866D01*
X226034286Y-86623866D02*
X226034286Y-86814342D01*
X226034286Y-86814342D02*
X226081905Y-86909580D01*
X226081905Y-86909580D02*
X226129524Y-86957200D01*
X226129524Y-86957200D02*
X226224762Y-87004819D01*
X226224762Y-87004819D02*
X226415238Y-87004819D01*
X226415238Y-87004819D02*
X226510476Y-86957200D01*
X226510476Y-86957200D02*
X226558095Y-86909580D01*
X226558095Y-86909580D02*
X226605714Y-86814342D01*
X226605714Y-86814342D02*
X226605714Y-86623866D01*
X226605714Y-86623866D02*
X226558095Y-86528628D01*
X226558095Y-86528628D02*
X226510476Y-86481009D01*
X226510476Y-86481009D02*
X226415238Y-86433390D01*
X265284819Y-82912857D02*
X264808628Y-83246190D01*
X265284819Y-83484285D02*
X264284819Y-83484285D01*
X264284819Y-83484285D02*
X264284819Y-83103333D01*
X264284819Y-83103333D02*
X264332438Y-83008095D01*
X264332438Y-83008095D02*
X264380057Y-82960476D01*
X264380057Y-82960476D02*
X264475295Y-82912857D01*
X264475295Y-82912857D02*
X264618152Y-82912857D01*
X264618152Y-82912857D02*
X264713390Y-82960476D01*
X264713390Y-82960476D02*
X264761009Y-83008095D01*
X264761009Y-83008095D02*
X264808628Y-83103333D01*
X264808628Y-83103333D02*
X264808628Y-83484285D01*
X264284819Y-82579523D02*
X264284819Y-81960476D01*
X264284819Y-81960476D02*
X264665771Y-82293809D01*
X264665771Y-82293809D02*
X264665771Y-82150952D01*
X264665771Y-82150952D02*
X264713390Y-82055714D01*
X264713390Y-82055714D02*
X264761009Y-82008095D01*
X264761009Y-82008095D02*
X264856247Y-81960476D01*
X264856247Y-81960476D02*
X265094342Y-81960476D01*
X265094342Y-81960476D02*
X265189580Y-82008095D01*
X265189580Y-82008095D02*
X265237200Y-82055714D01*
X265237200Y-82055714D02*
X265284819Y-82150952D01*
X265284819Y-82150952D02*
X265284819Y-82436666D01*
X265284819Y-82436666D02*
X265237200Y-82531904D01*
X265237200Y-82531904D02*
X265189580Y-82579523D01*
X265284819Y-81008095D02*
X265284819Y-81579523D01*
X265284819Y-81293809D02*
X264284819Y-81293809D01*
X264284819Y-81293809D02*
X264427676Y-81389047D01*
X264427676Y-81389047D02*
X264522914Y-81484285D01*
X264522914Y-81484285D02*
X264570533Y-81579523D01*
X235647142Y-74834819D02*
X235313809Y-74358628D01*
X235075714Y-74834819D02*
X235075714Y-73834819D01*
X235075714Y-73834819D02*
X235456666Y-73834819D01*
X235456666Y-73834819D02*
X235551904Y-73882438D01*
X235551904Y-73882438D02*
X235599523Y-73930057D01*
X235599523Y-73930057D02*
X235647142Y-74025295D01*
X235647142Y-74025295D02*
X235647142Y-74168152D01*
X235647142Y-74168152D02*
X235599523Y-74263390D01*
X235599523Y-74263390D02*
X235551904Y-74311009D01*
X235551904Y-74311009D02*
X235456666Y-74358628D01*
X235456666Y-74358628D02*
X235075714Y-74358628D01*
X236028095Y-73930057D02*
X236075714Y-73882438D01*
X236075714Y-73882438D02*
X236170952Y-73834819D01*
X236170952Y-73834819D02*
X236409047Y-73834819D01*
X236409047Y-73834819D02*
X236504285Y-73882438D01*
X236504285Y-73882438D02*
X236551904Y-73930057D01*
X236551904Y-73930057D02*
X236599523Y-74025295D01*
X236599523Y-74025295D02*
X236599523Y-74120533D01*
X236599523Y-74120533D02*
X236551904Y-74263390D01*
X236551904Y-74263390D02*
X235980476Y-74834819D01*
X235980476Y-74834819D02*
X236599523Y-74834819D01*
X236932857Y-73834819D02*
X237551904Y-73834819D01*
X237551904Y-73834819D02*
X237218571Y-74215771D01*
X237218571Y-74215771D02*
X237361428Y-74215771D01*
X237361428Y-74215771D02*
X237456666Y-74263390D01*
X237456666Y-74263390D02*
X237504285Y-74311009D01*
X237504285Y-74311009D02*
X237551904Y-74406247D01*
X237551904Y-74406247D02*
X237551904Y-74644342D01*
X237551904Y-74644342D02*
X237504285Y-74739580D01*
X237504285Y-74739580D02*
X237456666Y-74787200D01*
X237456666Y-74787200D02*
X237361428Y-74834819D01*
X237361428Y-74834819D02*
X237075714Y-74834819D01*
X237075714Y-74834819D02*
X236980476Y-74787200D01*
X236980476Y-74787200D02*
X236932857Y-74739580D01*
X226594819Y-81052857D02*
X226118628Y-81386190D01*
X226594819Y-81624285D02*
X225594819Y-81624285D01*
X225594819Y-81624285D02*
X225594819Y-81243333D01*
X225594819Y-81243333D02*
X225642438Y-81148095D01*
X225642438Y-81148095D02*
X225690057Y-81100476D01*
X225690057Y-81100476D02*
X225785295Y-81052857D01*
X225785295Y-81052857D02*
X225928152Y-81052857D01*
X225928152Y-81052857D02*
X226023390Y-81100476D01*
X226023390Y-81100476D02*
X226071009Y-81148095D01*
X226071009Y-81148095D02*
X226118628Y-81243333D01*
X226118628Y-81243333D02*
X226118628Y-81624285D01*
X225690057Y-80671904D02*
X225642438Y-80624285D01*
X225642438Y-80624285D02*
X225594819Y-80529047D01*
X225594819Y-80529047D02*
X225594819Y-80290952D01*
X225594819Y-80290952D02*
X225642438Y-80195714D01*
X225642438Y-80195714D02*
X225690057Y-80148095D01*
X225690057Y-80148095D02*
X225785295Y-80100476D01*
X225785295Y-80100476D02*
X225880533Y-80100476D01*
X225880533Y-80100476D02*
X226023390Y-80148095D01*
X226023390Y-80148095D02*
X226594819Y-80719523D01*
X226594819Y-80719523D02*
X226594819Y-80100476D01*
X225928152Y-79243333D02*
X226594819Y-79243333D01*
X225547200Y-79481428D02*
X226261485Y-79719523D01*
X226261485Y-79719523D02*
X226261485Y-79100476D01*
X223427142Y-75419580D02*
X223379523Y-75467200D01*
X223379523Y-75467200D02*
X223236666Y-75514819D01*
X223236666Y-75514819D02*
X223141428Y-75514819D01*
X223141428Y-75514819D02*
X222998571Y-75467200D01*
X222998571Y-75467200D02*
X222903333Y-75371961D01*
X222903333Y-75371961D02*
X222855714Y-75276723D01*
X222855714Y-75276723D02*
X222808095Y-75086247D01*
X222808095Y-75086247D02*
X222808095Y-74943390D01*
X222808095Y-74943390D02*
X222855714Y-74752914D01*
X222855714Y-74752914D02*
X222903333Y-74657676D01*
X222903333Y-74657676D02*
X222998571Y-74562438D01*
X222998571Y-74562438D02*
X223141428Y-74514819D01*
X223141428Y-74514819D02*
X223236666Y-74514819D01*
X223236666Y-74514819D02*
X223379523Y-74562438D01*
X223379523Y-74562438D02*
X223427142Y-74610057D01*
X223808095Y-74610057D02*
X223855714Y-74562438D01*
X223855714Y-74562438D02*
X223950952Y-74514819D01*
X223950952Y-74514819D02*
X224189047Y-74514819D01*
X224189047Y-74514819D02*
X224284285Y-74562438D01*
X224284285Y-74562438D02*
X224331904Y-74610057D01*
X224331904Y-74610057D02*
X224379523Y-74705295D01*
X224379523Y-74705295D02*
X224379523Y-74800533D01*
X224379523Y-74800533D02*
X224331904Y-74943390D01*
X224331904Y-74943390D02*
X223760476Y-75514819D01*
X223760476Y-75514819D02*
X224379523Y-75514819D01*
X224760476Y-74610057D02*
X224808095Y-74562438D01*
X224808095Y-74562438D02*
X224903333Y-74514819D01*
X224903333Y-74514819D02*
X225141428Y-74514819D01*
X225141428Y-74514819D02*
X225236666Y-74562438D01*
X225236666Y-74562438D02*
X225284285Y-74610057D01*
X225284285Y-74610057D02*
X225331904Y-74705295D01*
X225331904Y-74705295D02*
X225331904Y-74800533D01*
X225331904Y-74800533D02*
X225284285Y-74943390D01*
X225284285Y-74943390D02*
X224712857Y-75514819D01*
X224712857Y-75514819D02*
X225331904Y-75514819D01*
X248843333Y-61414819D02*
X248510000Y-60938628D01*
X248271905Y-61414819D02*
X248271905Y-60414819D01*
X248271905Y-60414819D02*
X248652857Y-60414819D01*
X248652857Y-60414819D02*
X248748095Y-60462438D01*
X248748095Y-60462438D02*
X248795714Y-60510057D01*
X248795714Y-60510057D02*
X248843333Y-60605295D01*
X248843333Y-60605295D02*
X248843333Y-60748152D01*
X248843333Y-60748152D02*
X248795714Y-60843390D01*
X248795714Y-60843390D02*
X248748095Y-60891009D01*
X248748095Y-60891009D02*
X248652857Y-60938628D01*
X248652857Y-60938628D02*
X248271905Y-60938628D01*
X249748095Y-60414819D02*
X249271905Y-60414819D01*
X249271905Y-60414819D02*
X249224286Y-60891009D01*
X249224286Y-60891009D02*
X249271905Y-60843390D01*
X249271905Y-60843390D02*
X249367143Y-60795771D01*
X249367143Y-60795771D02*
X249605238Y-60795771D01*
X249605238Y-60795771D02*
X249700476Y-60843390D01*
X249700476Y-60843390D02*
X249748095Y-60891009D01*
X249748095Y-60891009D02*
X249795714Y-60986247D01*
X249795714Y-60986247D02*
X249795714Y-61224342D01*
X249795714Y-61224342D02*
X249748095Y-61319580D01*
X249748095Y-61319580D02*
X249700476Y-61367200D01*
X249700476Y-61367200D02*
X249605238Y-61414819D01*
X249605238Y-61414819D02*
X249367143Y-61414819D01*
X249367143Y-61414819D02*
X249271905Y-61367200D01*
X249271905Y-61367200D02*
X249224286Y-61319580D01*
X239832142Y-63524819D02*
X239498809Y-63048628D01*
X239260714Y-63524819D02*
X239260714Y-62524819D01*
X239260714Y-62524819D02*
X239641666Y-62524819D01*
X239641666Y-62524819D02*
X239736904Y-62572438D01*
X239736904Y-62572438D02*
X239784523Y-62620057D01*
X239784523Y-62620057D02*
X239832142Y-62715295D01*
X239832142Y-62715295D02*
X239832142Y-62858152D01*
X239832142Y-62858152D02*
X239784523Y-62953390D01*
X239784523Y-62953390D02*
X239736904Y-63001009D01*
X239736904Y-63001009D02*
X239641666Y-63048628D01*
X239641666Y-63048628D02*
X239260714Y-63048628D01*
X240689285Y-62858152D02*
X240689285Y-63524819D01*
X240451190Y-62477200D02*
X240213095Y-63191485D01*
X240213095Y-63191485D02*
X240832142Y-63191485D01*
X241117857Y-62524819D02*
X241736904Y-62524819D01*
X241736904Y-62524819D02*
X241403571Y-62905771D01*
X241403571Y-62905771D02*
X241546428Y-62905771D01*
X241546428Y-62905771D02*
X241641666Y-62953390D01*
X241641666Y-62953390D02*
X241689285Y-63001009D01*
X241689285Y-63001009D02*
X241736904Y-63096247D01*
X241736904Y-63096247D02*
X241736904Y-63334342D01*
X241736904Y-63334342D02*
X241689285Y-63429580D01*
X241689285Y-63429580D02*
X241641666Y-63477200D01*
X241641666Y-63477200D02*
X241546428Y-63524819D01*
X241546428Y-63524819D02*
X241260714Y-63524819D01*
X241260714Y-63524819D02*
X241165476Y-63477200D01*
X241165476Y-63477200D02*
X241117857Y-63429580D01*
X258797142Y-71909580D02*
X258749523Y-71957200D01*
X258749523Y-71957200D02*
X258606666Y-72004819D01*
X258606666Y-72004819D02*
X258511428Y-72004819D01*
X258511428Y-72004819D02*
X258368571Y-71957200D01*
X258368571Y-71957200D02*
X258273333Y-71861961D01*
X258273333Y-71861961D02*
X258225714Y-71766723D01*
X258225714Y-71766723D02*
X258178095Y-71576247D01*
X258178095Y-71576247D02*
X258178095Y-71433390D01*
X258178095Y-71433390D02*
X258225714Y-71242914D01*
X258225714Y-71242914D02*
X258273333Y-71147676D01*
X258273333Y-71147676D02*
X258368571Y-71052438D01*
X258368571Y-71052438D02*
X258511428Y-71004819D01*
X258511428Y-71004819D02*
X258606666Y-71004819D01*
X258606666Y-71004819D02*
X258749523Y-71052438D01*
X258749523Y-71052438D02*
X258797142Y-71100057D01*
X259654285Y-71004819D02*
X259463809Y-71004819D01*
X259463809Y-71004819D02*
X259368571Y-71052438D01*
X259368571Y-71052438D02*
X259320952Y-71100057D01*
X259320952Y-71100057D02*
X259225714Y-71242914D01*
X259225714Y-71242914D02*
X259178095Y-71433390D01*
X259178095Y-71433390D02*
X259178095Y-71814342D01*
X259178095Y-71814342D02*
X259225714Y-71909580D01*
X259225714Y-71909580D02*
X259273333Y-71957200D01*
X259273333Y-71957200D02*
X259368571Y-72004819D01*
X259368571Y-72004819D02*
X259559047Y-72004819D01*
X259559047Y-72004819D02*
X259654285Y-71957200D01*
X259654285Y-71957200D02*
X259701904Y-71909580D01*
X259701904Y-71909580D02*
X259749523Y-71814342D01*
X259749523Y-71814342D02*
X259749523Y-71576247D01*
X259749523Y-71576247D02*
X259701904Y-71481009D01*
X259701904Y-71481009D02*
X259654285Y-71433390D01*
X259654285Y-71433390D02*
X259559047Y-71385771D01*
X259559047Y-71385771D02*
X259368571Y-71385771D01*
X259368571Y-71385771D02*
X259273333Y-71433390D01*
X259273333Y-71433390D02*
X259225714Y-71481009D01*
X259225714Y-71481009D02*
X259178095Y-71576247D01*
X260606666Y-71004819D02*
X260416190Y-71004819D01*
X260416190Y-71004819D02*
X260320952Y-71052438D01*
X260320952Y-71052438D02*
X260273333Y-71100057D01*
X260273333Y-71100057D02*
X260178095Y-71242914D01*
X260178095Y-71242914D02*
X260130476Y-71433390D01*
X260130476Y-71433390D02*
X260130476Y-71814342D01*
X260130476Y-71814342D02*
X260178095Y-71909580D01*
X260178095Y-71909580D02*
X260225714Y-71957200D01*
X260225714Y-71957200D02*
X260320952Y-72004819D01*
X260320952Y-72004819D02*
X260511428Y-72004819D01*
X260511428Y-72004819D02*
X260606666Y-71957200D01*
X260606666Y-71957200D02*
X260654285Y-71909580D01*
X260654285Y-71909580D02*
X260701904Y-71814342D01*
X260701904Y-71814342D02*
X260701904Y-71576247D01*
X260701904Y-71576247D02*
X260654285Y-71481009D01*
X260654285Y-71481009D02*
X260606666Y-71433390D01*
X260606666Y-71433390D02*
X260511428Y-71385771D01*
X260511428Y-71385771D02*
X260320952Y-71385771D01*
X260320952Y-71385771D02*
X260225714Y-71433390D01*
X260225714Y-71433390D02*
X260178095Y-71481009D01*
X260178095Y-71481009D02*
X260130476Y-71576247D01*
X254306666Y-108394819D02*
X254306666Y-109109104D01*
X254306666Y-109109104D02*
X254259047Y-109251961D01*
X254259047Y-109251961D02*
X254163809Y-109347200D01*
X254163809Y-109347200D02*
X254020952Y-109394819D01*
X254020952Y-109394819D02*
X253925714Y-109394819D01*
X254925714Y-108823390D02*
X254830476Y-108775771D01*
X254830476Y-108775771D02*
X254782857Y-108728152D01*
X254782857Y-108728152D02*
X254735238Y-108632914D01*
X254735238Y-108632914D02*
X254735238Y-108585295D01*
X254735238Y-108585295D02*
X254782857Y-108490057D01*
X254782857Y-108490057D02*
X254830476Y-108442438D01*
X254830476Y-108442438D02*
X254925714Y-108394819D01*
X254925714Y-108394819D02*
X255116190Y-108394819D01*
X255116190Y-108394819D02*
X255211428Y-108442438D01*
X255211428Y-108442438D02*
X255259047Y-108490057D01*
X255259047Y-108490057D02*
X255306666Y-108585295D01*
X255306666Y-108585295D02*
X255306666Y-108632914D01*
X255306666Y-108632914D02*
X255259047Y-108728152D01*
X255259047Y-108728152D02*
X255211428Y-108775771D01*
X255211428Y-108775771D02*
X255116190Y-108823390D01*
X255116190Y-108823390D02*
X254925714Y-108823390D01*
X254925714Y-108823390D02*
X254830476Y-108871009D01*
X254830476Y-108871009D02*
X254782857Y-108918628D01*
X254782857Y-108918628D02*
X254735238Y-109013866D01*
X254735238Y-109013866D02*
X254735238Y-109204342D01*
X254735238Y-109204342D02*
X254782857Y-109299580D01*
X254782857Y-109299580D02*
X254830476Y-109347200D01*
X254830476Y-109347200D02*
X254925714Y-109394819D01*
X254925714Y-109394819D02*
X255116190Y-109394819D01*
X255116190Y-109394819D02*
X255211428Y-109347200D01*
X255211428Y-109347200D02*
X255259047Y-109299580D01*
X255259047Y-109299580D02*
X255306666Y-109204342D01*
X255306666Y-109204342D02*
X255306666Y-109013866D01*
X255306666Y-109013866D02*
X255259047Y-108918628D01*
X255259047Y-108918628D02*
X255211428Y-108871009D01*
X255211428Y-108871009D02*
X255116190Y-108823390D01*
X260287142Y-88179580D02*
X260239523Y-88227200D01*
X260239523Y-88227200D02*
X260096666Y-88274819D01*
X260096666Y-88274819D02*
X260001428Y-88274819D01*
X260001428Y-88274819D02*
X259858571Y-88227200D01*
X259858571Y-88227200D02*
X259763333Y-88131961D01*
X259763333Y-88131961D02*
X259715714Y-88036723D01*
X259715714Y-88036723D02*
X259668095Y-87846247D01*
X259668095Y-87846247D02*
X259668095Y-87703390D01*
X259668095Y-87703390D02*
X259715714Y-87512914D01*
X259715714Y-87512914D02*
X259763333Y-87417676D01*
X259763333Y-87417676D02*
X259858571Y-87322438D01*
X259858571Y-87322438D02*
X260001428Y-87274819D01*
X260001428Y-87274819D02*
X260096666Y-87274819D01*
X260096666Y-87274819D02*
X260239523Y-87322438D01*
X260239523Y-87322438D02*
X260287142Y-87370057D01*
X260620476Y-87274819D02*
X261239523Y-87274819D01*
X261239523Y-87274819D02*
X260906190Y-87655771D01*
X260906190Y-87655771D02*
X261049047Y-87655771D01*
X261049047Y-87655771D02*
X261144285Y-87703390D01*
X261144285Y-87703390D02*
X261191904Y-87751009D01*
X261191904Y-87751009D02*
X261239523Y-87846247D01*
X261239523Y-87846247D02*
X261239523Y-88084342D01*
X261239523Y-88084342D02*
X261191904Y-88179580D01*
X261191904Y-88179580D02*
X261144285Y-88227200D01*
X261144285Y-88227200D02*
X261049047Y-88274819D01*
X261049047Y-88274819D02*
X260763333Y-88274819D01*
X260763333Y-88274819D02*
X260668095Y-88227200D01*
X260668095Y-88227200D02*
X260620476Y-88179580D01*
X261620476Y-87370057D02*
X261668095Y-87322438D01*
X261668095Y-87322438D02*
X261763333Y-87274819D01*
X261763333Y-87274819D02*
X262001428Y-87274819D01*
X262001428Y-87274819D02*
X262096666Y-87322438D01*
X262096666Y-87322438D02*
X262144285Y-87370057D01*
X262144285Y-87370057D02*
X262191904Y-87465295D01*
X262191904Y-87465295D02*
X262191904Y-87560533D01*
X262191904Y-87560533D02*
X262144285Y-87703390D01*
X262144285Y-87703390D02*
X261572857Y-88274819D01*
X261572857Y-88274819D02*
X262191904Y-88274819D01*
X239203333Y-61404819D02*
X238870000Y-60928628D01*
X238631905Y-61404819D02*
X238631905Y-60404819D01*
X238631905Y-60404819D02*
X239012857Y-60404819D01*
X239012857Y-60404819D02*
X239108095Y-60452438D01*
X239108095Y-60452438D02*
X239155714Y-60500057D01*
X239155714Y-60500057D02*
X239203333Y-60595295D01*
X239203333Y-60595295D02*
X239203333Y-60738152D01*
X239203333Y-60738152D02*
X239155714Y-60833390D01*
X239155714Y-60833390D02*
X239108095Y-60881009D01*
X239108095Y-60881009D02*
X239012857Y-60928628D01*
X239012857Y-60928628D02*
X238631905Y-60928628D01*
X240060476Y-60404819D02*
X239870000Y-60404819D01*
X239870000Y-60404819D02*
X239774762Y-60452438D01*
X239774762Y-60452438D02*
X239727143Y-60500057D01*
X239727143Y-60500057D02*
X239631905Y-60642914D01*
X239631905Y-60642914D02*
X239584286Y-60833390D01*
X239584286Y-60833390D02*
X239584286Y-61214342D01*
X239584286Y-61214342D02*
X239631905Y-61309580D01*
X239631905Y-61309580D02*
X239679524Y-61357200D01*
X239679524Y-61357200D02*
X239774762Y-61404819D01*
X239774762Y-61404819D02*
X239965238Y-61404819D01*
X239965238Y-61404819D02*
X240060476Y-61357200D01*
X240060476Y-61357200D02*
X240108095Y-61309580D01*
X240108095Y-61309580D02*
X240155714Y-61214342D01*
X240155714Y-61214342D02*
X240155714Y-60976247D01*
X240155714Y-60976247D02*
X240108095Y-60881009D01*
X240108095Y-60881009D02*
X240060476Y-60833390D01*
X240060476Y-60833390D02*
X239965238Y-60785771D01*
X239965238Y-60785771D02*
X239774762Y-60785771D01*
X239774762Y-60785771D02*
X239679524Y-60833390D01*
X239679524Y-60833390D02*
X239631905Y-60881009D01*
X239631905Y-60881009D02*
X239584286Y-60976247D01*
D15*
%TO.C,G\u002A\u002A\u002A*%
G36*
X254673663Y-104176224D02*
G01*
X254755396Y-104238920D01*
X254760591Y-104319126D01*
X254736850Y-104351579D01*
X254636653Y-104400764D01*
X254506614Y-104410248D01*
X254393699Y-104381782D01*
X254348702Y-104337100D01*
X254345140Y-104226442D01*
X254431686Y-104163357D01*
X254535349Y-104150909D01*
X254673663Y-104176224D01*
G37*
G36*
X254478810Y-106221887D02*
G01*
X254491239Y-106225443D01*
X254574590Y-106290669D01*
X254583395Y-106382867D01*
X254525686Y-106464219D01*
X254433719Y-106496359D01*
X254306158Y-106493805D01*
X254236921Y-106478866D01*
X254172528Y-106417612D01*
X254185471Y-106340410D01*
X254254799Y-106268137D01*
X254359562Y-106221671D01*
X254478810Y-106221887D01*
G37*
G36*
X254863761Y-105753988D02*
G01*
X254933381Y-105798329D01*
X255000279Y-105865738D01*
X254981018Y-105933044D01*
X254963225Y-105955767D01*
X254856066Y-106024586D01*
X254774834Y-106040165D01*
X254648714Y-106004476D01*
X254586443Y-105955767D01*
X254546456Y-105881214D01*
X254590433Y-105818135D01*
X254616288Y-105798329D01*
X254745798Y-105732202D01*
X254863761Y-105753988D01*
G37*
G36*
X254271202Y-105236184D02*
G01*
X254333473Y-105284894D01*
X254373461Y-105359447D01*
X254329484Y-105422526D01*
X254303629Y-105442332D01*
X254201430Y-105500236D01*
X254145082Y-105515372D01*
X254059396Y-105486720D01*
X253986536Y-105442332D01*
X253919637Y-105374922D01*
X253938898Y-105307617D01*
X253956691Y-105284894D01*
X254063850Y-105216075D01*
X254145082Y-105200496D01*
X254271202Y-105236184D01*
G37*
G36*
X254586078Y-104711391D02*
G01*
X254648349Y-104760100D01*
X254688337Y-104834653D01*
X254644360Y-104897732D01*
X254618505Y-104917538D01*
X254516306Y-104975442D01*
X254459958Y-104990578D01*
X254374272Y-104961927D01*
X254301412Y-104917538D01*
X254234513Y-104850129D01*
X254253774Y-104782823D01*
X254271567Y-104760100D01*
X254378726Y-104691282D01*
X254459958Y-104675702D01*
X254586078Y-104711391D01*
G37*
G36*
X250683165Y-107205759D02*
G01*
X250741036Y-107227702D01*
X250759177Y-107270707D01*
X250760165Y-107294992D01*
X250809832Y-107504730D01*
X250947588Y-107688355D01*
X251060853Y-107772141D01*
X251189440Y-107874418D01*
X251222453Y-107969230D01*
X251206329Y-108003609D01*
X251163153Y-108028780D01*
X251077910Y-108046567D01*
X250935588Y-108058794D01*
X250721172Y-108067286D01*
X250419650Y-108073866D01*
X250351637Y-108075045D01*
X250031646Y-108079464D01*
X249801188Y-108079344D01*
X249644887Y-108073379D01*
X249547368Y-108060265D01*
X249493254Y-108038696D01*
X249467171Y-108007366D01*
X249463911Y-107999676D01*
X249472988Y-107899801D01*
X249523759Y-107854052D01*
X249710648Y-107722166D01*
X249827652Y-107577111D01*
X249891184Y-107430867D01*
X249962888Y-107220950D01*
X250361527Y-107205623D01*
X250563887Y-107200019D01*
X250683165Y-107205759D01*
G37*
G36*
X249627608Y-103844442D02*
G01*
X250096894Y-103845858D01*
X250445289Y-103847705D01*
X252780619Y-103862272D01*
X252797062Y-104004903D01*
X252813505Y-104147533D01*
X253400575Y-104162341D01*
X253655912Y-104170055D01*
X253824254Y-104180261D01*
X253923555Y-104196624D01*
X253971773Y-104222805D01*
X253986861Y-104262469D01*
X253987644Y-104282107D01*
X253980555Y-104327829D01*
X253947350Y-104358732D01*
X253870120Y-104378451D01*
X253730960Y-104390618D01*
X253511962Y-104398869D01*
X253397252Y-104401904D01*
X253141864Y-104409055D01*
X252973348Y-104418086D01*
X252873646Y-104433354D01*
X252824699Y-104459215D01*
X252808451Y-104500025D01*
X252806859Y-104544322D01*
X252811032Y-104602938D01*
X252836477Y-104640850D01*
X252902581Y-104663462D01*
X253028735Y-104676178D01*
X253234326Y-104684401D01*
X253318533Y-104686922D01*
X253554095Y-104695489D01*
X253703873Y-104707465D01*
X253787037Y-104727345D01*
X253822757Y-104759623D01*
X253830206Y-104806901D01*
X253822150Y-104855457D01*
X253785200Y-104887266D01*
X253700189Y-104906821D01*
X253547946Y-104918617D01*
X253318533Y-104926879D01*
X253083933Y-104934816D01*
X252934873Y-104945553D01*
X252851965Y-104964479D01*
X252815820Y-104996982D01*
X252807050Y-105048450D01*
X252806859Y-105069075D01*
X252812177Y-105131603D01*
X252842164Y-105170362D01*
X252917871Y-105192276D01*
X253060349Y-105204271D01*
X253239814Y-105211493D01*
X253453234Y-105221288D01*
X253582415Y-105236029D01*
X253648073Y-105261468D01*
X253670922Y-105303354D01*
X253672768Y-105331694D01*
X253663356Y-105383764D01*
X253621309Y-105416561D01*
X253525911Y-105435836D01*
X253356447Y-105447341D01*
X253239814Y-105451895D01*
X253027620Y-105460877D01*
X252899289Y-105474115D01*
X252833763Y-105498628D01*
X252809981Y-105541437D01*
X252806859Y-105596213D01*
X252806859Y-105725289D01*
X253482665Y-105725289D01*
X253790473Y-105728676D01*
X254006037Y-105739629D01*
X254141875Y-105759332D01*
X254210509Y-105788973D01*
X254216127Y-105794761D01*
X254252864Y-105866174D01*
X254222257Y-105918891D01*
X254115961Y-105955095D01*
X253925635Y-105976967D01*
X253642935Y-105986691D01*
X253478595Y-105987686D01*
X252806859Y-105987686D01*
X252806859Y-106118884D01*
X252810698Y-106181330D01*
X252835773Y-106219946D01*
X252902420Y-106240459D01*
X253030973Y-106248594D01*
X253241770Y-106250079D01*
X253272747Y-106250082D01*
X253523779Y-106255580D01*
X253687162Y-106273693D01*
X253779711Y-106306847D01*
X253802059Y-106326503D01*
X253844508Y-106404598D01*
X253814910Y-106458937D01*
X253704560Y-106492777D01*
X253504754Y-106509375D01*
X253305058Y-106512479D01*
X252812344Y-106512479D01*
X252796482Y-106787996D01*
X252780619Y-107063512D01*
X250362714Y-107077150D01*
X249868722Y-107079184D01*
X249407138Y-107079635D01*
X248988514Y-107078595D01*
X248623406Y-107076159D01*
X248322367Y-107072422D01*
X248095951Y-107067476D01*
X247954713Y-107061417D01*
X247909305Y-107055284D01*
X247900363Y-106995758D01*
X247892247Y-106844534D01*
X247885251Y-106614871D01*
X247879670Y-106320030D01*
X247875798Y-105973269D01*
X247873928Y-105587847D01*
X247873808Y-105462892D01*
X247873801Y-105455146D01*
X247873801Y-104098429D01*
X248136198Y-104098429D01*
X248136198Y-105462892D01*
X248136627Y-105877195D01*
X248138443Y-106198265D01*
X248142437Y-106437825D01*
X248149401Y-106607599D01*
X248160125Y-106719311D01*
X248175403Y-106784684D01*
X248196024Y-106815442D01*
X248222781Y-106823310D01*
X248228037Y-106823212D01*
X248277768Y-106809772D01*
X248254276Y-106792599D01*
X248232789Y-106758412D01*
X248216150Y-106668948D01*
X248213794Y-106639302D01*
X250917603Y-106639302D01*
X250931341Y-106709518D01*
X250981804Y-106760214D01*
X251082866Y-106794367D01*
X251248400Y-106814953D01*
X251492280Y-106824951D01*
X251794008Y-106827355D01*
X252544462Y-106827355D01*
X252544462Y-106669917D01*
X252544462Y-106512479D01*
X251849111Y-106513196D01*
X251503305Y-106516278D01*
X251250156Y-106525807D01*
X251077475Y-106543435D01*
X250973069Y-106570811D01*
X250924747Y-106609586D01*
X250917603Y-106639302D01*
X248213794Y-106639302D01*
X248203892Y-106514723D01*
X248195550Y-106286248D01*
X248193036Y-106125843D01*
X251187778Y-106125843D01*
X251198109Y-106169100D01*
X251227971Y-106203639D01*
X251297357Y-106227053D01*
X251422886Y-106241294D01*
X251621175Y-106248316D01*
X251886824Y-106250082D01*
X252544462Y-106250082D01*
X252544462Y-106114604D01*
X252544462Y-105979126D01*
X251892694Y-105996525D01*
X251640774Y-106006008D01*
X251427917Y-106019210D01*
X251275590Y-106034433D01*
X251205262Y-106049980D01*
X251203979Y-106051022D01*
X251187778Y-106125843D01*
X248193036Y-106125843D01*
X248190656Y-105974038D01*
X248188932Y-105608527D01*
X251247506Y-105608527D01*
X251270561Y-105659433D01*
X251382236Y-105694743D01*
X251587496Y-105715872D01*
X251891305Y-105724231D01*
X251954070Y-105724485D01*
X252544462Y-105725289D01*
X252544462Y-105594091D01*
X252544462Y-105462892D01*
X251977220Y-105462892D01*
X251691602Y-105467491D01*
X251493841Y-105482586D01*
X251367183Y-105510123D01*
X251308108Y-105540614D01*
X251247506Y-105608527D01*
X248188932Y-105608527D01*
X248188744Y-105568606D01*
X248188677Y-105459095D01*
X248188677Y-105038583D01*
X251586428Y-105038583D01*
X251593927Y-105113672D01*
X251602872Y-105125436D01*
X251675425Y-105166881D01*
X251818840Y-105191064D01*
X252048313Y-105200256D01*
X252104814Y-105200496D01*
X252318937Y-105199247D01*
X252449032Y-105191337D01*
X252516031Y-105170521D01*
X252540864Y-105130551D01*
X252544462Y-105069297D01*
X252539617Y-105002791D01*
X252510406Y-104963692D01*
X252434816Y-104944726D01*
X252290833Y-104938619D01*
X252147417Y-104938099D01*
X251866515Y-104949647D01*
X251678405Y-104983525D01*
X251586428Y-105038583D01*
X248188677Y-105038583D01*
X248188677Y-104565210D01*
X251298548Y-104565210D01*
X251329986Y-104615180D01*
X251437409Y-104648420D01*
X251629798Y-104667415D01*
X251916129Y-104674650D01*
X251980309Y-104674899D01*
X252544462Y-104675702D01*
X252544462Y-104544504D01*
X252544462Y-104413306D01*
X251973615Y-104413306D01*
X251706758Y-104416387D01*
X251525989Y-104427249D01*
X251412577Y-104448313D01*
X251347790Y-104482002D01*
X251334118Y-104496024D01*
X251298548Y-104565210D01*
X248188677Y-104565210D01*
X248188677Y-104152060D01*
X250379690Y-104137773D01*
X252570702Y-104123486D01*
X250353450Y-104110958D01*
X248136198Y-104098429D01*
X247873801Y-104098429D01*
X247873801Y-103890512D01*
X247991880Y-103861825D01*
X248067760Y-103856170D01*
X248237341Y-103851532D01*
X248489370Y-103847975D01*
X248812593Y-103845565D01*
X249195757Y-103844365D01*
X249627608Y-103844442D01*
G37*
%TO.C,Hello Disp*%
G36*
X245213519Y-71609225D02*
G01*
X245355165Y-71620718D01*
X245492361Y-71644868D01*
X245624235Y-71681279D01*
X245749915Y-71729555D01*
X245868530Y-71789299D01*
X245979207Y-71860115D01*
X246081075Y-71941606D01*
X246173262Y-72033377D01*
X246191165Y-72053749D01*
X246273651Y-72160154D01*
X246348993Y-72278626D01*
X246416838Y-72408381D01*
X246476832Y-72548636D01*
X246528621Y-72698605D01*
X246571852Y-72857504D01*
X246589640Y-72937593D01*
X246607043Y-73025512D01*
X246621729Y-73108348D01*
X246634028Y-73188975D01*
X246644271Y-73270271D01*
X246652791Y-73355109D01*
X246659919Y-73446366D01*
X246665985Y-73546916D01*
X246670402Y-73638369D01*
X246674881Y-73738670D01*
X246678922Y-73825911D01*
X246682623Y-73901558D01*
X246686080Y-73967075D01*
X246689387Y-74023930D01*
X246692641Y-74073587D01*
X246695937Y-74117512D01*
X246699371Y-74157171D01*
X246703039Y-74194029D01*
X246707037Y-74229551D01*
X246711225Y-74263376D01*
X246727406Y-74372245D01*
X246746793Y-74469617D01*
X246770187Y-74558332D01*
X246798392Y-74641228D01*
X246832210Y-74721144D01*
X246852238Y-74762384D01*
X246864582Y-74786351D01*
X246877105Y-74809586D01*
X246890587Y-74833261D01*
X246905805Y-74858553D01*
X246923539Y-74886634D01*
X246944568Y-74918680D01*
X246969670Y-74955864D01*
X246999624Y-74999362D01*
X247035209Y-75050348D01*
X247077204Y-75109996D01*
X247126388Y-75179481D01*
X247163762Y-75232139D01*
X247205148Y-75290760D01*
X247250671Y-75355871D01*
X247299347Y-75426015D01*
X247350187Y-75499737D01*
X247402206Y-75575583D01*
X247454417Y-75652097D01*
X247505834Y-75727824D01*
X247555470Y-75801308D01*
X247602338Y-75871094D01*
X247645453Y-75935727D01*
X247683827Y-75993752D01*
X247716474Y-76043713D01*
X247742408Y-76084154D01*
X247755063Y-76104428D01*
X247839859Y-76243527D01*
X247916616Y-76371736D01*
X247985732Y-76490002D01*
X248047604Y-76599270D01*
X248102628Y-76700489D01*
X248151203Y-76794603D01*
X248193724Y-76882560D01*
X248230590Y-76965306D01*
X248262198Y-77043788D01*
X248288945Y-77118953D01*
X248311227Y-77191746D01*
X248329442Y-77263115D01*
X248343988Y-77334005D01*
X248355261Y-77405365D01*
X248363659Y-77478139D01*
X248369579Y-77553275D01*
X248370662Y-77571543D01*
X248373380Y-77712867D01*
X248366059Y-77861618D01*
X248348622Y-78018664D01*
X248320992Y-78184873D01*
X248311787Y-78231372D01*
X248303738Y-78270912D01*
X248296503Y-78306745D01*
X248290693Y-78335825D01*
X248286917Y-78355106D01*
X248286035Y-78359829D01*
X248286161Y-78370717D01*
X248291200Y-78384008D01*
X248302535Y-78402096D01*
X248321551Y-78427375D01*
X248334328Y-78443406D01*
X248382239Y-78510138D01*
X248424419Y-78583296D01*
X248459025Y-78659026D01*
X248484213Y-78733476D01*
X248494390Y-78777843D01*
X248497632Y-78800739D01*
X248501210Y-78834241D01*
X248504756Y-78874437D01*
X248507907Y-78917414D01*
X248508897Y-78933190D01*
X248512071Y-78976240D01*
X248516231Y-79017974D01*
X248520912Y-79054470D01*
X248525651Y-79081805D01*
X248527313Y-79088762D01*
X248548152Y-79149332D01*
X248577147Y-79205333D01*
X248615308Y-79257779D01*
X248663643Y-79307680D01*
X248723159Y-79356049D01*
X248794867Y-79403896D01*
X248879774Y-79452235D01*
X248900523Y-79463138D01*
X248966560Y-79499134D01*
X249020125Y-79532705D01*
X249062710Y-79565447D01*
X249095810Y-79598959D01*
X249120921Y-79634836D01*
X249139535Y-79674676D01*
X249153147Y-79720075D01*
X249156916Y-79737133D01*
X249161513Y-79795067D01*
X249152440Y-79854434D01*
X249130333Y-79914102D01*
X249095828Y-79972941D01*
X249049563Y-80029819D01*
X248992173Y-80083603D01*
X248940009Y-80122740D01*
X248917828Y-80137005D01*
X248884993Y-80156968D01*
X248843625Y-80181397D01*
X248795843Y-80209058D01*
X248743769Y-80238717D01*
X248689524Y-80269141D01*
X248661960Y-80284415D01*
X248559600Y-80340915D01*
X248468801Y-80391086D01*
X248388377Y-80435587D01*
X248317140Y-80475073D01*
X248253905Y-80510202D01*
X248197486Y-80541630D01*
X248187245Y-80547346D01*
X248159446Y-80563344D01*
X248122234Y-80585458D01*
X248077889Y-80612270D01*
X248028691Y-80642363D01*
X247976920Y-80674322D01*
X247924856Y-80706729D01*
X247874777Y-80738168D01*
X247828965Y-80767222D01*
X247789698Y-80792474D01*
X247759256Y-80812509D01*
X247746252Y-80821383D01*
X247702528Y-80853104D01*
X247655133Y-80889869D01*
X247602325Y-80933098D01*
X247542359Y-80984210D01*
X247492089Y-81028172D01*
X247449226Y-81065705D01*
X247414624Y-81095143D01*
X247385857Y-81118248D01*
X247360503Y-81136779D01*
X247336136Y-81152497D01*
X247310334Y-81167163D01*
X247280671Y-81182537D01*
X247277059Y-81184351D01*
X247178960Y-81225467D01*
X247076044Y-81253107D01*
X246969416Y-81267066D01*
X246860181Y-81267141D01*
X246836634Y-81265340D01*
X246787202Y-81258974D01*
X246736033Y-81249075D01*
X246687550Y-81236725D01*
X246646178Y-81223005D01*
X246624448Y-81213487D01*
X246572331Y-81182586D01*
X246518722Y-81143028D01*
X246467116Y-81097948D01*
X246421005Y-81050483D01*
X246383884Y-81003768D01*
X246373959Y-80988658D01*
X246356722Y-80960803D01*
X246336719Y-80928584D01*
X246321935Y-80904839D01*
X246294079Y-80860179D01*
X246229822Y-80845171D01*
X246160046Y-80830090D01*
X246079352Y-80814734D01*
X245991330Y-80799698D01*
X245899572Y-80785578D01*
X245807669Y-80772972D01*
X245759426Y-80767025D01*
X245638866Y-80755453D01*
X245507405Y-80747626D01*
X245368175Y-80743510D01*
X245224309Y-80743072D01*
X245078941Y-80746275D01*
X244935203Y-80753087D01*
X244796230Y-80763473D01*
X244665153Y-80777398D01*
X244651199Y-80779164D01*
X244579816Y-80788668D01*
X244507523Y-80798872D01*
X244435959Y-80809497D01*
X244366761Y-80820270D01*
X244301567Y-80830911D01*
X244242015Y-80841145D01*
X244189743Y-80850696D01*
X244146390Y-80859286D01*
X244113591Y-80866639D01*
X244092987Y-80872478D01*
X244088921Y-80874132D01*
X244078050Y-80883113D01*
X244061414Y-80901224D01*
X244041488Y-80925623D01*
X244025279Y-80947160D01*
X243967702Y-81018399D01*
X243906588Y-81077733D01*
X243841118Y-81125388D01*
X243770474Y-81161589D01*
X243693838Y-81186559D01*
X243610391Y-81200526D01*
X243519315Y-81203713D01*
X243419793Y-81196346D01*
X243311004Y-81178649D01*
X243240386Y-81163033D01*
X243214121Y-81156535D01*
X243187261Y-81149465D01*
X243158568Y-81141423D01*
X243126806Y-81132008D01*
X243090737Y-81120819D01*
X243049125Y-81107457D01*
X243000732Y-81091519D01*
X242944321Y-81072607D01*
X242878656Y-81050318D01*
X242802500Y-81024253D01*
X242714614Y-80994010D01*
X242655350Y-80973559D01*
X242555392Y-80939107D01*
X242467477Y-80909047D01*
X242389938Y-80882945D01*
X242321109Y-80860365D01*
X242259321Y-80840871D01*
X242202909Y-80824029D01*
X242150206Y-80809402D01*
X242099544Y-80796557D01*
X242049257Y-80785056D01*
X241997678Y-80774466D01*
X241943140Y-80764351D01*
X241883976Y-80754275D01*
X241818519Y-80743803D01*
X241745103Y-80732499D01*
X241714560Y-80727864D01*
X241641513Y-80716682D01*
X241580698Y-80707058D01*
X241529947Y-80698577D01*
X241487091Y-80690828D01*
X241449961Y-80683397D01*
X241416388Y-80675873D01*
X241384203Y-80667843D01*
X241351239Y-80658893D01*
X241349585Y-80658429D01*
X241251377Y-80627611D01*
X241167177Y-80594186D01*
X241096660Y-80557957D01*
X241039499Y-80518729D01*
X240995370Y-80476304D01*
X240963947Y-80430486D01*
X240960595Y-80423897D01*
X240949354Y-80398068D01*
X240943331Y-80374715D01*
X240941176Y-80347193D01*
X240941148Y-80328126D01*
X240941648Y-80306781D01*
X240942905Y-80287693D01*
X240945455Y-80268533D01*
X240949833Y-80246974D01*
X240951442Y-80240702D01*
X241249521Y-80240702D01*
X241251794Y-80270086D01*
X241258590Y-80294105D01*
X241269850Y-80314147D01*
X241285513Y-80331600D01*
X241291992Y-80337326D01*
X241306523Y-80347397D01*
X241326585Y-80357459D01*
X241353051Y-80367718D01*
X241386794Y-80378378D01*
X241428686Y-80389645D01*
X241479598Y-80401725D01*
X241540403Y-80414822D01*
X241611974Y-80429142D01*
X241695183Y-80444890D01*
X241790901Y-80462271D01*
X241900002Y-80481491D01*
X241917696Y-80484566D01*
X242004315Y-80499794D01*
X242078803Y-80513463D01*
X242143400Y-80526191D01*
X242200348Y-80538592D01*
X242251887Y-80551284D01*
X242300256Y-80564882D01*
X242347698Y-80580003D01*
X242396452Y-80597262D01*
X242448759Y-80617276D01*
X242506860Y-80640662D01*
X242549971Y-80658451D01*
X242694123Y-80716583D01*
X242832066Y-80768739D01*
X242962691Y-80814553D01*
X243084887Y-80853657D01*
X243197547Y-80885687D01*
X243299560Y-80910276D01*
X243334864Y-80917508D01*
X243396315Y-80926249D01*
X243453457Y-80928248D01*
X243503471Y-80923589D01*
X243543540Y-80912360D01*
X243546510Y-80911054D01*
X243573666Y-80895513D01*
X243607119Y-80871581D01*
X243643696Y-80841893D01*
X243680222Y-80809084D01*
X243713524Y-80775787D01*
X243725945Y-80762110D01*
X243778960Y-80694684D01*
X243817982Y-80628913D01*
X243843311Y-80563817D01*
X243855250Y-80498421D01*
X243854380Y-80448040D01*
X246648210Y-80448040D01*
X246652857Y-80542218D01*
X246667015Y-80626267D01*
X246691120Y-80701414D01*
X246725606Y-80768883D01*
X246770909Y-80829902D01*
X246791958Y-80852576D01*
X246845097Y-80897770D01*
X246901717Y-80928874D01*
X246961921Y-80945910D01*
X247025811Y-80948902D01*
X247093490Y-80937872D01*
X247132146Y-80925915D01*
X247191791Y-80902227D01*
X247250510Y-80873867D01*
X247309844Y-80839783D01*
X247371336Y-80798921D01*
X247436528Y-80750229D01*
X247506963Y-80692654D01*
X247584183Y-80625143D01*
X247619070Y-80593517D01*
X247658501Y-80557961D01*
X247696376Y-80525078D01*
X247733838Y-80494153D01*
X247772029Y-80464471D01*
X247812089Y-80435315D01*
X247855161Y-80405970D01*
X247902388Y-80375720D01*
X247954910Y-80343849D01*
X248013870Y-80309643D01*
X248080410Y-80272384D01*
X248155671Y-80231357D01*
X248240796Y-80185847D01*
X248336926Y-80135137D01*
X248418498Y-80092446D01*
X248507136Y-80045832D01*
X248583449Y-80004863D01*
X248648241Y-79968952D01*
X248702317Y-79937513D01*
X248746485Y-79909961D01*
X248781549Y-79885708D01*
X248808314Y-79864168D01*
X248827586Y-79844756D01*
X248840172Y-79826885D01*
X248846876Y-79809968D01*
X248848504Y-79793420D01*
X248846839Y-79780714D01*
X248839177Y-79757147D01*
X248825862Y-79733897D01*
X248805796Y-79710060D01*
X248777882Y-79684731D01*
X248741023Y-79657005D01*
X248694120Y-79625977D01*
X248636076Y-79590743D01*
X248571116Y-79553395D01*
X248516962Y-79521503D01*
X248473640Y-79492433D01*
X248438434Y-79463746D01*
X248408625Y-79433000D01*
X248381497Y-79397756D01*
X248358494Y-79362401D01*
X248327341Y-79306511D01*
X248302267Y-79249178D01*
X248282579Y-79187827D01*
X248267589Y-79119885D01*
X248256603Y-79042779D01*
X248248970Y-78954507D01*
X248245636Y-78910560D01*
X248241920Y-78878026D01*
X248237279Y-78853782D01*
X248231167Y-78834708D01*
X248226193Y-78823691D01*
X248213712Y-78802809D01*
X248197271Y-78780590D01*
X248179451Y-78759877D01*
X248162830Y-78743516D01*
X248149986Y-78734348D01*
X248144623Y-78733734D01*
X248138186Y-78741888D01*
X248128000Y-78758973D01*
X248119393Y-78775207D01*
X248078131Y-78847494D01*
X248029867Y-78916190D01*
X247976929Y-78978524D01*
X247921648Y-79031725D01*
X247872044Y-79069359D01*
X247833038Y-79092074D01*
X247783752Y-79116390D01*
X247728080Y-79140692D01*
X247669917Y-79163363D01*
X247613157Y-79182789D01*
X247566404Y-79196183D01*
X247517576Y-79205511D01*
X247461481Y-79211345D01*
X247402147Y-79213682D01*
X247343600Y-79212518D01*
X247289867Y-79207850D01*
X247244975Y-79199674D01*
X247233589Y-79196460D01*
X247166796Y-79168529D01*
X247109327Y-79129626D01*
X247061036Y-79079591D01*
X247021774Y-79018265D01*
X246991395Y-78945491D01*
X246986529Y-78930070D01*
X246978771Y-78898129D01*
X246971175Y-78856142D01*
X246964327Y-78808594D01*
X246958811Y-78759970D01*
X246955211Y-78714752D01*
X246954091Y-78681106D01*
X246952753Y-78648307D01*
X246948833Y-78628323D01*
X246945007Y-78622670D01*
X246928038Y-78617892D01*
X246902499Y-78616999D01*
X246873700Y-78619559D01*
X246846949Y-78625140D01*
X246829577Y-78632058D01*
X246812697Y-78643407D01*
X246800048Y-78656733D01*
X246791046Y-78674196D01*
X246785109Y-78697955D01*
X246781654Y-78730172D01*
X246780099Y-78773007D01*
X246779831Y-78816481D01*
X246780628Y-78869096D01*
X246782714Y-78929524D01*
X246785797Y-78991130D01*
X246789582Y-79047280D01*
X246790625Y-79059943D01*
X246796585Y-79138344D01*
X246800366Y-79212519D01*
X246801815Y-79284324D01*
X246800777Y-79355614D01*
X246797099Y-79428245D01*
X246790627Y-79504072D01*
X246781207Y-79584951D01*
X246768685Y-79672736D01*
X246752907Y-79769285D01*
X246733721Y-79876451D01*
X246714527Y-79977740D01*
X246698727Y-80060032D01*
X246685609Y-80129799D01*
X246674931Y-80188756D01*
X246666451Y-80238614D01*
X246659929Y-80281088D01*
X246655121Y-80317892D01*
X246651788Y-80350737D01*
X246649687Y-80381339D01*
X246648576Y-80411410D01*
X246648214Y-80442663D01*
X246648210Y-80448040D01*
X243854380Y-80448040D01*
X243854099Y-80431748D01*
X243844336Y-80378340D01*
X243815639Y-80285207D01*
X243776885Y-80196502D01*
X243726817Y-80109824D01*
X243664176Y-80022775D01*
X243646594Y-80000905D01*
X243604137Y-79948467D01*
X243563479Y-79896764D01*
X243523817Y-79844598D01*
X243484347Y-79790770D01*
X243444265Y-79734081D01*
X243402767Y-79673332D01*
X243359049Y-79607326D01*
X243312308Y-79534864D01*
X243261739Y-79454746D01*
X243206540Y-79365775D01*
X243145906Y-79266752D01*
X243079032Y-79156478D01*
X243067621Y-79137578D01*
X243014965Y-79050816D01*
X242968475Y-78975397D01*
X242927214Y-78909986D01*
X242890244Y-78853247D01*
X242856626Y-78803843D01*
X242825423Y-78760439D01*
X242795696Y-78721698D01*
X242766508Y-78686284D01*
X242736920Y-78652861D01*
X242705994Y-78620092D01*
X242700031Y-78613974D01*
X242639161Y-78556249D01*
X242581176Y-78510175D01*
X242526753Y-78476165D01*
X242476570Y-78454634D01*
X242431305Y-78445995D01*
X242424815Y-78445837D01*
X242390228Y-78452886D01*
X242355087Y-78474092D01*
X242319296Y-78509547D01*
X242282763Y-78559340D01*
X242251079Y-78612962D01*
X242231392Y-78649121D01*
X242208101Y-78691846D01*
X242184581Y-78734949D01*
X242169818Y-78761974D01*
X242136459Y-78820289D01*
X242104951Y-78868178D01*
X242073124Y-78907216D01*
X242038805Y-78938978D01*
X241999823Y-78965038D01*
X241954007Y-78986971D01*
X241899184Y-79006352D01*
X241833184Y-79024754D01*
X241794149Y-79034358D01*
X241705696Y-79055950D01*
X241627096Y-79076158D01*
X241559253Y-79094727D01*
X241503072Y-79111401D01*
X241459458Y-79125922D01*
X241431501Y-79137028D01*
X241397833Y-79153841D01*
X241371012Y-79171593D01*
X241350656Y-79191855D01*
X241336385Y-79216195D01*
X241327818Y-79246184D01*
X241324574Y-79283391D01*
X241326271Y-79329386D01*
X241332528Y-79385738D01*
X241342964Y-79454017D01*
X241347716Y-79482082D01*
X241357438Y-79545057D01*
X241363348Y-79601892D01*
X241365214Y-79655432D01*
X241362801Y-79708521D01*
X241355877Y-79764002D01*
X241344208Y-79824720D01*
X241327560Y-79893519D01*
X241308114Y-79964750D01*
X241286868Y-80041770D01*
X241270445Y-80106488D01*
X241258787Y-80160291D01*
X241251832Y-80204566D01*
X241249521Y-80240702D01*
X240951442Y-80240702D01*
X240956575Y-80220687D01*
X240966217Y-80187342D01*
X240979295Y-80144613D01*
X240994646Y-80095565D01*
X241015397Y-80029033D01*
X241032104Y-79974016D01*
X241045344Y-79928249D01*
X241055697Y-79889468D01*
X241063741Y-79855408D01*
X241070054Y-79823803D01*
X241075214Y-79792389D01*
X241078955Y-79765470D01*
X241082474Y-79737798D01*
X241084944Y-79714179D01*
X241086128Y-79692550D01*
X241085791Y-79670845D01*
X241083695Y-79646999D01*
X241079604Y-79618949D01*
X241073283Y-79584630D01*
X241064494Y-79541978D01*
X241053002Y-79488927D01*
X241041122Y-79434976D01*
X241024477Y-79353619D01*
X241013453Y-79284080D01*
X241008276Y-79224681D01*
X241009174Y-79173743D01*
X241016374Y-79129587D01*
X241030101Y-79090534D01*
X241050585Y-79054905D01*
X241078050Y-79021022D01*
X241100085Y-78998826D01*
X241125441Y-78977155D01*
X241153712Y-78958036D01*
X241186861Y-78940643D01*
X241226848Y-78924151D01*
X241275635Y-78907737D01*
X241335185Y-78890576D01*
X241394435Y-78875112D01*
X241442404Y-78862848D01*
X241488792Y-78850709D01*
X241530579Y-78839506D01*
X241564744Y-78830050D01*
X241588267Y-78823152D01*
X241590658Y-78822399D01*
X241633552Y-78806825D01*
X241681951Y-78786244D01*
X241731558Y-78762741D01*
X241778078Y-78738404D01*
X241817215Y-78715319D01*
X241832850Y-78704770D01*
X241861416Y-78683475D01*
X241886829Y-78662471D01*
X241910418Y-78640109D01*
X241933514Y-78614737D01*
X241957444Y-78584708D01*
X241983539Y-78548370D01*
X242013128Y-78504075D01*
X242047541Y-78450172D01*
X242080150Y-78397872D01*
X242124854Y-78334886D01*
X242174272Y-78281916D01*
X242226331Y-78241169D01*
X242228602Y-78239722D01*
X242242892Y-78230058D01*
X242252396Y-78220527D01*
X242257423Y-78208527D01*
X242258281Y-78191455D01*
X242255281Y-78166709D01*
X242248731Y-78131687D01*
X242244124Y-78109039D01*
X242238016Y-78076564D01*
X242233974Y-78046893D01*
X242231743Y-78015990D01*
X242231067Y-77979819D01*
X242231690Y-77934345D01*
X242232075Y-77918942D01*
X242234229Y-77866440D01*
X242237352Y-77830479D01*
X242857677Y-77830479D01*
X242862977Y-77947823D01*
X242873401Y-78031588D01*
X242891269Y-78119286D01*
X242914953Y-78196582D01*
X242945838Y-78266916D01*
X242985307Y-78333729D01*
X243007956Y-78365894D01*
X243032924Y-78396540D01*
X243067181Y-78434059D01*
X243108568Y-78476369D01*
X243154927Y-78521385D01*
X243204099Y-78567023D01*
X243253928Y-78611198D01*
X243302255Y-78651828D01*
X243313061Y-78660556D01*
X243349415Y-78689669D01*
X243393136Y-78724683D01*
X243440248Y-78762413D01*
X243486773Y-78799674D01*
X243520186Y-78826435D01*
X243597485Y-78888497D01*
X243664363Y-78942583D01*
X243721874Y-78989636D01*
X243771073Y-79030596D01*
X243813014Y-79066408D01*
X243848754Y-79098013D01*
X243879346Y-79126355D01*
X243905846Y-79152375D01*
X243929309Y-79177016D01*
X243950789Y-79201221D01*
X243971342Y-79225932D01*
X243981350Y-79238455D01*
X244021245Y-79298795D01*
X244047019Y-79360664D01*
X244058594Y-79423441D01*
X244055888Y-79486503D01*
X244038821Y-79549228D01*
X244025379Y-79579281D01*
X244004699Y-79614386D01*
X243979891Y-79644308D01*
X243948668Y-79670860D01*
X243908743Y-79695854D01*
X243857829Y-79721103D01*
X243832128Y-79732430D01*
X243813345Y-79741862D01*
X243801769Y-79750335D01*
X243799985Y-79753483D01*
X243804680Y-79761806D01*
X243817934Y-79779439D01*
X243838499Y-79804966D01*
X243865127Y-79836969D01*
X243896573Y-79874029D01*
X243931588Y-79914729D01*
X243968926Y-79957652D01*
X244007339Y-80001379D01*
X244045580Y-80044492D01*
X244082401Y-80085573D01*
X244116556Y-80123206D01*
X244146797Y-80155971D01*
X244171878Y-80182451D01*
X244190550Y-80201228D01*
X244201566Y-80210884D01*
X244203114Y-80211762D01*
X244225034Y-80217028D01*
X244259701Y-80221449D01*
X244305352Y-80225024D01*
X244360224Y-80227751D01*
X244422553Y-80229628D01*
X244490576Y-80230655D01*
X244562530Y-80230830D01*
X244636652Y-80230151D01*
X244711177Y-80228616D01*
X244784344Y-80226224D01*
X244854388Y-80222973D01*
X244919547Y-80218862D01*
X244978056Y-80213889D01*
X244991860Y-80212466D01*
X245090895Y-80201462D01*
X245177281Y-80190951D01*
X245252876Y-80180516D01*
X245319536Y-80169743D01*
X245379120Y-80158216D01*
X245433484Y-80145519D01*
X245484487Y-80131238D01*
X245533985Y-80114956D01*
X245583837Y-80096259D01*
X245635899Y-80074730D01*
X245665524Y-80061809D01*
X245783044Y-80004013D01*
X245901819Y-79934658D01*
X246018967Y-79855873D01*
X246131604Y-79769792D01*
X246236849Y-79678545D01*
X246331820Y-79584265D01*
X246372761Y-79538733D01*
X246395260Y-79513087D01*
X246413716Y-79492137D01*
X246428548Y-79474167D01*
X246440174Y-79457465D01*
X246449012Y-79440316D01*
X246455482Y-79421006D01*
X246460000Y-79397821D01*
X246462987Y-79369048D01*
X246464860Y-79332972D01*
X246466038Y-79287880D01*
X246466939Y-79232058D01*
X246467983Y-79163791D01*
X246468261Y-79147599D01*
X246470011Y-79053581D01*
X246471743Y-78972348D01*
X246473539Y-78902148D01*
X246475482Y-78841231D01*
X246477655Y-78787847D01*
X246480140Y-78740245D01*
X246483020Y-78696674D01*
X246486378Y-78655385D01*
X246490295Y-78614627D01*
X246494855Y-78572648D01*
X246495753Y-78564805D01*
X246502325Y-78512107D01*
X246508920Y-78471408D01*
X246516437Y-78440198D01*
X246525777Y-78415967D01*
X246537842Y-78396204D01*
X246553532Y-78378401D01*
X246567213Y-78365710D01*
X246584804Y-78351364D01*
X246602546Y-78340079D01*
X246622293Y-78331600D01*
X246645898Y-78325671D01*
X246675214Y-78322039D01*
X246712094Y-78320446D01*
X246758391Y-78320640D01*
X246815959Y-78322364D01*
X246866881Y-78324475D01*
X246899585Y-78325923D01*
X246911976Y-78275050D01*
X246929231Y-78194356D01*
X246944706Y-78102500D01*
X246958049Y-78002788D01*
X246968911Y-77898522D01*
X246976939Y-77793007D01*
X246981784Y-77689547D01*
X246983137Y-77605096D01*
X246981324Y-77503131D01*
X246975650Y-77405124D01*
X246965698Y-77308811D01*
X246951052Y-77211925D01*
X246931294Y-77112201D01*
X246906008Y-77007373D01*
X246874777Y-76895177D01*
X246837184Y-76773345D01*
X246820941Y-76723434D01*
X246786753Y-76622709D01*
X246747145Y-76511259D01*
X246703045Y-76391434D01*
X246655380Y-76265584D01*
X246605076Y-76136061D01*
X246553063Y-76005215D01*
X246500265Y-75875396D01*
X246447612Y-75748955D01*
X246396029Y-75628243D01*
X246346445Y-75515610D01*
X246330711Y-75480687D01*
X246312683Y-75440879D01*
X246290045Y-75390821D01*
X246264153Y-75333519D01*
X246236364Y-75271976D01*
X246208036Y-75209197D01*
X246180524Y-75148186D01*
X246174447Y-75134703D01*
X246118370Y-75011644D01*
X246067212Y-74902250D01*
X246020972Y-74806523D01*
X245979652Y-74724464D01*
X245943253Y-74656075D01*
X245911775Y-74601356D01*
X245885219Y-74560310D01*
X245863585Y-74532938D01*
X245855255Y-74524911D01*
X245841468Y-74515092D01*
X245827089Y-74510093D01*
X245809129Y-74510035D01*
X245784603Y-74515038D01*
X245750524Y-74525224D01*
X245736781Y-74529708D01*
X245713840Y-74538797D01*
X245679696Y-74554441D01*
X245635727Y-74575916D01*
X245583312Y-74602499D01*
X245523830Y-74633467D01*
X245458659Y-74668096D01*
X245389178Y-74705663D01*
X245316765Y-74745446D01*
X245242798Y-74786720D01*
X245190722Y-74816178D01*
X245116303Y-74858287D01*
X245052599Y-74893775D01*
X244997884Y-74923533D01*
X244950429Y-74948454D01*
X244908507Y-74969428D01*
X244870390Y-74987348D01*
X244834352Y-75003105D01*
X244806556Y-75014475D01*
X244777611Y-75025652D01*
X244754702Y-75033077D01*
X244733330Y-75037520D01*
X244708995Y-75039753D01*
X244677200Y-75040549D01*
X244653920Y-75040654D01*
X244613152Y-75040267D01*
X244582671Y-75038584D01*
X244558250Y-75035072D01*
X244535660Y-75029197D01*
X244519470Y-75023682D01*
X244455898Y-74996308D01*
X244386565Y-74958515D01*
X244314114Y-74911746D01*
X244312346Y-74910516D01*
X244283959Y-74889180D01*
X244248100Y-74859883D01*
X244207402Y-74825004D01*
X244164498Y-74786925D01*
X244122021Y-74748023D01*
X244082603Y-74710680D01*
X244048880Y-74677274D01*
X244023482Y-74650186D01*
X244020488Y-74646738D01*
X244003351Y-74627678D01*
X243989495Y-74613999D01*
X243981851Y-74608588D01*
X243981754Y-74608584D01*
X243979683Y-74615428D01*
X243978036Y-74634271D01*
X243976934Y-74662581D01*
X243976501Y-74697825D01*
X243976562Y-74715780D01*
X243973292Y-74808521D01*
X243961601Y-74901253D01*
X243940942Y-74996543D01*
X243910771Y-75096960D01*
X243875121Y-75193620D01*
X243843335Y-75270334D01*
X243812735Y-75336516D01*
X243781400Y-75395835D01*
X243747410Y-75451956D01*
X243714016Y-75501272D01*
X243684473Y-75543239D01*
X243658088Y-75581378D01*
X243634322Y-75616876D01*
X243612637Y-75650922D01*
X243592494Y-75684702D01*
X243573354Y-75719404D01*
X243554678Y-75756216D01*
X243535928Y-75796324D01*
X243516564Y-75840917D01*
X243496048Y-75891182D01*
X243473842Y-75948305D01*
X243449405Y-76013476D01*
X243422201Y-76087881D01*
X243391689Y-76172707D01*
X243357331Y-76269142D01*
X243327655Y-76352790D01*
X243300901Y-76427890D01*
X243277962Y-76491243D01*
X243258008Y-76544874D01*
X243240204Y-76590807D01*
X243223719Y-76631066D01*
X243207719Y-76667676D01*
X243191372Y-76702661D01*
X243173845Y-76738047D01*
X243154307Y-76775856D01*
X243151302Y-76781574D01*
X243127629Y-76826789D01*
X243101060Y-76877911D01*
X243074803Y-76928747D01*
X243052065Y-76973106D01*
X243051526Y-76974163D01*
X243002051Y-77082654D01*
X242959131Y-77199943D01*
X242923190Y-77323521D01*
X242894651Y-77450875D01*
X242873937Y-77579493D01*
X242861472Y-77706865D01*
X242857677Y-77830479D01*
X242237352Y-77830479D01*
X242238195Y-77820776D01*
X242244773Y-77778961D01*
X242254765Y-77738006D01*
X242268972Y-77694922D01*
X242288195Y-77646720D01*
X242313235Y-77590411D01*
X242329465Y-77555565D01*
X242373442Y-77460488D01*
X242411940Y-77373389D01*
X242446840Y-77289711D01*
X242480023Y-77204897D01*
X242513370Y-77114393D01*
X242524492Y-77083176D01*
X242551851Y-77006435D01*
X242581009Y-76925731D01*
X242611381Y-76842611D01*
X242642383Y-76758618D01*
X242673428Y-76675299D01*
X242703932Y-76594197D01*
X242733310Y-76516858D01*
X242760977Y-76444826D01*
X242786348Y-76379646D01*
X242808836Y-76322864D01*
X242827858Y-76276024D01*
X242842828Y-76240671D01*
X242847826Y-76229491D01*
X242868115Y-76186221D01*
X242888975Y-76144047D01*
X242911040Y-76102015D01*
X242934946Y-76059172D01*
X242961329Y-76014564D01*
X242990824Y-75967238D01*
X243024068Y-75916241D01*
X243061696Y-75860620D01*
X243104343Y-75799421D01*
X243152645Y-75731690D01*
X243207238Y-75656475D01*
X243268757Y-75572822D01*
X243337839Y-75479778D01*
X243415118Y-75376390D01*
X243429082Y-75357762D01*
X243487329Y-75279984D01*
X243537458Y-75212703D01*
X243580152Y-75154847D01*
X243616090Y-75105344D01*
X243645955Y-75063120D01*
X243670427Y-75027103D01*
X243690187Y-74996222D01*
X243705916Y-74969402D01*
X243718295Y-74945571D01*
X243728005Y-74923658D01*
X243735728Y-74902589D01*
X243742143Y-74881292D01*
X243747933Y-74858694D01*
X243749130Y-74853694D01*
X243760229Y-74795532D01*
X243769214Y-74724225D01*
X243776080Y-74641009D01*
X243780823Y-74547121D01*
X243783438Y-74443795D01*
X243783898Y-74337608D01*
X244095531Y-74337608D01*
X244101917Y-74370970D01*
X244120466Y-74409749D01*
X244150267Y-74453013D01*
X244190406Y-74499833D01*
X244239972Y-74549277D01*
X244298052Y-74600415D01*
X244363734Y-74652314D01*
X244436106Y-74704045D01*
X244488277Y-74738397D01*
X244522212Y-74759391D01*
X244555227Y-74778730D01*
X244583651Y-74794329D01*
X244603810Y-74804104D01*
X244604557Y-74804412D01*
X244646847Y-74815461D01*
X244696806Y-74818559D01*
X244749871Y-74813609D01*
X244776419Y-74808017D01*
X244806486Y-74798070D01*
X244847087Y-74781086D01*
X244896543Y-74757912D01*
X244953173Y-74729392D01*
X245015299Y-74696372D01*
X245081242Y-74659697D01*
X245148111Y-74620929D01*
X245237186Y-74568378D01*
X245314745Y-74522943D01*
X245381651Y-74484127D01*
X245438771Y-74451433D01*
X245486969Y-74424364D01*
X245527109Y-74402423D01*
X245542981Y-74393981D01*
X245589916Y-74367024D01*
X245623889Y-74341971D01*
X245646124Y-74317549D01*
X245657844Y-74292487D01*
X245660472Y-74271698D01*
X245654039Y-74237450D01*
X245634500Y-74204174D01*
X245601495Y-74171510D01*
X245554665Y-74139097D01*
X245496953Y-74108166D01*
X245458654Y-74090579D01*
X245410887Y-74070150D01*
X245355538Y-74047566D01*
X245294495Y-74023511D01*
X245229643Y-73998674D01*
X245162870Y-73973740D01*
X245096063Y-73949395D01*
X245031108Y-73926326D01*
X244969893Y-73905220D01*
X244914304Y-73886761D01*
X244866229Y-73871638D01*
X244827554Y-73860535D01*
X244800167Y-73854140D01*
X244797162Y-73853632D01*
X244761934Y-73850854D01*
X244727934Y-73854786D01*
X244691078Y-73866326D01*
X244647284Y-73886370D01*
X244646652Y-73886690D01*
X244627534Y-73896597D01*
X244609598Y-73906548D01*
X244591448Y-73917563D01*
X244571685Y-73930661D01*
X244548914Y-73946863D01*
X244521738Y-73967187D01*
X244488759Y-73992654D01*
X244448581Y-74024283D01*
X244399806Y-74063095D01*
X244345471Y-74106558D01*
X244285407Y-74154751D01*
X244235764Y-74194842D01*
X244195557Y-74227741D01*
X244163805Y-74254356D01*
X244139522Y-74275596D01*
X244121726Y-74292372D01*
X244109432Y-74305592D01*
X244101657Y-74316167D01*
X244097417Y-74325004D01*
X244095729Y-74333014D01*
X244095531Y-74337608D01*
X243783898Y-74337608D01*
X243783921Y-74332269D01*
X243782268Y-74213778D01*
X243778472Y-74089558D01*
X243772531Y-73960846D01*
X243764440Y-73828877D01*
X243754194Y-73694888D01*
X243753408Y-73685608D01*
X243744300Y-73575433D01*
X243736882Y-73477824D01*
X243736851Y-73477356D01*
X243881223Y-73477356D01*
X243884733Y-73565581D01*
X243897749Y-73651958D01*
X243920112Y-73734398D01*
X243951661Y-73810814D01*
X243992239Y-73879115D01*
X244024273Y-73919161D01*
X244046319Y-73941584D01*
X244071053Y-73963738D01*
X244095469Y-73983262D01*
X244116561Y-73997792D01*
X244131321Y-74004964D01*
X244133898Y-74005331D01*
X244142129Y-74001683D01*
X244156747Y-73992866D01*
X244158210Y-73991908D01*
X244174740Y-73979414D01*
X244194957Y-73961874D01*
X244216257Y-73941873D01*
X244236037Y-73921994D01*
X244251693Y-73904821D01*
X244260620Y-73892939D01*
X244261607Y-73889316D01*
X244252837Y-73884896D01*
X244235324Y-73880815D01*
X244229976Y-73880008D01*
X244183422Y-73866685D01*
X244140971Y-73840666D01*
X244103562Y-73803438D01*
X244072136Y-73756490D01*
X244047629Y-73701313D01*
X244030982Y-73639394D01*
X244023133Y-73572223D01*
X244022634Y-73551159D01*
X244027205Y-73481437D01*
X244041387Y-73422304D01*
X244065373Y-73373278D01*
X244099359Y-73333872D01*
X244115396Y-73320986D01*
X244135663Y-73308432D01*
X244155812Y-73302244D01*
X244182692Y-73300444D01*
X244186544Y-73300429D01*
X244234135Y-73307413D01*
X244278045Y-73327797D01*
X244317458Y-73360731D01*
X244351555Y-73405365D01*
X244379521Y-73460850D01*
X244399399Y-73521799D01*
X244405685Y-73556567D01*
X244409301Y-73598165D01*
X244410242Y-73642080D01*
X244408506Y-73683801D01*
X244404089Y-73718816D01*
X244399556Y-73736481D01*
X244393009Y-73755587D01*
X244389120Y-73767995D01*
X244388655Y-73770098D01*
X244393663Y-73773374D01*
X244408020Y-73766981D01*
X244430728Y-73751459D01*
X244447418Y-73738415D01*
X244477283Y-73716406D01*
X244512057Y-73693887D01*
X244539165Y-73678458D01*
X244564845Y-73664135D01*
X244583355Y-73650149D01*
X244595980Y-73633754D01*
X244604005Y-73612203D01*
X244608713Y-73582749D01*
X244611390Y-73542645D01*
X244612206Y-73522275D01*
X244610259Y-73434251D01*
X244609834Y-73431191D01*
X244977556Y-73431191D01*
X244981439Y-73516541D01*
X244995042Y-73597535D01*
X245013041Y-73657013D01*
X245028237Y-73697459D01*
X245109977Y-73728627D01*
X245152153Y-73744522D01*
X245182662Y-73755438D01*
X245203317Y-73761829D01*
X245215933Y-73764152D01*
X245222322Y-73762859D01*
X245224299Y-73758407D01*
X245224327Y-73757314D01*
X245222206Y-73745595D01*
X245216762Y-73724749D01*
X245209792Y-73701313D01*
X245197828Y-73644359D01*
X245195836Y-73584915D01*
X245202968Y-73525188D01*
X245218375Y-73467385D01*
X245241211Y-73413710D01*
X245270626Y-73366372D01*
X245305773Y-73327577D01*
X245345804Y-73299530D01*
X245367835Y-73290074D01*
X245420182Y-73279021D01*
X245470204Y-73281449D01*
X245516942Y-73296371D01*
X245559437Y-73322795D01*
X245596729Y-73359735D01*
X245627860Y-73406199D01*
X245651870Y-73461200D01*
X245667800Y-73523749D01*
X245674691Y-73592855D01*
X245674899Y-73606717D01*
X245668404Y-73678469D01*
X245648976Y-73744662D01*
X245617080Y-73804245D01*
X245573182Y-73856166D01*
X245558503Y-73869443D01*
X245545235Y-73882087D01*
X245541049Y-73891823D01*
X245547108Y-73900933D01*
X245564571Y-73911696D01*
X245585218Y-73921921D01*
X245614151Y-73934200D01*
X245635839Y-73938440D01*
X245655030Y-73934814D01*
X245673801Y-73925145D01*
X245712116Y-73895886D01*
X245751241Y-73855454D01*
X245788940Y-73806887D01*
X245822976Y-73753223D01*
X245851115Y-73697502D01*
X245862855Y-73668220D01*
X245882972Y-73600098D01*
X245896673Y-73526894D01*
X245903318Y-73453722D01*
X245902271Y-73385694D01*
X245900385Y-73367241D01*
X245882663Y-73271198D01*
X245855028Y-73183736D01*
X245817995Y-73105494D01*
X245772082Y-73037113D01*
X245717805Y-72979231D01*
X245655681Y-72932489D01*
X245586227Y-72897526D01*
X245509959Y-72874981D01*
X245501416Y-72873331D01*
X245468917Y-72867932D01*
X245443663Y-72865793D01*
X245419167Y-72866905D01*
X245388939Y-72871263D01*
X245377761Y-72873207D01*
X245318156Y-72887249D01*
X245266365Y-72907795D01*
X245218524Y-72936930D01*
X245170771Y-72976737D01*
X245151745Y-72995196D01*
X245106092Y-73044646D01*
X245070470Y-73092333D01*
X245041806Y-73142782D01*
X245023454Y-73184089D01*
X244998640Y-73261457D01*
X244983315Y-73344994D01*
X244977556Y-73431191D01*
X244609834Y-73431191D01*
X244598449Y-73349142D01*
X244577497Y-73268495D01*
X244548128Y-73193854D01*
X244511064Y-73126765D01*
X244467028Y-73068772D01*
X244416743Y-73021421D01*
X244361526Y-72986548D01*
X244336931Y-72975049D01*
X244316764Y-72967931D01*
X244295945Y-72964158D01*
X244269392Y-72962695D01*
X244243462Y-72962489D01*
X244208383Y-72963042D01*
X244182828Y-72965297D01*
X244161807Y-72970145D01*
X244140331Y-72978480D01*
X244131472Y-72982532D01*
X244095866Y-73004160D01*
X244057608Y-73035777D01*
X244019987Y-73074107D01*
X243986296Y-73115875D01*
X243965429Y-73147760D01*
X243929322Y-73222486D01*
X243903358Y-73303720D01*
X243887379Y-73389373D01*
X243881223Y-73477356D01*
X243736851Y-73477356D01*
X243731084Y-73390920D01*
X243726835Y-73312859D01*
X243724063Y-73241781D01*
X243722697Y-73175824D01*
X243722667Y-73113126D01*
X243723900Y-73051826D01*
X243726327Y-72990062D01*
X243726608Y-72984292D01*
X243738007Y-72828322D01*
X243756278Y-72684667D01*
X243781573Y-72552754D01*
X243814043Y-72432010D01*
X243853838Y-72321863D01*
X243901111Y-72221740D01*
X243949155Y-72141259D01*
X243998968Y-72073009D01*
X244053763Y-72011834D01*
X244115834Y-71955687D01*
X244187478Y-71902518D01*
X244270992Y-71850279D01*
X244283029Y-71843342D01*
X244334842Y-71814313D01*
X244380439Y-71790314D01*
X244423534Y-71769711D01*
X244467843Y-71750871D01*
X244517081Y-71732160D01*
X244574963Y-71711945D01*
X244604462Y-71702041D01*
X244739569Y-71661790D01*
X244869504Y-71633059D01*
X244997316Y-71615386D01*
X245126054Y-71608304D01*
X245213519Y-71609225D01*
G37*
D16*
%TO.C,R53*%
X265137500Y-111837258D02*
X265137500Y-111362742D01*
X266182500Y-111837258D02*
X266182500Y-111362742D01*
%TO.C,R52*%
X265167500Y-114947258D02*
X265167500Y-114472742D01*
X266212500Y-114947258D02*
X266212500Y-114472742D01*
%TO.C,R27*%
X233250242Y-71977500D02*
X233724758Y-71977500D01*
X233250242Y-73022500D02*
X233724758Y-73022500D01*
%TO.C,C35*%
X264514420Y-100970000D02*
X264795580Y-100970000D01*
X264514420Y-101990000D02*
X264795580Y-101990000D01*
%TO.C,R7*%
X224977500Y-92412258D02*
X224977500Y-91937742D01*
X226022500Y-92412258D02*
X226022500Y-91937742D01*
%TO.C,C23*%
X227770000Y-69515000D02*
X227770000Y-71385000D01*
X227770000Y-71385000D02*
X231680000Y-71385000D01*
X231680000Y-69515000D02*
X227770000Y-69515000D01*
%TO.C,J6*%
X219715000Y-114090000D02*
X219715000Y-114690000D01*
X219825000Y-114090000D02*
X219715000Y-114090000D01*
X222590000Y-111500000D02*
X222790000Y-111900000D01*
X222790000Y-111900000D02*
X222990000Y-111500000D01*
X222990000Y-111500000D02*
X222590000Y-111500000D01*
X237255000Y-114090000D02*
X237365000Y-114090000D01*
X237365000Y-114090000D02*
X237365000Y-114690000D01*
%TO.C,R44*%
X222597500Y-93462742D02*
X222597500Y-93937258D01*
X223642500Y-93462742D02*
X223642500Y-93937258D01*
%TO.C,D1*%
X252765000Y-54665000D02*
X252765000Y-56950000D01*
X254235000Y-54665000D02*
X252765000Y-54665000D01*
X254235000Y-56950000D02*
X254235000Y-54665000D01*
%TO.C,J1*%
X260020000Y-50610000D02*
X269180000Y-50610000D01*
X260020000Y-52315000D02*
X260020000Y-50610000D01*
X260020000Y-54325000D02*
X260020000Y-56245000D01*
X269180000Y-50610000D02*
X269180000Y-52315000D01*
X269180000Y-56245000D02*
X269180000Y-54325000D01*
%TO.C,R42*%
X244937742Y-63977500D02*
X245412258Y-63977500D01*
X244937742Y-65022500D02*
X245412258Y-65022500D01*
%TO.C,J4*%
X214130000Y-78350000D02*
X215460000Y-78350000D01*
X214130000Y-79680000D02*
X214130000Y-78350000D01*
X214130000Y-80950000D02*
X214130000Y-103870000D01*
X214130000Y-80950000D02*
X216730000Y-80950000D01*
X214130000Y-103870000D02*
X219330000Y-103870000D01*
X216730000Y-78350000D02*
X219330000Y-78350000D01*
X216730000Y-80950000D02*
X216730000Y-78350000D01*
X219330000Y-78350000D02*
X219330000Y-103870000D01*
%TO.C,R28*%
X227587742Y-74977500D02*
X228062258Y-74977500D01*
X227587742Y-76022500D02*
X228062258Y-76022500D01*
%TO.C,Y1*%
X231700000Y-93100000D02*
X235000000Y-93100000D01*
X235000000Y-93100000D02*
X235000000Y-89100000D01*
%TO.C,C64*%
X264910000Y-72104420D02*
X264910000Y-72385580D01*
X265930000Y-72104420D02*
X265930000Y-72385580D01*
%TO.C,R22*%
X233737258Y-75527500D02*
X233262742Y-75527500D01*
X233737258Y-76572500D02*
X233262742Y-76572500D01*
%TO.C,C55*%
X243165580Y-65990000D02*
X242884420Y-65990000D01*
X243165580Y-67010000D02*
X242884420Y-67010000D01*
%TO.C,U3*%
X239052500Y-82790000D02*
X239052500Y-83315000D01*
X239052500Y-97010000D02*
X239052500Y-96485000D01*
X239577500Y-82790000D02*
X239052500Y-82790000D01*
X239577500Y-97010000D02*
X239052500Y-97010000D01*
X252747500Y-82790000D02*
X253272500Y-82790000D01*
X252747500Y-97010000D02*
X253272500Y-97010000D01*
X253272500Y-82790000D02*
X253272500Y-83315000D01*
X253272500Y-97010000D02*
X253272500Y-96485000D01*
X238462500Y-83315000D02*
X238122500Y-82845000D01*
X238802500Y-82845000D01*
X238462500Y-83315000D01*
G36*
X238462500Y-83315000D02*
G01*
X238122500Y-82845000D01*
X238802500Y-82845000D01*
X238462500Y-83315000D01*
G37*
%TO.C,C24*%
X220490000Y-80634420D02*
X220490000Y-80915580D01*
X221510000Y-80634420D02*
X221510000Y-80915580D01*
%TO.C,R39*%
X262737500Y-92652258D02*
X262737500Y-92177742D01*
X263782500Y-92652258D02*
X263782500Y-92177742D01*
%TO.C,R26*%
X224612742Y-70177500D02*
X225087258Y-70177500D01*
X224612742Y-71222500D02*
X225087258Y-71222500D01*
%TO.C,R32*%
X235627500Y-78062258D02*
X235627500Y-77587742D01*
X236672500Y-78062258D02*
X236672500Y-77587742D01*
%TO.C,J5*%
X216070000Y-59720000D02*
X216070000Y-52700000D01*
X216070000Y-68800000D02*
X216070000Y-63000000D01*
X232330000Y-59720000D02*
X232330000Y-52700000D01*
X232330000Y-68800000D02*
X216070000Y-68800000D01*
X232330000Y-68800000D02*
X232330000Y-63000000D01*
X232560000Y-65550000D02*
X232560000Y-63750000D01*
%TO.C,C25*%
X227664420Y-73330000D02*
X227945580Y-73330000D01*
X227664420Y-74350000D02*
X227945580Y-74350000D01*
%TO.C,C34*%
X262669420Y-97070000D02*
X262950580Y-97070000D01*
X262669420Y-98090000D02*
X262950580Y-98090000D01*
%TO.C,R36*%
X223412258Y-102477500D02*
X222937742Y-102477500D01*
X223412258Y-103522500D02*
X222937742Y-103522500D01*
%TO.C,J10*%
X268170000Y-78340000D02*
X269500000Y-78340000D01*
X268170000Y-79670000D02*
X268170000Y-78340000D01*
X268170000Y-80940000D02*
X268170000Y-86080000D01*
X268170000Y-80940000D02*
X270830000Y-80940000D01*
X268170000Y-86080000D02*
X270830000Y-86080000D01*
X270830000Y-80940000D02*
X270830000Y-86080000D01*
%TO.C,R47*%
X267102742Y-108747500D02*
X267577258Y-108747500D01*
X267102742Y-109792500D02*
X267577258Y-109792500D01*
%TO.C,J2*%
X240030000Y-50610000D02*
X249190000Y-50610000D01*
X240030000Y-52315000D02*
X240030000Y-50610000D01*
X240030000Y-54325000D02*
X240030000Y-56245000D01*
X249190000Y-50610000D02*
X249190000Y-52315000D01*
X249190000Y-56245000D02*
X249190000Y-54325000D01*
%TO.C,R35*%
X222937742Y-104977500D02*
X223412258Y-104977500D01*
X222937742Y-106022500D02*
X223412258Y-106022500D01*
%TO.C,C18*%
X265390000Y-87084420D02*
X265390000Y-87365580D01*
X266410000Y-87084420D02*
X266410000Y-87365580D01*
%TO.C,C16*%
X260915580Y-77715000D02*
X260634420Y-77715000D01*
X260915580Y-78735000D02*
X260634420Y-78735000D01*
%TO.C,J3*%
X258000000Y-61900000D02*
X258000000Y-68100000D01*
X259125000Y-68100000D02*
X258000000Y-68100000D01*
X259125000Y-68100000D02*
X259125000Y-69500000D01*
X259575000Y-61900000D02*
X270100000Y-61900000D01*
X260675000Y-68100000D02*
X260675000Y-69500000D01*
X263075000Y-68100000D02*
X260675000Y-68100000D01*
X266075000Y-68100000D02*
X264725000Y-68100000D01*
X270100000Y-62500000D02*
X270100000Y-61900000D01*
X270100000Y-62500000D02*
X272100000Y-62500000D01*
X270100000Y-67500000D02*
X272100000Y-67500000D01*
X270100000Y-68100000D02*
X267725000Y-68100000D01*
X270100000Y-68100000D02*
X270100000Y-67500000D01*
X272100000Y-67500000D02*
X272100000Y-62500000D01*
%TO.C,C12*%
X236770000Y-80924420D02*
X236770000Y-81205580D01*
X237790000Y-80924420D02*
X237790000Y-81205580D01*
%TO.C,R30*%
X264437742Y-77702500D02*
X264912258Y-77702500D01*
X264437742Y-78747500D02*
X264912258Y-78747500D01*
%TO.C,C26*%
X234024420Y-80560000D02*
X234305580Y-80560000D01*
X234024420Y-81580000D02*
X234305580Y-81580000D01*
%TO.C,C41*%
X235360000Y-96469420D02*
X235360000Y-96750580D01*
X236380000Y-96469420D02*
X236380000Y-96750580D01*
%TO.C,R40*%
X265047500Y-96807258D02*
X265047500Y-96332742D01*
X266092500Y-96807258D02*
X266092500Y-96332742D01*
%TO.C,J7*%
X268170000Y-88320000D02*
X269500000Y-88320000D01*
X268170000Y-89650000D02*
X268170000Y-88320000D01*
X268170000Y-90920000D02*
X268170000Y-103680000D01*
X268170000Y-90920000D02*
X270830000Y-90920000D01*
X268170000Y-103680000D02*
X270830000Y-103680000D01*
X270830000Y-90920000D02*
X270830000Y-103680000D01*
%TO.C,R10*%
X226937500Y-92917258D02*
X226937500Y-92442742D01*
X227982500Y-92917258D02*
X227982500Y-92442742D01*
%TO.C,R18*%
X255477500Y-60062258D02*
X255477500Y-59587742D01*
X256522500Y-60062258D02*
X256522500Y-59587742D01*
%TO.C,D2*%
X255265000Y-54727500D02*
X255265000Y-57012500D01*
X256735000Y-54727500D02*
X255265000Y-54727500D01*
X256735000Y-57012500D02*
X256735000Y-54727500D01*
%TO.C,R17*%
X252977500Y-60062258D02*
X252977500Y-59587742D01*
X254022500Y-60062258D02*
X254022500Y-59587742D01*
%TO.C,R25*%
X262977500Y-81162742D02*
X262977500Y-81637258D01*
X264022500Y-81162742D02*
X264022500Y-81637258D01*
%TO.C,RST1*%
X227820000Y-101130000D02*
X227820000Y-101780000D01*
X227820000Y-104180000D02*
X227820000Y-104830000D01*
X227820000Y-104830000D02*
X234020000Y-104830000D01*
X234020000Y-101130000D02*
X227820000Y-101130000D01*
X234020000Y-101130000D02*
X234020000Y-101780000D01*
X234020000Y-104830000D02*
X234020000Y-104180000D01*
%TO.C,R11*%
X220547500Y-85587258D02*
X220547500Y-85112742D01*
X221592500Y-85587258D02*
X221592500Y-85112742D01*
%TO.C,C2*%
X236490000Y-54140580D02*
X236490000Y-53859420D01*
X237510000Y-54140580D02*
X237510000Y-53859420D01*
%TO.C,C44*%
X243010000Y-108300580D02*
X243010000Y-108019420D01*
X244030000Y-108300580D02*
X244030000Y-108019420D01*
%TO.C,C21*%
X228652500Y-83134420D02*
X228652500Y-83415580D01*
X229672500Y-83134420D02*
X229672500Y-83415580D01*
%TO.C,C45*%
X242844420Y-103570000D02*
X243125580Y-103570000D01*
X242844420Y-104590000D02*
X243125580Y-104590000D01*
%TO.C,J9*%
X221170000Y-98670000D02*
X221170000Y-101330000D01*
X223770000Y-98670000D02*
X221170000Y-98670000D01*
X223770000Y-98670000D02*
X223770000Y-101330000D01*
X223770000Y-101330000D02*
X221170000Y-101330000D01*
X225040000Y-98670000D02*
X226370000Y-98670000D01*
X226370000Y-98670000D02*
X226370000Y-100000000D01*
%TO.C,R8*%
X223337742Y-86877500D02*
X223812258Y-86877500D01*
X223337742Y-87922500D02*
X223812258Y-87922500D01*
%TO.C,R31*%
X265477500Y-81562258D02*
X265477500Y-81087742D01*
X266522500Y-81562258D02*
X266522500Y-81087742D01*
%TO.C,R23*%
X233737258Y-73777500D02*
X233262742Y-73777500D01*
X233737258Y-74822500D02*
X233262742Y-74822500D01*
%TO.C,R24*%
X225640000Y-83562258D02*
X225640000Y-83087742D01*
X226685000Y-83562258D02*
X226685000Y-83087742D01*
%TO.C,C22*%
X224210580Y-73120000D02*
X223929420Y-73120000D01*
X224210580Y-74140000D02*
X223929420Y-74140000D01*
%TO.C,R5*%
X247062258Y-59977500D02*
X246587742Y-59977500D01*
X247062258Y-61022500D02*
X246587742Y-61022500D01*
%TO.C,R43*%
X240237742Y-63977500D02*
X240712258Y-63977500D01*
X240237742Y-65022500D02*
X240712258Y-65022500D01*
%TO.C,C66*%
X259299420Y-72470000D02*
X259580580Y-72470000D01*
X259299420Y-73490000D02*
X259580580Y-73490000D01*
%TO.C,J8*%
X238885000Y-114090000D02*
X238885000Y-114690000D01*
X238995000Y-114090000D02*
X238885000Y-114090000D01*
X241760000Y-111500000D02*
X241960000Y-111900000D01*
X241960000Y-111900000D02*
X242160000Y-111500000D01*
X242160000Y-111500000D02*
X241760000Y-111500000D01*
X264425000Y-114090000D02*
X264535000Y-114090000D01*
X264535000Y-114090000D02*
X264535000Y-114690000D01*
%TO.C,C32*%
X260909420Y-88640000D02*
X261190580Y-88640000D01*
X260909420Y-89660000D02*
X261190580Y-89660000D01*
%TO.C,R6*%
X241437742Y-59977500D02*
X241912258Y-59977500D01*
X241437742Y-61022500D02*
X241912258Y-61022500D01*
%TD*%
M02*
