M48
; DRILL file {KiCad 8.0.4-8.0.4-0~ubuntu24.04.1} date 2024-08-22T12:52:58+0300
; FORMAT={-:-/ absolute / inch / decimal}
; #@! TF.CreationDate,2024-08-22T12:52:58+03:00
; #@! TF.GenerationSoftware,Kicad,Pcbnew,8.0.4-8.0.4-0~ubuntu24.04.1
; #@! TF.FileFunction,Plated,1,2,PTH
FMAT,2
INCH
; #@! TA.AperFunction,Plated,PTH,ViaDrill
T1C0.0118
; #@! TA.AperFunction,Plated,PTH,ViaDrill
T2C0.0236
; #@! TA.AperFunction,Plated,PTH,ComponentDrill
T3C0.0236
; #@! TA.AperFunction,Plated,PTH,ComponentDrill
T4C0.0350
; #@! TA.AperFunction,Plated,PTH,ComponentDrill
T5C0.0394
; #@! TA.AperFunction,Plated,PTH,ComponentDrill
T6C0.0402
; #@! TA.AperFunction,Plated,PTH,ComponentDrill
T7C0.0642
%
G90
G05
T1
X8.4539Y-4.228
X8.5217Y-4.2299
X8.5217Y-4.3181
X8.522Y-4.1496
X8.587Y-4.2283
X8.6528Y-3.3142
X8.6587Y-3.074
X8.6803Y-4.5187
X8.6882Y-3.5
X8.6917Y-3.5579
X8.6988Y-2.3583
X8.7024Y-3.3937
X8.7035Y-3.2091
X8.7106Y-3.1476
X8.7157Y-3.6185
X8.7173Y-3.6925
X8.7185Y-2.1398
X8.7287Y-3.5508
X8.7295Y-3.7984
X8.7433Y-4.4539
X8.7476Y-4.1594
X8.7512Y-3.5209
X8.752Y-4.0535
X8.7576Y-3.4776
X8.7598Y-4.3028
X8.7783Y-3.2315
X8.7949Y-3.6575
X8.7984Y-2.8988
X8.7992Y-2.1437
X8.7992Y-2.3563
X8.8043Y-3.348
X8.8079Y-3.5677
X8.8094Y-3.3843
X8.8142Y-3.074
X8.8157Y-3.2138
X8.8193Y-4.1555
X8.8193Y-4.4157
X8.8201Y-4.0571
X8.8209Y-2.7067
X8.8417Y-3.3425
X8.8472Y-2.9035
X8.8476Y-3.4413
X8.8535Y-3.0358
X8.8571Y-3.2094
X8.876Y-4.5177
X8.8787Y-3.061
X8.8799Y-2.1417
X8.8799Y-3.7059
X8.8921Y-4.3146
X8.8945Y-2.7335
X8.8988Y-3.0886
X8.9Y-3.4429
X8.9035Y-4.1984
X8.9059Y-3.2461
X8.9154Y-2.3583
X8.9165Y-3.6539
X8.9189Y-3.5343
X8.9276Y-4.4339
X8.9307Y-3.874
X8.9323Y-4.3142
X8.9331Y-3.9114
X8.9386Y-2.9039
X8.9402Y-2.9811
X8.9413Y-4.1421
X8.9421Y-2.7661
X8.9476Y-4.5055
X8.95Y-3.6665
X8.9535Y-3.6087
X8.9594Y-3.0902
X8.9634Y-3.4417
X8.965Y-2.8693
X8.9654Y-3.3126
X8.989Y-4.437
X8.9933Y-2.7559
X8.9969Y-3.874
X8.9976Y-3.9106
X8.9988Y-4.2827
X9.0035Y-3.8008
X9.0071Y-3.7654
X9.0106Y-3.5795
X9.011Y-4.0386
X9.0157Y-3.4575
X9.0209Y-4.1661
X9.0224Y-3.2457
X9.024Y-3.3031
X9.0445Y-3.1665
X9.0469Y-4.1071
X9.0535Y-3.7591
X9.0579Y-3.9496
X9.0618Y-4.0539
X9.0654Y-3.6543
X9.0705Y-3.1413
X9.0724Y-4.4937
X9.0768Y-4.2827
X9.0815Y-4.0051
X9.0846Y-3.2472
X9.0854Y-3.4929
X9.1Y-3.1289
X9.115Y-3.8402
X9.1154Y-3.7598
X9.1256Y-2.7528
X9.1311Y-2.6449
X9.1311Y-3.1016
X9.1346Y-4.2362
X9.1417Y-2.5217
X9.1461Y-3.6492
X9.152Y-3.487
X9.1575Y-2.9941
X9.1602Y-2.9319
X9.1659Y-3.3986
X9.1673Y-4.0535
X9.1685Y-2.8654
X9.174Y-4.3024
X9.1811Y-3.837
X9.1886Y-3.9287
X9.1972Y-3.1028
X9.2039Y-3.5161
X9.2051Y-3.0488
X9.2079Y-3.9551
X9.2154Y-3.6925
X9.227Y-3.4156
X9.2413Y-3.5579
X9.2425Y-4.4559
X9.2654Y-3.952
X9.2732Y-4.3295
X9.274Y-4.0181
X9.2815Y-3.4795
X9.2854Y-3.0315
X9.2854Y-3.1004
X9.2906Y-3.6343
X9.2917Y-3.4256
X9.2949Y-4.2189
X9.3087Y-4.4413
X9.3091Y-3.6673
X9.3102Y-3.9669
X9.3177Y-4.3299
X9.322Y-2.7941
X9.324Y-3.7874
X9.3406Y-3.0165
X9.348Y-3.874
X9.35Y-3.8138
X9.3508Y-3.0555
X9.3535Y-4.1488
X9.378Y-3.0843
X9.3854Y-4.238
X9.4071Y-3.8957
X9.4087Y-3.1402
X9.4303Y-3.1846
X9.4398Y-4.363
X9.4413Y-3.5417
X9.4413Y-3.7965
X9.4425Y-3.7551
X9.4476Y-3.6311
X9.45Y-3.4984
X9.4583Y-4.4382
X9.4591Y-4.4776
X9.4618Y-4.2039
X9.4657Y-3.3024
X9.4738Y-4.3071
X9.4748Y-3.3665
X9.4791Y-3.4618
X9.48Y-3.3982
X9.4807Y-3.4299
X9.4839Y-3.3358
X9.4843Y-3.7598
X9.4862Y-3.6811
X9.4882Y-2.9528
X9.4882Y-3.6024
X9.4909Y-3.1831
X9.4915Y-3.1423
X9.4996Y-2.5386
X9.5049Y-4.3465
X9.5079Y-3.0409
X9.526Y-2.761
X9.5264Y-4.1181
X9.5268Y-2.6315
X9.5272Y-3.5205
X9.5283Y-3.1406
X9.5287Y-3.3067
X9.539Y-4.1547
X9.5408Y-4.2063
X9.5449Y-4.4492
X9.5461Y-3.6791
X9.5472Y-3.7567
X9.5488Y-3.6031
X9.5598Y-3.0673
X9.5689Y-4.0524
X9.5846Y-3.7913
X9.5846Y-4.3961
X9.5886Y-3.3083
X9.5917Y-3.0094
X9.6024Y-3.5382
X9.6035Y-3.5713
X9.6071Y-3.5059
X9.6083Y-2.6343
X9.6122Y-4.5031
X9.6122Y-4.5031
X9.6126Y-2.7638
X9.6165Y-3.6012
X9.6217Y-3.6957
X9.624Y-3.7559
X9.6252Y-3.4752
X9.6268Y-4.0476
X9.6453Y-3.6256
X9.6461Y-3.5661
X9.6543Y-3.4531
X9.6654Y-3.8862
X9.6669Y-4.1406
X9.6693Y-3.5831
X9.6772Y-4.0453
X9.6835Y-2.5398
X9.6835Y-3.637
X9.6835Y-3.6957
X9.6839Y-3.7622
X9.6898Y-3.4437
X9.6988Y-3.5917
X9.7059Y-4.2087
X9.7085Y-3.8874
X9.7248Y-3.448
X9.7248Y-3.6264
X9.7252Y-4.0386
X9.726Y-4.4016
X9.7287Y-3.585
X9.7366Y-4.0693
X9.7374Y-3.9274
X9.7374Y-4.2077
X9.7402Y-3.1886
X9.7441Y-3.7598
X9.7449Y-3.6953
X9.7484Y-4.2969
X9.7512Y-3.5646
X9.7559Y-4.3996
X9.7583Y-4.1216
X9.7594Y-3.1622
X9.7622Y-4.0307
X9.7626Y-3.4642
X9.7634Y-3.6094
X9.7661Y-4.2008
X9.7709Y-2.7429
X9.7711Y-4.2733
X9.7776Y-4.5138
X9.7831Y-3.3626
X9.7835Y-3.3031
X9.7835Y-3.4945
X9.7849Y-4.0497
X9.7878Y-3.5705
X9.7878Y-4.3976
X9.7894Y-3.5299
X9.7928Y-4.2976
X9.7961Y-4.1992
X9.8008Y-3.1661
X9.8016Y-4.4902
X9.8035Y-2.7563
X9.813Y-3.1008
X9.8154Y-3.7843
X9.8169Y-4.0497
X9.8231Y-4.393
X9.8327Y-3.1252
X9.8366Y-4.5331
X9.8386Y-4.0748
X9.8394Y-3.0677
X9.8461Y-3.4693
X9.8472Y-3.4028
X9.8514Y-3.7707
X9.8524Y-2.9461
X9.8547Y-3.6028
X9.8551Y-3.6618
X9.8563Y-3.5398
X9.8583Y-4.5091
X9.8731Y-3.9211
X9.878Y-3.7134
X9.8807Y-4.3
X9.8886Y-4.5307
X9.8937Y-2.9756
X9.894Y-3.9419
X9.8984Y-3.7894
X9.9063Y-4.2728
X9.9193Y-3.0008
X9.9193Y-3.5394
X9.9197Y-3.474
X9.9242Y-3.9287
X9.9246Y-3.9726
X9.9248Y-4.5028
X9.9276Y-4.3031
X9.9327Y-3.4055
X9.9378Y-3.6626
X9.9436Y-3.2377
X9.9437Y-3.5957
X9.9453Y-3.4402
X9.9551Y-3.9594
X9.9553Y-4.0032
X9.9569Y-4.2996
X9.9594Y-4.2272
X9.9606Y-4.1713
X9.961Y-4.5315
X9.9674Y-3.8415
X9.9681Y-2.9205
X9.9689Y-3.0437
X9.9697Y-2.9823
X9.9736Y-2.8567
X9.9762Y-3.7904
X9.9764Y-2.5472
X9.9803Y-2.3898
X9.9823Y-3.8697
X9.9859Y-4.0338
X9.9881Y-3.9877
X9.9893Y-4.4021
X9.9992Y-3.8953
X10.013Y-3.9252
X10.0165Y-4.0213
X10.0171Y-4.3922
X10.0177Y-2.9575
X10.0232Y-4.0606
X10.0362Y-4.4882
X10.0403Y-2.8462
X10.0441Y-3.8508
X10.0461Y-4.087
X10.0476Y-2.9925
X10.0559Y-3.539
X10.0583Y-3.2606
X10.0625Y-3.739
X10.0634Y-3.9244
X10.0654Y-4.1133
X10.0709Y-3.5661
X10.074Y-3.7118
X10.0752Y-2.8681
X10.0791Y-4.3094
X10.0795Y-4.1811
X10.0823Y-4.2193
X10.0875Y-3.7547
X10.0988Y-3.9476
X10.1134Y-4.5043
X10.1142Y-3.4035
X10.115Y-2.8169
X10.1161Y-3.2984
X10.126Y-3.7161
X10.1311Y-3.9937
X10.1335Y-3.9024
X10.1362Y-4.102
X10.1508Y-3.6776
X10.1665Y-3.5787
X10.1669Y-3.9804
X10.1716Y-4.3976
X10.176Y-4.5154
X10.1772Y-3.2972
X10.178Y-3.3457
X10.1815Y-4.0705
X10.1874Y-3.8409
X10.1902Y-3.4425
X10.1992Y-3.9339
X10.2004Y-4.4086
X10.2028Y-4.1319
X10.2031Y-4.0331
X10.2047Y-2.9232
X10.2051Y-3.4827
X10.2059Y-4.3063
X10.2201Y-3.6583
X10.2283Y-3.6953
X10.235Y-2.6819
X10.2358Y-3.0811
X10.2421Y-3.5098
X10.2429Y-4.139
X10.2453Y-2.8772
X10.2528Y-4.4311
X10.2531Y-3.9894
X10.2583Y-3.8642
X10.2587Y-3.7965
X10.2992Y-3.1614
X10.3079Y-3.5106
X10.3386Y-3.4331
X10.3421Y-2.339
X10.3446Y-4.0064
X10.3583Y-2.6063
X10.363Y-4.4724
X10.3638Y-3.6035
X10.3693Y-3.9941
X10.3717Y-4.0843
X10.372Y-4.198
X10.3724Y-4.137
X10.374Y-4.378
X10.3744Y-4.2465
X10.3748Y-3.239
X10.3776Y-3.8437
X10.3787Y-2.3421
X10.3839Y-2.2244
X10.3854Y-3.6896
X10.3854Y-3.7791
X10.3862Y-4.2925
X10.387Y-3.0807
X10.3929Y-2.6937
X10.4004Y-2.9071
X10.4094Y-2.3638
X10.4193Y-3.3736
X10.4205Y-2.5217
X10.4413Y-3.9823
X10.4421Y-3.3382
X10.4496Y-4.2441
X10.4551Y-3.6508
X10.4555Y-3.7695
X10.4583Y-3.6
X10.4598Y-4.3374
X10.4602Y-2.5217
X10.4606Y-2.6642
X10.4677Y-3.1661
X10.4685Y-3.4717
X10.4705Y-3.4035
X10.472Y-2.3433
X10.476Y-4.1807
X10.4917Y-2.4033
X10.5083Y-2.5295
X10.5283Y-3.1488
X10.5287Y-4.2504
X10.5299Y-2.7114
X10.5303Y-4.3398
X10.5378Y-3.0976
X10.5547Y-3.0551
X10.5913Y-4.3213
X10.5917Y-4.2484
X10.598Y-4.1709
X10.6476Y-2.2425
X10.6488Y-2.0689
X10.6488Y-4.2539
X10.6524Y-2.3039
T2
X9.661Y-3.5106
X9.6984Y-3.5531
X9.737Y-3.5079
T4
X8.652Y-2.6453
X8.7016Y-2.5453
X8.752Y-2.6453
X8.8016Y-2.5453
X8.852Y-2.6453
X8.9016Y-2.5453
X8.952Y-2.6453
X9.0016Y-2.5453
T5
X8.4827Y-3.137
X8.4827Y-3.237
X8.4827Y-3.337
X8.4827Y-3.437
X8.4827Y-3.537
X8.4827Y-3.637
X8.4827Y-3.737
X8.4827Y-3.837
X8.4827Y-3.937
X8.4827Y-4.037
X8.5827Y-3.137
X8.5827Y-3.237
X8.5827Y-3.337
X8.5827Y-3.437
X8.5827Y-3.537
X8.5827Y-3.637
X8.5827Y-3.737
X8.5827Y-3.837
X8.5827Y-3.937
X8.5827Y-4.037
X8.7598Y-3.937
X8.8598Y-3.937
X10.6102Y-3.1366
X10.6102Y-3.2366
X10.6102Y-3.3366
X10.6102Y-3.5295
X10.6102Y-3.6295
X10.6102Y-3.7295
X10.6102Y-3.8295
X10.6102Y-3.9295
X10.6102Y-4.0295
T6
X8.5659Y-2.102
X8.6659Y-2.102
X8.9876Y-2.102
X9.0876Y-2.102
T7
X8.5219Y-2.415
X9.1317Y-2.415
T3
G00X9.4602Y-2.115
M15
G01X9.4602Y-2.0835
M16
G05
G00X9.4602Y-2.2862
M15
G01X9.4602Y-2.2429
M16
G05
G00X9.8004Y-2.115
M15
G01X9.8004Y-2.0835
M16
G05
G00X9.8004Y-2.2862
M15
G01X9.8004Y-2.2429
M16
G05
G00X10.2472Y-2.115
M15
G01X10.2472Y-2.0835
M16
G05
G00X10.2472Y-2.2862
M15
G01X10.2472Y-2.2429
M16
G05
G00X10.5874Y-2.115
M15
G01X10.5874Y-2.0835
M16
G05
G00X10.5874Y-2.2862
M15
G01X10.5874Y-2.2429
M16
G05
M30
