%TF.GenerationSoftware,KiCad,Pcbnew,8.0.4-8.0.4-0~ubuntu24.04.1*%
%TF.CreationDate,2024-08-22T12:53:11+03:00*%
%TF.ProjectId,displinux,64697370-6c69-46e7-9578-2e6b69636164,rev?*%
%TF.SameCoordinates,Original*%
%TF.FileFunction,Soldermask,Bot*%
%TF.FilePolarity,Negative*%
%FSLAX46Y46*%
G04 Gerber Fmt 4.6, Leading zero omitted, Abs format (unit mm)*
G04 Created by KiCad (PCBNEW 8.0.4-8.0.4-0~ubuntu24.04.1) date 2024-08-22 12:53:11*
%MOMM*%
%LPD*%
G01*
G04 APERTURE LIST*
G04 Aperture macros list*
%AMRoundRect*
0 Rectangle with rounded corners*
0 $1 Rounding radius*
0 $2 $3 $4 $5 $6 $7 $8 $9 X,Y pos of 4 corners*
0 Add a 4 corners polygon primitive as box body*
4,1,4,$2,$3,$4,$5,$6,$7,$8,$9,$2,$3,0*
0 Add four circle primitives for the rounded corners*
1,1,$1+$1,$2,$3*
1,1,$1+$1,$4,$5*
1,1,$1+$1,$6,$7*
1,1,$1+$1,$8,$9*
0 Add four rect primitives between the rounded corners*
20,1,$1+$1,$2,$3,$4,$5,0*
20,1,$1+$1,$4,$5,$6,$7,0*
20,1,$1+$1,$6,$7,$8,$9,0*
20,1,$1+$1,$8,$9,$2,$3,0*%
G04 Aperture macros list end*
%ADD10RoundRect,0.150000X-0.150000X0.512500X-0.150000X-0.512500X0.150000X-0.512500X0.150000X0.512500X0*%
%ADD11RoundRect,0.200000X0.200000X0.275000X-0.200000X0.275000X-0.200000X-0.275000X0.200000X-0.275000X0*%
%ADD12RoundRect,0.200000X-0.200000X-0.275000X0.200000X-0.275000X0.200000X0.275000X-0.200000X0.275000X0*%
%ADD13RoundRect,0.225000X0.250000X-0.225000X0.250000X0.225000X-0.250000X0.225000X-0.250000X-0.225000X0*%
%ADD14RoundRect,0.225000X-0.250000X0.225000X-0.250000X-0.225000X0.250000X-0.225000X0.250000X0.225000X0*%
%ADD15RoundRect,0.225000X-0.225000X-0.250000X0.225000X-0.250000X0.225000X0.250000X-0.225000X0.250000X0*%
%ADD16C,0.650000*%
%ADD17O,1.000000X2.100000*%
%ADD18O,1.000000X1.800000*%
%ADD19R,1.700000X1.700000*%
%ADD20O,1.700000X1.700000*%
%ADD21C,3.250000*%
%ADD22RoundRect,0.250500X0.499500X0.499500X-0.499500X0.499500X-0.499500X-0.499500X0.499500X-0.499500X0*%
%ADD23C,1.500000*%
%ADD24C,2.500000*%
%ADD25RoundRect,0.125000X-0.125000X0.250000X-0.125000X-0.250000X0.125000X-0.250000X0.125000X0.250000X0*%
%ADD26R,4.300000X3.400000*%
%ADD27RoundRect,0.150000X-0.150000X0.587500X-0.150000X-0.587500X0.150000X-0.587500X0.150000X0.587500X0*%
%ADD28RoundRect,0.225000X0.225000X0.250000X-0.225000X0.250000X-0.225000X-0.250000X0.225000X-0.250000X0*%
%ADD29R,1.800000X1.000000*%
%ADD30R,2.800000X0.850000*%
%ADD31R,1.300000X1.100000*%
%ADD32R,0.850000X2.800000*%
%ADD33RoundRect,0.200000X-0.275000X0.200000X-0.275000X-0.200000X0.275000X-0.200000X0.275000X0.200000X0*%
%ADD34R,0.700000X1.200000*%
%ADD35R,1.000000X0.800000*%
%ADD36R,1.000000X2.800000*%
%ADD37R,1.000000X1.200000*%
%ADD38R,1.300000X1.900000*%
%ADD39RoundRect,0.075000X-0.662500X-0.075000X0.662500X-0.075000X0.662500X0.075000X-0.662500X0.075000X0*%
%ADD40RoundRect,0.075000X-0.075000X-0.662500X0.075000X-0.662500X0.075000X0.662500X-0.075000X0.662500X0*%
%ADD41RoundRect,0.250000X1.075000X-0.425000X1.075000X0.425000X-1.075000X0.425000X-1.075000X-0.425000X0*%
%ADD42R,2.000000X1.600000*%
%ADD43RoundRect,0.150000X0.150000X-0.512500X0.150000X0.512500X-0.150000X0.512500X-0.150000X-0.512500X0*%
%ADD44R,0.300000X1.100000*%
%ADD45R,2.300000X3.100000*%
%ADD46RoundRect,0.150000X0.150000X-0.587500X0.150000X0.587500X-0.150000X0.587500X-0.150000X-0.587500X0*%
%ADD47RoundRect,0.150000X0.512500X0.150000X-0.512500X0.150000X-0.512500X-0.150000X0.512500X-0.150000X0*%
%ADD48RoundRect,0.200000X0.275000X-0.200000X0.275000X0.200000X-0.275000X0.200000X-0.275000X-0.200000X0*%
G04 APERTURE END LIST*
D10*
%TO.C,U9*%
X264720000Y-66985000D03*
X265670000Y-66985000D03*
X266620000Y-66985000D03*
X266620000Y-64710000D03*
X265670000Y-64710000D03*
X264720000Y-64710000D03*
%TD*%
D11*
%TO.C,R50*%
X269165000Y-87510000D03*
X267515000Y-87510000D03*
%TD*%
D12*
%TO.C,R49*%
X263310000Y-72160000D03*
X264960000Y-72160000D03*
%TD*%
%TO.C,R48*%
X261595000Y-66630000D03*
X263245000Y-66630000D03*
%TD*%
D13*
%TO.C,C65*%
X261890000Y-69845000D03*
X261890000Y-68295000D03*
%TD*%
D14*
%TO.C,C6*%
X267200000Y-81945000D03*
X267200000Y-83495000D03*
%TD*%
D15*
%TO.C,C4*%
X267605000Y-86050000D03*
X269155000Y-86050000D03*
%TD*%
D16*
%TO.C,J1*%
X267490000Y-57000000D03*
X261710000Y-57000000D03*
D17*
X268920000Y-57520000D03*
D18*
X268920000Y-53320000D03*
D17*
X260280000Y-57520000D03*
D18*
X260280000Y-53320000D03*
%TD*%
D19*
%TO.C,J4*%
X215460000Y-79680000D03*
D20*
X218000000Y-79680000D03*
X215460000Y-82220000D03*
X218000000Y-82220000D03*
X215460000Y-84760000D03*
X218000000Y-84760000D03*
X215460000Y-87300000D03*
X218000000Y-87300000D03*
X215460000Y-89840000D03*
X218000000Y-89840000D03*
X215460000Y-92380000D03*
X218000000Y-92380000D03*
X215460000Y-94920000D03*
X218000000Y-94920000D03*
X215460000Y-97460000D03*
X218000000Y-97460000D03*
X215460000Y-100000000D03*
X218000000Y-100000000D03*
X215460000Y-102540000D03*
X218000000Y-102540000D03*
%TD*%
D21*
%TO.C,J5*%
X229915000Y-58290000D03*
X218485000Y-58290000D03*
D22*
X228640000Y-64650000D03*
D23*
X227380000Y-67190000D03*
X226100000Y-64650000D03*
X224840000Y-67190000D03*
X223560000Y-64650000D03*
X222300000Y-67190000D03*
X221020000Y-64650000D03*
X219760000Y-67190000D03*
X230825000Y-53390000D03*
X228285000Y-53390000D03*
X220115000Y-53390000D03*
X217575000Y-53390000D03*
D24*
X231945000Y-61340000D03*
X216455000Y-61340000D03*
%TD*%
D19*
%TO.C,J10*%
X269500000Y-79670000D03*
D20*
X269500000Y-82210000D03*
X269500000Y-84750000D03*
%TD*%
D16*
%TO.C,J2*%
X247500000Y-57000000D03*
X241720000Y-57000000D03*
D17*
X248930000Y-57520000D03*
D18*
X248930000Y-53320000D03*
D17*
X240290000Y-57520000D03*
D18*
X240290000Y-53320000D03*
%TD*%
D23*
%TO.C,J3*%
X268500000Y-65000000D03*
X261500000Y-65000000D03*
%TD*%
D19*
%TO.C,J7*%
X269500000Y-89650000D03*
D20*
X269500000Y-92190000D03*
X269500000Y-94730000D03*
X269500000Y-97270000D03*
X269500000Y-99810000D03*
X269500000Y-102350000D03*
%TD*%
D19*
%TO.C,J9*%
X225040000Y-100000000D03*
D20*
X222500000Y-100000000D03*
%TD*%
D13*
%TO.C,C10*%
X223500000Y-60000000D03*
X223500000Y-58450000D03*
%TD*%
D15*
%TO.C,C3*%
X256935000Y-71470000D03*
X258485000Y-71470000D03*
%TD*%
D25*
%TO.C,U8*%
X223520000Y-87450000D03*
X224790000Y-87450000D03*
X226060000Y-87450000D03*
X227330000Y-87450000D03*
X227330000Y-92850000D03*
X226060000Y-92850000D03*
X224790000Y-92850000D03*
X223520000Y-92850000D03*
D26*
X225425000Y-90150000D03*
%TD*%
D27*
%TO.C,U5*%
X222060000Y-112700000D03*
X223960000Y-112700000D03*
X223010000Y-114575000D03*
%TD*%
D15*
%TO.C,C58*%
X253712500Y-81562500D03*
X255262500Y-81562500D03*
%TD*%
D11*
%TO.C,R41*%
X245080000Y-98760000D03*
X243430000Y-98760000D03*
%TD*%
D13*
%TO.C,C46*%
X247500000Y-95500000D03*
X247500000Y-93950000D03*
%TD*%
D28*
%TO.C,C19*%
X258535000Y-83840000D03*
X256985000Y-83840000D03*
%TD*%
D29*
%TO.C,Y2*%
X234000000Y-91500000D03*
X234000000Y-94000000D03*
%TD*%
D30*
%TO.C,L2*%
X263220000Y-101530000D03*
X263220000Y-99180000D03*
%TD*%
D13*
%TO.C,C49*%
X244350000Y-95500000D03*
X244350000Y-93950000D03*
%TD*%
D12*
%TO.C,R21*%
X222080000Y-52780000D03*
X223730000Y-52780000D03*
%TD*%
D13*
%TO.C,C5*%
X253200000Y-77280000D03*
X253200000Y-75730000D03*
%TD*%
D31*
%TO.C,X1*%
X235400000Y-78800000D03*
X233300000Y-78800000D03*
X233300000Y-77150000D03*
X235400000Y-77150000D03*
%TD*%
D15*
%TO.C,C13*%
X246595000Y-98740000D03*
X248145000Y-98740000D03*
%TD*%
D32*
%TO.C,L3*%
X240855000Y-102990000D03*
X243205000Y-102990000D03*
%TD*%
D33*
%TO.C,R33*%
X238160000Y-109635000D03*
X238160000Y-111285000D03*
%TD*%
D14*
%TO.C,C17*%
X265900000Y-86450000D03*
X265900000Y-88000000D03*
%TD*%
D13*
%TO.C,C54*%
X238530000Y-104095000D03*
X238530000Y-102545000D03*
%TD*%
D28*
%TO.C,C43*%
X227010000Y-114700000D03*
X225460000Y-114700000D03*
%TD*%
D15*
%TO.C,C40*%
X240950000Y-95500000D03*
X242500000Y-95500000D03*
%TD*%
D33*
%TO.C,R2*%
X270500000Y-52500000D03*
X270500000Y-54150000D03*
%TD*%
D15*
%TO.C,C20*%
X229165000Y-82470000D03*
X230715000Y-82470000D03*
%TD*%
D14*
%TO.C,C9*%
X221500000Y-54450000D03*
X221500000Y-56000000D03*
%TD*%
%TO.C,C53*%
X238390000Y-106095000D03*
X238390000Y-107645000D03*
%TD*%
D15*
%TO.C,C14*%
X261925000Y-110860000D03*
X263475000Y-110860000D03*
%TD*%
D28*
%TO.C,C50*%
X251950000Y-88250000D03*
X250400000Y-88250000D03*
%TD*%
D34*
%TO.C,XS1*%
X247450000Y-67500000D03*
X246350000Y-67500000D03*
X245250000Y-67500000D03*
X244150000Y-67500000D03*
X243050000Y-67500000D03*
X241950000Y-67500000D03*
X240850000Y-67500000D03*
X239750000Y-67500000D03*
X238800000Y-67500000D03*
D35*
X237850000Y-57000000D03*
D36*
X237850000Y-52850000D03*
D37*
X237850000Y-63200000D03*
X249000000Y-67500000D03*
D38*
X251350000Y-52400000D03*
%TD*%
D28*
%TO.C,C47*%
X243550000Y-84030000D03*
X242000000Y-84030000D03*
%TD*%
%TO.C,C42*%
X234460000Y-113200000D03*
X232910000Y-113200000D03*
%TD*%
%TO.C,C48*%
X251900000Y-89950000D03*
X250350000Y-89950000D03*
%TD*%
D39*
%TO.C,U1*%
X222000000Y-78500000D03*
X222000000Y-78000000D03*
X222000000Y-77500000D03*
X222000000Y-77000000D03*
X222000000Y-76500000D03*
X222000000Y-76000000D03*
X222000000Y-75500000D03*
X222000000Y-75000000D03*
X222000000Y-74500000D03*
X222000000Y-74000000D03*
X222000000Y-73500000D03*
X222000000Y-73000000D03*
D40*
X223412500Y-71587500D03*
X223912500Y-71587500D03*
X224412500Y-71587500D03*
X224912500Y-71587500D03*
X225412500Y-71587500D03*
X225912500Y-71587500D03*
X226412500Y-71587500D03*
X226912500Y-71587500D03*
X227412500Y-71587500D03*
X227912500Y-71587500D03*
X228412500Y-71587500D03*
X228912500Y-71587500D03*
D39*
X230325000Y-73000000D03*
X230325000Y-73500000D03*
X230325000Y-74000000D03*
X230325000Y-74500000D03*
X230325000Y-75000000D03*
X230325000Y-75500000D03*
X230325000Y-76000000D03*
X230325000Y-76500000D03*
X230325000Y-77000000D03*
X230325000Y-77500000D03*
X230325000Y-78000000D03*
X230325000Y-78500000D03*
D40*
X228912500Y-79912500D03*
X228412500Y-79912500D03*
X227912500Y-79912500D03*
X227412500Y-79912500D03*
X226912500Y-79912500D03*
X226412500Y-79912500D03*
X225912500Y-79912500D03*
X225412500Y-79912500D03*
X224912500Y-79912500D03*
X224412500Y-79912500D03*
X223912500Y-79912500D03*
X223412500Y-79912500D03*
%TD*%
D28*
%TO.C,C29*%
X265995000Y-89660000D03*
X264445000Y-89660000D03*
%TD*%
D14*
%TO.C,C7*%
X266490000Y-61045000D03*
X266490000Y-62595000D03*
%TD*%
D30*
%TO.C,L1*%
X262500000Y-87225000D03*
X262500000Y-84875000D03*
%TD*%
D15*
%TO.C,C60*%
X240950000Y-93500000D03*
X242500000Y-93500000D03*
%TD*%
D11*
%TO.C,R12*%
X263635000Y-62710000D03*
X261985000Y-62710000D03*
%TD*%
D14*
%TO.C,C30*%
X235970000Y-90590000D03*
X235970000Y-92140000D03*
%TD*%
D12*
%TO.C,R9*%
X260185000Y-71410000D03*
X261835000Y-71410000D03*
%TD*%
D15*
%TO.C,C36*%
X250325000Y-93050000D03*
X251875000Y-93050000D03*
%TD*%
D33*
%TO.C,R16*%
X221000000Y-59850000D03*
X221000000Y-61500000D03*
%TD*%
D11*
%TO.C,R29*%
X231900000Y-69910000D03*
X230250000Y-69910000D03*
%TD*%
D28*
%TO.C,C52*%
X239000000Y-98500000D03*
X237450000Y-98500000D03*
%TD*%
D14*
%TO.C,C37*%
X231460000Y-97280000D03*
X231460000Y-98830000D03*
%TD*%
D41*
%TO.C,D5*%
X245540000Y-105170000D03*
X245540000Y-100670000D03*
%TD*%
D28*
%TO.C,C28*%
X232275000Y-88500000D03*
X230725000Y-88500000D03*
%TD*%
D42*
%TO.C,FEL1*%
X221100000Y-96000000D03*
X226500000Y-96000000D03*
%TD*%
D33*
%TO.C,R20*%
X227662500Y-82500000D03*
X227662500Y-84150000D03*
%TD*%
%TO.C,R19*%
X233870000Y-54490000D03*
X233870000Y-56140000D03*
%TD*%
D11*
%TO.C,R15*%
X232150000Y-64000000D03*
X230500000Y-64000000D03*
%TD*%
D13*
%TO.C,C61*%
X245950000Y-95500000D03*
X245950000Y-93950000D03*
%TD*%
%TO.C,C31*%
X231500000Y-91550000D03*
X231500000Y-90000000D03*
%TD*%
D11*
%TO.C,R37*%
X260465000Y-110820000D03*
X258815000Y-110820000D03*
%TD*%
D43*
%TO.C,U4*%
X263790000Y-95990000D03*
X262840000Y-95990000D03*
X261890000Y-95990000D03*
X261890000Y-93715000D03*
X263790000Y-93715000D03*
%TD*%
D28*
%TO.C,C39*%
X224150000Y-108370000D03*
X222600000Y-108370000D03*
%TD*%
D44*
%TO.C,J11*%
X261440000Y-113010000D03*
X260940000Y-113010000D03*
X260440000Y-113010000D03*
X259940000Y-113010000D03*
X259440000Y-113010000D03*
X258940000Y-113010000D03*
X258440000Y-113010000D03*
X257940000Y-113010000D03*
X257440000Y-113010000D03*
X256940000Y-113010000D03*
X256440000Y-113010000D03*
X255940000Y-113010000D03*
X255440000Y-113010000D03*
X254940000Y-113010000D03*
X254440000Y-113010000D03*
X253940000Y-113010000D03*
X253440000Y-113010000D03*
X252940000Y-113010000D03*
X252440000Y-113010000D03*
X251940000Y-113010000D03*
X251440000Y-113010000D03*
X250940000Y-113010000D03*
X250440000Y-113010000D03*
X249940000Y-113010000D03*
X249440000Y-113010000D03*
X248940000Y-113010000D03*
X248440000Y-113010000D03*
X247940000Y-113010000D03*
X247440000Y-113010000D03*
X246940000Y-113010000D03*
X246440000Y-113010000D03*
X245940000Y-113010000D03*
X245440000Y-113010000D03*
X244940000Y-113010000D03*
X244440000Y-113010000D03*
X243940000Y-113010000D03*
X243440000Y-113010000D03*
X242940000Y-113010000D03*
X242440000Y-113010000D03*
X241940000Y-113010000D03*
D45*
X263110000Y-114710000D03*
X240270000Y-114710000D03*
%TD*%
D15*
%TO.C,C59*%
X241000000Y-91500000D03*
X242550000Y-91500000D03*
%TD*%
D11*
%TO.C,R46*%
X241425000Y-110610000D03*
X239775000Y-110610000D03*
%TD*%
D12*
%TO.C,R45*%
X230060000Y-100500000D03*
X231710000Y-100500000D03*
%TD*%
D14*
%TO.C,C33*%
X231510000Y-93970000D03*
X231510000Y-95520000D03*
%TD*%
%TO.C,C57*%
X248500000Y-83950000D03*
X248500000Y-85500000D03*
%TD*%
D46*
%TO.C,U6*%
X230460000Y-114200000D03*
X228560000Y-114200000D03*
X229510000Y-112325000D03*
%TD*%
D14*
%TO.C,C15*%
X253210000Y-72685000D03*
X253210000Y-74235000D03*
%TD*%
D47*
%TO.C,U7*%
X242337500Y-105840000D03*
X242337500Y-106790000D03*
X242337500Y-107740000D03*
X240062500Y-107740000D03*
X240062500Y-106790000D03*
X240062500Y-105840000D03*
%TD*%
D43*
%TO.C,U2*%
X263500000Y-82500000D03*
X262550000Y-82500000D03*
X261600000Y-82500000D03*
X261600000Y-80225000D03*
X263500000Y-80225000D03*
%TD*%
D28*
%TO.C,C56*%
X231670000Y-102980000D03*
X230120000Y-102980000D03*
%TD*%
D12*
%TO.C,R13*%
X224045000Y-69270000D03*
X225695000Y-69270000D03*
%TD*%
D13*
%TO.C,C62*%
X251290000Y-96070000D03*
X251290000Y-94520000D03*
%TD*%
D48*
%TO.C,R4*%
X263600000Y-56425000D03*
X263600000Y-54775000D03*
%TD*%
D12*
%TO.C,R34*%
X264445000Y-91460000D03*
X266095000Y-91460000D03*
%TD*%
D28*
%TO.C,C27*%
X258555000Y-86490000D03*
X257005000Y-86490000D03*
%TD*%
D14*
%TO.C,C8*%
X223500000Y-54450000D03*
X223500000Y-56000000D03*
%TD*%
%TO.C,C38*%
X220480000Y-113225000D03*
X220480000Y-114775000D03*
%TD*%
D11*
%TO.C,R14*%
X231925000Y-67180000D03*
X230275000Y-67180000D03*
%TD*%
D28*
%TO.C,C51*%
X251885000Y-91420000D03*
X250335000Y-91420000D03*
%TD*%
D14*
%TO.C,C1*%
X270500000Y-57000000D03*
X270500000Y-58550000D03*
%TD*%
D28*
%TO.C,C63*%
X252000000Y-86500000D03*
X250450000Y-86500000D03*
%TD*%
D11*
%TO.C,R38*%
X227110000Y-112700000D03*
X225460000Y-112700000D03*
%TD*%
D14*
%TO.C,C11*%
X225500000Y-54450000D03*
X225500000Y-56000000D03*
%TD*%
M02*
